  0
SECTION
  2
HEADER
  9
$ACADVER
  1
AC1009
  9
$ANGDIR
  70
0
  9
$CECOLOR
  62
256
  9
$CELTYPE
  6
BYLAYER
  9
$EXTMIN
  10
0.0
  20
0.0
  9
$EXTMAX
  10
64.77
  20
58.42
  9
$FILLMODE
  70
1
  9
$MIRRTEXT
  70
0
  0
ENDSEC
  0
SECTION
  2
TABLES
  0
TABLE
  2
LAYER
  70
23
  0
LAYER
  2
Обводка_Bottom
  70
64
  62
23
  6
CONTINUOUS
  0
ENDTAB
  0
ENDSEC
  0
SECTION
  2
ENTITIES
  0
POLYLINE
  8
Обводка_Bottom
  6
CONTINUOUS
  66
1
  70
0
  40
1.0
  41
1.0
  0
VERTEX
  8
Обводка_Bottom
  10
-29.19
  20
5.6425
  42
0
  0
VERTEX
  8
Обводка_Bottom
  10
-29.19
  20
4.33
  42
0
  0
VERTEX
  8
Обводка_Bottom
  10
-29.1746
  20
4.1345
  42
0
  0
VERTEX
  8
Обводка_Bottom
  10
-29.1288
  20
3.9437
  42
0
  0
VERTEX
  8
Обводка_Bottom
  10
-29.0752
  20
3.8142
  42
0
  0
VERTEX
  8
Обводка_Bottom
  10
-29.1288
  20
3.6763
  42
0
  0
VERTEX
  8
Обводка_Bottom
  10
-29.1746
  20
3.4855
  42
0
  0
VERTEX
  8
Обводка_Bottom
  10
-29.19
  20
3.29
  42
0
  0
VERTEX
  8
Обводка_Bottom
  10
-29.19
  20
1.79
  42
0
  0
VERTEX
  8
Обводка_Bottom
  10
-29.1746
  20
1.5945
  42
0
  0
VERTEX
  8
Обводка_Bottom
  10
-29.1288
  20
1.4037
  42
0
  0
VERTEX
  8
Обводка_Bottom
  10
-29.0538
  20
1.2225
  42
0
  0
VERTEX
  8
Обводка_Bottom
  10
-28.9513
  20
1.0553
  42
0
  0
VERTEX
  8
Обводка_Bottom
  10
-28.8239
  20
0.9061
  42
0
  0
VERTEX
  8
Обводка_Bottom
  10
-28.6747
  20
0.7787
  42
0
  0
VERTEX
  8
Обводка_Bottom
  10
-28.5075
  20
0.6762
  42
0
  0
VERTEX
  8
Обводка_Bottom
  10
-28.3263
  20
0.6012
  42
0
  0
VERTEX
  8
Обводка_Bottom
  10
-28.1355
  20
0.5554
  42
0
  0
VERTEX
  8
Обводка_Bottom
  10
-27.94
  20
0.54
  42
0
  0
VERTEX
  8
Обводка_Bottom
  10
-27.7445
  20
0.5554
  42
0
  0
VERTEX
  8
Обводка_Bottom
  10
-27.5537
  20
0.6012
  42
0
  0
VERTEX
  8
Обводка_Bottom
  10
-27.3725
  20
0.6762
  42
0
  0
VERTEX
  8
Обводка_Bottom
  10
-27.2053
  20
0.7787
  42
0
  0
VERTEX
  8
Обводка_Bottom
  10
-27.0561
  20
0.9061
  42
0
  0
VERTEX
  8
Обводка_Bottom
  10
-26.9287
  20
1.0553
  42
0
  0
VERTEX
  8
Обводка_Bottom
  10
-26.8262
  20
1.2225
  42
0
  0
VERTEX
  8
Обводка_Bottom
  10
-26.7512
  20
1.4037
  42
0
  0
VERTEX
  8
Обводка_Bottom
  10
-26.7054
  20
1.5945
  42
0
  0
VERTEX
  8
Обводка_Bottom
  10
-26.69
  20
1.79
  42
0
  0
VERTEX
  8
Обводка_Bottom
  10
-26.69
  20
3.29
  42
0
  0
VERTEX
  8
Обводка_Bottom
  10
-26.7054
  20
3.4855
  42
0
  0
VERTEX
  8
Обводка_Bottom
  10
-26.7512
  20
3.6763
  42
0
  0
VERTEX
  8
Обводка_Bottom
  10
-26.8048
  20
3.8058
  42
0
  0
VERTEX
  8
Обводка_Bottom
  10
-26.7512
  20
3.9437
  42
0
  0
VERTEX
  8
Обводка_Bottom
  10
-26.7054
  20
4.1345
  42
0
  0
VERTEX
  8
Обводка_Bottom
  10
-26.69
  20
4.33
  42
0
  0
VERTEX
  8
Обводка_Bottom
  10
-26.69
  20
5.83
  42
0
  0
VERTEX
  8
Обводка_Bottom
  10
-26.7054
  20
6.0255
  42
0
  0
VERTEX
  8
Обводка_Bottom
  10
-26.7512
  20
6.2163
  42
0
  0
VERTEX
  8
Обводка_Bottom
  10
-26.8262
  20
6.3975
  42
0
  0
VERTEX
  8
Обводка_Bottom
  10
-26.9287
  20
6.5647
  42
0
  0
VERTEX
  8
Обводка_Bottom
  10
-27.0561
  20
6.7139
  42
0
  0
VERTEX
  8
Обводка_Bottom
  10
-27.2053
  20
6.8413
  42
0
  0
VERTEX
  8
Обводка_Bottom
  10
-27.3725
  20
6.9438
  42
0
  0
VERTEX
  8
Обводка_Bottom
  10
-27.5537
  20
7.0188
  42
0
  0
VERTEX
  8
Обводка_Bottom
  10
-27.7445
  20
7.0646
  42
0
  0
VERTEX
  8
Обводка_Bottom
  10
-27.94
  20
7.08
  42
0
  0
VERTEX
  8
Обводка_Bottom
  10
-28.1355
  20
7.0646
  42
0
  0
VERTEX
  8
Обводка_Bottom
  10
-28.3263
  20
7.0188
  42
0
  0
VERTEX
  8
Обводка_Bottom
  10
-28.5075
  20
6.9438
  42
0
  0
VERTEX
  8
Обводка_Bottom
  10
-28.6747
  20
6.8413
  42
0
  0
VERTEX
  8
Обводка_Bottom
  10
-28.8239
  20
6.7139
  42
0
  0
VERTEX
  8
Обводка_Bottom
  10
-28.9513
  20
6.5647
  42
0
  0
VERTEX
  8
Обводка_Bottom
  10
-29.0538
  20
6.3975
  42
0
  0
VERTEX
  8
Обводка_Bottom
  10
-29.1288
  20
6.2163
  42
0
  0
VERTEX
  8
Обводка_Bottom
  10
-29.1746
  20
6.0255
  42
0
  0
VERTEX
  8
Обводка_Bottom
  10
-29.19
  20
5.83
  42
0
  0
VERTEX
  8
Обводка_Bottom
  10
-29.19
  20
5.6425
  42
0
  0
SEQEND
  0
POLYLINE
  8
Обводка_Bottom
  6
CONTINUOUS
  66
1
  70
0
  40
1.0
  41
1.0
  0
VERTEX
  8
Обводка_Bottom
  10
-57.13
  20
5.6425
  42
0
  0
VERTEX
  8
Обводка_Bottom
  10
-57.13
  20
4.33
  42
0
  0
VERTEX
  8
Обводка_Bottom
  10
-57.1146
  20
4.1345
  42
0
  0
VERTEX
  8
Обводка_Bottom
  10
-57.0688
  20
3.9437
  42
0
  0
VERTEX
  8
Обводка_Bottom
  10
-56.9938
  20
3.7625
  42
0
  0
VERTEX
  8
Обводка_Bottom
  10
-56.8913
  20
3.5953
  42
0
  0
VERTEX
  8
Обводка_Bottom
  10
-56.7639
  20
3.4461
  42
0
  0
VERTEX
  8
Обводка_Bottom
  10
-56.6147
  20
3.3187
  42
0
  0
VERTEX
  8
Обводка_Bottom
  10
-56.4475
  20
3.2162
  42
0
  0
VERTEX
  8
Обводка_Bottom
  10
-56.2663
  20
3.1412
  42
0
  0
VERTEX
  8
Обводка_Bottom
  10
-56.0755
  20
3.0954
  42
0
  0
VERTEX
  8
Обводка_Bottom
  10
-55.88
  20
3.08
  42
0
  0
VERTEX
  8
Обводка_Bottom
  10
-55.6845
  20
3.0954
  42
0
  0
VERTEX
  8
Обводка_Bottom
  10
-55.4937
  20
3.1412
  42
0
  0
VERTEX
  8
Обводка_Bottom
  10
-55.3125
  20
3.2162
  42
0
  0
VERTEX
  8
Обводка_Bottom
  10
-55.1453
  20
3.3187
  42
0
  0
VERTEX
  8
Обводка_Bottom
  10
-54.9961
  20
3.4461
  42
0
  0
VERTEX
  8
Обводка_Bottom
  10
-54.8687
  20
3.5953
  42
0
  0
VERTEX
  8
Обводка_Bottom
  10
-54.7662
  20
3.7625
  42
0
  0
VERTEX
  8
Обводка_Bottom
  10
-54.6912
  20
3.9437
  42
0
  0
VERTEX
  8
Обводка_Bottom
  10
-54.6454
  20
4.1345
  42
0
  0
VERTEX
  8
Обводка_Bottom
  10
-54.63
  20
4.33
  42
0
  0
VERTEX
  8
Обводка_Bottom
  10
-54.63
  20
5.83
  42
0
  0
VERTEX
  8
Обводка_Bottom
  10
-54.6454
  20
6.0255
  42
0
  0
VERTEX
  8
Обводка_Bottom
  10
-54.6912
  20
6.2163
  42
0
  0
VERTEX
  8
Обводка_Bottom
  10
-54.7662
  20
6.3975
  42
0
  0
VERTEX
  8
Обводка_Bottom
  10
-54.8687
  20
6.5647
  42
0
  0
VERTEX
  8
Обводка_Bottom
  10
-54.9961
  20
6.7139
  42
0
  0
VERTEX
  8
Обводка_Bottom
  10
-55.1453
  20
6.8413
  42
0
  0
VERTEX
  8
Обводка_Bottom
  10
-55.3125
  20
6.9438
  42
0
  0
VERTEX
  8
Обводка_Bottom
  10
-55.4937
  20
7.0188
  42
0
  0
VERTEX
  8
Обводка_Bottom
  10
-55.6845
  20
7.0646
  42
0
  0
VERTEX
  8
Обводка_Bottom
  10
-55.88
  20
7.08
  42
0
  0
VERTEX
  8
Обводка_Bottom
  10
-56.0755
  20
7.0646
  42
0
  0
VERTEX
  8
Обводка_Bottom
  10
-56.2663
  20
7.0188
  42
0
  0
VERTEX
  8
Обводка_Bottom
  10
-56.4475
  20
6.9438
  42
0
  0
VERTEX
  8
Обводка_Bottom
  10
-56.6147
  20
6.8413
  42
0
  0
VERTEX
  8
Обводка_Bottom
  10
-56.7639
  20
6.7139
  42
0
  0
VERTEX
  8
Обводка_Bottom
  10
-56.8913
  20
6.5647
  42
0
  0
VERTEX
  8
Обводка_Bottom
  10
-56.9938
  20
6.3975
  42
0
  0
VERTEX
  8
Обводка_Bottom
  10
-57.0688
  20
6.2163
  42
0
  0
VERTEX
  8
Обводка_Bottom
  10
-57.1146
  20
6.0255
  42
0
  0
VERTEX
  8
Обводка_Bottom
  10
-57.13
  20
5.83
  42
0
  0
VERTEX
  8
Обводка_Bottom
  10
-57.13
  20
5.6425
  42
0
  0
SEQEND
  0
POLYLINE
  8
Обводка_Bottom
  6
CONTINUOUS
  66
1
  70
0
  40
1.0
  41
1.0
  0
VERTEX
  8
Обводка_Bottom
  10
-54.59
  20
5.6425
  42
0
  0
VERTEX
  8
Обводка_Bottom
  10
-54.59
  20
4.33
  42
0
  0
VERTEX
  8
Обводка_Bottom
  10
-54.5746
  20
4.1345
  42
0
  0
VERTEX
  8
Обводка_Bottom
  10
-54.5288
  20
3.9437
  42
0
  0
VERTEX
  8
Обводка_Bottom
  10
-54.4538
  20
3.7625
  42
0
  0
VERTEX
  8
Обводка_Bottom
  10
-54.3513
  20
3.5953
  42
0
  0
VERTEX
  8
Обводка_Bottom
  10
-54.2239
  20
3.4461
  42
0
  0
VERTEX
  8
Обводка_Bottom
  10
-54.0747
  20
3.3187
  42
0
  0
VERTEX
  8
Обводка_Bottom
  10
-53.9075
  20
3.2162
  42
0
  0
VERTEX
  8
Обводка_Bottom
  10
-53.7263
  20
3.1412
  42
0
  0
VERTEX
  8
Обводка_Bottom
  10
-53.5355
  20
3.0954
  42
0
  0
VERTEX
  8
Обводка_Bottom
  10
-53.34
  20
3.08
  42
0
  0
VERTEX
  8
Обводка_Bottom
  10
-53.1445
  20
3.0954
  42
0
  0
VERTEX
  8
Обводка_Bottom
  10
-52.9537
  20
3.1412
  42
0
  0
VERTEX
  8
Обводка_Bottom
  10
-52.7725
  20
3.2162
  42
0
  0
VERTEX
  8
Обводка_Bottom
  10
-52.6053
  20
3.3187
  42
0
  0
VERTEX
  8
Обводка_Bottom
  10
-52.4561
  20
3.4461
  42
0
  0
VERTEX
  8
Обводка_Bottom
  10
-52.3287
  20
3.5953
  42
0
  0
VERTEX
  8
Обводка_Bottom
  10
-52.2262
  20
3.7625
  42
0
  0
VERTEX
  8
Обводка_Bottom
  10
-52.1512
  20
3.9437
  42
0
  0
VERTEX
  8
Обводка_Bottom
  10
-52.1054
  20
4.1345
  42
0
  0
VERTEX
  8
Обводка_Bottom
  10
-52.09
  20
4.33
  42
0
  0
VERTEX
  8
Обводка_Bottom
  10
-52.09
  20
5.83
  42
0
  0
VERTEX
  8
Обводка_Bottom
  10
-52.1054
  20
6.0255
  42
0
  0
VERTEX
  8
Обводка_Bottom
  10
-52.1512
  20
6.2163
  42
0
  0
VERTEX
  8
Обводка_Bottom
  10
-52.2262
  20
6.3975
  42
0
  0
VERTEX
  8
Обводка_Bottom
  10
-52.3287
  20
6.5647
  42
0
  0
VERTEX
  8
Обводка_Bottom
  10
-52.4561
  20
6.7139
  42
0
  0
VERTEX
  8
Обводка_Bottom
  10
-52.6053
  20
6.8413
  42
0
  0
VERTEX
  8
Обводка_Bottom
  10
-52.7725
  20
6.9438
  42
0
  0
VERTEX
  8
Обводка_Bottom
  10
-52.9537
  20
7.0188
  42
0
  0
VERTEX
  8
Обводка_Bottom
  10
-53.1445
  20
7.0646
  42
0
  0
VERTEX
  8
Обводка_Bottom
  10
-53.34
  20
7.08
  42
0
  0
VERTEX
  8
Обводка_Bottom
  10
-53.5355
  20
7.0646
  42
0
  0
VERTEX
  8
Обводка_Bottom
  10
-53.7263
  20
7.0188
  42
0
  0
VERTEX
  8
Обводка_Bottom
  10
-53.9075
  20
6.9438
  42
0
  0
VERTEX
  8
Обводка_Bottom
  10
-54.0747
  20
6.8413
  42
0
  0
VERTEX
  8
Обводка_Bottom
  10
-54.2239
  20
6.7139
  42
0
  0
VERTEX
  8
Обводка_Bottom
  10
-54.3513
  20
6.5647
  42
0
  0
VERTEX
  8
Обводка_Bottom
  10
-54.4538
  20
6.3975
  42
0
  0
VERTEX
  8
Обводка_Bottom
  10
-54.5288
  20
6.2163
  42
0
  0
VERTEX
  8
Обводка_Bottom
  10
-54.5746
  20
6.0255
  42
0
  0
VERTEX
  8
Обводка_Bottom
  10
-54.59
  20
5.83
  42
0
  0
VERTEX
  8
Обводка_Bottom
  10
-54.59
  20
5.6425
  42
0
  0
SEQEND
  0
POLYLINE
  8
Обводка_Bottom
  6
CONTINUOUS
  66
1
  70
0
  40
1.0
  41
1.0
  0
VERTEX
  8
Обводка_Bottom
  10
-52.05
  20
5.6425
  42
0
  0
VERTEX
  8
Обводка_Bottom
  10
-52.05
  20
4.33
  42
0
  0
VERTEX
  8
Обводка_Bottom
  10
-52.0346
  20
4.1345
  42
0
  0
VERTEX
  8
Обводка_Bottom
  10
-51.9888
  20
3.9437
  42
0
  0
VERTEX
  8
Обводка_Bottom
  10
-51.9138
  20
3.7625
  42
0
  0
VERTEX
  8
Обводка_Bottom
  10
-51.8113
  20
3.5953
  42
0
  0
VERTEX
  8
Обводка_Bottom
  10
-51.6839
  20
3.4461
  42
0
  0
VERTEX
  8
Обводка_Bottom
  10
-51.5347
  20
3.3187
  42
0
  0
VERTEX
  8
Обводка_Bottom
  10
-51.3675
  20
3.2162
  42
0
  0
VERTEX
  8
Обводка_Bottom
  10
-51.1863
  20
3.1412
  42
0
  0
VERTEX
  8
Обводка_Bottom
  10
-50.9955
  20
3.0954
  42
0
  0
VERTEX
  8
Обводка_Bottom
  10
-50.8
  20
3.08
  42
0
  0
VERTEX
  8
Обводка_Bottom
  10
-50.6045
  20
3.0954
  42
0
  0
VERTEX
  8
Обводка_Bottom
  10
-50.4137
  20
3.1412
  42
0
  0
VERTEX
  8
Обводка_Bottom
  10
-50.2325
  20
3.2162
  42
0
  0
VERTEX
  8
Обводка_Bottom
  10
-50.0653
  20
3.3187
  42
0
  0
VERTEX
  8
Обводка_Bottom
  10
-49.9161
  20
3.4461
  42
0
  0
VERTEX
  8
Обводка_Bottom
  10
-49.7887
  20
3.5953
  42
0
  0
VERTEX
  8
Обводка_Bottom
  10
-49.6862
  20
3.7625
  42
0
  0
VERTEX
  8
Обводка_Bottom
  10
-49.6112
  20
3.9437
  42
0
  0
VERTEX
  8
Обводка_Bottom
  10
-49.5654
  20
4.1345
  42
0
  0
VERTEX
  8
Обводка_Bottom
  10
-49.55
  20
4.33
  42
0
  0
VERTEX
  8
Обводка_Bottom
  10
-49.55
  20
5.83
  42
0
  0
VERTEX
  8
Обводка_Bottom
  10
-49.5654
  20
6.0255
  42
0
  0
VERTEX
  8
Обводка_Bottom
  10
-49.6112
  20
6.2163
  42
0
  0
VERTEX
  8
Обводка_Bottom
  10
-49.6862
  20
6.3975
  42
0
  0
VERTEX
  8
Обводка_Bottom
  10
-49.7887
  20
6.5647
  42
0
  0
VERTEX
  8
Обводка_Bottom
  10
-49.9161
  20
6.7139
  42
0
  0
VERTEX
  8
Обводка_Bottom
  10
-50.0653
  20
6.8413
  42
0
  0
VERTEX
  8
Обводка_Bottom
  10
-50.2325
  20
6.9438
  42
0
  0
VERTEX
  8
Обводка_Bottom
  10
-50.4137
  20
7.0188
  42
0
  0
VERTEX
  8
Обводка_Bottom
  10
-50.6045
  20
7.0646
  42
0
  0
VERTEX
  8
Обводка_Bottom
  10
-50.8
  20
7.08
  42
0
  0
VERTEX
  8
Обводка_Bottom
  10
-50.9955
  20
7.0646
  42
0
  0
VERTEX
  8
Обводка_Bottom
  10
-51.1863
  20
7.0188
  42
0
  0
VERTEX
  8
Обводка_Bottom
  10
-51.3675
  20
6.9438
  42
0
  0
VERTEX
  8
Обводка_Bottom
  10
-51.5347
  20
6.8413
  42
0
  0
VERTEX
  8
Обводка_Bottom
  10
-51.6839
  20
6.7139
  42
0
  0
VERTEX
  8
Обводка_Bottom
  10
-51.8113
  20
6.5647
  42
0
  0
VERTEX
  8
Обводка_Bottom
  10
-51.9138
  20
6.3975
  42
0
  0
VERTEX
  8
Обводка_Bottom
  10
-51.9888
  20
6.2163
  42
0
  0
VERTEX
  8
Обводка_Bottom
  10
-52.0346
  20
6.0255
  42
0
  0
VERTEX
  8
Обводка_Bottom
  10
-52.05
  20
5.83
  42
0
  0
VERTEX
  8
Обводка_Bottom
  10
-52.05
  20
5.6425
  42
0
  0
SEQEND
  0
POLYLINE
  8
Обводка_Bottom
  6
CONTINUOUS
  66
1
  70
0
  40
1.0
  41
1.0
  0
VERTEX
  8
Обводка_Bottom
  10
-49.51
  20
5.6425
  42
0
  0
VERTEX
  8
Обводка_Bottom
  10
-49.51
  20
4.33
  42
0
  0
VERTEX
  8
Обводка_Bottom
  10
-49.4946
  20
4.1345
  42
0
  0
VERTEX
  8
Обводка_Bottom
  10
-49.4488
  20
3.9437
  42
0
  0
VERTEX
  8
Обводка_Bottom
  10
-49.3738
  20
3.7625
  42
0
  0
VERTEX
  8
Обводка_Bottom
  10
-49.2713
  20
3.5953
  42
0
  0
VERTEX
  8
Обводка_Bottom
  10
-49.1439
  20
3.4461
  42
0
  0
VERTEX
  8
Обводка_Bottom
  10
-48.9947
  20
3.3187
  42
0
  0
VERTEX
  8
Обводка_Bottom
  10
-48.8275
  20
3.2162
  42
0
  0
VERTEX
  8
Обводка_Bottom
  10
-48.6463
  20
3.1412
  42
0
  0
VERTEX
  8
Обводка_Bottom
  10
-48.4555
  20
3.0954
  42
0
  0
VERTEX
  8
Обводка_Bottom
  10
-48.26
  20
3.08
  42
0
  0
VERTEX
  8
Обводка_Bottom
  10
-48.0645
  20
3.0954
  42
0
  0
VERTEX
  8
Обводка_Bottom
  10
-47.8737
  20
3.1412
  42
0
  0
VERTEX
  8
Обводка_Bottom
  10
-47.6925
  20
3.2162
  42
0
  0
VERTEX
  8
Обводка_Bottom
  10
-47.5253
  20
3.3187
  42
0
  0
VERTEX
  8
Обводка_Bottom
  10
-47.3761
  20
3.4461
  42
0
  0
VERTEX
  8
Обводка_Bottom
  10
-47.2487
  20
3.5953
  42
0
  0
VERTEX
  8
Обводка_Bottom
  10
-47.1462
  20
3.7625
  42
0
  0
VERTEX
  8
Обводка_Bottom
  10
-47.0712
  20
3.9437
  42
0
  0
VERTEX
  8
Обводка_Bottom
  10
-47.0254
  20
4.1345
  42
0
  0
VERTEX
  8
Обводка_Bottom
  10
-47.01
  20
4.33
  42
0
  0
VERTEX
  8
Обводка_Bottom
  10
-47.01
  20
5.83
  42
0
  0
VERTEX
  8
Обводка_Bottom
  10
-47.0254
  20
6.0255
  42
0
  0
VERTEX
  8
Обводка_Bottom
  10
-47.0712
  20
6.2163
  42
0
  0
VERTEX
  8
Обводка_Bottom
  10
-47.1462
  20
6.3975
  42
0
  0
VERTEX
  8
Обводка_Bottom
  10
-47.2487
  20
6.5647
  42
0
  0
VERTEX
  8
Обводка_Bottom
  10
-47.3761
  20
6.7139
  42
0
  0
VERTEX
  8
Обводка_Bottom
  10
-47.5253
  20
6.8413
  42
0
  0
VERTEX
  8
Обводка_Bottom
  10
-47.6925
  20
6.9438
  42
0
  0
VERTEX
  8
Обводка_Bottom
  10
-47.8737
  20
7.0188
  42
0
  0
VERTEX
  8
Обводка_Bottom
  10
-48.0645
  20
7.0646
  42
0
  0
VERTEX
  8
Обводка_Bottom
  10
-48.26
  20
7.08
  42
0
  0
VERTEX
  8
Обводка_Bottom
  10
-48.4555
  20
7.0646
  42
0
  0
VERTEX
  8
Обводка_Bottom
  10
-48.6463
  20
7.0188
  42
0
  0
VERTEX
  8
Обводка_Bottom
  10
-48.8275
  20
6.9438
  42
0
  0
VERTEX
  8
Обводка_Bottom
  10
-48.9947
  20
6.8413
  42
0
  0
VERTEX
  8
Обводка_Bottom
  10
-49.1439
  20
6.7139
  42
0
  0
VERTEX
  8
Обводка_Bottom
  10
-49.2713
  20
6.5647
  42
0
  0
VERTEX
  8
Обводка_Bottom
  10
-49.3738
  20
6.3975
  42
0
  0
VERTEX
  8
Обводка_Bottom
  10
-49.4488
  20
6.2163
  42
0
  0
VERTEX
  8
Обводка_Bottom
  10
-49.4946
  20
6.0255
  42
0
  0
VERTEX
  8
Обводка_Bottom
  10
-49.51
  20
5.83
  42
0
  0
VERTEX
  8
Обводка_Bottom
  10
-49.51
  20
5.6425
  42
0
  0
SEQEND
  0
POLYLINE
  8
Обводка_Bottom
  6
CONTINUOUS
  66
1
  70
0
  40
1.0
  41
1.0
  0
VERTEX
  8
Обводка_Bottom
  10
-46.97
  20
5.6425
  42
0
  0
VERTEX
  8
Обводка_Bottom
  10
-46.97
  20
4.33
  42
0
  0
VERTEX
  8
Обводка_Bottom
  10
-46.9546
  20
4.1345
  42
0
  0
VERTEX
  8
Обводка_Bottom
  10
-46.9088
  20
3.9437
  42
0
  0
VERTEX
  8
Обводка_Bottom
  10
-46.8338
  20
3.7625
  42
0
  0
VERTEX
  8
Обводка_Bottom
  10
-46.7313
  20
3.5953
  42
0
  0
VERTEX
  8
Обводка_Bottom
  10
-46.6039
  20
3.4461
  42
0
  0
VERTEX
  8
Обводка_Bottom
  10
-46.4547
  20
3.3187
  42
0
  0
VERTEX
  8
Обводка_Bottom
  10
-46.2875
  20
3.2162
  42
0
  0
VERTEX
  8
Обводка_Bottom
  10
-46.1063
  20
3.1412
  42
0
  0
VERTEX
  8
Обводка_Bottom
  10
-45.9155
  20
3.0954
  42
0
  0
VERTEX
  8
Обводка_Bottom
  10
-45.72
  20
3.08
  42
0
  0
VERTEX
  8
Обводка_Bottom
  10
-45.5245
  20
3.0954
  42
0
  0
VERTEX
  8
Обводка_Bottom
  10
-45.3337
  20
3.1412
  42
0
  0
VERTEX
  8
Обводка_Bottom
  10
-45.1525
  20
3.2162
  42
0
  0
VERTEX
  8
Обводка_Bottom
  10
-44.9853
  20
3.3187
  42
0
  0
VERTEX
  8
Обводка_Bottom
  10
-44.8361
  20
3.4461
  42
0
  0
VERTEX
  8
Обводка_Bottom
  10
-44.7087
  20
3.5953
  42
0
  0
VERTEX
  8
Обводка_Bottom
  10
-44.6062
  20
3.7625
  42
0
  0
VERTEX
  8
Обводка_Bottom
  10
-44.5312
  20
3.9437
  42
0
  0
VERTEX
  8
Обводка_Bottom
  10
-44.4854
  20
4.1345
  42
0
  0
VERTEX
  8
Обводка_Bottom
  10
-44.47
  20
4.33
  42
0
  0
VERTEX
  8
Обводка_Bottom
  10
-44.47
  20
5.83
  42
0
  0
VERTEX
  8
Обводка_Bottom
  10
-44.4854
  20
6.0255
  42
0
  0
VERTEX
  8
Обводка_Bottom
  10
-44.5312
  20
6.2163
  42
0
  0
VERTEX
  8
Обводка_Bottom
  10
-44.6062
  20
6.3975
  42
0
  0
VERTEX
  8
Обводка_Bottom
  10
-44.7087
  20
6.5647
  42
0
  0
VERTEX
  8
Обводка_Bottom
  10
-44.8361
  20
6.7139
  42
0
  0
VERTEX
  8
Обводка_Bottom
  10
-44.9853
  20
6.8413
  42
0
  0
VERTEX
  8
Обводка_Bottom
  10
-45.1525
  20
6.9438
  42
0
  0
VERTEX
  8
Обводка_Bottom
  10
-45.3337
  20
7.0188
  42
0
  0
VERTEX
  8
Обводка_Bottom
  10
-45.5245
  20
7.0646
  42
0
  0
VERTEX
  8
Обводка_Bottom
  10
-45.72
  20
7.08
  42
0
  0
VERTEX
  8
Обводка_Bottom
  10
-45.9155
  20
7.0646
  42
0
  0
VERTEX
  8
Обводка_Bottom
  10
-46.1063
  20
7.0188
  42
0
  0
VERTEX
  8
Обводка_Bottom
  10
-46.2875
  20
6.9438
  42
0
  0
VERTEX
  8
Обводка_Bottom
  10
-46.4547
  20
6.8413
  42
0
  0
VERTEX
  8
Обводка_Bottom
  10
-46.6039
  20
6.7139
  42
0
  0
VERTEX
  8
Обводка_Bottom
  10
-46.7313
  20
6.5647
  42
0
  0
VERTEX
  8
Обводка_Bottom
  10
-46.8338
  20
6.3975
  42
0
  0
VERTEX
  8
Обводка_Bottom
  10
-46.9088
  20
6.2163
  42
0
  0
VERTEX
  8
Обводка_Bottom
  10
-46.9546
  20
6.0255
  42
0
  0
VERTEX
  8
Обводка_Bottom
  10
-46.97
  20
5.83
  42
0
  0
VERTEX
  8
Обводка_Bottom
  10
-46.97
  20
5.6425
  42
0
  0
SEQEND
  0
POLYLINE
  8
Обводка_Bottom
  6
CONTINUOUS
  66
1
  70
0
  40
1.0
  41
1.0
  0
VERTEX
  8
Обводка_Bottom
  10
-44.43
  20
5.205
  42
0
  0
VERTEX
  8
Обводка_Bottom
  10
-44.43
  20
4.83
  42
0
  0
VERTEX
  8
Обводка_Bottom
  10
-44.4146
  20
4.6345
  42
0
  0
VERTEX
  8
Обводка_Bottom
  10
-44.3688
  20
4.4437
  42
0
  0
VERTEX
  8
Обводка_Bottom
  10
-44.2938
  20
4.2625
  42
0
  0
VERTEX
  8
Обводка_Bottom
  10
-44.1913
  20
4.0953
  42
0
  0
VERTEX
  8
Обводка_Bottom
  10
-44.0639
  20
3.9461
  42
0
  0
VERTEX
  8
Обводка_Bottom
  10
-43.9147
  20
3.8187
  42
0
  0
VERTEX
  8
Обводка_Bottom
  10
-43.7475
  20
3.7162
  42
0
  0
VERTEX
  8
Обводка_Bottom
  10
-43.5663
  20
3.6412
  42
0
  0
VERTEX
  8
Обводка_Bottom
  10
-43.3755
  20
3.5954
  42
0
  0
VERTEX
  8
Обводка_Bottom
  10
-43.18
  20
3.58
  42
0
  0
VERTEX
  8
Обводка_Bottom
  10
-42.9845
  20
3.5954
  42
0
  0
VERTEX
  8
Обводка_Bottom
  10
-42.7937
  20
3.6412
  42
0
  0
VERTEX
  8
Обводка_Bottom
  10
-42.6125
  20
3.7162
  42
0
  0
VERTEX
  8
Обводка_Bottom
  10
-42.4453
  20
3.8187
  42
0
  0
VERTEX
  8
Обводка_Bottom
  10
-42.2961
  20
3.9461
  42
0
  0
VERTEX
  8
Обводка_Bottom
  10
-42.1687
  20
4.0953
  42
0
  0
VERTEX
  8
Обводка_Bottom
  10
-42.0662
  20
4.2625
  42
0
  0
VERTEX
  8
Обводка_Bottom
  10
-41.9912
  20
4.4437
  42
0
  0
VERTEX
  8
Обводка_Bottom
  10
-41.9454
  20
4.6345
  42
0
  0
VERTEX
  8
Обводка_Bottom
  10
-41.93
  20
4.955
  42
0
  0
VERTEX
  8
Обводка_Bottom
  10
-41.93
  20
5.33
  42
0
  0
VERTEX
  8
Обводка_Bottom
  10
-41.9454
  20
5.5255
  42
0
  0
VERTEX
  8
Обводка_Bottom
  10
-41.9912
  20
5.7163
  42
0
  0
VERTEX
  8
Обводка_Bottom
  10
-42.0662
  20
5.8975
  42
0
  0
VERTEX
  8
Обводка_Bottom
  10
-42.1687
  20
6.0647
  42
0
  0
VERTEX
  8
Обводка_Bottom
  10
-42.2961
  20
6.2139
  42
0
  0
VERTEX
  8
Обводка_Bottom
  10
-42.4453
  20
6.3413
  42
0
  0
VERTEX
  8
Обводка_Bottom
  10
-42.6125
  20
6.4438
  42
0
  0
VERTEX
  8
Обводка_Bottom
  10
-42.7937
  20
6.5188
  42
0
  0
VERTEX
  8
Обводка_Bottom
  10
-42.9845
  20
6.5646
  42
0
  0
VERTEX
  8
Обводка_Bottom
  10
-43.18
  20
6.58
  42
0
  0
VERTEX
  8
Обводка_Bottom
  10
-43.3755
  20
6.5646
  42
0
  0
VERTEX
  8
Обводка_Bottom
  10
-43.5663
  20
6.5188
  42
0
  0
VERTEX
  8
Обводка_Bottom
  10
-43.7475
  20
6.4438
  42
0
  0
VERTEX
  8
Обводка_Bottom
  10
-43.9147
  20
6.3413
  42
0
  0
VERTEX
  8
Обводка_Bottom
  10
-44.0639
  20
6.2139
  42
0
  0
VERTEX
  8
Обводка_Bottom
  10
-44.1913
  20
6.0647
  42
0
  0
VERTEX
  8
Обводка_Bottom
  10
-44.2938
  20
5.8975
  42
0
  0
VERTEX
  8
Обводка_Bottom
  10
-44.3688
  20
5.7163
  42
0
  0
VERTEX
  8
Обводка_Bottom
  10
-44.4146
  20
5.5255
  42
0
  0
VERTEX
  8
Обводка_Bottom
  10
-44.43
  20
5.205
  42
0
  0
SEQEND
  0
POLYLINE
  8
Обводка_Bottom
  6
CONTINUOUS
  66
1
  70
0
  40
1.0
  41
1.0
  0
VERTEX
  8
Обводка_Bottom
  10
-35.2352
  20
53.9025
  42
0
  0
VERTEX
  8
Обводка_Bottom
  10
-35.2352
  20
46.6852
  42
0
  0
VERTEX
  8
Обводка_Bottom
  10
-35.2198
  20
46.4897
  42
0
  0
VERTEX
  8
Обводка_Bottom
  10
-35.174
  20
46.2989
  42
0
  0
VERTEX
  8
Обводка_Bottom
  10
-35.099
  20
46.1177
  42
0
  0
VERTEX
  8
Обводка_Bottom
  10
-34.9965
  20
45.9505
  42
0
  0
VERTEX
  8
Обводка_Bottom
  10
-34.8685
  20
45.8008
  42
0
  0
VERTEX
  8
Обводка_Bottom
  10
-26.2839
  20
37.2161
  42
0
  0
VERTEX
  8
Обводка_Bottom
  10
-26.1347
  20
37.0887
  42
0
  0
VERTEX
  8
Обводка_Bottom
  10
-25.9675
  20
36.9862
  42
0
  0
VERTEX
  8
Обводка_Bottom
  10
-25.7863
  20
36.9112
  42
0
  0
VERTEX
  8
Обводка_Bottom
  10
-25.5955
  20
36.8654
  42
0
  0
VERTEX
  8
Обводка_Bottom
  10
-25.3992
  20
36.8501
  42
0
  0
VERTEX
  8
Обводка_Bottom
  10
-1.27
  20
36.85
  42
0
  0
VERTEX
  8
Обводка_Bottom
  10
-1.0745
  20
36.8654
  42
0
  0
VERTEX
  8
Обводка_Bottom
  10
-0.8837
  20
36.9112
  42
0
  0
VERTEX
  8
Обводка_Bottom
  10
-0.7025
  20
36.9862
  42
0
  0
VERTEX
  8
Обводка_Bottom
  10
-0.5353
  20
37.0887
  42
0
  0
VERTEX
  8
Обводка_Bottom
  10
-0.3861
  20
37.2161
  42
0
  0
VERTEX
  8
Обводка_Bottom
  10
-0.2587
  20
37.3653
  42
0
  0
VERTEX
  8
Обводка_Bottom
  10
-0.1562
  20
37.5325
  42
0
  0
VERTEX
  8
Обводка_Bottom
  10
-0.0812
  20
37.7137
  42
0
  0
VERTEX
  8
Обводка_Bottom
  10
-0.0354
  20
37.9045
  42
0
  0
VERTEX
  8
Обводка_Bottom
  10
-0.02
  20
38.1
  42
0
  0
VERTEX
  8
Обводка_Bottom
  10
-0.0354
  20
38.2955
  42
0
  0
VERTEX
  8
Обводка_Bottom
  10
-0.0812
  20
38.4863
  42
0
  0
VERTEX
  8
Обводка_Bottom
  10
-0.1562
  20
38.6675
  42
0
  0
VERTEX
  8
Обводка_Bottom
  10
-0.2587
  20
38.8347
  42
0
  0
VERTEX
  8
Обводка_Bottom
  10
-0.3861
  20
38.9839
  42
0
  0
VERTEX
  8
Обводка_Bottom
  10
-0.5353
  20
39.1113
  42
0
  0
VERTEX
  8
Обводка_Bottom
  10
-0.7025
  20
39.2138
  42
0
  0
VERTEX
  8
Обводка_Bottom
  10
-0.8837
  20
39.2888
  42
0
  0
VERTEX
  8
Обводка_Bottom
  10
-1.0745
  20
39.3346
  42
0
  0
VERTEX
  8
Обводка_Bottom
  10
-1.27
  20
39.35
  42
0
  0
VERTEX
  8
Обводка_Bottom
  10
-24.8826
  20
39.35
  42
0
  0
VERTEX
  8
Обводка_Bottom
  10
-32.7349
  20
47.2027
  42
0
  0
VERTEX
  8
Обводка_Bottom
  10
-32.7352
  20
54.09
  42
0
  0
VERTEX
  8
Обводка_Bottom
  10
-32.7506
  20
54.2855
  42
0
  0
VERTEX
  8
Обводка_Bottom
  10
-32.7964
  20
54.4763
  42
0
  0
VERTEX
  8
Обводка_Bottom
  10
-32.8714
  20
54.6575
  42
0
  0
VERTEX
  8
Обводка_Bottom
  10
-32.9739
  20
54.8247
  42
0
  0
VERTEX
  8
Обводка_Bottom
  10
-33.1013
  20
54.9739
  42
0
  0
VERTEX
  8
Обводка_Bottom
  10
-33.2505
  20
55.1013
  42
0
  0
VERTEX
  8
Обводка_Bottom
  10
-33.4177
  20
55.2038
  42
0
  0
VERTEX
  8
Обводка_Bottom
  10
-33.5989
  20
55.2788
  42
0
  0
VERTEX
  8
Обводка_Bottom
  10
-33.7897
  20
55.3246
  42
0
  0
VERTEX
  8
Обводка_Bottom
  10
-33.9852
  20
55.34
  42
0
  0
VERTEX
  8
Обводка_Bottom
  10
-34.1807
  20
55.3246
  42
0
  0
VERTEX
  8
Обводка_Bottom
  10
-34.3715
  20
55.2788
  42
0
  0
VERTEX
  8
Обводка_Bottom
  10
-34.5527
  20
55.2038
  42
0
  0
VERTEX
  8
Обводка_Bottom
  10
-34.7199
  20
55.1013
  42
0
  0
VERTEX
  8
Обводка_Bottom
  10
-34.8691
  20
54.9739
  42
0
  0
VERTEX
  8
Обводка_Bottom
  10
-34.9965
  20
54.8247
  42
0
  0
VERTEX
  8
Обводка_Bottom
  10
-35.099
  20
54.6575
  42
0
  0
VERTEX
  8
Обводка_Bottom
  10
-35.174
  20
54.4763
  42
0
  0
VERTEX
  8
Обводка_Bottom
  10
-35.2198
  20
54.2855
  42
0
  0
VERTEX
  8
Обводка_Bottom
  10
-35.2352
  20
54.09
  42
0
  0
VERTEX
  8
Обводка_Bottom
  10
-35.2352
  20
53.9025
  42
0
  0
SEQEND
  0
POLYLINE
  8
Обводка_Bottom
  6
CONTINUOUS
  66
1
  70
0
  40
1.0
  41
1.0
  0
VERTEX
  8
Обводка_Bottom
  10
-32.6952
  20
53.9025
  42
0
  0
VERTEX
  8
Обводка_Bottom
  10
-32.6952
  20
47.9552
  42
0
  0
VERTEX
  8
Обводка_Bottom
  10
-32.6798
  20
47.7597
  42
0
  0
VERTEX
  8
Обводка_Bottom
  10
-32.634
  20
47.5689
  42
0
  0
VERTEX
  8
Обводка_Bottom
  10
-32.559
  20
47.3877
  42
0
  0
VERTEX
  8
Обводка_Bottom
  10
-32.4565
  20
47.2205
  42
0
  0
VERTEX
  8
Обводка_Bottom
  10
-32.3285
  20
47.0708
  42
0
  0
VERTEX
  8
Обводка_Bottom
  10
-25.0139
  20
39.7561
  42
0
  0
VERTEX
  8
Обводка_Bottom
  10
-24.8647
  20
39.6287
  42
0
  0
VERTEX
  8
Обводка_Bottom
  10
-24.6975
  20
39.5262
  42
0
  0
VERTEX
  8
Обводка_Bottom
  10
-24.5163
  20
39.4512
  42
0
  0
VERTEX
  8
Обводка_Bottom
  10
-24.3255
  20
39.4054
  42
0
  0
VERTEX
  8
Обводка_Bottom
  10
-24.1292
  20
39.3901
  42
0
  0
VERTEX
  8
Обводка_Bottom
  10
-1.27
  20
39.39
  42
0
  0
VERTEX
  8
Обводка_Bottom
  10
-1.0745
  20
39.4054
  42
0
  0
VERTEX
  8
Обводка_Bottom
  10
-0.8837
  20
39.4512
  42
0
  0
VERTEX
  8
Обводка_Bottom
  10
-0.7025
  20
39.5262
  42
0
  0
VERTEX
  8
Обводка_Bottom
  10
-0.5353
  20
39.6287
  42
0
  0
VERTEX
  8
Обводка_Bottom
  10
-0.3861
  20
39.7561
  42
0
  0
VERTEX
  8
Обводка_Bottom
  10
-0.2587
  20
39.9053
  42
0
  0
VERTEX
  8
Обводка_Bottom
  10
-0.1562
  20
40.0725
  42
0
  0
VERTEX
  8
Обводка_Bottom
  10
-0.0812
  20
40.2537
  42
0
  0
VERTEX
  8
Обводка_Bottom
  10
-0.0354
  20
40.4445
  42
0
  0
VERTEX
  8
Обводка_Bottom
  10
-0.02
  20
40.64
  42
0
  0
VERTEX
  8
Обводка_Bottom
  10
-0.0354
  20
40.8355
  42
0
  0
VERTEX
  8
Обводка_Bottom
  10
-0.0812
  20
41.0263
  42
0
  0
VERTEX
  8
Обводка_Bottom
  10
-0.1562
  20
41.2075
  42
0
  0
VERTEX
  8
Обводка_Bottom
  10
-0.2587
  20
41.3747
  42
0
  0
VERTEX
  8
Обводка_Bottom
  10
-0.3861
  20
41.5239
  42
0
  0
VERTEX
  8
Обводка_Bottom
  10
-0.5353
  20
41.6513
  42
0
  0
VERTEX
  8
Обводка_Bottom
  10
-0.7025
  20
41.7538
  42
0
  0
VERTEX
  8
Обводка_Bottom
  10
-0.8837
  20
41.8288
  42
0
  0
VERTEX
  8
Обводка_Bottom
  10
-1.0745
  20
41.8746
  42
0
  0
VERTEX
  8
Обводка_Bottom
  10
-1.27
  20
41.89
  42
0
  0
VERTEX
  8
Обводка_Bottom
  10
-23.6119
  20
41.89
  42
0
  0
VERTEX
  8
Обводка_Bottom
  10
-30.1955
  20
48.4732
  42
0
  0
VERTEX
  8
Обводка_Bottom
  10
-30.1952
  20
54.09
  42
0
  0
VERTEX
  8
Обводка_Bottom
  10
-30.2106
  20
54.2855
  42
0
  0
VERTEX
  8
Обводка_Bottom
  10
-30.2564
  20
54.4763
  42
0
  0
VERTEX
  8
Обводка_Bottom
  10
-30.3314
  20
54.6575
  42
0
  0
VERTEX
  8
Обводка_Bottom
  10
-30.4339
  20
54.8247
  42
0
  0
VERTEX
  8
Обводка_Bottom
  10
-30.5613
  20
54.9739
  42
0
  0
VERTEX
  8
Обводка_Bottom
  10
-30.7105
  20
55.1013
  42
0
  0
VERTEX
  8
Обводка_Bottom
  10
-30.8777
  20
55.2038
  42
0
  0
VERTEX
  8
Обводка_Bottom
  10
-31.0589
  20
55.2788
  42
0
  0
VERTEX
  8
Обводка_Bottom
  10
-31.2497
  20
55.3246
  42
0
  0
VERTEX
  8
Обводка_Bottom
  10
-31.4452
  20
55.34
  42
0
  0
VERTEX
  8
Обводка_Bottom
  10
-31.6407
  20
55.3246
  42
0
  0
VERTEX
  8
Обводка_Bottom
  10
-31.8315
  20
55.2788
  42
0
  0
VERTEX
  8
Обводка_Bottom
  10
-32.0127
  20
55.2038
  42
0
  0
VERTEX
  8
Обводка_Bottom
  10
-32.1799
  20
55.1013
  42
0
  0
VERTEX
  8
Обводка_Bottom
  10
-32.3291
  20
54.9739
  42
0
  0
VERTEX
  8
Обводка_Bottom
  10
-32.4565
  20
54.8247
  42
0
  0
VERTEX
  8
Обводка_Bottom
  10
-32.559
  20
54.6575
  42
0
  0
VERTEX
  8
Обводка_Bottom
  10
-32.634
  20
54.4763
  42
0
  0
VERTEX
  8
Обводка_Bottom
  10
-32.6798
  20
54.2855
  42
0
  0
VERTEX
  8
Обводка_Bottom
  10
-32.6952
  20
54.09
  42
0
  0
VERTEX
  8
Обводка_Bottom
  10
-32.6952
  20
53.9025
  42
0
  0
SEQEND
  0
POLYLINE
  8
Обводка_Bottom
  6
CONTINUOUS
  66
1
  70
0
  40
1.0
  41
1.0
  0
VERTEX
  8
Обводка_Bottom
  10
-30.1552
  20
53.3392
  42
0
  0
VERTEX
  8
Обводка_Bottom
  10
-30.1552
  20
52.59
  42
0
  0
VERTEX
  8
Обводка_Bottom
  10
-30.1398
  20
52.3945
  42
0
  0
VERTEX
  8
Обводка_Bottom
  10
-30.094
  20
52.2037
  42
0
  0
VERTEX
  8
Обводка_Bottom
  10
-30.019
  20
52.0225
  42
0
  0
VERTEX
  8
Обводка_Bottom
  10
-29.9165
  20
51.8553
  42
0
  0
VERTEX
  8
Обводка_Bottom
  10
-29.7891
  20
51.7061
  42
0
  0
VERTEX
  8
Обводка_Bottom
  10
-29.6399
  20
51.5787
  42
0
  0
VERTEX
  8
Обводка_Bottom
  10
-29.4727
  20
51.4762
  42
0
  0
VERTEX
  8
Обводка_Bottom
  10
-29.2915
  20
51.4012
  42
0
  0
VERTEX
  8
Обводка_Bottom
  10
-29.1007
  20
51.3554
  42
0
  0
VERTEX
  8
Обводка_Bottom
  10
-28.9052
  20
51.34
  42
0
  0
VERTEX
  8
Обводка_Bottom
  10
-28.7097
  20
51.3554
  42
0
  0
VERTEX
  8
Обводка_Bottom
  10
-28.5189
  20
51.4012
  42
0
  0
VERTEX
  8
Обводка_Bottom
  10
-28.3377
  20
51.4762
  42
0
  0
VERTEX
  8
Обводка_Bottom
  10
-28.1705
  20
51.5787
  42
0
  0
VERTEX
  8
Обводка_Bottom
  10
-28.0213
  20
51.7061
  42
0
  0
VERTEX
  8
Обводка_Bottom
  10
-27.8939
  20
51.8553
  42
0
  0
VERTEX
  8
Обводка_Bottom
  10
-27.7914
  20
52.0225
  42
0
  0
VERTEX
  8
Обводка_Bottom
  10
-27.7164
  20
52.2037
  42
0
  0
VERTEX
  8
Обводка_Bottom
  10
-27.6706
  20
52.3945
  42
0
  0
VERTEX
  8
Обводка_Bottom
  10
-27.6552
  20
52.59
  42
0
  0
VERTEX
  8
Обводка_Bottom
  10
-27.6552
  20
55.0327
  42
0
  0
VERTEX
  8
Обводка_Bottom
  10
-26.787
  20
55.9003
  42
0
  0
VERTEX
  8
Обводка_Bottom
  10
-18.298
  20
55.9
  42
0
  0
VERTEX
  8
Обводка_Bottom
  10
-17.1252
  20
54.7274
  42
0
  0
VERTEX
  8
Обводка_Bottom
  10
-17.125
  20
51.435
  42
0
  0
VERTEX
  8
Обводка_Bottom
  10
-17.1096
  20
51.2395
  42
0
  0
VERTEX
  8
Обводка_Bottom
  10
-17.0638
  20
51.0487
  42
0
  0
VERTEX
  8
Обводка_Bottom
  10
-16.9888
  20
50.8675
  42
0
  0
VERTEX
  8
Обводка_Bottom
  10
-16.8863
  20
50.7003
  42
0
  0
VERTEX
  8
Обводка_Bottom
  10
-16.7589
  20
50.5511
  42
0
  0
VERTEX
  8
Обводка_Bottom
  10
-16.1239
  20
49.9161
  42
0
  0
VERTEX
  8
Обводка_Bottom
  10
-15.9747
  20
49.7887
  42
0
  0
VERTEX
  8
Обводка_Bottom
  10
-15.8075
  20
49.6862
  42
0
  0
VERTEX
  8
Обводка_Bottom
  10
-15.6263
  20
49.6112
  42
0
  0
VERTEX
  8
Обводка_Bottom
  10
-15.4355
  20
49.5654
  42
0
  0
VERTEX
  8
Обводка_Bottom
  10
-15.24
  20
49.55
  42
0
  0
VERTEX
  8
Обводка_Bottom
  10
-1.27
  20
49.55
  42
0
  0
VERTEX
  8
Обводка_Bottom
  10
-1.0745
  20
49.5654
  42
0
  0
VERTEX
  8
Обводка_Bottom
  10
-0.8837
  20
49.6112
  42
0
  0
VERTEX
  8
Обводка_Bottom
  10
-0.7025
  20
49.6862
  42
0
  0
VERTEX
  8
Обводка_Bottom
  10
-0.5353
  20
49.7887
  42
0
  0
VERTEX
  8
Обводка_Bottom
  10
-0.3861
  20
49.9161
  42
0
  0
VERTEX
  8
Обводка_Bottom
  10
-0.2587
  20
50.0653
  42
0
  0
VERTEX
  8
Обводка_Bottom
  10
-0.1562
  20
50.2325
  42
0
  0
VERTEX
  8
Обводка_Bottom
  10
-0.0812
  20
50.4137
  42
0
  0
VERTEX
  8
Обводка_Bottom
  10
-0.0354
  20
50.6045
  42
0
  0
VERTEX
  8
Обводка_Bottom
  10
-0.02
  20
50.8
  42
0
  0
VERTEX
  8
Обводка_Bottom
  10
-0.0354
  20
50.9955
  42
0
  0
VERTEX
  8
Обводка_Bottom
  10
-0.0812
  20
51.1863
  42
0
  0
VERTEX
  8
Обводка_Bottom
  10
-0.1562
  20
51.3675
  42
0
  0
VERTEX
  8
Обводка_Bottom
  10
-0.2587
  20
51.5347
  42
0
  0
VERTEX
  8
Обводка_Bottom
  10
-0.3861
  20
51.6839
  42
0
  0
VERTEX
  8
Обводка_Bottom
  10
-0.5353
  20
51.8113
  42
0
  0
VERTEX
  8
Обводка_Bottom
  10
-0.7025
  20
51.9138
  42
0
  0
VERTEX
  8
Обводка_Bottom
  10
-0.8837
  20
51.9888
  42
0
  0
VERTEX
  8
Обводка_Bottom
  10
-1.0745
  20
52.0346
  42
0
  0
VERTEX
  8
Обводка_Bottom
  10
-1.27
  20
52.05
  42
0
  0
VERTEX
  8
Обводка_Bottom
  10
-14.625
  20
52.05
  42
0
  0
VERTEX
  8
Обводка_Bottom
  10
-14.625
  20
55.245
  42
0
  0
VERTEX
  8
Обводка_Bottom
  10
-14.6404
  20
55.4405
  42
0
  0
VERTEX
  8
Обводка_Bottom
  10
-14.6862
  20
55.6313
  42
0
  0
VERTEX
  8
Обводка_Bottom
  10
-14.7612
  20
55.8125
  42
0
  0
VERTEX
  8
Обводка_Bottom
  10
-14.8637
  20
55.9797
  42
0
  0
VERTEX
  8
Обводка_Bottom
  10
-14.9911
  20
56.1289
  42
0
  0
VERTEX
  8
Обводка_Bottom
  10
-16.8961
  20
58.0339
  42
0
  0
VERTEX
  8
Обводка_Bottom
  10
-17.0453
  20
58.1613
  42
0
  0
VERTEX
  8
Обводка_Bottom
  10
-17.2125
  20
58.2638
  42
0
  0
VERTEX
  8
Обводка_Bottom
  10
-17.3937
  20
58.3388
  42
0
  0
VERTEX
  8
Обводка_Bottom
  10
-17.5845
  20
58.3846
  42
0
  0
VERTEX
  8
Обводка_Bottom
  10
-17.7808
  20
58.3999
  42
0
  0
VERTEX
  8
Обводка_Bottom
  10
-27.305
  20
58.4
  42
0
  0
VERTEX
  8
Обводка_Bottom
  10
-27.5005
  20
58.3846
  42
0
  0
VERTEX
  8
Обводка_Bottom
  10
-27.6913
  20
58.3388
  42
0
  0
VERTEX
  8
Обводка_Bottom
  10
-27.8725
  20
58.2638
  42
0
  0
VERTEX
  8
Обводка_Bottom
  10
-28.0397
  20
58.1613
  42
0
  0
VERTEX
  8
Обводка_Bottom
  10
-28.1894
  20
58.0333
  42
0
  0
VERTEX
  8
Обводка_Bottom
  10
-29.7891
  20
56.4337
  42
0
  0
VERTEX
  8
Обводка_Bottom
  10
-29.9165
  20
56.2845
  42
0
  0
VERTEX
  8
Обводка_Bottom
  10
-30.019
  20
56.1173
  42
0
  0
VERTEX
  8
Обводка_Bottom
  10
-30.094
  20
55.9361
  42
0
  0
VERTEX
  8
Обводка_Bottom
  10
-30.1398
  20
55.7453
  42
0
  0
VERTEX
  8
Обводка_Bottom
  10
-30.1551
  20
55.549
  42
0
  0
VERTEX
  8
Обводка_Bottom
  10
-30.1551
  20
53.3392
  42
0
  0
SEQEND
  0
POLYLINE
  8
Обводка_Bottom
  6
CONTINUOUS
  66
1
  70
0
  40
1.0
  41
1.0
  0
VERTEX
  8
Обводка_Bottom
  10
-27.6152
  20
53.9025
  42
0
  0
VERTEX
  8
Обводка_Bottom
  10
-27.6152
  20
47.9552
  42
0
  0
VERTEX
  8
Обводка_Bottom
  10
-27.5998
  20
47.7597
  42
0
  0
VERTEX
  8
Обводка_Bottom
  10
-27.554
  20
47.5689
  42
0
  0
VERTEX
  8
Обводка_Bottom
  10
-27.479
  20
47.3877
  42
0
  0
VERTEX
  8
Обводка_Bottom
  10
-27.3765
  20
47.2205
  42
0
  0
VERTEX
  8
Обводка_Bottom
  10
-27.2485
  20
47.0708
  42
0
  0
VERTEX
  8
Обводка_Bottom
  10
-25.0139
  20
44.8361
  42
0
  0
VERTEX
  8
Обводка_Bottom
  10
-24.8647
  20
44.7087
  42
0
  0
VERTEX
  8
Обводка_Bottom
  10
-24.6975
  20
44.6062
  42
0
  0
VERTEX
  8
Обводка_Bottom
  10
-24.5163
  20
44.5312
  42
0
  0
VERTEX
  8
Обводка_Bottom
  10
-24.3255
  20
44.4854
  42
0
  0
VERTEX
  8
Обводка_Bottom
  10
-24.1292
  20
44.4701
  42
0
  0
VERTEX
  8
Обводка_Bottom
  10
-1.27
  20
44.47
  42
0
  0
VERTEX
  8
Обводка_Bottom
  10
-1.0745
  20
44.4854
  42
0
  0
VERTEX
  8
Обводка_Bottom
  10
-0.8837
  20
44.5312
  42
0
  0
VERTEX
  8
Обводка_Bottom
  10
-0.7025
  20
44.6062
  42
0
  0
VERTEX
  8
Обводка_Bottom
  10
-0.5353
  20
44.7087
  42
0
  0
VERTEX
  8
Обводка_Bottom
  10
-0.3861
  20
44.8361
  42
0
  0
VERTEX
  8
Обводка_Bottom
  10
-0.2587
  20
44.9853
  42
0
  0
VERTEX
  8
Обводка_Bottom
  10
-0.1562
  20
45.1525
  42
0
  0
VERTEX
  8
Обводка_Bottom
  10
-0.0812
  20
45.3337
  42
0
  0
VERTEX
  8
Обводка_Bottom
  10
-0.0354
  20
45.5245
  42
0
  0
VERTEX
  8
Обводка_Bottom
  10
-0.02
  20
45.72
  42
0
  0
VERTEX
  8
Обводка_Bottom
  10
-0.0354
  20
45.9155
  42
0
  0
VERTEX
  8
Обводка_Bottom
  10
-0.0812
  20
46.1063
  42
0
  0
VERTEX
  8
Обводка_Bottom
  10
-0.1562
  20
46.2875
  42
0
  0
VERTEX
  8
Обводка_Bottom
  10
-0.2587
  20
46.4547
  42
0
  0
VERTEX
  8
Обводка_Bottom
  10
-0.3861
  20
46.6039
  42
0
  0
VERTEX
  8
Обводка_Bottom
  10
-0.5353
  20
46.7313
  42
0
  0
VERTEX
  8
Обводка_Bottom
  10
-0.7025
  20
46.8338
  42
0
  0
VERTEX
  8
Обводка_Bottom
  10
-0.8837
  20
46.9088
  42
0
  0
VERTEX
  8
Обводка_Bottom
  10
-1.0745
  20
46.9546
  42
0
  0
VERTEX
  8
Обводка_Bottom
  10
-1.27
  20
46.97
  42
0
  0
VERTEX
  8
Обводка_Bottom
  10
-23.6119
  20
46.97
  42
0
  0
VERTEX
  8
Обводка_Bottom
  10
-25.1155
  20
48.4732
  42
0
  0
VERTEX
  8
Обводка_Bottom
  10
-25.1152
  20
54.09
  42
0
  0
VERTEX
  8
Обводка_Bottom
  10
-25.1306
  20
54.2855
  42
0
  0
VERTEX
  8
Обводка_Bottom
  10
-25.1764
  20
54.4763
  42
0
  0
VERTEX
  8
Обводка_Bottom
  10
-25.2514
  20
54.6575
  42
0
  0
VERTEX
  8
Обводка_Bottom
  10
-25.3539
  20
54.8247
  42
0
  0
VERTEX
  8
Обводка_Bottom
  10
-25.4813
  20
54.9739
  42
0
  0
VERTEX
  8
Обводка_Bottom
  10
-25.6305
  20
55.1013
  42
0
  0
VERTEX
  8
Обводка_Bottom
  10
-25.7977
  20
55.2038
  42
0
  0
VERTEX
  8
Обводка_Bottom
  10
-25.9789
  20
55.2788
  42
0
  0
VERTEX
  8
Обводка_Bottom
  10
-26.1697
  20
55.3246
  42
0
  0
VERTEX
  8
Обводка_Bottom
  10
-26.3652
  20
55.34
  42
0
  0
VERTEX
  8
Обводка_Bottom
  10
-26.5607
  20
55.3246
  42
0
  0
VERTEX
  8
Обводка_Bottom
  10
-26.7515
  20
55.2788
  42
0
  0
VERTEX
  8
Обводка_Bottom
  10
-26.9327
  20
55.2038
  42
0
  0
VERTEX
  8
Обводка_Bottom
  10
-27.0999
  20
55.1013
  42
0
  0
VERTEX
  8
Обводка_Bottom
  10
-27.2491
  20
54.9739
  42
0
  0
VERTEX
  8
Обводка_Bottom
  10
-27.3765
  20
54.8247
  42
0
  0
VERTEX
  8
Обводка_Bottom
  10
-27.479
  20
54.6575
  42
0
  0
VERTEX
  8
Обводка_Bottom
  10
-27.554
  20
54.4763
  42
0
  0
VERTEX
  8
Обводка_Bottom
  10
-27.5998
  20
54.2855
  42
0
  0
VERTEX
  8
Обводка_Bottom
  10
-27.6152
  20
54.09
  42
0
  0
VERTEX
  8
Обводка_Bottom
  10
-27.6152
  20
53.9025
  42
0
  0
SEQEND
  0
POLYLINE
  8
Обводка_Bottom
  6
CONTINUOUS
  66
1
  70
0
  40
1.0
  41
1.0
  0
VERTEX
  8
Обводка_Bottom
  10
-22.5352
  20
53.9025
  42
0
  0
VERTEX
  8
Обводка_Bottom
  10
-22.5352
  20
51.2889
  42
0
  0
VERTEX
  8
Обводка_Bottom
  10
-22.5198
  20
51.0934
  42
0
  0
VERTEX
  8
Обводка_Bottom
  10
-22.474
  20
50.9027
  42
0
  0
VERTEX
  8
Обводка_Bottom
  10
-22.399
  20
50.7214
  42
0
  0
VERTEX
  8
Обводка_Bottom
  10
-22.2965
  20
50.5542
  42
0
  0
VERTEX
  8
Обводка_Bottom
  10
-22.1685
  20
50.4046
  42
0
  0
VERTEX
  8
Обводка_Bottom
  10
-19.1402
  20
47.3761
  42
0
  0
VERTEX
  8
Обводка_Bottom
  10
-18.991
  20
47.2487
  42
0
  0
VERTEX
  8
Обводка_Bottom
  10
-18.8238
  20
47.1462
  42
0
  0
VERTEX
  8
Обводка_Bottom
  10
-18.6425
  20
47.0712
  42
0
  0
VERTEX
  8
Обводка_Bottom
  10
-18.4518
  20
47.0254
  42
0
  0
VERTEX
  8
Обводка_Bottom
  10
-18.2555
  20
47.0101
  42
0
  0
VERTEX
  8
Обводка_Bottom
  10
-1.27
  20
47.01
  42
0
  0
VERTEX
  8
Обводка_Bottom
  10
-1.0745
  20
47.0254
  42
0
  0
VERTEX
  8
Обводка_Bottom
  10
-0.8837
  20
47.0712
  42
0
  0
VERTEX
  8
Обводка_Bottom
  10
-0.7025
  20
47.1462
  42
0
  0
VERTEX
  8
Обводка_Bottom
  10
-0.5353
  20
47.2487
  42
0
  0
VERTEX
  8
Обводка_Bottom
  10
-0.3861
  20
47.3761
  42
0
  0
VERTEX
  8
Обводка_Bottom
  10
-0.2587
  20
47.5253
  42
0
  0
VERTEX
  8
Обводка_Bottom
  10
-0.1562
  20
47.6925
  42
0
  0
VERTEX
  8
Обводка_Bottom
  10
-0.0812
  20
47.8737
  42
0
  0
VERTEX
  8
Обводка_Bottom
  10
-0.0354
  20
48.0645
  42
0
  0
VERTEX
  8
Обводка_Bottom
  10
-0.02
  20
48.26
  42
0
  0
VERTEX
  8
Обводка_Bottom
  10
-0.0354
  20
48.4555
  42
0
  0
VERTEX
  8
Обводка_Bottom
  10
-0.0812
  20
48.6463
  42
0
  0
VERTEX
  8
Обводка_Bottom
  10
-0.1562
  20
48.8275
  42
0
  0
VERTEX
  8
Обводка_Bottom
  10
-0.2587
  20
48.9947
  42
0
  0
VERTEX
  8
Обводка_Bottom
  10
-0.3861
  20
49.1439
  42
0
  0
VERTEX
  8
Обводка_Bottom
  10
-0.5353
  20
49.2713
  42
0
  0
VERTEX
  8
Обводка_Bottom
  10
-0.7025
  20
49.3738
  42
0
  0
VERTEX
  8
Обводка_Bottom
  10
-0.8837
  20
49.4488
  42
0
  0
VERTEX
  8
Обводка_Bottom
  10
-1.0745
  20
49.4946
  42
0
  0
VERTEX
  8
Обводка_Bottom
  10
-1.27
  20
49.51
  42
0
  0
VERTEX
  8
Обводка_Bottom
  10
-17.7386
  20
49.51
  42
0
  0
VERTEX
  8
Обводка_Bottom
  10
-20.0352
  20
51.8067
  42
0
  0
VERTEX
  8
Обводка_Bottom
  10
-20.0352
  20
54.09
  42
0
  0
VERTEX
  8
Обводка_Bottom
  10
-20.0506
  20
54.2855
  42
0
  0
VERTEX
  8
Обводка_Bottom
  10
-20.0964
  20
54.4763
  42
0
  0
VERTEX
  8
Обводка_Bottom
  10
-20.1714
  20
54.6575
  42
0
  0
VERTEX
  8
Обводка_Bottom
  10
-20.2739
  20
54.8247
  42
0
  0
VERTEX
  8
Обводка_Bottom
  10
-20.4013
  20
54.9739
  42
0
  0
VERTEX
  8
Обводка_Bottom
  10
-20.5505
  20
55.1013
  42
0
  0
VERTEX
  8
Обводка_Bottom
  10
-20.7177
  20
55.2038
  42
0
  0
VERTEX
  8
Обводка_Bottom
  10
-20.8989
  20
55.2788
  42
0
  0
VERTEX
  8
Обводка_Bottom
  10
-21.0897
  20
55.3246
  42
0
  0
VERTEX
  8
Обводка_Bottom
  10
-21.2852
  20
55.34
  42
0
  0
VERTEX
  8
Обводка_Bottom
  10
-21.4807
  20
55.3246
  42
0
  0
VERTEX
  8
Обводка_Bottom
  10
-21.6715
  20
55.2788
  42
0
  0
VERTEX
  8
Обводка_Bottom
  10
-21.8527
  20
55.2038
  42
0
  0
VERTEX
  8
Обводка_Bottom
  10
-22.0199
  20
55.1013
  42
0
  0
VERTEX
  8
Обводка_Bottom
  10
-22.1691
  20
54.9739
  42
0
  0
VERTEX
  8
Обводка_Bottom
  10
-22.2965
  20
54.8247
  42
0
  0
VERTEX
  8
Обводка_Bottom
  10
-22.399
  20
54.6575
  42
0
  0
VERTEX
  8
Обводка_Bottom
  10
-22.474
  20
54.4763
  42
0
  0
VERTEX
  8
Обводка_Bottom
  10
-22.5198
  20
54.2855
  42
0
  0
VERTEX
  8
Обводка_Bottom
  10
-22.5352
  20
54.09
  42
0
  0
VERTEX
  8
Обводка_Bottom
  10
-22.5352
  20
53.9025
  42
0
  0
SEQEND
  0
POLYLINE
  8
Обводка_Bottom
  6
CONTINUOUS
  66
1
  70
0
  40
1.0
  41
1.0
  0
VERTEX
  8
Обводка_Bottom
  10
-19.9952
  20
53.9025
  42
0
  0
VERTEX
  8
Обводка_Bottom
  10
-19.9952
  20
52.59
  42
0
  0
VERTEX
  8
Обводка_Bottom
  10
-19.9798
  20
52.3945
  42
0
  0
VERTEX
  8
Обводка_Bottom
  10
-19.934
  20
52.2037
  42
0
  0
VERTEX
  8
Обводка_Bottom
  10
-19.859
  20
52.0225
  42
0
  0
VERTEX
  8
Обводка_Bottom
  10
-19.7565
  20
51.8553
  42
0
  0
VERTEX
  8
Обводка_Bottom
  10
-19.6291
  20
51.7061
  42
0
  0
VERTEX
  8
Обводка_Bottom
  10
-19.4799
  20
51.5787
  42
0
  0
VERTEX
  8
Обводка_Bottom
  10
-19.3127
  20
51.4762
  42
0
  0
VERTEX
  8
Обводка_Bottom
  10
-19.1315
  20
51.4012
  42
0
  0
VERTEX
  8
Обводка_Bottom
  10
-18.9407
  20
51.3554
  42
0
  0
VERTEX
  8
Обводка_Bottom
  10
-18.7452
  20
51.34
  42
0
  0
VERTEX
  8
Обводка_Bottom
  10
-18.5497
  20
51.3554
  42
0
  0
VERTEX
  8
Обводка_Bottom
  10
-18.3589
  20
51.4012
  42
0
  0
VERTEX
  8
Обводка_Bottom
  10
-18.1777
  20
51.4762
  42
0
  0
VERTEX
  8
Обводка_Bottom
  10
-18.0105
  20
51.5787
  42
0
  0
VERTEX
  8
Обводка_Bottom
  10
-17.8613
  20
51.7061
  42
0
  0
VERTEX
  8
Обводка_Bottom
  10
-17.7339
  20
51.8553
  42
0
  0
VERTEX
  8
Обводка_Bottom
  10
-17.6314
  20
52.0225
  42
0
  0
VERTEX
  8
Обводка_Bottom
  10
-17.5564
  20
52.2037
  42
0
  0
VERTEX
  8
Обводка_Bottom
  10
-17.5106
  20
52.3945
  42
0
  0
VERTEX
  8
Обводка_Bottom
  10
-17.4952
  20
52.59
  42
0
  0
VERTEX
  8
Обводка_Bottom
  10
-17.4952
  20
54.09
  42
0
  0
VERTEX
  8
Обводка_Bottom
  10
-17.5106
  20
54.2855
  42
0
  0
VERTEX
  8
Обводка_Bottom
  10
-17.5564
  20
54.4763
  42
0
  0
VERTEX
  8
Обводка_Bottom
  10
-17.6314
  20
54.6575
  42
0
  0
VERTEX
  8
Обводка_Bottom
  10
-17.7339
  20
54.8247
  42
0
  0
VERTEX
  8
Обводка_Bottom
  10
-17.8613
  20
54.9739
  42
0
  0
VERTEX
  8
Обводка_Bottom
  10
-18.0105
  20
55.1013
  42
0
  0
VERTEX
  8
Обводка_Bottom
  10
-18.1777
  20
55.2038
  42
0
  0
VERTEX
  8
Обводка_Bottom
  10
-18.3589
  20
55.2788
  42
0
  0
VERTEX
  8
Обводка_Bottom
  10
-18.5497
  20
55.3246
  42
0
  0
VERTEX
  8
Обводка_Bottom
  10
-18.7452
  20
55.34
  42
0
  0
VERTEX
  8
Обводка_Bottom
  10
-18.9407
  20
55.3246
  42
0
  0
VERTEX
  8
Обводка_Bottom
  10
-19.1315
  20
55.2788
  42
0
  0
VERTEX
  8
Обводка_Bottom
  10
-19.3127
  20
55.2038
  42
0
  0
VERTEX
  8
Обводка_Bottom
  10
-19.4799
  20
55.1013
  42
0
  0
VERTEX
  8
Обводка_Bottom
  10
-19.6291
  20
54.9739
  42
0
  0
VERTEX
  8
Обводка_Bottom
  10
-19.7565
  20
54.8247
  42
0
  0
VERTEX
  8
Обводка_Bottom
  10
-19.859
  20
54.6575
  42
0
  0
VERTEX
  8
Обводка_Bottom
  10
-19.934
  20
54.4763
  42
0
  0
VERTEX
  8
Обводка_Bottom
  10
-19.9798
  20
54.2855
  42
0
  0
VERTEX
  8
Обводка_Bottom
  10
-19.9952
  20
54.09
  42
0
  0
VERTEX
  8
Обводка_Bottom
  10
-19.9952
  20
53.9025
  42
0
  0
SEQEND
  0
POLYLINE
  8
Обводка_Bottom
  6
CONTINUOUS
  66
1
  70
0
  40
1.0
  41
1.0
  0
VERTEX
  8
Обводка_Bottom
  10
-14.285
  20
54.59
  42
0
  0
VERTEX
  8
Обводка_Bottom
  10
-14.585
  20
54.59
  42
0
  0
VERTEX
  8
Обводка_Bottom
  10
-14.585
  20
52.09
  42
0
  0
VERTEX
  8
Обводка_Bottom
  10
-1.27
  20
52.09
  42
0
  0
VERTEX
  8
Обводка_Bottom
  10
-1.0745
  20
52.1054
  42
0
  0
VERTEX
  8
Обводка_Bottom
  10
-0.8837
  20
52.1512
  42
0
  0
VERTEX
  8
Обводка_Bottom
  10
-0.7025
  20
52.2262
  42
0
  0
VERTEX
  8
Обводка_Bottom
  10
-0.5353
  20
52.3287
  42
0
  0
VERTEX
  8
Обводка_Bottom
  10
-0.3861
  20
52.4561
  42
0
  0
VERTEX
  8
Обводка_Bottom
  10
-0.2587
  20
52.6053
  42
0
  0
VERTEX
  8
Обводка_Bottom
  10
-0.1562
  20
52.7725
  42
0
  0
VERTEX
  8
Обводка_Bottom
  10
-0.0812
  20
52.9537
  42
0
  0
VERTEX
  8
Обводка_Bottom
  10
-0.0354
  20
53.1445
  42
0
  0
VERTEX
  8
Обводка_Bottom
  10
-0.02
  20
53.34
  42
0
  0
VERTEX
  8
Обводка_Bottom
  10
-0.0354
  20
53.5355
  42
0
  0
VERTEX
  8
Обводка_Bottom
  10
-0.0812
  20
53.7263
  42
0
  0
VERTEX
  8
Обводка_Bottom
  10
-0.1562
  20
53.9075
  42
0
  0
VERTEX
  8
Обводка_Bottom
  10
-0.2587
  20
54.0747
  42
0
  0
VERTEX
  8
Обводка_Bottom
  10
-0.3861
  20
54.2239
  42
0
  0
VERTEX
  8
Обводка_Bottom
  10
-0.5353
  20
54.3513
  42
0
  0
VERTEX
  8
Обводка_Bottom
  10
-0.7025
  20
54.4538
  42
0
  0
VERTEX
  8
Обводка_Bottom
  10
-0.8837
  20
54.5288
  42
0
  0
VERTEX
  8
Обводка_Bottom
  10
-1.0745
  20
54.5746
  42
0
  0
VERTEX
  8
Обводка_Bottom
  10
-1.27
  20
54.59
  42
0
  0
VERTEX
  8
Обводка_Bottom
  10
-12.4703
  20
54.59
  42
0
  0
SEQEND
  0
POLYLINE
  8
Обводка_Bottom
  6
CONTINUOUS
  66
1
  70
0
  40
1.0
  41
1.0
  0
VERTEX
  8
Обводка_Bottom
  10
-57.13
  20
53.9025
  42
0
  0
VERTEX
  8
Обводка_Bottom
  10
-57.13
  20
52.59
  42
0
  0
VERTEX
  8
Обводка_Bottom
  10
-57.1146
  20
52.3945
  42
0
  0
VERTEX
  8
Обводка_Bottom
  10
-57.0688
  20
52.2037
  42
0
  0
VERTEX
  8
Обводка_Bottom
  10
-56.9938
  20
52.0225
  42
0
  0
VERTEX
  8
Обводка_Bottom
  10
-56.8913
  20
51.8553
  42
0
  0
VERTEX
  8
Обводка_Bottom
  10
-56.7639
  20
51.7061
  42
0
  0
VERTEX
  8
Обводка_Bottom
  10
-56.6147
  20
51.5787
  42
0
  0
VERTEX
  8
Обводка_Bottom
  10
-56.4475
  20
51.4762
  42
0
  0
VERTEX
  8
Обводка_Bottom
  10
-56.2663
  20
51.4012
  42
0
  0
VERTEX
  8
Обводка_Bottom
  10
-56.0755
  20
51.3554
  42
0
  0
VERTEX
  8
Обводка_Bottom
  10
-55.88
  20
51.34
  42
0
  0
VERTEX
  8
Обводка_Bottom
  10
-55.6845
  20
51.3554
  42
0
  0
VERTEX
  8
Обводка_Bottom
  10
-55.4937
  20
51.4012
  42
0
  0
VERTEX
  8
Обводка_Bottom
  10
-55.3125
  20
51.4762
  42
0
  0
VERTEX
  8
Обводка_Bottom
  10
-55.1453
  20
51.5787
  42
0
  0
VERTEX
  8
Обводка_Bottom
  10
-54.9961
  20
51.7061
  42
0
  0
VERTEX
  8
Обводка_Bottom
  10
-54.8687
  20
51.8553
  42
0
  0
VERTEX
  8
Обводка_Bottom
  10
-54.7662
  20
52.0225
  42
0
  0
VERTEX
  8
Обводка_Bottom
  10
-54.6912
  20
52.2037
  42
0
  0
VERTEX
  8
Обводка_Bottom
  10
-54.6454
  20
52.3945
  42
0
  0
VERTEX
  8
Обводка_Bottom
  10
-54.63
  20
52.59
  42
0
  0
VERTEX
  8
Обводка_Bottom
  10
-54.63
  20
54.09
  42
0
  0
VERTEX
  8
Обводка_Bottom
  10
-54.6454
  20
54.2855
  42
0
  0
VERTEX
  8
Обводка_Bottom
  10
-54.6912
  20
54.4763
  42
0
  0
VERTEX
  8
Обводка_Bottom
  10
-54.7662
  20
54.6575
  42
0
  0
VERTEX
  8
Обводка_Bottom
  10
-54.8687
  20
54.8247
  42
0
  0
VERTEX
  8
Обводка_Bottom
  10
-54.9961
  20
54.9739
  42
0
  0
VERTEX
  8
Обводка_Bottom
  10
-55.1453
  20
55.1013
  42
0
  0
VERTEX
  8
Обводка_Bottom
  10
-55.3125
  20
55.2038
  42
0
  0
VERTEX
  8
Обводка_Bottom
  10
-55.4937
  20
55.2788
  42
0
  0
VERTEX
  8
Обводка_Bottom
  10
-55.6845
  20
55.3246
  42
0
  0
VERTEX
  8
Обводка_Bottom
  10
-55.88
  20
55.34
  42
0
  0
VERTEX
  8
Обводка_Bottom
  10
-56.0755
  20
55.3246
  42
0
  0
VERTEX
  8
Обводка_Bottom
  10
-56.2663
  20
55.2788
  42
0
  0
VERTEX
  8
Обводка_Bottom
  10
-56.4475
  20
55.2038
  42
0
  0
VERTEX
  8
Обводка_Bottom
  10
-56.6147
  20
55.1013
  42
0
  0
VERTEX
  8
Обводка_Bottom
  10
-56.7639
  20
54.9739
  42
0
  0
VERTEX
  8
Обводка_Bottom
  10
-56.8913
  20
54.8247
  42
0
  0
VERTEX
  8
Обводка_Bottom
  10
-56.9938
  20
54.6575
  42
0
  0
VERTEX
  8
Обводка_Bottom
  10
-57.0688
  20
54.4763
  42
0
  0
VERTEX
  8
Обводка_Bottom
  10
-57.1146
  20
54.2855
  42
0
  0
VERTEX
  8
Обводка_Bottom
  10
-57.13
  20
54.09
  42
0
  0
VERTEX
  8
Обводка_Bottom
  10
-57.13
  20
53.9025
  42
0
  0
SEQEND
  0
POLYLINE
  8
Обводка_Bottom
  6
CONTINUOUS
  66
1
  70
0
  40
1.0
  41
1.0
  0
VERTEX
  8
Обводка_Bottom
  10
-54.59
  20
53.9025
  42
0
  0
VERTEX
  8
Обводка_Bottom
  10
-54.59
  20
52.59
  42
0
  0
VERTEX
  8
Обводка_Bottom
  10
-54.5746
  20
52.3945
  42
0
  0
VERTEX
  8
Обводка_Bottom
  10
-54.5288
  20
52.2037
  42
0
  0
VERTEX
  8
Обводка_Bottom
  10
-54.4538
  20
52.0225
  42
0
  0
VERTEX
  8
Обводка_Bottom
  10
-54.3513
  20
51.8553
  42
0
  0
VERTEX
  8
Обводка_Bottom
  10
-54.2239
  20
51.7061
  42
0
  0
VERTEX
  8
Обводка_Bottom
  10
-54.0747
  20
51.5787
  42
0
  0
VERTEX
  8
Обводка_Bottom
  10
-53.9075
  20
51.4762
  42
0
  0
VERTEX
  8
Обводка_Bottom
  10
-53.7263
  20
51.4012
  42
0
  0
VERTEX
  8
Обводка_Bottom
  10
-53.5355
  20
51.3554
  42
0
  0
VERTEX
  8
Обводка_Bottom
  10
-53.34
  20
51.34
  42
0
  0
VERTEX
  8
Обводка_Bottom
  10
-53.1445
  20
51.3554
  42
0
  0
VERTEX
  8
Обводка_Bottom
  10
-52.9537
  20
51.4012
  42
0
  0
VERTEX
  8
Обводка_Bottom
  10
-52.7725
  20
51.4762
  42
0
  0
VERTEX
  8
Обводка_Bottom
  10
-52.6053
  20
51.5787
  42
0
  0
VERTEX
  8
Обводка_Bottom
  10
-52.4561
  20
51.7061
  42
0
  0
VERTEX
  8
Обводка_Bottom
  10
-52.3287
  20
51.8553
  42
0
  0
VERTEX
  8
Обводка_Bottom
  10
-52.2262
  20
52.0225
  42
0
  0
VERTEX
  8
Обводка_Bottom
  10
-52.1512
  20
52.2037
  42
0
  0
VERTEX
  8
Обводка_Bottom
  10
-52.1054
  20
52.3945
  42
0
  0
VERTEX
  8
Обводка_Bottom
  10
-52.09
  20
52.59
  42
0
  0
VERTEX
  8
Обводка_Bottom
  10
-52.09
  20
54.09
  42
0
  0
VERTEX
  8
Обводка_Bottom
  10
-52.1054
  20
54.2855
  42
0
  0
VERTEX
  8
Обводка_Bottom
  10
-52.1512
  20
54.4763
  42
0
  0
VERTEX
  8
Обводка_Bottom
  10
-52.2262
  20
54.6575
  42
0
  0
VERTEX
  8
Обводка_Bottom
  10
-52.3287
  20
54.8247
  42
0
  0
VERTEX
  8
Обводка_Bottom
  10
-52.4561
  20
54.9739
  42
0
  0
VERTEX
  8
Обводка_Bottom
  10
-52.6053
  20
55.1013
  42
0
  0
VERTEX
  8
Обводка_Bottom
  10
-52.7725
  20
55.2038
  42
0
  0
VERTEX
  8
Обводка_Bottom
  10
-52.9537
  20
55.2788
  42
0
  0
VERTEX
  8
Обводка_Bottom
  10
-53.1445
  20
55.3246
  42
0
  0
VERTEX
  8
Обводка_Bottom
  10
-53.34
  20
55.34
  42
0
  0
VERTEX
  8
Обводка_Bottom
  10
-53.5355
  20
55.3246
  42
0
  0
VERTEX
  8
Обводка_Bottom
  10
-53.7263
  20
55.2788
  42
0
  0
VERTEX
  8
Обводка_Bottom
  10
-53.9075
  20
55.2038
  42
0
  0
VERTEX
  8
Обводка_Bottom
  10
-54.0747
  20
55.1013
  42
0
  0
VERTEX
  8
Обводка_Bottom
  10
-54.2239
  20
54.9739
  42
0
  0
VERTEX
  8
Обводка_Bottom
  10
-54.3513
  20
54.8247
  42
0
  0
VERTEX
  8
Обводка_Bottom
  10
-54.4538
  20
54.6575
  42
0
  0
VERTEX
  8
Обводка_Bottom
  10
-54.5288
  20
54.4763
  42
0
  0
VERTEX
  8
Обводка_Bottom
  10
-54.5746
  20
54.2855
  42
0
  0
VERTEX
  8
Обводка_Bottom
  10
-54.59
  20
54.09
  42
0
  0
VERTEX
  8
Обводка_Bottom
  10
-54.59
  20
53.9025
  42
0
  0
SEQEND
  0
POLYLINE
  8
Обводка_Bottom
  6
CONTINUOUS
  66
1
  70
0
  40
1.0
  41
1.0
  0
VERTEX
  8
Обводка_Bottom
  10
-52.05
  20
53.9025
  42
0
  0
VERTEX
  8
Обводка_Bottom
  10
-52.05
  20
52.59
  42
0
  0
VERTEX
  8
Обводка_Bottom
  10
-52.0346
  20
52.3945
  42
0
  0
VERTEX
  8
Обводка_Bottom
  10
-51.9888
  20
52.2037
  42
0
  0
VERTEX
  8
Обводка_Bottom
  10
-51.9138
  20
52.0225
  42
0
  0
VERTEX
  8
Обводка_Bottom
  10
-51.8113
  20
51.8553
  42
0
  0
VERTEX
  8
Обводка_Bottom
  10
-51.6839
  20
51.7061
  42
0
  0
VERTEX
  8
Обводка_Bottom
  10
-51.5347
  20
51.5787
  42
0
  0
VERTEX
  8
Обводка_Bottom
  10
-51.3675
  20
51.4762
  42
0
  0
VERTEX
  8
Обводка_Bottom
  10
-51.1863
  20
51.4012
  42
0
  0
VERTEX
  8
Обводка_Bottom
  10
-50.9955
  20
51.3554
  42
0
  0
VERTEX
  8
Обводка_Bottom
  10
-50.8
  20
51.34
  42
0
  0
VERTEX
  8
Обводка_Bottom
  10
-50.6045
  20
51.3554
  42
0
  0
VERTEX
  8
Обводка_Bottom
  10
-50.4137
  20
51.4012
  42
0
  0
VERTEX
  8
Обводка_Bottom
  10
-50.2325
  20
51.4762
  42
0
  0
VERTEX
  8
Обводка_Bottom
  10
-50.0653
  20
51.5787
  42
0
  0
VERTEX
  8
Обводка_Bottom
  10
-49.9161
  20
51.7061
  42
0
  0
VERTEX
  8
Обводка_Bottom
  10
-49.7887
  20
51.8553
  42
0
  0
VERTEX
  8
Обводка_Bottom
  10
-49.6862
  20
52.0225
  42
0
  0
VERTEX
  8
Обводка_Bottom
  10
-49.6112
  20
52.2037
  42
0
  0
VERTEX
  8
Обводка_Bottom
  10
-49.5654
  20
52.3945
  42
0
  0
VERTEX
  8
Обводка_Bottom
  10
-49.55
  20
52.59
  42
0
  0
VERTEX
  8
Обводка_Bottom
  10
-49.55
  20
54.09
  42
0
  0
VERTEX
  8
Обводка_Bottom
  10
-49.5654
  20
54.2855
  42
0
  0
VERTEX
  8
Обводка_Bottom
  10
-49.6112
  20
54.4763
  42
0
  0
VERTEX
  8
Обводка_Bottom
  10
-49.6862
  20
54.6575
  42
0
  0
VERTEX
  8
Обводка_Bottom
  10
-49.7887
  20
54.8247
  42
0
  0
VERTEX
  8
Обводка_Bottom
  10
-49.9161
  20
54.9739
  42
0
  0
VERTEX
  8
Обводка_Bottom
  10
-50.0653
  20
55.1013
  42
0
  0
VERTEX
  8
Обводка_Bottom
  10
-50.2325
  20
55.2038
  42
0
  0
VERTEX
  8
Обводка_Bottom
  10
-50.4137
  20
55.2788
  42
0
  0
VERTEX
  8
Обводка_Bottom
  10
-50.6045
  20
55.3246
  42
0
  0
VERTEX
  8
Обводка_Bottom
  10
-50.8
  20
55.34
  42
0
  0
VERTEX
  8
Обводка_Bottom
  10
-50.9955
  20
55.3246
  42
0
  0
VERTEX
  8
Обводка_Bottom
  10
-51.1863
  20
55.2788
  42
0
  0
VERTEX
  8
Обводка_Bottom
  10
-51.3675
  20
55.2038
  42
0
  0
VERTEX
  8
Обводка_Bottom
  10
-51.5347
  20
55.1013
  42
0
  0
VERTEX
  8
Обводка_Bottom
  10
-51.6839
  20
54.9739
  42
0
  0
VERTEX
  8
Обводка_Bottom
  10
-51.8113
  20
54.8247
  42
0
  0
VERTEX
  8
Обводка_Bottom
  10
-51.9138
  20
54.6575
  42
0
  0
VERTEX
  8
Обводка_Bottom
  10
-51.9888
  20
54.4763
  42
0
  0
VERTEX
  8
Обводка_Bottom
  10
-52.0346
  20
54.2855
  42
0
  0
VERTEX
  8
Обводка_Bottom
  10
-52.05
  20
54.09
  42
0
  0
VERTEX
  8
Обводка_Bottom
  10
-52.05
  20
53.9025
  42
0
  0
SEQEND
  0
POLYLINE
  8
Обводка_Bottom
  6
CONTINUOUS
  66
1
  70
0
  40
1.0
  41
1.0
  0
VERTEX
  8
Обводка_Bottom
  10
-49.51
  20
53.9025
  42
0
  0
VERTEX
  8
Обводка_Bottom
  10
-49.51
  20
52.59
  42
0
  0
VERTEX
  8
Обводка_Bottom
  10
-49.4946
  20
52.3945
  42
0
  0
VERTEX
  8
Обводка_Bottom
  10
-49.4488
  20
52.2037
  42
0
  0
VERTEX
  8
Обводка_Bottom
  10
-49.3738
  20
52.0225
  42
0
  0
VERTEX
  8
Обводка_Bottom
  10
-49.2713
  20
51.8553
  42
0
  0
VERTEX
  8
Обводка_Bottom
  10
-49.1439
  20
51.7061
  42
0
  0
VERTEX
  8
Обводка_Bottom
  10
-48.9947
  20
51.5787
  42
0
  0
VERTEX
  8
Обводка_Bottom
  10
-48.8275
  20
51.4762
  42
0
  0
VERTEX
  8
Обводка_Bottom
  10
-48.6463
  20
51.4012
  42
0
  0
VERTEX
  8
Обводка_Bottom
  10
-48.4555
  20
51.3554
  42
0
  0
VERTEX
  8
Обводка_Bottom
  10
-48.26
  20
51.34
  42
0
  0
VERTEX
  8
Обводка_Bottom
  10
-48.0645
  20
51.3554
  42
0
  0
VERTEX
  8
Обводка_Bottom
  10
-47.8737
  20
51.4012
  42
0
  0
VERTEX
  8
Обводка_Bottom
  10
-47.6925
  20
51.4762
  42
0
  0
VERTEX
  8
Обводка_Bottom
  10
-47.5253
  20
51.5787
  42
0
  0
VERTEX
  8
Обводка_Bottom
  10
-47.3761
  20
51.7061
  42
0
  0
VERTEX
  8
Обводка_Bottom
  10
-47.2487
  20
51.8553
  42
0
  0
VERTEX
  8
Обводка_Bottom
  10
-47.1462
  20
52.0225
  42
0
  0
VERTEX
  8
Обводка_Bottom
  10
-47.0712
  20
52.2037
  42
0
  0
VERTEX
  8
Обводка_Bottom
  10
-47.0254
  20
52.3945
  42
0
  0
VERTEX
  8
Обводка_Bottom
  10
-47.01
  20
52.59
  42
0
  0
VERTEX
  8
Обводка_Bottom
  10
-47.01
  20
54.09
  42
0
  0
VERTEX
  8
Обводка_Bottom
  10
-47.0254
  20
54.2855
  42
0
  0
VERTEX
  8
Обводка_Bottom
  10
-47.0712
  20
54.4763
  42
0
  0
VERTEX
  8
Обводка_Bottom
  10
-47.1462
  20
54.6575
  42
0
  0
VERTEX
  8
Обводка_Bottom
  10
-47.2487
  20
54.8247
  42
0
  0
VERTEX
  8
Обводка_Bottom
  10
-47.3761
  20
54.9739
  42
0
  0
VERTEX
  8
Обводка_Bottom
  10
-47.5253
  20
55.1013
  42
0
  0
VERTEX
  8
Обводка_Bottom
  10
-47.6925
  20
55.2038
  42
0
  0
VERTEX
  8
Обводка_Bottom
  10
-47.8737
  20
55.2788
  42
0
  0
VERTEX
  8
Обводка_Bottom
  10
-48.0645
  20
55.3246
  42
0
  0
VERTEX
  8
Обводка_Bottom
  10
-48.26
  20
55.34
  42
0
  0
VERTEX
  8
Обводка_Bottom
  10
-48.4555
  20
55.3246
  42
0
  0
VERTEX
  8
Обводка_Bottom
  10
-48.6463
  20
55.2788
  42
0
  0
VERTEX
  8
Обводка_Bottom
  10
-48.8275
  20
55.2038
  42
0
  0
VERTEX
  8
Обводка_Bottom
  10
-48.9947
  20
55.1013
  42
0
  0
VERTEX
  8
Обводка_Bottom
  10
-49.1439
  20
54.9739
  42
0
  0
VERTEX
  8
Обводка_Bottom
  10
-49.2713
  20
54.8247
  42
0
  0
VERTEX
  8
Обводка_Bottom
  10
-49.3738
  20
54.6575
  42
0
  0
VERTEX
  8
Обводка_Bottom
  10
-49.4488
  20
54.4763
  42
0
  0
VERTEX
  8
Обводка_Bottom
  10
-49.4946
  20
54.2855
  42
0
  0
VERTEX
  8
Обводка_Bottom
  10
-49.51
  20
54.09
  42
0
  0
VERTEX
  8
Обводка_Bottom
  10
-49.51
  20
53.9025
  42
0
  0
SEQEND
  0
POLYLINE
  8
Обводка_Bottom
  6
CONTINUOUS
  66
1
  70
0
  40
1.0
  41
1.0
  0
VERTEX
  8
Обводка_Bottom
  10
-46.97
  20
53.9025
  42
0
  0
VERTEX
  8
Обводка_Bottom
  10
-46.97
  20
52.59
  42
0
  0
VERTEX
  8
Обводка_Bottom
  10
-46.9546
  20
52.3945
  42
0
  0
VERTEX
  8
Обводка_Bottom
  10
-46.9088
  20
52.2037
  42
0
  0
VERTEX
  8
Обводка_Bottom
  10
-46.8338
  20
52.0225
  42
0
  0
VERTEX
  8
Обводка_Bottom
  10
-46.7313
  20
51.8553
  42
0
  0
VERTEX
  8
Обводка_Bottom
  10
-46.6039
  20
51.7061
  42
0
  0
VERTEX
  8
Обводка_Bottom
  10
-46.4547
  20
51.5787
  42
0
  0
VERTEX
  8
Обводка_Bottom
  10
-46.2875
  20
51.4762
  42
0
  0
VERTEX
  8
Обводка_Bottom
  10
-46.1063
  20
51.4012
  42
0
  0
VERTEX
  8
Обводка_Bottom
  10
-45.9155
  20
51.3554
  42
0
  0
VERTEX
  8
Обводка_Bottom
  10
-45.72
  20
51.34
  42
0
  0
VERTEX
  8
Обводка_Bottom
  10
-45.5245
  20
51.3554
  42
0
  0
VERTEX
  8
Обводка_Bottom
  10
-45.3337
  20
51.4012
  42
0
  0
VERTEX
  8
Обводка_Bottom
  10
-45.1525
  20
51.4762
  42
0
  0
VERTEX
  8
Обводка_Bottom
  10
-44.9853
  20
51.5787
  42
0
  0
VERTEX
  8
Обводка_Bottom
  10
-44.8361
  20
51.7061
  42
0
  0
VERTEX
  8
Обводка_Bottom
  10
-44.7087
  20
51.8553
  42
0
  0
VERTEX
  8
Обводка_Bottom
  10
-44.6062
  20
52.0225
  42
0
  0
VERTEX
  8
Обводка_Bottom
  10
-44.5312
  20
52.2037
  42
0
  0
VERTEX
  8
Обводка_Bottom
  10
-44.4854
  20
52.3945
  42
0
  0
VERTEX
  8
Обводка_Bottom
  10
-44.47
  20
52.59
  42
0
  0
VERTEX
  8
Обводка_Bottom
  10
-44.47
  20
54.09
  42
0
  0
VERTEX
  8
Обводка_Bottom
  10
-44.4854
  20
54.2855
  42
0
  0
VERTEX
  8
Обводка_Bottom
  10
-44.5312
  20
54.4763
  42
0
  0
VERTEX
  8
Обводка_Bottom
  10
-44.6062
  20
54.6575
  42
0
  0
VERTEX
  8
Обводка_Bottom
  10
-44.7087
  20
54.8247
  42
0
  0
VERTEX
  8
Обводка_Bottom
  10
-44.8361
  20
54.9739
  42
0
  0
VERTEX
  8
Обводка_Bottom
  10
-44.9853
  20
55.1013
  42
0
  0
VERTEX
  8
Обводка_Bottom
  10
-45.1525
  20
55.2038
  42
0
  0
VERTEX
  8
Обводка_Bottom
  10
-45.3337
  20
55.2788
  42
0
  0
VERTEX
  8
Обводка_Bottom
  10
-45.5245
  20
55.3246
  42
0
  0
VERTEX
  8
Обводка_Bottom
  10
-45.72
  20
55.34
  42
0
  0
VERTEX
  8
Обводка_Bottom
  10
-45.9155
  20
55.3246
  42
0
  0
VERTEX
  8
Обводка_Bottom
  10
-46.1063
  20
55.2788
  42
0
  0
VERTEX
  8
Обводка_Bottom
  10
-46.2875
  20
55.2038
  42
0
  0
VERTEX
  8
Обводка_Bottom
  10
-46.4547
  20
55.1013
  42
0
  0
VERTEX
  8
Обводка_Bottom
  10
-46.6039
  20
54.9739
  42
0
  0
VERTEX
  8
Обводка_Bottom
  10
-46.7313
  20
54.8247
  42
0
  0
VERTEX
  8
Обводка_Bottom
  10
-46.8338
  20
54.6575
  42
0
  0
VERTEX
  8
Обводка_Bottom
  10
-46.9088
  20
54.4763
  42
0
  0
VERTEX
  8
Обводка_Bottom
  10
-46.9546
  20
54.2855
  42
0
  0
VERTEX
  8
Обводка_Bottom
  10
-46.97
  20
54.09
  42
0
  0
VERTEX
  8
Обводка_Bottom
  10
-46.97
  20
53.9025
  42
0
  0
SEQEND
  0
POLYLINE
  8
Обводка_Bottom
  6
CONTINUOUS
  66
1
  70
0
  40
1.0
  41
1.0
  0
VERTEX
  8
Обводка_Bottom
  10
-44.43
  20
53.9025
  42
0
  0
VERTEX
  8
Обводка_Bottom
  10
-44.43
  20
52.59
  42
0
  0
VERTEX
  8
Обводка_Bottom
  10
-44.4146
  20
52.3945
  42
0
  0
VERTEX
  8
Обводка_Bottom
  10
-44.3688
  20
52.2037
  42
0
  0
VERTEX
  8
Обводка_Bottom
  10
-44.2938
  20
52.0225
  42
0
  0
VERTEX
  8
Обводка_Bottom
  10
-44.1913
  20
51.8553
  42
0
  0
VERTEX
  8
Обводка_Bottom
  10
-44.0639
  20
51.7061
  42
0
  0
VERTEX
  8
Обводка_Bottom
  10
-43.9147
  20
51.5787
  42
0
  0
VERTEX
  8
Обводка_Bottom
  10
-43.7475
  20
51.4762
  42
0
  0
VERTEX
  8
Обводка_Bottom
  10
-43.5663
  20
51.4012
  42
0
  0
VERTEX
  8
Обводка_Bottom
  10
-43.3755
  20
51.3554
  42
0
  0
VERTEX
  8
Обводка_Bottom
  10
-43.18
  20
51.34
  42
0
  0
VERTEX
  8
Обводка_Bottom
  10
-42.9845
  20
51.3554
  42
0
  0
VERTEX
  8
Обводка_Bottom
  10
-42.7937
  20
51.4012
  42
0
  0
VERTEX
  8
Обводка_Bottom
  10
-42.6125
  20
51.4762
  42
0
  0
VERTEX
  8
Обводка_Bottom
  10
-42.4453
  20
51.5787
  42
0
  0
VERTEX
  8
Обводка_Bottom
  10
-42.2961
  20
51.7061
  42
0
  0
VERTEX
  8
Обводка_Bottom
  10
-42.1687
  20
51.8553
  42
0
  0
VERTEX
  8
Обводка_Bottom
  10
-42.0662
  20
52.0225
  42
0
  0
VERTEX
  8
Обводка_Bottom
  10
-41.9912
  20
52.2037
  42
0
  0
VERTEX
  8
Обводка_Bottom
  10
-41.9454
  20
52.3945
  42
0
  0
VERTEX
  8
Обводка_Bottom
  10
-41.93
  20
52.59
  42
0
  0
VERTEX
  8
Обводка_Bottom
  10
-41.93
  20
54.09
  42
0
  0
VERTEX
  8
Обводка_Bottom
  10
-41.9454
  20
54.2855
  42
0
  0
VERTEX
  8
Обводка_Bottom
  10
-41.9912
  20
54.4763
  42
0
  0
VERTEX
  8
Обводка_Bottom
  10
-42.0662
  20
54.6575
  42
0
  0
VERTEX
  8
Обводка_Bottom
  10
-42.1687
  20
54.8247
  42
0
  0
VERTEX
  8
Обводка_Bottom
  10
-42.2961
  20
54.9739
  42
0
  0
VERTEX
  8
Обводка_Bottom
  10
-42.4453
  20
55.1013
  42
0
  0
VERTEX
  8
Обводка_Bottom
  10
-42.6125
  20
55.2038
  42
0
  0
VERTEX
  8
Обводка_Bottom
  10
-42.7937
  20
55.2788
  42
0
  0
VERTEX
  8
Обводка_Bottom
  10
-42.9845
  20
55.3246
  42
0
  0
VERTEX
  8
Обводка_Bottom
  10
-43.18
  20
55.34
  42
0
  0
VERTEX
  8
Обводка_Bottom
  10
-43.3755
  20
55.3246
  42
0
  0
VERTEX
  8
Обводка_Bottom
  10
-43.5663
  20
55.2788
  42
0
  0
VERTEX
  8
Обводка_Bottom
  10
-43.7475
  20
55.2038
  42
0
  0
VERTEX
  8
Обводка_Bottom
  10
-43.9147
  20
55.1013
  42
0
  0
VERTEX
  8
Обводка_Bottom
  10
-44.0639
  20
54.9739
  42
0
  0
VERTEX
  8
Обводка_Bottom
  10
-44.1913
  20
54.8247
  42
0
  0
VERTEX
  8
Обводка_Bottom
  10
-44.2938
  20
54.6575
  42
0
  0
VERTEX
  8
Обводка_Bottom
  10
-44.3688
  20
54.4763
  42
0
  0
VERTEX
  8
Обводка_Bottom
  10
-44.4146
  20
54.2855
  42
0
  0
VERTEX
  8
Обводка_Bottom
  10
-44.43
  20
54.09
  42
0
  0
VERTEX
  8
Обводка_Bottom
  10
-44.43
  20
53.9025
  42
0
  0
SEQEND
  0
POLYLINE
  8
Обводка_Bottom
  6
CONTINUOUS
  66
1
  70
0
  40
1.0
  41
1.0
  0
VERTEX
  8
Обводка_Bottom
  10
-41.89
  20
53.9025
  42
0
  0
VERTEX
  8
Обводка_Bottom
  10
-41.89
  20
52.59
  42
0
  0
VERTEX
  8
Обводка_Bottom
  10
-41.8746
  20
52.3945
  42
0
  0
VERTEX
  8
Обводка_Bottom
  10
-41.8288
  20
52.2037
  42
0
  0
VERTEX
  8
Обводка_Bottom
  10
-41.7538
  20
52.0225
  42
0
  0
VERTEX
  8
Обводка_Bottom
  10
-41.6513
  20
51.8553
  42
0
  0
VERTEX
  8
Обводка_Bottom
  10
-41.5239
  20
51.7061
  42
0
  0
VERTEX
  8
Обводка_Bottom
  10
-41.3747
  20
51.5787
  42
0
  0
VERTEX
  8
Обводка_Bottom
  10
-41.2075
  20
51.4762
  42
0
  0
VERTEX
  8
Обводка_Bottom
  10
-41.0263
  20
51.4012
  42
0
  0
VERTEX
  8
Обводка_Bottom
  10
-40.8355
  20
51.3554
  42
0
  0
VERTEX
  8
Обводка_Bottom
  10
-40.64
  20
51.34
  42
0
  0
VERTEX
  8
Обводка_Bottom
  10
-40.4445
  20
51.3554
  42
0
  0
VERTEX
  8
Обводка_Bottom
  10
-40.2537
  20
51.4012
  42
0
  0
VERTEX
  8
Обводка_Bottom
  10
-40.0725
  20
51.4762
  42
0
  0
VERTEX
  8
Обводка_Bottom
  10
-39.9053
  20
51.5787
  42
0
  0
VERTEX
  8
Обводка_Bottom
  10
-39.7561
  20
51.7061
  42
0
  0
VERTEX
  8
Обводка_Bottom
  10
-39.6287
  20
51.8553
  42
0
  0
VERTEX
  8
Обводка_Bottom
  10
-39.5262
  20
52.0225
  42
0
  0
VERTEX
  8
Обводка_Bottom
  10
-39.4512
  20
52.2037
  42
0
  0
VERTEX
  8
Обводка_Bottom
  10
-39.4054
  20
52.3945
  42
0
  0
VERTEX
  8
Обводка_Bottom
  10
-39.39
  20
52.59
  42
0
  0
VERTEX
  8
Обводка_Bottom
  10
-39.39
  20
54.09
  42
0
  0
VERTEX
  8
Обводка_Bottom
  10
-39.4054
  20
54.2855
  42
0
  0
VERTEX
  8
Обводка_Bottom
  10
-39.4512
  20
54.4763
  42
0
  0
VERTEX
  8
Обводка_Bottom
  10
-39.5262
  20
54.6575
  42
0
  0
VERTEX
  8
Обводка_Bottom
  10
-39.6287
  20
54.8247
  42
0
  0
VERTEX
  8
Обводка_Bottom
  10
-39.7561
  20
54.9739
  42
0
  0
VERTEX
  8
Обводка_Bottom
  10
-39.9053
  20
55.1013
  42
0
  0
VERTEX
  8
Обводка_Bottom
  10
-40.0725
  20
55.2038
  42
0
  0
VERTEX
  8
Обводка_Bottom
  10
-40.2537
  20
55.2788
  42
0
  0
VERTEX
  8
Обводка_Bottom
  10
-40.4445
  20
55.3246
  42
0
  0
VERTEX
  8
Обводка_Bottom
  10
-40.64
  20
55.34
  42
0
  0
VERTEX
  8
Обводка_Bottom
  10
-40.8355
  20
55.3246
  42
0
  0
VERTEX
  8
Обводка_Bottom
  10
-41.0263
  20
55.2788
  42
0
  0
VERTEX
  8
Обводка_Bottom
  10
-41.2075
  20
55.2038
  42
0
  0
VERTEX
  8
Обводка_Bottom
  10
-41.3747
  20
55.1013
  42
0
  0
VERTEX
  8
Обводка_Bottom
  10
-41.5239
  20
54.9739
  42
0
  0
VERTEX
  8
Обводка_Bottom
  10
-41.6513
  20
54.8247
  42
0
  0
VERTEX
  8
Обводка_Bottom
  10
-41.7538
  20
54.6575
  42
0
  0
VERTEX
  8
Обводка_Bottom
  10
-41.8288
  20
54.4763
  42
0
  0
VERTEX
  8
Обводка_Bottom
  10
-41.8746
  20
54.2855
  42
0
  0
VERTEX
  8
Обводка_Bottom
  10
-41.89
  20
54.09
  42
0
  0
VERTEX
  8
Обводка_Bottom
  10
-41.89
  20
53.9025
  42
0
  0
SEQEND
  0
POLYLINE
  8
Обводка_Bottom
  6
CONTINUOUS
  66
1
  70
0
  40
1.0
  41
1.0
  0
VERTEX
  8
Обводка_Bottom
  10
-39.35
  20
53.9025
  42
0
  0
VERTEX
  8
Обводка_Bottom
  10
-39.35
  20
52.59
  42
0
  0
VERTEX
  8
Обводка_Bottom
  10
-39.3346
  20
52.3945
  42
0
  0
VERTEX
  8
Обводка_Bottom
  10
-39.2888
  20
52.2037
  42
0
  0
VERTEX
  8
Обводка_Bottom
  10
-39.2138
  20
52.0225
  42
0
  0
VERTEX
  8
Обводка_Bottom
  10
-39.1113
  20
51.8553
  42
0
  0
VERTEX
  8
Обводка_Bottom
  10
-38.9839
  20
51.7061
  42
0
  0
VERTEX
  8
Обводка_Bottom
  10
-38.8347
  20
51.5787
  42
0
  0
VERTEX
  8
Обводка_Bottom
  10
-38.6675
  20
51.4762
  42
0
  0
VERTEX
  8
Обводка_Bottom
  10
-38.4863
  20
51.4012
  42
0
  0
VERTEX
  8
Обводка_Bottom
  10
-38.2955
  20
51.3554
  42
0
  0
VERTEX
  8
Обводка_Bottom
  10
-38.1
  20
51.34
  42
0
  0
VERTEX
  8
Обводка_Bottom
  10
-37.9045
  20
51.3554
  42
0
  0
VERTEX
  8
Обводка_Bottom
  10
-37.7137
  20
51.4012
  42
0
  0
VERTEX
  8
Обводка_Bottom
  10
-37.5325
  20
51.4762
  42
0
  0
VERTEX
  8
Обводка_Bottom
  10
-37.3653
  20
51.5787
  42
0
  0
VERTEX
  8
Обводка_Bottom
  10
-37.2161
  20
51.7061
  42
0
  0
VERTEX
  8
Обводка_Bottom
  10
-37.0887
  20
51.8553
  42
0
  0
VERTEX
  8
Обводка_Bottom
  10
-36.9862
  20
52.0225
  42
0
  0
VERTEX
  8
Обводка_Bottom
  10
-36.9112
  20
52.2037
  42
0
  0
VERTEX
  8
Обводка_Bottom
  10
-36.8654
  20
52.3945
  42
0
  0
VERTEX
  8
Обводка_Bottom
  10
-36.85
  20
52.59
  42
0
  0
VERTEX
  8
Обводка_Bottom
  10
-36.85
  20
54.09
  42
0
  0
VERTEX
  8
Обводка_Bottom
  10
-36.8654
  20
54.2855
  42
0
  0
VERTEX
  8
Обводка_Bottom
  10
-36.9112
  20
54.4763
  42
0
  0
VERTEX
  8
Обводка_Bottom
  10
-36.9862
  20
54.6575
  42
0
  0
VERTEX
  8
Обводка_Bottom
  10
-37.0887
  20
54.8247
  42
0
  0
VERTEX
  8
Обводка_Bottom
  10
-37.2161
  20
54.9739
  42
0
  0
VERTEX
  8
Обводка_Bottom
  10
-37.3653
  20
55.1013
  42
0
  0
VERTEX
  8
Обводка_Bottom
  10
-37.5325
  20
55.2038
  42
0
  0
VERTEX
  8
Обводка_Bottom
  10
-37.7137
  20
55.2788
  42
0
  0
VERTEX
  8
Обводка_Bottom
  10
-37.9045
  20
55.3246
  42
0
  0
VERTEX
  8
Обводка_Bottom
  10
-38.1
  20
55.34
  42
0
  0
VERTEX
  8
Обводка_Bottom
  10
-38.2955
  20
55.3246
  42
0
  0
VERTEX
  8
Обводка_Bottom
  10
-38.4863
  20
55.2788
  42
0
  0
VERTEX
  8
Обводка_Bottom
  10
-38.6675
  20
55.2038
  42
0
  0
VERTEX
  8
Обводка_Bottom
  10
-38.8347
  20
55.1013
  42
0
  0
VERTEX
  8
Обводка_Bottom
  10
-38.9839
  20
54.9739
  42
0
  0
VERTEX
  8
Обводка_Bottom
  10
-39.1113
  20
54.8247
  42
0
  0
VERTEX
  8
Обводка_Bottom
  10
-39.2138
  20
54.6575
  42
0
  0
VERTEX
  8
Обводка_Bottom
  10
-39.2888
  20
54.4763
  42
0
  0
VERTEX
  8
Обводка_Bottom
  10
-39.3346
  20
54.2855
  42
0
  0
VERTEX
  8
Обводка_Bottom
  10
-39.35
  20
54.09
  42
0
  0
VERTEX
  8
Обводка_Bottom
  10
-39.35
  20
53.9025
  42
0
  0
SEQEND
  0
POLYLINE
  8
Обводка_Bottom
  6
CONTINUOUS
  66
1
  70
0
  40
1.0
  41
1.0
  0
VERTEX
  8
Обводка_Bottom
  10
-34.6761
  20
3.4461
  42
0
  0
VERTEX
  8
Обводка_Bottom
  10
-34.5487
  20
3.5953
  42
0
  0
VERTEX
  8
Обводка_Bottom
  10
-34.4462
  20
3.7625
  42
0
  0
VERTEX
  8
Обводка_Bottom
  10
-34.4184
  20
3.8298
  42
0
  0
VERTEX
  8
Обводка_Bottom
  10
-34.2695
  20
3.83
  42
0
  0
VERTEX
  8
Обводка_Bottom
  10
-34.27
  20
2.54
  42
0
  0
VERTEX
  8
Обводка_Bottom
  10
-34.2546
  20
2.3445
  42
0
  0
VERTEX
  8
Обводка_Bottom
  10
-34.2088
  20
2.1537
  42
0
  0
VERTEX
  8
Обводка_Bottom
  10
-34.1338
  20
1.9725
  42
0
  0
VERTEX
  8
Обводка_Bottom
  10
-34.0308
  20
1.8047
  42
0
  0
SEQEND
  0
POLYLINE
  8
Обводка_Bottom
  6
CONTINUOUS
  66
1
  70
0
  40
1.0
  41
1.0
  0
VERTEX
  8
Обводка_Bottom
  10
-59.67
  20
5.6425
  42
0
  0
VERTEX
  8
Обводка_Bottom
  10
-59.67
  20
4.33
  42
0
  0
VERTEX
  8
Обводка_Bottom
  10
-59.6546
  20
4.1345
  42
0
  0
VERTEX
  8
Обводка_Bottom
  10
-59.6088
  20
3.9437
  42
0
  0
VERTEX
  8
Обводка_Bottom
  10
-59.5338
  20
3.7625
  42
0
  0
VERTEX
  8
Обводка_Bottom
  10
-59.4313
  20
3.5953
  42
0
  0
VERTEX
  8
Обводка_Bottom
  10
-59.3039
  20
3.4461
  42
0
  0
VERTEX
  8
Обводка_Bottom
  10
-59.1547
  20
3.3187
  42
0
  0
VERTEX
  8
Обводка_Bottom
  10
-58.9875
  20
3.2162
  42
0
  0
VERTEX
  8
Обводка_Bottom
  10
-58.8063
  20
3.1412
  42
0
  0
VERTEX
  8
Обводка_Bottom
  10
-58.6155
  20
3.0954
  42
0
  0
VERTEX
  8
Обводка_Bottom
  10
-58.42
  20
3.08
  42
0
  0
VERTEX
  8
Обводка_Bottom
  10
-58.2245
  20
3.0954
  42
0
  0
VERTEX
  8
Обводка_Bottom
  10
-58.0337
  20
3.1412
  42
0
  0
VERTEX
  8
Обводка_Bottom
  10
-57.8525
  20
3.2162
  42
0
  0
VERTEX
  8
Обводка_Bottom
  10
-57.6853
  20
3.3187
  42
0
  0
VERTEX
  8
Обводка_Bottom
  10
-57.5361
  20
3.4461
  42
0
  0
VERTEX
  8
Обводка_Bottom
  10
-57.4087
  20
3.5953
  42
0
  0
VERTEX
  8
Обводка_Bottom
  10
-57.3062
  20
3.7625
  42
0
  0
VERTEX
  8
Обводка_Bottom
  10
-57.2312
  20
3.9437
  42
0
  0
VERTEX
  8
Обводка_Bottom
  10
-57.1854
  20
4.1345
  42
0
  0
VERTEX
  8
Обводка_Bottom
  10
-57.17
  20
4.33
  42
0
  0
VERTEX
  8
Обводка_Bottom
  10
-57.17
  20
5.83
  42
0
  0
VERTEX
  8
Обводка_Bottom
  10
-57.1854
  20
6.0255
  42
0
  0
VERTEX
  8
Обводка_Bottom
  10
-57.2312
  20
6.2163
  42
0
  0
VERTEX
  8
Обводка_Bottom
  10
-57.3062
  20
6.3975
  42
0
  0
VERTEX
  8
Обводка_Bottom
  10
-57.4087
  20
6.5647
  42
0
  0
VERTEX
  8
Обводка_Bottom
  10
-57.5361
  20
6.7139
  42
0
  0
VERTEX
  8
Обводка_Bottom
  10
-57.6853
  20
6.8413
  42
0
  0
VERTEX
  8
Обводка_Bottom
  10
-57.8525
  20
6.9438
  42
0
  0
VERTEX
  8
Обводка_Bottom
  10
-58.0337
  20
7.0188
  42
0
  0
VERTEX
  8
Обводка_Bottom
  10
-58.2245
  20
7.0646
  42
0
  0
VERTEX
  8
Обводка_Bottom
  10
-58.42
  20
7.08
  42
0
  0
VERTEX
  8
Обводка_Bottom
  10
-58.6155
  20
7.0646
  42
0
  0
VERTEX
  8
Обводка_Bottom
  10
-58.8063
  20
7.0188
  42
0
  0
VERTEX
  8
Обводка_Bottom
  10
-58.9875
  20
6.9438
  42
0
  0
VERTEX
  8
Обводка_Bottom
  10
-59.1547
  20
6.8413
  42
0
  0
VERTEX
  8
Обводка_Bottom
  10
-59.3039
  20
6.7139
  42
0
  0
VERTEX
  8
Обводка_Bottom
  10
-59.4313
  20
6.5647
  42
0
  0
VERTEX
  8
Обводка_Bottom
  10
-59.5338
  20
6.3975
  42
0
  0
VERTEX
  8
Обводка_Bottom
  10
-59.6088
  20
6.2163
  42
0
  0
VERTEX
  8
Обводка_Bottom
  10
-59.6546
  20
6.0255
  42
0
  0
VERTEX
  8
Обводка_Bottom
  10
-59.67
  20
5.83
  42
0
  0
VERTEX
  8
Обводка_Bottom
  10
-59.67
  20
5.6425
  42
0
  0
SEQEND
  0
POLYLINE
  8
Обводка_Bottom
  6
CONTINUOUS
  66
1
  70
0
  40
1.0
  41
1.0
  0
VERTEX
  8
Обводка_Bottom
  10
-62.21
  20
5.6425
  42
0
  0
VERTEX
  8
Обводка_Bottom
  10
-62.21
  20
4.33
  42
0
  0
VERTEX
  8
Обводка_Bottom
  10
-62.1946
  20
4.1345
  42
0
  0
VERTEX
  8
Обводка_Bottom
  10
-62.1488
  20
3.9437
  42
0
  0
VERTEX
  8
Обводка_Bottom
  10
-62.0738
  20
3.7625
  42
0
  0
VERTEX
  8
Обводка_Bottom
  10
-61.9713
  20
3.5953
  42
0
  0
VERTEX
  8
Обводка_Bottom
  10
-61.8439
  20
3.4461
  42
0
  0
VERTEX
  8
Обводка_Bottom
  10
-61.6947
  20
3.3187
  42
0
  0
VERTEX
  8
Обводка_Bottom
  10
-61.5275
  20
3.2162
  42
0
  0
VERTEX
  8
Обводка_Bottom
  10
-61.3463
  20
3.1412
  42
0
  0
VERTEX
  8
Обводка_Bottom
  10
-61.1555
  20
3.0954
  42
0
  0
VERTEX
  8
Обводка_Bottom
  10
-60.96
  20
3.08
  42
0
  0
VERTEX
  8
Обводка_Bottom
  10
-60.7645
  20
3.0954
  42
0
  0
VERTEX
  8
Обводка_Bottom
  10
-60.5737
  20
3.1412
  42
0
  0
VERTEX
  8
Обводка_Bottom
  10
-60.3925
  20
3.2162
  42
0
  0
VERTEX
  8
Обводка_Bottom
  10
-60.2253
  20
3.3187
  42
0
  0
VERTEX
  8
Обводка_Bottom
  10
-60.0761
  20
3.4461
  42
0
  0
VERTEX
  8
Обводка_Bottom
  10
-59.9487
  20
3.5953
  42
0
  0
VERTEX
  8
Обводка_Bottom
  10
-59.8462
  20
3.7625
  42
0
  0
VERTEX
  8
Обводка_Bottom
  10
-59.7712
  20
3.9437
  42
0
  0
VERTEX
  8
Обводка_Bottom
  10
-59.7254
  20
4.1345
  42
0
  0
VERTEX
  8
Обводка_Bottom
  10
-59.71
  20
4.33
  42
0
  0
VERTEX
  8
Обводка_Bottom
  10
-59.71
  20
8.3728
  42
0
  0
VERTEX
  8
Обводка_Bottom
  10
-36.3124
  20
31.7699
  42
0
  0
VERTEX
  8
Обводка_Bottom
  10
-1.27
  20
31.77
  42
0
  0
VERTEX
  8
Обводка_Bottom
  10
-1.0745
  20
31.7854
  42
0
  0
VERTEX
  8
Обводка_Bottom
  10
-0.8837
  20
31.8312
  42
0
  0
VERTEX
  8
Обводка_Bottom
  10
-0.7025
  20
31.9062
  42
0
  0
VERTEX
  8
Обводка_Bottom
  10
-0.5353
  20
32.0087
  42
0
  0
VERTEX
  8
Обводка_Bottom
  10
-0.3861
  20
32.1361
  42
0
  0
VERTEX
  8
Обводка_Bottom
  10
-0.2587
  20
32.2853
  42
0
  0
VERTEX
  8
Обводка_Bottom
  10
-0.1562
  20
32.4525
  42
0
  0
VERTEX
  8
Обводка_Bottom
  10
-0.0812
  20
32.6337
  42
0
  0
VERTEX
  8
Обводка_Bottom
  10
-0.0354
  20
32.8245
  42
0
  0
VERTEX
  8
Обводка_Bottom
  10
-0.02
  20
33.02
  42
0
  0
VERTEX
  8
Обводка_Bottom
  10
-0.0354
  20
33.2155
  42
0
  0
VERTEX
  8
Обводка_Bottom
  10
-0.0812
  20
33.4063
  42
0
  0
VERTEX
  8
Обводка_Bottom
  10
-0.1562
  20
33.5875
  42
0
  0
VERTEX
  8
Обводка_Bottom
  10
-0.2587
  20
33.7547
  42
0
  0
VERTEX
  8
Обводка_Bottom
  10
-0.3861
  20
33.9039
  42
0
  0
VERTEX
  8
Обводка_Bottom
  10
-0.5353
  20
34.0313
  42
0
  0
VERTEX
  8
Обводка_Bottom
  10
-0.7025
  20
34.1338
  42
0
  0
VERTEX
  8
Обводка_Bottom
  10
-0.8837
  20
34.2088
  42
0
  0
VERTEX
  8
Обводка_Bottom
  10
-1.0745
  20
34.2546
  42
0
  0
VERTEX
  8
Обводка_Bottom
  10
-1.27
  20
34.27
  42
0
  0
VERTEX
  8
Обводка_Bottom
  10
-36.83
  20
34.27
  42
0
  0
VERTEX
  8
Обводка_Bottom
  10
-37.0255
  20
34.2546
  42
0
  0
VERTEX
  8
Обводка_Bottom
  10
-37.2163
  20
34.2088
  42
0
  0
VERTEX
  8
Обводка_Bottom
  10
-37.3975
  20
34.1338
  42
0
  0
VERTEX
  8
Обводка_Bottom
  10
-37.5647
  20
34.0313
  42
0
  0
VERTEX
  8
Обводка_Bottom
  10
-37.7139
  20
33.9039
  42
0
  0
VERTEX
  8
Обводка_Bottom
  10
-61.8439
  20
9.7739
  42
0
  0
VERTEX
  8
Обводка_Bottom
  10
-61.9713
  20
9.6247
  42
0
  0
VERTEX
  8
Обводка_Bottom
  10
-62.0738
  20
9.4575
  42
0
  0
VERTEX
  8
Обводка_Bottom
  10
-62.1488
  20
9.2763
  42
0
  0
VERTEX
  8
Обводка_Bottom
  10
-62.1946
  20
9.0855
  42
0
  0
VERTEX
  8
Обводка_Bottom
  10
-62.21
  20
8.89
  42
0
  0
VERTEX
  8
Обводка_Bottom
  10
-62.21
  20
5.6425
  42
0
  0
SEQEND
  0
POLYLINE
  8
Обводка_Bottom
  6
CONTINUOUS
  66
1
  70
0
  40
1.0
  41
1.0
  0
VERTEX
  8
Обводка_Bottom
  10
-24.35
  20
3.79
  42
0
  0
VERTEX
  8
Обводка_Bottom
  10
-26.65
  20
3.79
  42
0
  0
VERTEX
  8
Обводка_Bottom
  10
-26.65
  20
1.29
  42
0
  0
VERTEX
  8
Обводка_Bottom
  10
-24.15
  20
1.29
  42
0
  0
VERTEX
  8
Обводка_Bottom
  10
-24.15
  20
3.79
  42
0
  0
VERTEX
  8
Обводка_Bottom
  10
-24.35
  20
3.79
  42
0
  0
SEQEND
  0
POLYLINE
  8
Обводка_Bottom
  6
CONTINUOUS
  66
1
  70
0
  40
1.0
  41
1.0
  0
VERTEX
  8
Обводка_Bottom
  10
-19.03
  20
5.6425
  42
0
  0
VERTEX
  8
Обводка_Bottom
  10
-19.03
  20
4.33
  42
0
  0
VERTEX
  8
Обводка_Bottom
  10
-19.0146
  20
4.1345
  42
0
  0
VERTEX
  8
Обводка_Bottom
  10
-18.9688
  20
3.9437
  42
0
  0
VERTEX
  8
Обводка_Bottom
  10
-18.8938
  20
3.7625
  42
0
  0
VERTEX
  8
Обводка_Bottom
  10
-18.7913
  20
3.5953
  42
0
  0
VERTEX
  8
Обводка_Bottom
  10
-18.6639
  20
3.4461
  42
0
  0
VERTEX
  8
Обводка_Bottom
  10
-18.5147
  20
3.3187
  42
0
  0
VERTEX
  8
Обводка_Bottom
  10
-18.3475
  20
3.2162
  42
0
  0
VERTEX
  8
Обводка_Bottom
  10
-18.1663
  20
3.1412
  42
0
  0
VERTEX
  8
Обводка_Bottom
  10
-17.9755
  20
3.0954
  42
0
  0
VERTEX
  8
Обводка_Bottom
  10
-17.78
  20
3.08
  42
0
  0
VERTEX
  8
Обводка_Bottom
  10
-17.5845
  20
3.0954
  42
0
  0
VERTEX
  8
Обводка_Bottom
  10
-17.3937
  20
3.1412
  42
0
  0
VERTEX
  8
Обводка_Bottom
  10
-17.2125
  20
3.2162
  42
0
  0
VERTEX
  8
Обводка_Bottom
  10
-17.0453
  20
3.3187
  42
0
  0
VERTEX
  8
Обводка_Bottom
  10
-16.8961
  20
3.4461
  42
0
  0
VERTEX
  8
Обводка_Bottom
  10
-16.7687
  20
3.5953
  42
0
  0
VERTEX
  8
Обводка_Bottom
  10
-16.6662
  20
3.7625
  42
0
  0
VERTEX
  8
Обводка_Bottom
  10
-16.5912
  20
3.9437
  42
0
  0
VERTEX
  8
Обводка_Bottom
  10
-16.5454
  20
4.1345
  42
0
  0
VERTEX
  8
Обводка_Bottom
  10
-16.53
  20
4.33
  42
0
  0
VERTEX
  8
Обводка_Bottom
  10
-16.5301
  20
5.8308
  42
0
  0
VERTEX
  8
Обводка_Bottom
  10
-15.9919
  20
6.3704
  42
0
  0
VERTEX
  8
Обводка_Bottom
  10
-1.27
  20
6.37
  42
0
  0
VERTEX
  8
Обводка_Bottom
  10
-1.0745
  20
6.3854
  42
0
  0
VERTEX
  8
Обводка_Bottom
  10
-0.8837
  20
6.4312
  42
0
  0
VERTEX
  8
Обводка_Bottom
  10
-0.7025
  20
6.5062
  42
0
  0
VERTEX
  8
Обводка_Bottom
  10
-0.5353
  20
6.6087
  42
0
  0
VERTEX
  8
Обводка_Bottom
  10
-0.3861
  20
6.7361
  42
0
  0
VERTEX
  8
Обводка_Bottom
  10
-0.2587
  20
6.8853
  42
0
  0
VERTEX
  8
Обводка_Bottom
  10
-0.1562
  20
7.0525
  42
0
  0
VERTEX
  8
Обводка_Bottom
  10
-0.0812
  20
7.2337
  42
0
  0
VERTEX
  8
Обводка_Bottom
  10
-0.0354
  20
7.4245
  42
0
  0
VERTEX
  8
Обводка_Bottom
  10
-0.02
  20
7.62
  42
0
  0
VERTEX
  8
Обводка_Bottom
  10
-0.0354
  20
7.8155
  42
0
  0
VERTEX
  8
Обводка_Bottom
  10
-0.0812
  20
8.0063
  42
0
  0
VERTEX
  8
Обводка_Bottom
  10
-0.1562
  20
8.1875
  42
0
  0
VERTEX
  8
Обводка_Bottom
  10
-0.2587
  20
8.3547
  42
0
  0
VERTEX
  8
Обводка_Bottom
  10
-0.3861
  20
8.5039
  42
0
  0
VERTEX
  8
Обводка_Bottom
  10
-0.5353
  20
8.6313
  42
0
  0
VERTEX
  8
Обводка_Bottom
  10
-0.7025
  20
8.7338
  42
0
  0
VERTEX
  8
Обводка_Bottom
  10
-0.8837
  20
8.8088
  42
0
  0
VERTEX
  8
Обводка_Bottom
  10
-1.0745
  20
8.8546
  42
0
  0
VERTEX
  8
Обводка_Bottom
  10
-1.27
  20
8.87
  42
0
  0
VERTEX
  8
Обводка_Bottom
  10
-16.51
  20
8.87
  42
0
  0
VERTEX
  8
Обводка_Bottom
  10
-16.7055
  20
8.8546
  42
0
  0
VERTEX
  8
Обводка_Bottom
  10
-16.8963
  20
8.8088
  42
0
  0
VERTEX
  8
Обводка_Bottom
  10
-17.0775
  20
8.7338
  42
0
  0
VERTEX
  8
Обводка_Bottom
  10
-17.2447
  20
8.6313
  42
0
  0
VERTEX
  8
Обводка_Bottom
  10
-17.3939
  20
8.5039
  42
0
  0
VERTEX
  8
Обводка_Bottom
  10
-18.6639
  20
7.2339
  42
0
  0
VERTEX
  8
Обводка_Bottom
  10
-18.7913
  20
7.0847
  42
0
  0
VERTEX
  8
Обводка_Bottom
  10
-18.8938
  20
6.9175
  42
0
  0
VERTEX
  8
Обводка_Bottom
  10
-18.9688
  20
6.7363
  42
0
  0
VERTEX
  8
Обводка_Bottom
  10
-19.0146
  20
6.5455
  42
0
  0
VERTEX
  8
Обводка_Bottom
  10
-19.03
  20
6.35
  42
0
  0
VERTEX
  8
Обводка_Bottom
  10
-19.03
  20
5.6425
  42
0
  0
SEQEND
  0
POLYLINE
  8
Обводка_Bottom
  6
CONTINUOUS
  66
1
  70
0
  40
1.0
  41
1.0
  0
VERTEX
  8
Обводка_Bottom
  10
-57.8575
  20
35.54
  42
0
  0
VERTEX
  8
Обводка_Bottom
  10
-59.17
  20
35.54
  42
0
  0
VERTEX
  8
Обводка_Bottom
  10
-59.3655
  20
35.5246
  42
0
  0
VERTEX
  8
Обводка_Bottom
  10
-59.5563
  20
35.4788
  42
0
  0
VERTEX
  8
Обводка_Bottom
  10
-59.7375
  20
35.4038
  42
0
  0
VERTEX
  8
Обводка_Bottom
  10
-59.9047
  20
35.3013
  42
0
  0
VERTEX
  8
Обводка_Bottom
  10
-60.0539
  20
35.1739
  42
0
  0
VERTEX
  8
Обводка_Bottom
  10
-60.1813
  20
35.0247
  42
0
  0
VERTEX
  8
Обводка_Bottom
  10
-60.2838
  20
34.8575
  42
0
  0
VERTEX
  8
Обводка_Bottom
  10
-60.3588
  20
34.6763
  42
0
  0
VERTEX
  8
Обводка_Bottom
  10
-60.4046
  20
34.4855
  42
0
  0
VERTEX
  8
Обводка_Bottom
  10
-60.42
  20
34.29
  42
0
  0
VERTEX
  8
Обводка_Bottom
  10
-60.4046
  20
34.0945
  42
0
  0
VERTEX
  8
Обводка_Bottom
  10
-60.3588
  20
33.9037
  42
0
  0
VERTEX
  8
Обводка_Bottom
  10
-60.2838
  20
33.7225
  42
0
  0
VERTEX
  8
Обводка_Bottom
  10
-60.1813
  20
33.5553
  42
0
  0
VERTEX
  8
Обводка_Bottom
  10
-60.0539
  20
33.4061
  42
0
  0
VERTEX
  8
Обводка_Bottom
  10
-59.9047
  20
33.2787
  42
0
  0
VERTEX
  8
Обводка_Bottom
  10
-59.7375
  20
33.1762
  42
0
  0
VERTEX
  8
Обводка_Bottom
  10
-59.5563
  20
33.1012
  42
0
  0
VERTEX
  8
Обводка_Bottom
  10
-59.3655
  20
33.0554
  42
0
  0
VERTEX
  8
Обводка_Bottom
  10
-59.17
  20
33.04
  42
0
  0
VERTEX
  8
Обводка_Bottom
  10
-57.67
  20
33.04
  42
0
  0
VERTEX
  8
Обводка_Bottom
  10
-57.4745
  20
33.0554
  42
0
  0
VERTEX
  8
Обводка_Bottom
  10
-57.2837
  20
33.1012
  42
0
  0
VERTEX
  8
Обводка_Bottom
  10
-57.1025
  20
33.1762
  42
0
  0
VERTEX
  8
Обводка_Bottom
  10
-56.9353
  20
33.2787
  42
0
  0
VERTEX
  8
Обводка_Bottom
  10
-56.7861
  20
33.4061
  42
0
  0
VERTEX
  8
Обводка_Bottom
  10
-56.6587
  20
33.5553
  42
0
  0
VERTEX
  8
Обводка_Bottom
  10
-56.5562
  20
33.7225
  42
0
  0
VERTEX
  8
Обводка_Bottom
  10
-56.4812
  20
33.9037
  42
0
  0
VERTEX
  8
Обводка_Bottom
  10
-56.4354
  20
34.0945
  42
0
  0
VERTEX
  8
Обводка_Bottom
  10
-56.42
  20
34.29
  42
0
  0
VERTEX
  8
Обводка_Bottom
  10
-56.4354
  20
34.4855
  42
0
  0
VERTEX
  8
Обводка_Bottom
  10
-56.4812
  20
34.6763
  42
0
  0
VERTEX
  8
Обводка_Bottom
  10
-56.5562
  20
34.8575
  42
0
  0
VERTEX
  8
Обводка_Bottom
  10
-56.6587
  20
35.0247
  42
0
  0
VERTEX
  8
Обводка_Bottom
  10
-56.7861
  20
35.1739
  42
0
  0
VERTEX
  8
Обводка_Bottom
  10
-56.9353
  20
35.3013
  42
0
  0
VERTEX
  8
Обводка_Bottom
  10
-57.1025
  20
35.4038
  42
0
  0
VERTEX
  8
Обводка_Bottom
  10
-57.2837
  20
35.4788
  42
0
  0
VERTEX
  8
Обводка_Bottom
  10
-57.4745
  20
35.5246
  42
0
  0
VERTEX
  8
Обводка_Bottom
  10
-57.67
  20
35.54
  42
0
  0
VERTEX
  8
Обводка_Bottom
  10
-57.8575
  20
35.54
  42
0
  0
SEQEND
  0
POLYLINE
  8
Обводка_Bottom
  6
CONTINUOUS
  66
1
  70
0
  40
1.0
  41
1.0
  0
VERTEX
  8
Обводка_Bottom
  10
-60.0533
  20
32.6344
  42
0
  0
VERTEX
  8
Обводка_Bottom
  10
-59.9047
  20
32.7613
  42
0
  0
VERTEX
  8
Обводка_Bottom
  10
-59.7375
  20
32.8638
  42
0
  0
VERTEX
  8
Обводка_Bottom
  10
-59.5563
  20
32.9388
  42
0
  0
VERTEX
  8
Обводка_Bottom
  10
-59.3655
  20
32.9846
  42
0
  0
VERTEX
  8
Обводка_Bottom
  10
-59.0575
  20
33.0
  42
0
  0
VERTEX
  8
Обводка_Bottom
  10
-57.67
  20
33.0
  42
0
  0
VERTEX
  8
Обводка_Bottom
  10
-57.4745
  20
32.9846
  42
0
  0
VERTEX
  8
Обводка_Bottom
  10
-57.2837
  20
32.9388
  42
0
  0
VERTEX
  8
Обводка_Bottom
  10
-57.1025
  20
32.8638
  42
0
  0
VERTEX
  8
Обводка_Bottom
  10
-56.9353
  20
32.7613
  42
0
  0
VERTEX
  8
Обводка_Bottom
  10
-56.7861
  20
32.6339
  42
0
  0
SEQEND
  0
POLYLINE
  8
Обводка_Bottom
  6
CONTINUOUS
  66
1
  70
0
  40
1.0
  41
1.0
  0
VERTEX
  8
Обводка_Bottom
  10
-60.0539
  20
30.8661
  42
0
  0
VERTEX
  8
Обводка_Bottom
  10
-59.9047
  20
30.7387
  42
0
  0
VERTEX
  8
Обводка_Bottom
  10
-59.7375
  20
30.6362
  42
0
  0
VERTEX
  8
Обводка_Bottom
  10
-59.5563
  20
30.5612
  42
0
  0
VERTEX
  8
Обводка_Bottom
  10
-59.3655
  20
30.5154
  42
0
  0
VERTEX
  8
Обводка_Bottom
  10
-59.17
  20
30.5
  42
0
  0
VERTEX
  8
Обводка_Bottom
  10
-57.67
  20
30.5
  42
0
  0
VERTEX
  8
Обводка_Bottom
  10
-57.4745
  20
30.5154
  42
0
  0
VERTEX
  8
Обводка_Bottom
  10
-57.2837
  20
30.5612
  42
0
  0
VERTEX
  8
Обводка_Bottom
  10
-57.1025
  20
30.6362
  42
0
  0
VERTEX
  8
Обводка_Bottom
  10
-56.9353
  20
30.7387
  42
0
  0
VERTEX
  8
Обводка_Bottom
  10
-56.7867
  20
30.8656
  42
0
  0
SEQEND
  0
POLYLINE
  8
Обводка_Bottom
  6
CONTINUOUS
  66
1
  70
0
  40
1.0
  41
1.0
  0
VERTEX
  8
Обводка_Bottom
  10
-57.8575
  20
30.46
  42
0
  0
VERTEX
  8
Обводка_Bottom
  10
-59.17
  20
30.46
  42
0
  0
VERTEX
  8
Обводка_Bottom
  10
-59.3655
  20
30.4446
  42
0
  0
VERTEX
  8
Обводка_Bottom
  10
-59.5563
  20
30.3988
  42
0
  0
VERTEX
  8
Обводка_Bottom
  10
-59.7375
  20
30.3238
  42
0
  0
VERTEX
  8
Обводка_Bottom
  10
-59.9047
  20
30.2213
  42
0
  0
VERTEX
  8
Обводка_Bottom
  10
-60.0539
  20
30.0939
  42
0
  0
VERTEX
  8
Обводка_Bottom
  10
-60.1813
  20
29.9447
  42
0
  0
VERTEX
  8
Обводка_Bottom
  10
-60.2838
  20
29.7775
  42
0
  0
VERTEX
  8
Обводка_Bottom
  10
-60.3588
  20
29.5963
  42
0
  0
VERTEX
  8
Обводка_Bottom
  10
-60.4046
  20
29.4055
  42
0
  0
VERTEX
  8
Обводка_Bottom
  10
-60.42
  20
29.21
  42
0
  0
VERTEX
  8
Обводка_Bottom
  10
-60.4046
  20
29.0145
  42
0
  0
VERTEX
  8
Обводка_Bottom
  10
-60.3588
  20
28.8237
  42
0
  0
VERTEX
  8
Обводка_Bottom
  10
-60.2838
  20
28.6425
  42
0
  0
VERTEX
  8
Обводка_Bottom
  10
-60.1813
  20
28.4753
  42
0
  0
VERTEX
  8
Обводка_Bottom
  10
-60.0539
  20
28.3261
  42
0
  0
VERTEX
  8
Обводка_Bottom
  10
-59.9047
  20
28.1987
  42
0
  0
VERTEX
  8
Обводка_Bottom
  10
-59.7375
  20
28.0962
  42
0
  0
VERTEX
  8
Обводка_Bottom
  10
-59.5563
  20
28.0212
  42
0
  0
VERTEX
  8
Обводка_Bottom
  10
-59.3655
  20
27.9754
  42
0
  0
VERTEX
  8
Обводка_Bottom
  10
-59.17
  20
27.96
  42
0
  0
VERTEX
  8
Обводка_Bottom
  10
-57.67
  20
27.96
  42
0
  0
VERTEX
  8
Обводка_Bottom
  10
-57.4745
  20
27.9754
  42
0
  0
VERTEX
  8
Обводка_Bottom
  10
-57.2837
  20
28.0212
  42
0
  0
VERTEX
  8
Обводка_Bottom
  10
-57.1025
  20
28.0962
  42
0
  0
VERTEX
  8
Обводка_Bottom
  10
-56.9353
  20
28.1987
  42
0
  0
VERTEX
  8
Обводка_Bottom
  10
-56.7861
  20
28.3261
  42
0
  0
VERTEX
  8
Обводка_Bottom
  10
-56.6587
  20
28.4753
  42
0
  0
VERTEX
  8
Обводка_Bottom
  10
-56.5562
  20
28.6425
  42
0
  0
VERTEX
  8
Обводка_Bottom
  10
-56.4812
  20
28.8237
  42
0
  0
VERTEX
  8
Обводка_Bottom
  10
-56.4354
  20
29.0145
  42
0
  0
VERTEX
  8
Обводка_Bottom
  10
-56.42
  20
29.21
  42
0
  0
VERTEX
  8
Обводка_Bottom
  10
-56.4354
  20
29.4055
  42
0
  0
VERTEX
  8
Обводка_Bottom
  10
-56.4812
  20
29.5963
  42
0
  0
VERTEX
  8
Обводка_Bottom
  10
-56.5562
  20
29.7775
  42
0
  0
VERTEX
  8
Обводка_Bottom
  10
-56.6587
  20
29.9447
  42
0
  0
VERTEX
  8
Обводка_Bottom
  10
-56.7861
  20
30.0939
  42
0
  0
VERTEX
  8
Обводка_Bottom
  10
-56.9353
  20
30.2213
  42
0
  0
VERTEX
  8
Обводка_Bottom
  10
-57.1025
  20
30.3238
  42
0
  0
VERTEX
  8
Обводка_Bottom
  10
-57.2837
  20
30.3988
  42
0
  0
VERTEX
  8
Обводка_Bottom
  10
-57.4745
  20
30.4446
  42
0
  0
VERTEX
  8
Обводка_Bottom
  10
-57.67
  20
30.46
  42
0
  0
VERTEX
  8
Обводка_Bottom
  10
-57.8575
  20
30.46
  42
0
  0
SEQEND
  0
POLYLINE
  8
Обводка_Bottom
  6
CONTINUOUS
  66
1
  70
0
  40
1.0
  41
1.0
  0
VERTEX
  8
Обводка_Bottom
  10
-57.8575
  20
27.92
  42
0
  0
VERTEX
  8
Обводка_Bottom
  10
-59.17
  20
27.92
  42
0
  0
VERTEX
  8
Обводка_Bottom
  10
-59.3655
  20
27.9046
  42
0
  0
VERTEX
  8
Обводка_Bottom
  10
-59.5563
  20
27.8588
  42
0
  0
VERTEX
  8
Обводка_Bottom
  10
-59.7375
  20
27.7838
  42
0
  0
VERTEX
  8
Обводка_Bottom
  10
-59.9047
  20
27.6813
  42
0
  0
VERTEX
  8
Обводка_Bottom
  10
-60.0539
  20
27.5539
  42
0
  0
VERTEX
  8
Обводка_Bottom
  10
-60.1813
  20
27.4047
  42
0
  0
VERTEX
  8
Обводка_Bottom
  10
-60.2838
  20
27.2375
  42
0
  0
VERTEX
  8
Обводка_Bottom
  10
-60.3588
  20
27.0563
  42
0
  0
VERTEX
  8
Обводка_Bottom
  10
-60.4046
  20
26.8655
  42
0
  0
VERTEX
  8
Обводка_Bottom
  10
-60.42
  20
26.67
  42
0
  0
VERTEX
  8
Обводка_Bottom
  10
-60.4046
  20
26.4745
  42
0
  0
VERTEX
  8
Обводка_Bottom
  10
-60.3588
  20
26.2837
  42
0
  0
VERTEX
  8
Обводка_Bottom
  10
-60.2838
  20
26.1025
  42
0
  0
VERTEX
  8
Обводка_Bottom
  10
-60.1813
  20
25.9353
  42
0
  0
VERTEX
  8
Обводка_Bottom
  10
-60.0539
  20
25.7861
  42
0
  0
VERTEX
  8
Обводка_Bottom
  10
-59.9047
  20
25.6587
  42
0
  0
VERTEX
  8
Обводка_Bottom
  10
-59.7375
  20
25.5562
  42
0
  0
VERTEX
  8
Обводка_Bottom
  10
-59.5563
  20
25.4812
  42
0
  0
VERTEX
  8
Обводка_Bottom
  10
-59.3655
  20
25.4354
  42
0
  0
VERTEX
  8
Обводка_Bottom
  10
-59.17
  20
25.42
  42
0
  0
VERTEX
  8
Обводка_Bottom
  10
-57.67
  20
25.42
  42
0
  0
VERTEX
  8
Обводка_Bottom
  10
-57.4745
  20
25.4354
  42
0
  0
VERTEX
  8
Обводка_Bottom
  10
-57.2837
  20
25.4812
  42
0
  0
VERTEX
  8
Обводка_Bottom
  10
-57.1025
  20
25.5562
  42
0
  0
VERTEX
  8
Обводка_Bottom
  10
-56.9353
  20
25.6587
  42
0
  0
VERTEX
  8
Обводка_Bottom
  10
-56.7861
  20
25.7861
  42
0
  0
VERTEX
  8
Обводка_Bottom
  10
-56.6587
  20
25.9353
  42
0
  0
VERTEX
  8
Обводка_Bottom
  10
-56.5562
  20
26.1025
  42
0
  0
VERTEX
  8
Обводка_Bottom
  10
-56.4812
  20
26.2837
  42
0
  0
VERTEX
  8
Обводка_Bottom
  10
-56.4354
  20
26.4745
  42
0
  0
VERTEX
  8
Обводка_Bottom
  10
-56.42
  20
26.67
  42
0
  0
VERTEX
  8
Обводка_Bottom
  10
-56.4354
  20
26.8655
  42
0
  0
VERTEX
  8
Обводка_Bottom
  10
-56.4812
  20
27.0563
  42
0
  0
VERTEX
  8
Обводка_Bottom
  10
-56.5562
  20
27.2375
  42
0
  0
VERTEX
  8
Обводка_Bottom
  10
-56.6587
  20
27.4047
  42
0
  0
VERTEX
  8
Обводка_Bottom
  10
-56.7861
  20
27.5539
  42
0
  0
VERTEX
  8
Обводка_Bottom
  10
-56.9353
  20
27.6813
  42
0
  0
VERTEX
  8
Обводка_Bottom
  10
-57.1025
  20
27.7838
  42
0
  0
VERTEX
  8
Обводка_Bottom
  10
-57.2837
  20
27.8588
  42
0
  0
VERTEX
  8
Обводка_Bottom
  10
-57.4745
  20
27.9046
  42
0
  0
VERTEX
  8
Обводка_Bottom
  10
-57.67
  20
27.92
  42
0
  0
VERTEX
  8
Обводка_Bottom
  10
-57.8575
  20
27.92
  42
0
  0
SEQEND
  0
POLYLINE
  8
Обводка_Bottom
  6
CONTINUOUS
  66
1
  70
0
  40
1.0
  41
1.0
  0
VERTEX
  8
Обводка_Bottom
  10
-32.0386
  20
1.29
  42
0
  0
VERTEX
  8
Обводка_Bottom
  10
-29.23
  20
1.29
  42
0
  0
VERTEX
  8
Обводка_Bottom
  10
-29.23
  20
3.79
  42
0
  0
VERTEX
  8
Обводка_Bottom
  10
-31.77
  20
3.79
  42
0
  0
VERTEX
  8
Обводка_Bottom
  10
-31.77
  20
13.4516
  42
0
  0
VERTEX
  8
Обводка_Bottom
  10
-23.6119
  20
21.6103
  42
0
  0
VERTEX
  8
Обводка_Bottom
  10
-1.27
  20
21.61
  42
0
  0
VERTEX
  8
Обводка_Bottom
  10
-1.0745
  20
21.6254
  42
0
  0
VERTEX
  8
Обводка_Bottom
  10
-0.8837
  20
21.6712
  42
0
  0
VERTEX
  8
Обводка_Bottom
  10
-0.7025
  20
21.7462
  42
0
  0
VERTEX
  8
Обводка_Bottom
  10
-0.5353
  20
21.8487
  42
0
  0
VERTEX
  8
Обводка_Bottom
  10
-0.3861
  20
21.9761
  42
0
  0
VERTEX
  8
Обводка_Bottom
  10
-0.2587
  20
22.1253
  42
0
  0
VERTEX
  8
Обводка_Bottom
  10
-0.1562
  20
22.2925
  42
0
  0
VERTEX
  8
Обводка_Bottom
  10
-0.0812
  20
22.4737
  42
0
  0
VERTEX
  8
Обводка_Bottom
  10
-0.0354
  20
22.6645
  42
0
  0
VERTEX
  8
Обводка_Bottom
  10
-0.02
  20
22.86
  42
0
  0
VERTEX
  8
Обводка_Bottom
  10
-0.0354
  20
23.0555
  42
0
  0
VERTEX
  8
Обводка_Bottom
  10
-0.0812
  20
23.2463
  42
0
  0
VERTEX
  8
Обводка_Bottom
  10
-0.1562
  20
23.4275
  42
0
  0
VERTEX
  8
Обводка_Bottom
  10
-0.2587
  20
23.5947
  42
0
  0
VERTEX
  8
Обводка_Bottom
  10
-0.3861
  20
23.7439
  42
0
  0
VERTEX
  8
Обводка_Bottom
  10
-0.5353
  20
23.8713
  42
0
  0
VERTEX
  8
Обводка_Bottom
  10
-0.7025
  20
23.9738
  42
0
  0
VERTEX
  8
Обводка_Bottom
  10
-0.8837
  20
24.0488
  42
0
  0
VERTEX
  8
Обводка_Bottom
  10
-1.0745
  20
24.0946
  42
0
  0
VERTEX
  8
Обводка_Bottom
  10
-1.27
  20
24.11
  42
0
  0
VERTEX
  8
Обводка_Bottom
  10
-24.13
  20
24.11
  42
0
  0
VERTEX
  8
Обводка_Bottom
  10
-24.3255
  20
24.0946
  42
0
  0
VERTEX
  8
Обводка_Bottom
  10
-24.5163
  20
24.0488
  42
0
  0
VERTEX
  8
Обводка_Bottom
  10
-24.6975
  20
23.9738
  42
0
  0
VERTEX
  8
Обводка_Bottom
  10
-24.8647
  20
23.8713
  42
0
  0
VERTEX
  8
Обводка_Bottom
  10
-25.0139
  20
23.7439
  42
0
  0
VERTEX
  8
Обводка_Bottom
  10
-33.9039
  20
14.8539
  42
0
  0
VERTEX
  8
Обводка_Bottom
  10
-34.0313
  20
14.7047
  42
0
  0
VERTEX
  8
Обводка_Bottom
  10
-34.1338
  20
14.5375
  42
0
  0
VERTEX
  8
Обводка_Bottom
  10
-34.2088
  20
14.3563
  42
0
  0
VERTEX
  8
Обводка_Bottom
  10
-34.2546
  20
14.1655
  42
0
  0
VERTEX
  8
Обводка_Bottom
  10
-34.27
  20
13.97
  42
0
  0
VERTEX
  8
Обводка_Bottom
  10
-34.2697
  20
6.33
  42
0
  0
VERTEX
  8
Обводка_Bottom
  10
-34.3101
  20
6.33
  42
0
  0
VERTEX
  8
Обводка_Bottom
  10
-34.31
  20
14.7215
  42
0
  0
VERTEX
  8
Обводка_Bottom
  10
-24.8824
  20
24.1498
  42
0
  0
VERTEX
  8
Обводка_Bottom
  10
-1.27
  20
24.15
  42
0
  0
VERTEX
  8
Обводка_Bottom
  10
-1.0745
  20
24.1654
  42
0
  0
VERTEX
  8
Обводка_Bottom
  10
-0.8837
  20
24.2112
  42
0
  0
VERTEX
  8
Обводка_Bottom
  10
-0.7025
  20
24.2862
  42
0
  0
VERTEX
  8
Обводка_Bottom
  10
-0.5353
  20
24.3887
  42
0
  0
VERTEX
  8
Обводка_Bottom
  10
-0.3861
  20
24.5161
  42
0
  0
VERTEX
  8
Обводка_Bottom
  10
-0.2587
  20
24.6653
  42
0
  0
VERTEX
  8
Обводка_Bottom
  10
-0.1562
  20
24.8325
  42
0
  0
VERTEX
  8
Обводка_Bottom
  10
-0.0812
  20
25.0137
  42
0
  0
VERTEX
  8
Обводка_Bottom
  10
-0.0354
  20
25.2045
  42
0
  0
VERTEX
  8
Обводка_Bottom
  10
-0.02
  20
25.4
  42
0
  0
VERTEX
  8
Обводка_Bottom
  10
-0.0354
  20
25.5955
  42
0
  0
VERTEX
  8
Обводка_Bottom
  10
-0.0812
  20
25.7863
  42
0
  0
VERTEX
  8
Обводка_Bottom
  10
-0.1562
  20
25.9675
  42
0
  0
VERTEX
  8
Обводка_Bottom
  10
-0.2587
  20
26.1347
  42
0
  0
VERTEX
  8
Обводка_Bottom
  10
-0.3861
  20
26.2839
  42
0
  0
VERTEX
  8
Обводка_Bottom
  10
-0.5353
  20
26.4113
  42
0
  0
VERTEX
  8
Обводка_Bottom
  10
-0.7025
  20
26.5138
  42
0
  0
VERTEX
  8
Обводка_Bottom
  10
-0.8837
  20
26.5888
  42
0
  0
VERTEX
  8
Обводка_Bottom
  10
-1.0745
  20
26.6346
  42
0
  0
VERTEX
  8
Обводка_Bottom
  10
-1.27
  20
26.65
  42
0
  0
VERTEX
  8
Обводка_Bottom
  10
-25.4
  20
26.65
  42
0
  0
VERTEX
  8
Обводка_Bottom
  10
-25.5955
  20
26.6346
  42
0
  0
VERTEX
  8
Обводка_Bottom
  10
-25.7863
  20
26.5888
  42
0
  0
VERTEX
  8
Обводка_Bottom
  10
-25.9675
  20
26.5138
  42
0
  0
VERTEX
  8
Обводка_Bottom
  10
-26.1347
  20
26.4113
  42
0
  0
VERTEX
  8
Обводка_Bottom
  10
-26.2839
  20
26.2839
  42
0
  0
VERTEX
  8
Обводка_Bottom
  10
-36.4439
  20
16.1239
  42
0
  0
VERTEX
  8
Обводка_Bottom
  10
-36.5713
  20
15.9747
  42
0
  0
VERTEX
  8
Обводка_Bottom
  10
-36.6738
  20
15.8075
  42
0
  0
VERTEX
  8
Обводка_Bottom
  10
-36.7488
  20
15.6263
  42
0
  0
VERTEX
  8
Обводка_Bottom
  10
-36.7946
  20
15.4355
  42
0
  0
VERTEX
  8
Обводка_Bottom
  10
-36.81
  20
15.24
  42
0
  0
VERTEX
  8
Обводка_Bottom
  10
-36.8154
  20
6.33
  42
0
  0
VERTEX
  8
Обводка_Bottom
  10
-36.8505
  20
6.33
  42
0
  0
VERTEX
  8
Обводка_Bottom
  10
-36.85
  20
15.9919
  42
0
  0
VERTEX
  8
Обводка_Bottom
  10
-26.1525
  20
26.6898
  42
0
  0
VERTEX
  8
Обводка_Bottom
  10
-1.27
  20
26.69
  42
0
  0
VERTEX
  8
Обводка_Bottom
  10
-1.0745
  20
26.7054
  42
0
  0
VERTEX
  8
Обводка_Bottom
  10
-0.8837
  20
26.7512
  42
0
  0
VERTEX
  8
Обводка_Bottom
  10
-0.7025
  20
26.8262
  42
0
  0
VERTEX
  8
Обводка_Bottom
  10
-0.5353
  20
26.9287
  42
0
  0
VERTEX
  8
Обводка_Bottom
  10
-0.3861
  20
27.0561
  42
0
  0
VERTEX
  8
Обводка_Bottom
  10
-0.2587
  20
27.2053
  42
0
  0
VERTEX
  8
Обводка_Bottom
  10
-0.1562
  20
27.3725
  42
0
  0
VERTEX
  8
Обводка_Bottom
  10
-0.0812
  20
27.5537
  42
0
  0
VERTEX
  8
Обводка_Bottom
  10
-0.0354
  20
27.7445
  42
0
  0
VERTEX
  8
Обводка_Bottom
  10
-0.02
  20
27.94
  42
0
  0
VERTEX
  8
Обводка_Bottom
  10
-0.0354
  20
28.1355
  42
0
  0
VERTEX
  8
Обводка_Bottom
  10
-0.0812
  20
28.3263
  42
0
  0
VERTEX
  8
Обводка_Bottom
  10
-0.1562
  20
28.5075
  42
0
  0
VERTEX
  8
Обводка_Bottom
  10
-0.2587
  20
28.6747
  42
0
  0
VERTEX
  8
Обводка_Bottom
  10
-0.3861
  20
28.8239
  42
0
  0
VERTEX
  8
Обводка_Bottom
  10
-0.5353
  20
28.9513
  42
0
  0
VERTEX
  8
Обводка_Bottom
  10
-0.7025
  20
29.0538
  42
0
  0
VERTEX
  8
Обводка_Bottom
  10
-0.8837
  20
29.1288
  42
0
  0
VERTEX
  8
Обводка_Bottom
  10
-1.0745
  20
29.1746
  42
0
  0
VERTEX
  8
Обводка_Bottom
  10
-1.27
  20
29.19
  42
0
  0
VERTEX
  8
Обводка_Bottom
  10
-26.67
  20
29.19
  42
0
  0
VERTEX
  8
Обводка_Bottom
  10
-26.8655
  20
29.1746
  42
0
  0
VERTEX
  8
Обводка_Bottom
  10
-27.0563
  20
29.1288
  42
0
  0
VERTEX
  8
Обводка_Bottom
  10
-27.2375
  20
29.0538
  42
0
  0
VERTEX
  8
Обводка_Bottom
  10
-27.4047
  20
28.9513
  42
0
  0
VERTEX
  8
Обводка_Bottom
  10
-27.5539
  20
28.8239
  42
0
  0
VERTEX
  8
Обводка_Bottom
  10
-38.9839
  20
17.3939
  42
0
  0
VERTEX
  8
Обводка_Bottom
  10
-39.1113
  20
17.2447
  42
0
  0
VERTEX
  8
Обводка_Bottom
  10
-39.2138
  20
17.0775
  42
0
  0
VERTEX
  8
Обводка_Bottom
  10
-39.2888
  20
16.8963
  42
0
  0
VERTEX
  8
Обводка_Bottom
  10
-39.3346
  20
16.7055
  42
0
  0
VERTEX
  8
Обводка_Bottom
  10
-39.35
  20
16.51
  42
0
  0
VERTEX
  8
Обводка_Bottom
  10
-39.35
  20
4.33
  42
0
  0
VERTEX
  8
Обводка_Bottom
  10
-39.3346
  20
4.1345
  42
0
  0
VERTEX
  8
Обводка_Bottom
  10
-39.2888
  20
3.9437
  42
0
  0
VERTEX
  8
Обводка_Bottom
  10
-39.2138
  20
3.7625
  42
0
  0
VERTEX
  8
Обводка_Bottom
  10
-39.1113
  20
3.5953
  42
0
  0
VERTEX
  8
Обводка_Bottom
  10
-38.9844
  20
3.4467
  42
0
  0
SEQEND
  0
POLYLINE
  8
Обводка_Bottom
  6
CONTINUOUS
  66
1
  70
0
  40
1.0
  41
1.0
  0
VERTEX
  8
Обводка_Bottom
  10
-16.2508
  20
4.3447
  42
0
  0
VERTEX
  8
Обводка_Bottom
  10
-16.3538
  20
4.5125
  42
0
  0
VERTEX
  8
Обводка_Bottom
  10
-16.4288
  20
4.6937
  42
0
  0
VERTEX
  8
Обводка_Bottom
  10
-16.4746
  20
4.8845
  42
0
  0
VERTEX
  8
Обводка_Bottom
  10
-16.49
  20
5.08
  42
0
  0
VERTEX
  8
Обводка_Bottom
  10
-16.4746
  20
5.2755
  42
0
  0
VERTEX
  8
Обводка_Bottom
  10
-16.4288
  20
5.4663
  42
0
  0
VERTEX
  8
Обводка_Bottom
  10
-16.3538
  20
5.6475
  42
0
  0
VERTEX
  8
Обводка_Bottom
  10
-16.2513
  20
5.8147
  42
0
  0
VERTEX
  8
Обводка_Bottom
  10
-16.1239
  20
5.9639
  42
0
  0
VERTEX
  8
Обводка_Bottom
  10
-15.9747
  20
6.0913
  42
0
  0
VERTEX
  8
Обводка_Bottom
  10
-15.8075
  20
6.1938
  42
0
  0
VERTEX
  8
Обводка_Bottom
  10
-15.6263
  20
6.2688
  42
0
  0
VERTEX
  8
Обводка_Bottom
  10
-15.4355
  20
6.3146
  42
0
  0
VERTEX
  8
Обводка_Bottom
  10
-15.24
  20
6.33
  42
0
  0
VERTEX
  8
Обводка_Bottom
  10
-1.27
  20
6.33
  42
0
  0
VERTEX
  8
Обводка_Bottom
  10
-1.0745
  20
6.3146
  42
0
  0
VERTEX
  8
Обводка_Bottom
  10
-0.8837
  20
6.2688
  42
0
  0
VERTEX
  8
Обводка_Bottom
  10
-0.7025
  20
6.1938
  42
0
  0
VERTEX
  8
Обводка_Bottom
  10
-0.5353
  20
6.0913
  42
0
  0
VERTEX
  8
Обводка_Bottom
  10
-0.3861
  20
5.9639
  42
0
  0
VERTEX
  8
Обводка_Bottom
  10
-0.2587
  20
5.8147
  42
0
  0
VERTEX
  8
Обводка_Bottom
  10
-0.1562
  20
5.6475
  42
0
  0
VERTEX
  8
Обводка_Bottom
  10
-0.0812
  20
5.4663
  42
0
  0
VERTEX
  8
Обводка_Bottom
  10
-0.0354
  20
5.2755
  42
0
  0
VERTEX
  8
Обводка_Bottom
  10
-0.02
  20
5.08
  42
0
  0
VERTEX
  8
Обводка_Bottom
  10
-0.0354
  20
4.8845
  42
0
  0
VERTEX
  8
Обводка_Bottom
  10
-0.0812
  20
4.6937
  42
0
  0
VERTEX
  8
Обводка_Bottom
  10
-0.1562
  20
4.5125
  42
0
  0
VERTEX
  8
Обводка_Bottom
  10
-0.2587
  20
4.3453
  42
0
  0
VERTEX
  8
Обводка_Bottom
  10
-0.3861
  20
4.1961
  42
0
  0
VERTEX
  8
Обводка_Bottom
  10
-0.5353
  20
4.0687
  42
0
  0
VERTEX
  8
Обводка_Bottom
  10
-0.7025
  20
3.9662
  42
0
  0
VERTEX
  8
Обводка_Bottom
  10
-0.8837
  20
3.8912
  42
0
  0
VERTEX
  8
Обводка_Bottom
  10
-1.0745
  20
3.8454
  42
0
  0
VERTEX
  8
Обводка_Bottom
  10
-1.27
  20
3.83
  42
0
  0
VERTEX
  8
Обводка_Bottom
  10
-14.2404
  20
3.83
  42
0
  0
SEQEND
  0
POLYLINE
  8
Обводка_Bottom
  6
CONTINUOUS
  66
1
  70
0
  40
1.0
  41
1.0
  0
VERTEX
  8
Обводка_Bottom
  10
-21.0728
  20
16.53
  42
0
  0
VERTEX
  8
Обводка_Bottom
  10
-1.27
  20
16.53
  42
0
  0
VERTEX
  8
Обводка_Bottom
  10
-1.0745
  20
16.5454
  42
0
  0
VERTEX
  8
Обводка_Bottom
  10
-0.8837
  20
16.5912
  42
0
  0
VERTEX
  8
Обводка_Bottom
  10
-0.7025
  20
16.6662
  42
0
  0
VERTEX
  8
Обводка_Bottom
  10
-0.5353
  20
16.7687
  42
0
  0
VERTEX
  8
Обводка_Bottom
  10
-0.3861
  20
16.8961
  42
0
  0
VERTEX
  8
Обводка_Bottom
  10
-0.2587
  20
17.0453
  42
0
  0
VERTEX
  8
Обводка_Bottom
  10
-0.1562
  20
17.2125
  42
0
  0
VERTEX
  8
Обводка_Bottom
  10
-0.0812
  20
17.3937
  42
0
  0
VERTEX
  8
Обводка_Bottom
  10
-0.0354
  20
17.5845
  42
0
  0
VERTEX
  8
Обводка_Bottom
  10
-0.02
  20
17.78
  42
0
  0
VERTEX
  8
Обводка_Bottom
  10
-0.0354
  20
17.9755
  42
0
  0
VERTEX
  8
Обводка_Bottom
  10
-0.0812
  20
18.1663
  42
0
  0
VERTEX
  8
Обводка_Bottom
  10
-0.1562
  20
18.3475
  42
0
  0
VERTEX
  8
Обводка_Bottom
  10
-0.2587
  20
18.5147
  42
0
  0
VERTEX
  8
Обводка_Bottom
  10
-0.3861
  20
18.6639
  42
0
  0
VERTEX
  8
Обводка_Bottom
  10
-0.5353
  20
18.7913
  42
0
  0
VERTEX
  8
Обводка_Bottom
  10
-0.7025
  20
18.8938
  42
0
  0
VERTEX
  8
Обводка_Bottom
  10
-0.8837
  20
18.9688
  42
0
  0
VERTEX
  8
Обводка_Bottom
  10
-1.0745
  20
19.0146
  42
0
  0
VERTEX
  8
Обводка_Bottom
  10
-1.27
  20
19.03
  42
0
  0
VERTEX
  8
Обводка_Bottom
  10
-21.59
  20
19.03
  42
0
  0
VERTEX
  8
Обводка_Bottom
  10
-21.7855
  20
19.0146
  42
0
  0
VERTEX
  8
Обводка_Bottom
  10
-21.9763
  20
18.9688
  42
0
  0
VERTEX
  8
Обводка_Bottom
  10
-22.1575
  20
18.8938
  42
0
  0
VERTEX
  8
Обводка_Bottom
  10
-22.3247
  20
18.7913
  42
0
  0
VERTEX
  8
Обводка_Bottom
  10
-22.4739
  20
18.6639
  42
0
  0
VERTEX
  8
Обводка_Bottom
  10
-28.8239
  20
12.3139
  42
0
  0
VERTEX
  8
Обводка_Bottom
  10
-28.9513
  20
12.1647
  42
0
  0
VERTEX
  8
Обводка_Bottom
  10
-29.0538
  20
11.9975
  42
0
  0
VERTEX
  8
Обводка_Bottom
  10
-29.1288
  20
11.8163
  42
0
  0
VERTEX
  8
Обводка_Bottom
  10
-29.1746
  20
11.6255
  42
0
  0
VERTEX
  8
Обводка_Bottom
  10
-29.19
  20
11.43
  42
0
  0
VERTEX
  8
Обводка_Bottom
  10
-29.19
  20
8.89
  42
0
  0
VERTEX
  8
Обводка_Bottom
  10
-29.1746
  20
8.6945
  42
0
  0
VERTEX
  8
Обводка_Bottom
  10
-29.1288
  20
8.5037
  42
0
  0
VERTEX
  8
Обводка_Bottom
  10
-29.0538
  20
8.3225
  42
0
  0
VERTEX
  8
Обводка_Bottom
  10
-28.9513
  20
8.1553
  42
0
  0
VERTEX
  8
Обводка_Bottom
  10
-28.8239
  20
8.0061
  42
0
  0
VERTEX
  8
Обводка_Bottom
  10
-28.6747
  20
7.8787
  42
0
  0
VERTEX
  8
Обводка_Bottom
  10
-28.5075
  20
7.7762
  42
0
  0
VERTEX
  8
Обводка_Bottom
  10
-28.3263
  20
7.7012
  42
0
  0
VERTEX
  8
Обводка_Bottom
  10
-28.1355
  20
7.6554
  42
0
  0
VERTEX
  8
Обводка_Bottom
  10
-27.94
  20
7.64
  42
0
  0
VERTEX
  8
Обводка_Bottom
  10
-27.7445
  20
7.6554
  42
0
  0
VERTEX
  8
Обводка_Bottom
  10
-27.5537
  20
7.7012
  42
0
  0
VERTEX
  8
Обводка_Bottom
  10
-27.3725
  20
7.7762
  42
0
  0
VERTEX
  8
Обводка_Bottom
  10
-27.2053
  20
7.8787
  42
0
  0
VERTEX
  8
Обводка_Bottom
  10
-27.0561
  20
8.0061
  42
0
  0
VERTEX
  8
Обводка_Bottom
  10
-26.9287
  20
8.1553
  42
0
  0
VERTEX
  8
Обводка_Bottom
  10
-26.8262
  20
8.3225
  42
0
  0
VERTEX
  8
Обводка_Bottom
  10
-26.7512
  20
8.5037
  42
0
  0
VERTEX
  8
Обводка_Bottom
  10
-26.7054
  20
8.6945
  42
0
  0
VERTEX
  8
Обводка_Bottom
  10
-26.69
  20
8.89
  42
0
  0
VERTEX
  8
Обводка_Bottom
  10
-26.6899
  20
10.9123
  42
0
  0
VERTEX
  8
Обводка_Bottom
  10
-21.0717
  20
16.5305
  42
0
  0
VERTEX
  8
Обводка_Bottom
  10
-21.0728
  20
16.53
  42
0
  0
SEQEND
  0
POLYLINE
  8
Обводка_Bottom
  6
CONTINUOUS
  66
1
  70
0
  40
1.0
  41
1.0
  0
VERTEX
  8
Обводка_Bottom
  10
-1.4699
  20
44.43
  42
0
  0
VERTEX
  8
Обводка_Bottom
  10
-22.86
  20
44.43
  42
0
  0
VERTEX
  8
Обводка_Bottom
  10
-23.0555
  20
44.4146
  42
0
  0
VERTEX
  8
Обводка_Bottom
  10
-23.2463
  20
44.3688
  42
0
  0
VERTEX
  8
Обводка_Bottom
  10
-23.4275
  20
44.2938
  42
0
  0
VERTEX
  8
Обводка_Bottom
  10
-23.5947
  20
44.1913
  42
0
  0
VERTEX
  8
Обводка_Bottom
  10
-23.7439
  20
44.0639
  42
0
  0
VERTEX
  8
Обводка_Bottom
  10
-23.8713
  20
43.9147
  42
0
  0
VERTEX
  8
Обводка_Bottom
  10
-23.9738
  20
43.7475
  42
0
  0
VERTEX
  8
Обводка_Bottom
  10
-24.0488
  20
43.5663
  42
0
  0
VERTEX
  8
Обводка_Bottom
  10
-24.0946
  20
43.3755
  42
0
  0
VERTEX
  8
Обводка_Bottom
  10
-24.11
  20
43.18
  42
0
  0
VERTEX
  8
Обводка_Bottom
  10
-24.0946
  20
42.9845
  42
0
  0
VERTEX
  8
Обводка_Bottom
  10
-24.0488
  20
42.7937
  42
0
  0
VERTEX
  8
Обводка_Bottom
  10
-23.9738
  20
42.6125
  42
0
  0
VERTEX
  8
Обводка_Bottom
  10
-23.8713
  20
42.4453
  42
0
  0
VERTEX
  8
Обводка_Bottom
  10
-23.7439
  20
42.2961
  42
0
  0
VERTEX
  8
Обводка_Bottom
  10
-23.5947
  20
42.1687
  42
0
  0
VERTEX
  8
Обводка_Bottom
  10
-23.4275
  20
42.0662
  42
0
  0
VERTEX
  8
Обводка_Bottom
  10
-23.2463
  20
41.9912
  42
0
  0
VERTEX
  8
Обводка_Bottom
  10
-23.0555
  20
41.9454
  42
0
  0
VERTEX
  8
Обводка_Bottom
  10
-22.86
  20
41.93
  42
0
  0
VERTEX
  8
Обводка_Bottom
  10
-1.27
  20
41.93
  42
0
  0
VERTEX
  8
Обводка_Bottom
  10
-1.0745
  20
41.9454
  42
0
  0
VERTEX
  8
Обводка_Bottom
  10
-0.8837
  20
41.9912
  42
0
  0
VERTEX
  8
Обводка_Bottom
  10
-0.7025
  20
42.0662
  42
0
  0
VERTEX
  8
Обводка_Bottom
  10
-0.5353
  20
42.1687
  42
0
  0
VERTEX
  8
Обводка_Bottom
  10
-0.3861
  20
42.2961
  42
0
  0
VERTEX
  8
Обводка_Bottom
  10
-0.2587
  20
42.4453
  42
0
  0
VERTEX
  8
Обводка_Bottom
  10
-0.1562
  20
42.6125
  42
0
  0
VERTEX
  8
Обводка_Bottom
  10
-0.0812
  20
42.7937
  42
0
  0
VERTEX
  8
Обводка_Bottom
  10
-0.0354
  20
42.9845
  42
0
  0
VERTEX
  8
Обводка_Bottom
  10
-0.02
  20
43.18
  42
0
  0
VERTEX
  8
Обводка_Bottom
  10
-0.0354
  20
43.3755
  42
0
  0
VERTEX
  8
Обводка_Bottom
  10
-0.0812
  20
43.5663
  42
0
  0
VERTEX
  8
Обводка_Bottom
  10
-0.1562
  20
43.7475
  42
0
  0
VERTEX
  8
Обводка_Bottom
  10
-0.2587
  20
43.9147
  42
0
  0
VERTEX
  8
Обводка_Bottom
  10
-0.3861
  20
44.0639
  42
0
  0
VERTEX
  8
Обводка_Bottom
  10
-0.5353
  20
44.1913
  42
0
  0
VERTEX
  8
Обводка_Bottom
  10
-0.7025
  20
44.2938
  42
0
  0
VERTEX
  8
Обводка_Bottom
  10
-0.8837
  20
44.3688
  42
0
  0
VERTEX
  8
Обводка_Bottom
  10
-1.0745
  20
44.4146
  42
0
  0
VERTEX
  8
Обводка_Bottom
  10
-1.27
  20
44.43
  42
0
  0
VERTEX
  8
Обводка_Bottom
  10
-1.4699
  20
44.43
  42
0
  0
SEQEND
  0
POLYLINE
  8
Обводка_Bottom
  6
CONTINUOUS
  66
1
  70
0
  40
1.0
  41
1.0
  0
VERTEX
  8
Обводка_Bottom
  10
-19.0492
  20
13.9499
  42
0
  0
VERTEX
  8
Обводка_Bottom
  10
-19.2455
  20
13.9346
  42
0
  0
VERTEX
  8
Обводка_Bottom
  10
-19.4363
  20
13.8888
  42
0
  0
VERTEX
  8
Обводка_Bottom
  10
-19.6175
  20
13.8138
  42
0
  0
VERTEX
  8
Обводка_Bottom
  10
-19.7847
  20
13.7113
  42
0
  0
VERTEX
  8
Обводка_Bottom
  10
-19.9339
  20
13.5839
  42
0
  0
VERTEX
  8
Обводка_Bottom
  10
-23.7439
  20
9.7739
  42
0
  0
VERTEX
  8
Обводка_Bottom
  10
-23.8713
  20
9.6247
  42
0
  0
VERTEX
  8
Обводка_Bottom
  10
-23.9738
  20
9.4575
  42
0
  0
VERTEX
  8
Обводка_Bottom
  10
-24.0488
  20
9.2763
  42
0
  0
VERTEX
  8
Обводка_Bottom
  10
-24.0946
  20
9.0855
  42
0
  0
VERTEX
  8
Обводка_Bottom
  10
-24.11
  20
8.89
  42
0
  0
VERTEX
  8
Обводка_Bottom
  10
-24.11
  20
4.33
  42
0
  0
VERTEX
  8
Обводка_Bottom
  10
-24.0946
  20
4.1345
  42
0
  0
VERTEX
  8
Обводка_Bottom
  10
-24.0488
  20
3.9437
  42
0
  0
VERTEX
  8
Обводка_Bottom
  10
-23.9738
  20
3.7625
  42
0
  0
VERTEX
  8
Обводка_Bottom
  10
-23.8713
  20
3.5953
  42
0
  0
VERTEX
  8
Обводка_Bottom
  10
-23.7439
  20
3.4461
  42
0
  0
VERTEX
  8
Обводка_Bottom
  10
-23.5947
  20
3.3187
  42
0
  0
VERTEX
  8
Обводка_Bottom
  10
-23.4275
  20
3.2162
  42
0
  0
VERTEX
  8
Обводка_Bottom
  10
-23.2463
  20
3.1412
  42
0
  0
VERTEX
  8
Обводка_Bottom
  10
-23.0555
  20
3.0954
  42
0
  0
VERTEX
  8
Обводка_Bottom
  10
-22.86
  20
3.08
  42
0
  0
VERTEX
  8
Обводка_Bottom
  10
-22.6645
  20
3.0954
  42
0
  0
VERTEX
  8
Обводка_Bottom
  10
-22.4737
  20
3.1412
  42
0
  0
VERTEX
  8
Обводка_Bottom
  10
-22.2925
  20
3.2162
  42
0
  0
VERTEX
  8
Обводка_Bottom
  10
-22.1253
  20
3.3187
  42
0
  0
VERTEX
  8
Обводка_Bottom
  10
-21.9761
  20
3.4461
  42
0
  0
VERTEX
  8
Обводка_Bottom
  10
-21.8487
  20
3.5953
  42
0
  0
VERTEX
  8
Обводка_Bottom
  10
-21.7462
  20
3.7625
  42
0
  0
VERTEX
  8
Обводка_Bottom
  10
-21.6712
  20
3.9437
  42
0
  0
VERTEX
  8
Обводка_Bottom
  10
-21.6254
  20
4.1345
  42
0
  0
VERTEX
  8
Обводка_Bottom
  10
-21.61
  20
4.33
  42
0
  0
VERTEX
  8
Обводка_Bottom
  10
-21.61
  20
8.3728
  42
0
  0
VERTEX
  8
Обводка_Bottom
  10
-18.5327
  20
11.4496
  42
0
  0
VERTEX
  8
Обводка_Bottom
  10
-1.27
  20
11.45
  42
0
  0
VERTEX
  8
Обводка_Bottom
  10
-1.0745
  20
11.4654
  42
0
  0
VERTEX
  8
Обводка_Bottom
  10
-0.8837
  20
11.5112
  42
0
  0
VERTEX
  8
Обводка_Bottom
  10
-0.7025
  20
11.5862
  42
0
  0
VERTEX
  8
Обводка_Bottom
  10
-0.5353
  20
11.6887
  42
0
  0
VERTEX
  8
Обводка_Bottom
  10
-0.3861
  20
11.8161
  42
0
  0
VERTEX
  8
Обводка_Bottom
  10
-0.2587
  20
11.9653
  42
0
  0
VERTEX
  8
Обводка_Bottom
  10
-0.1562
  20
12.1325
  42
0
  0
VERTEX
  8
Обводка_Bottom
  10
-0.0812
  20
12.3137
  42
0
  0
VERTEX
  8
Обводка_Bottom
  10
-0.0354
  20
12.5045
  42
0
  0
VERTEX
  8
Обводка_Bottom
  10
-0.02
  20
12.7
  42
0
  0
VERTEX
  8
Обводка_Bottom
  10
-0.0354
  20
12.8955
  42
0
  0
VERTEX
  8
Обводка_Bottom
  10
-0.0812
  20
13.0863
  42
0
  0
VERTEX
  8
Обводка_Bottom
  10
-0.1562
  20
13.2675
  42
0
  0
VERTEX
  8
Обводка_Bottom
  10
-0.2587
  20
13.4347
  42
0
  0
VERTEX
  8
Обводка_Bottom
  10
-0.3861
  20
13.5839
  42
0
  0
VERTEX
  8
Обводка_Bottom
  10
-0.5353
  20
13.7113
  42
0
  0
VERTEX
  8
Обводка_Bottom
  10
-0.7025
  20
13.8138
  42
0
  0
VERTEX
  8
Обводка_Bottom
  10
-0.8837
  20
13.8888
  42
0
  0
VERTEX
  8
Обводка_Bottom
  10
-1.0745
  20
13.9346
  42
0
  0
VERTEX
  8
Обводка_Bottom
  10
-1.27
  20
13.95
  42
0
  0
VERTEX
  8
Обводка_Bottom
  10
-19.0493
  20
13.95
  42
0
  0
SEQEND
  0
POLYLINE
  8
Обводка_Bottom
  6
CONTINUOUS
  66
1
  70
0
  40
1.0
  41
1.0
  0
VERTEX
  8
Обводка_Bottom
  10
-22.5752
  20
52.588
  42
0
  0
VERTEX
  8
Обводка_Bottom
  10
-22.5757
  20
49.7435
  42
0
  0
VERTEX
  8
Обводка_Bottom
  10
-22.342
  20
49.51
  42
0
  0
VERTEX
  8
Обводка_Bottom
  10
-21.9075
  20
49.51
  42
0
  0
VERTEX
  8
Обводка_Bottom
  10
-21.712
  20
49.4946
  42
0
  0
VERTEX
  8
Обводка_Bottom
  10
-21.5212
  20
49.4488
  42
0
  0
VERTEX
  8
Обводка_Bottom
  10
-21.34
  20
49.3738
  42
0
  0
VERTEX
  8
Обводка_Bottom
  10
-21.1728
  20
49.2713
  42
0
  0
VERTEX
  8
Обводка_Bottom
  10
-21.0236
  20
49.1439
  42
0
  0
VERTEX
  8
Обводка_Bottom
  10
-20.8962
  20
48.9947
  42
0
  0
VERTEX
  8
Обводка_Bottom
  10
-20.7937
  20
48.8275
  42
0
  0
VERTEX
  8
Обводка_Bottom
  10
-20.7187
  20
48.6463
  42
0
  0
VERTEX
  8
Обводка_Bottom
  10
-20.6729
  20
48.4555
  42
0
  0
VERTEX
  8
Обводка_Bottom
  10
-20.6575
  20
48.26
  42
0
  0
VERTEX
  8
Обводка_Bottom
  10
-20.6729
  20
48.0645
  42
0
  0
VERTEX
  8
Обводка_Bottom
  10
-20.7187
  20
47.8737
  42
0
  0
VERTEX
  8
Обводка_Bottom
  10
-20.7937
  20
47.6925
  42
0
  0
VERTEX
  8
Обводка_Bottom
  10
-20.8962
  20
47.5253
  42
0
  0
VERTEX
  8
Обводка_Bottom
  10
-21.0236
  20
47.3761
  42
0
  0
VERTEX
  8
Обводка_Bottom
  10
-21.1728
  20
47.2487
  42
0
  0
VERTEX
  8
Обводка_Bottom
  10
-21.34
  20
47.1462
  42
0
  0
VERTEX
  8
Обводка_Bottom
  10
-21.5212
  20
47.0712
  42
0
  0
VERTEX
  8
Обводка_Bottom
  10
-21.712
  20
47.0254
  42
0
  0
VERTEX
  8
Обводка_Bottom
  10
-21.9075
  20
47.01
  42
0
  0
VERTEX
  8
Обводка_Bottom
  10
-22.86
  20
47.01
  42
0
  0
VERTEX
  8
Обводка_Bottom
  10
-23.0555
  20
47.0254
  42
0
  0
VERTEX
  8
Обводка_Bottom
  10
-23.2463
  20
47.0712
  42
0
  0
VERTEX
  8
Обводка_Bottom
  10
-23.4275
  20
47.1462
  42
0
  0
VERTEX
  8
Обводка_Bottom
  10
-23.5947
  20
47.2487
  42
0
  0
VERTEX
  8
Обводка_Bottom
  10
-23.7444
  20
47.3767
  42
0
  0
VERTEX
  8
Обводка_Bottom
  10
-24.7091
  20
48.3413
  42
0
  0
VERTEX
  8
Обводка_Bottom
  10
-24.8365
  20
48.4905
  42
0
  0
VERTEX
  8
Обводка_Bottom
  10
-24.939
  20
48.6577
  42
0
  0
VERTEX
  8
Обводка_Bottom
  10
-25.014
  20
48.8389
  42
0
  0
VERTEX
  8
Обводка_Bottom
  10
-25.0598
  20
49.0297
  42
0
  0
VERTEX
  8
Обводка_Bottom
  10
-25.0752
  20
49.353
  42
0
  0
VERTEX
  8
Обводка_Bottom
  10
-25.0752
  20
54.09
  42
0
  0
VERTEX
  8
Обводка_Bottom
  10
-25.0598
  20
54.2855
  42
0
  0
VERTEX
  8
Обводка_Bottom
  10
-25.014
  20
54.4763
  42
0
  0
VERTEX
  8
Обводка_Bottom
  10
-24.939
  20
54.6575
  42
0
  0
VERTEX
  8
Обводка_Bottom
  10
-24.8365
  20
54.8247
  42
0
  0
VERTEX
  8
Обводка_Bottom
  10
-24.7091
  20
54.9739
  42
0
  0
VERTEX
  8
Обводка_Bottom
  10
-24.5599
  20
55.1013
  42
0
  0
VERTEX
  8
Обводка_Bottom
  10
-24.3927
  20
55.2038
  42
0
  0
VERTEX
  8
Обводка_Bottom
  10
-24.2115
  20
55.2788
  42
0
  0
VERTEX
  8
Обводка_Bottom
  10
-24.0207
  20
55.3246
  42
0
  0
VERTEX
  8
Обводка_Bottom
  10
-23.8252
  20
55.34
  42
0
  0
VERTEX
  8
Обводка_Bottom
  10
-23.6297
  20
55.3246
  42
0
  0
VERTEX
  8
Обводка_Bottom
  10
-23.4389
  20
55.2788
  42
0
  0
VERTEX
  8
Обводка_Bottom
  10
-23.2577
  20
55.2038
  42
0
  0
VERTEX
  8
Обводка_Bottom
  10
-23.0905
  20
55.1013
  42
0
  0
VERTEX
  8
Обводка_Bottom
  10
-22.9413
  20
54.9739
  42
0
  0
VERTEX
  8
Обводка_Bottom
  10
-22.8139
  20
54.8247
  42
0
  0
VERTEX
  8
Обводка_Bottom
  10
-22.7114
  20
54.6575
  42
0
  0
VERTEX
  8
Обводка_Bottom
  10
-22.6364
  20
54.4763
  42
0
  0
VERTEX
  8
Обводка_Bottom
  10
-22.5906
  20
54.2855
  42
0
  0
VERTEX
  8
Обводка_Bottom
  10
-22.5752
  20
53.9775
  42
0
  0
VERTEX
  8
Обводка_Bottom
  10
-22.5753
  20
52.5892
  42
0
  0
VERTEX
  8
Обводка_Bottom
  10
-22.5752
  20
52.588
  42
0
  0
SEQEND
  0
POLYLINE
  8
Обводка_Bottom
  6
CONTINUOUS
  66
1
  70
0
  40
1.0
  41
1.0
  0
VERTEX
  8
Обводка_Bottom
  10
-21.5699
  20
5.0792
  42
0
  0
VERTEX
  8
Обводка_Bottom
  10
-21.57
  20
7.62
  42
0
  0
VERTEX
  8
Обводка_Bottom
  10
-21.5546
  20
7.8155
  42
0
  0
VERTEX
  8
Обводка_Bottom
  10
-21.5088
  20
8.0063
  42
0
  0
VERTEX
  8
Обводка_Bottom
  10
-21.4338
  20
8.1875
  42
0
  0
VERTEX
  8
Обводка_Bottom
  10
-21.3313
  20
8.3547
  42
0
  0
VERTEX
  8
Обводка_Bottom
  10
-21.2034
  20
8.5044
  42
0
  0
VERTEX
  8
Обводка_Bottom
  10
-18.6639
  20
11.0439
  42
0
  0
VERTEX
  8
Обводка_Bottom
  10
-18.5147
  20
11.1713
  42
0
  0
VERTEX
  8
Обводка_Bottom
  10
-18.3475
  20
11.2738
  42
0
  0
VERTEX
  8
Обводка_Bottom
  10
-18.1663
  20
11.3488
  42
0
  0
VERTEX
  8
Обводка_Bottom
  10
-17.9755
  20
11.3946
  42
0
  0
VERTEX
  8
Обводка_Bottom
  10
-17.6665
  20
11.41
  42
0
  0
VERTEX
  8
Обводка_Bottom
  10
-1.27
  20
11.41
  42
0
  0
VERTEX
  8
Обводка_Bottom
  10
-1.0745
  20
11.3946
  42
0
  0
VERTEX
  8
Обводка_Bottom
  10
-0.8837
  20
11.3488
  42
0
  0
VERTEX
  8
Обводка_Bottom
  10
-0.7025
  20
11.2738
  42
0
  0
VERTEX
  8
Обводка_Bottom
  10
-0.5353
  20
11.1713
  42
0
  0
VERTEX
  8
Обводка_Bottom
  10
-0.3861
  20
11.0439
  42
0
  0
VERTEX
  8
Обводка_Bottom
  10
-0.2587
  20
10.8947
  42
0
  0
VERTEX
  8
Обводка_Bottom
  10
-0.1562
  20
10.7275
  42
0
  0
VERTEX
  8
Обводка_Bottom
  10
-0.0812
  20
10.5463
  42
0
  0
VERTEX
  8
Обводка_Bottom
  10
-0.0354
  20
10.3555
  42
0
  0
VERTEX
  8
Обводка_Bottom
  10
-0.02
  20
10.16
  42
0
  0
VERTEX
  8
Обводка_Bottom
  10
-0.0354
  20
9.9645
  42
0
  0
VERTEX
  8
Обводка_Bottom
  10
-0.0812
  20
9.7737
  42
0
  0
VERTEX
  8
Обводка_Bottom
  10
-0.1562
  20
9.5925
  42
0
  0
VERTEX
  8
Обводка_Bottom
  10
-0.2587
  20
9.4253
  42
0
  0
VERTEX
  8
Обводка_Bottom
  10
-0.3861
  20
9.2761
  42
0
  0
VERTEX
  8
Обводка_Bottom
  10
-0.5353
  20
9.1487
  42
0
  0
VERTEX
  8
Обводка_Bottom
  10
-0.7025
  20
9.0462
  42
0
  0
VERTEX
  8
Обводка_Bottom
  10
-0.8837
  20
8.9712
  42
0
  0
VERTEX
  8
Обводка_Bottom
  10
-1.0745
  20
8.9254
  42
0
  0
VERTEX
  8
Обводка_Bottom
  10
-1.3835
  20
8.91
  42
0
  0
VERTEX
  8
Обводка_Bottom
  10
-17.2626
  20
8.9096
  42
0
  0
VERTEX
  8
Обводка_Bottom
  10
-19.07
  20
7.1028
  42
0
  0
VERTEX
  8
Обводка_Bottom
  10
-19.07
  20
4.33
  42
0
  0
VERTEX
  8
Обводка_Bottom
  10
-19.0854
  20
4.1345
  42
0
  0
VERTEX
  8
Обводка_Bottom
  10
-19.1312
  20
3.9437
  42
0
  0
VERTEX
  8
Обводка_Bottom
  10
-19.2062
  20
3.7625
  42
0
  0
VERTEX
  8
Обводка_Bottom
  10
-19.3087
  20
3.5953
  42
0
  0
VERTEX
  8
Обводка_Bottom
  10
-19.4361
  20
3.4461
  42
0
  0
VERTEX
  8
Обводка_Bottom
  10
-19.5853
  20
3.3187
  42
0
  0
VERTEX
  8
Обводка_Bottom
  10
-19.7525
  20
3.2162
  42
0
  0
VERTEX
  8
Обводка_Bottom
  10
-19.9337
  20
3.1412
  42
0
  0
VERTEX
  8
Обводка_Bottom
  10
-20.1245
  20
3.0954
  42
0
  0
VERTEX
  8
Обводка_Bottom
  10
-20.32
  20
3.08
  42
0
  0
VERTEX
  8
Обводка_Bottom
  10
-20.5155
  20
3.0954
  42
0
  0
VERTEX
  8
Обводка_Bottom
  10
-20.7063
  20
3.1412
  42
0
  0
VERTEX
  8
Обводка_Bottom
  10
-20.8875
  20
3.2162
  42
0
  0
VERTEX
  8
Обводка_Bottom
  10
-21.0547
  20
3.3187
  42
0
  0
VERTEX
  8
Обводка_Bottom
  10
-21.2039
  20
3.4461
  42
0
  0
VERTEX
  8
Обводка_Bottom
  10
-21.3313
  20
3.5953
  42
0
  0
VERTEX
  8
Обводка_Bottom
  10
-21.4338
  20
3.7625
  42
0
  0
VERTEX
  8
Обводка_Bottom
  10
-21.5088
  20
3.9437
  42
0
  0
VERTEX
  8
Обводка_Bottom
  10
-21.5546
  20
4.1345
  42
0
  0
VERTEX
  8
Обводка_Bottom
  10
-21.57
  20
4.4425
  42
0
  0
VERTEX
  8
Обводка_Bottom
  10
-21.57
  20
5.0792
  42
0
  0
SEQEND
  0
POLYLINE
  8
Обводка_Bottom
  6
CONTINUOUS
  66
1
  70
0
  40
1.0
  41
1.0
  0
VERTEX
  8
Обводка_Bottom
  10
-26.2833
  20
11.0444
  42
0
  0
VERTEX
  8
Обводка_Bottom
  10
-26.4113
  20
10.8947
  42
0
  0
VERTEX
  8
Обводка_Bottom
  10
-26.5138
  20
10.7275
  42
0
  0
VERTEX
  8
Обводка_Bottom
  10
-26.5888
  20
10.5463
  42
0
  0
VERTEX
  8
Обводка_Bottom
  10
-26.6346
  20
10.3555
  42
0
  0
VERTEX
  8
Обводка_Bottom
  10
-26.65
  20
10.16
  42
0
  0
VERTEX
  8
Обводка_Bottom
  10
-26.65
  20
3.83
  42
0
  0
VERTEX
  8
Обводка_Bottom
  10
-24.15
  20
3.83
  42
0
  0
VERTEX
  8
Обводка_Bottom
  10
-24.15
  20
9.6418
  42
0
  0
VERTEX
  8
Обводка_Bottom
  10
-19.8026
  20
13.9897
  42
0
  0
VERTEX
  8
Обводка_Bottom
  10
-1.27
  20
13.99
  42
0
  0
VERTEX
  8
Обводка_Bottom
  10
-1.0745
  20
14.0054
  42
0
  0
VERTEX
  8
Обводка_Bottom
  10
-0.8837
  20
14.0512
  42
0
  0
VERTEX
  8
Обводка_Bottom
  10
-0.7025
  20
14.1262
  42
0
  0
VERTEX
  8
Обводка_Bottom
  10
-0.5353
  20
14.2287
  42
0
  0
VERTEX
  8
Обводка_Bottom
  10
-0.3861
  20
14.3561
  42
0
  0
VERTEX
  8
Обводка_Bottom
  10
-0.2587
  20
14.5053
  42
0
  0
VERTEX
  8
Обводка_Bottom
  10
-0.1562
  20
14.6725
  42
0
  0
VERTEX
  8
Обводка_Bottom
  10
-0.0812
  20
14.8537
  42
0
  0
VERTEX
  8
Обводка_Bottom
  10
-0.0354
  20
15.0445
  42
0
  0
VERTEX
  8
Обводка_Bottom
  10
-0.02
  20
15.24
  42
0
  0
VERTEX
  8
Обводка_Bottom
  10
-0.0354
  20
15.4355
  42
0
  0
VERTEX
  8
Обводка_Bottom
  10
-0.0812
  20
15.6263
  42
0
  0
VERTEX
  8
Обводка_Bottom
  10
-0.1562
  20
15.8075
  42
0
  0
VERTEX
  8
Обводка_Bottom
  10
-0.2587
  20
15.9747
  42
0
  0
VERTEX
  8
Обводка_Bottom
  10
-0.3861
  20
16.1239
  42
0
  0
VERTEX
  8
Обводка_Bottom
  10
-0.5353
  20
16.2513
  42
0
  0
VERTEX
  8
Обводка_Bottom
  10
-0.7025
  20
16.3538
  42
0
  0
VERTEX
  8
Обводка_Bottom
  10
-0.8837
  20
16.4288
  42
0
  0
VERTEX
  8
Обводка_Bottom
  10
-1.0745
  20
16.4746
  42
0
  0
VERTEX
  8
Обводка_Bottom
  10
-1.27
  20
16.49
  42
0
  0
VERTEX
  8
Обводка_Bottom
  10
-20.32
  20
16.49
  42
0
  0
VERTEX
  8
Обводка_Bottom
  10
-20.5155
  20
16.4746
  42
0
  0
VERTEX
  8
Обводка_Bottom
  10
-20.7063
  20
16.4288
  42
0
  0
VERTEX
  8
Обводка_Bottom
  10
-20.8875
  20
16.3538
  42
0
  0
VERTEX
  8
Обводка_Bottom
  10
-21.0547
  20
16.2513
  42
0
  0
VERTEX
  8
Обводка_Bottom
  10
-21.2039
  20
16.1239
  42
0
  0
VERTEX
  8
Обводка_Bottom
  10
-26.2834
  20
11.0444
  42
0
  0
SEQEND
  0
POLYLINE
  8
Обводка_Bottom
  6
CONTINUOUS
  66
1
  70
0
  40
1.0
  41
1.0
  0
VERTEX
  8
Обводка_Bottom
  10
-31.7296
  20
6.33
  42
0
  0
VERTEX
  8
Обводка_Bottom
  10
-31.73
  20
3.83
  42
0
  0
VERTEX
  8
Обводка_Bottom
  10
-29.23
  20
3.83
  42
0
  0
VERTEX
  8
Обводка_Bottom
  10
-29.23
  20
12.1829
  42
0
  0
VERTEX
  8
Обводка_Bottom
  10
-22.3425
  20
19.0697
  42
0
  0
VERTEX
  8
Обводка_Bottom
  10
-1.27
  20
19.07
  42
0
  0
VERTEX
  8
Обводка_Bottom
  10
-1.0745
  20
19.0854
  42
0
  0
VERTEX
  8
Обводка_Bottom
  10
-0.8837
  20
19.1312
  42
0
  0
VERTEX
  8
Обводка_Bottom
  10
-0.7025
  20
19.2062
  42
0
  0
VERTEX
  8
Обводка_Bottom
  10
-0.5353
  20
19.3087
  42
0
  0
VERTEX
  8
Обводка_Bottom
  10
-0.3861
  20
19.4361
  42
0
  0
VERTEX
  8
Обводка_Bottom
  10
-0.2587
  20
19.5853
  42
0
  0
VERTEX
  8
Обводка_Bottom
  10
-0.1562
  20
19.7525
  42
0
  0
VERTEX
  8
Обводка_Bottom
  10
-0.0812
  20
19.9337
  42
0
  0
VERTEX
  8
Обводка_Bottom
  10
-0.0354
  20
20.1245
  42
0
  0
VERTEX
  8
Обводка_Bottom
  10
-0.02
  20
20.32
  42
0
  0
VERTEX
  8
Обводка_Bottom
  10
-0.0354
  20
20.5155
  42
0
  0
VERTEX
  8
Обводка_Bottom
  10
-0.0812
  20
20.7063
  42
0
  0
VERTEX
  8
Обводка_Bottom
  10
-0.1562
  20
20.8875
  42
0
  0
VERTEX
  8
Обводка_Bottom
  10
-0.2587
  20
21.0547
  42
0
  0
VERTEX
  8
Обводка_Bottom
  10
-0.3861
  20
21.2039
  42
0
  0
VERTEX
  8
Обводка_Bottom
  10
-0.5353
  20
21.3313
  42
0
  0
VERTEX
  8
Обводка_Bottom
  10
-0.7025
  20
21.4338
  42
0
  0
VERTEX
  8
Обводка_Bottom
  10
-0.8837
  20
21.5088
  42
0
  0
VERTEX
  8
Обводка_Bottom
  10
-1.0745
  20
21.5546
  42
0
  0
VERTEX
  8
Обводка_Bottom
  10
-1.27
  20
21.57
  42
0
  0
VERTEX
  8
Обводка_Bottom
  10
-22.86
  20
21.57
  42
0
  0
VERTEX
  8
Обводка_Bottom
  10
-23.0555
  20
21.5546
  42
0
  0
VERTEX
  8
Обводка_Bottom
  10
-23.2463
  20
21.5088
  42
0
  0
VERTEX
  8
Обводка_Bottom
  10
-23.4275
  20
21.4338
  42
0
  0
VERTEX
  8
Обводка_Bottom
  10
-23.5947
  20
21.3313
  42
0
  0
VERTEX
  8
Обводка_Bottom
  10
-23.7439
  20
21.2039
  42
0
  0
VERTEX
  8
Обводка_Bottom
  10
-31.3639
  20
13.5839
  42
0
  0
VERTEX
  8
Обводка_Bottom
  10
-31.4913
  20
13.4347
  42
0
  0
VERTEX
  8
Обводка_Bottom
  10
-31.5938
  20
13.2675
  42
0
  0
VERTEX
  8
Обводка_Bottom
  10
-31.6688
  20
13.0863
  42
0
  0
VERTEX
  8
Обводка_Bottom
  10
-31.7146
  20
12.8955
  42
0
  0
VERTEX
  8
Обводка_Bottom
  10
-31.73
  20
12.7
  42
0
  0
VERTEX
  8
Обводка_Bottom
  10
-31.73
  20
6.3299
  42
0
  0
VERTEX
  8
Обводка_Bottom
  10
-31.7296
  20
6.33
  42
0
  0
SEQEND
  0
ENDSEC
  0
EOF
