  0
SECTION
  2
HEADER
  9
$ACADVER
  1
AC1009
  9
$ANGDIR
  70
0
  9
$CECOLOR
  62
256
  9
$CELTYPE
  6
BYLAYER
  9
$EXTMIN
  10
0.0
  20
0.0
  9
$EXTMAX
  10
64.77
  20
58.42
  9
$FILLMODE
  70
1
  9
$MIRRTEXT
  70
0
  0
ENDSEC
  0
SECTION
  2
TABLES
  0
TABLE
  2
LAYER
  70
23
  0
LAYER
  2
Обводка_Bottom
  70
64
  62
23
  6
CONTINUOUS
  0
ENDTAB
  0
ENDSEC
  0
SECTION
  2
ENTITIES
  0
POLYLINE
  8
Обводка_Bottom
  6
CONTINUOUS
  66
1
  70
0
  40
0.6
  41
0.6
  0
VERTEX
  8
Обводка_Bottom
  10
-28.9771
  20
4.9157
  42
0
  0
VERTEX
  8
Обводка_Bottom
  10
-28.9386
  20
4.7555
  42
0
  0
VERTEX
  8
Обводка_Bottom
  10
-28.8756
  20
4.6033
  42
0
  0
VERTEX
  8
Обводка_Bottom
  10
-28.7895
  20
4.4628
  42
0
  0
VERTEX
  8
Обводка_Bottom
  10
-28.6825
  20
4.3375
  42
0
  0
VERTEX
  8
Обводка_Bottom
  10
-28.5572
  20
4.2305
  42
0
  0
VERTEX
  8
Обводка_Bottom
  10
-28.4167
  20
4.1444
  42
0
  0
VERTEX
  8
Обводка_Bottom
  10
-28.2645
  20
4.0814
  42
0
  0
VERTEX
  8
Обводка_Bottom
  10
-28.1043
  20
4.0429
  42
0
  0
VERTEX
  8
Обводка_Bottom
  10
-27.94
  20
4.03
  42
0
  0
VERTEX
  8
Обводка_Bottom
  10
-27.7757
  20
4.0429
  42
0
  0
VERTEX
  8
Обводка_Bottom
  10
-27.6155
  20
4.0814
  42
0
  0
VERTEX
  8
Обводка_Bottom
  10
-27.4633
  20
4.1444
  42
0
  0
VERTEX
  8
Обводка_Bottom
  10
-27.3228
  20
4.2305
  42
0
  0
VERTEX
  8
Обводка_Bottom
  10
-27.1975
  20
4.3375
  42
0
  0
VERTEX
  8
Обводка_Bottom
  10
-27.0905
  20
4.4628
  42
0
  0
VERTEX
  8
Обводка_Bottom
  10
-27.0044
  20
4.6033
  42
0
  0
VERTEX
  8
Обводка_Bottom
  10
-26.9414
  20
4.7555
  42
0
  0
VERTEX
  8
Обводка_Bottom
  10
-26.9029
  20
4.9157
  42
0
  0
VERTEX
  8
Обводка_Bottom
  10
-26.89
  20
5.08
  42
0
  0
VERTEX
  8
Обводка_Bottom
  10
-26.9029
  20
5.2443
  42
0
  0
VERTEX
  8
Обводка_Bottom
  10
-26.9414
  20
5.4045
  42
0
  0
VERTEX
  8
Обводка_Bottom
  10
-27.0044
  20
5.5567
  42
0
  0
VERTEX
  8
Обводка_Bottom
  10
-27.0905
  20
5.6972
  42
0
  0
VERTEX
  8
Обводка_Bottom
  10
-27.1975
  20
5.8225
  42
0
  0
VERTEX
  8
Обводка_Bottom
  10
-27.3228
  20
5.9295
  42
0
  0
VERTEX
  8
Обводка_Bottom
  10
-27.4633
  20
6.0156
  42
0
  0
VERTEX
  8
Обводка_Bottom
  10
-27.6155
  20
6.0786
  42
0
  0
VERTEX
  8
Обводка_Bottom
  10
-27.7757
  20
6.1171
  42
0
  0
VERTEX
  8
Обводка_Bottom
  10
-27.94
  20
6.13
  42
0
  0
VERTEX
  8
Обводка_Bottom
  10
-28.1043
  20
6.1171
  42
0
  0
VERTEX
  8
Обводка_Bottom
  10
-28.2645
  20
6.0786
  42
0
  0
VERTEX
  8
Обводка_Bottom
  10
-28.4167
  20
6.0156
  42
0
  0
VERTEX
  8
Обводка_Bottom
  10
-28.5572
  20
5.9295
  42
0
  0
VERTEX
  8
Обводка_Bottom
  10
-28.6825
  20
5.8225
  42
0
  0
VERTEX
  8
Обводка_Bottom
  10
-28.7895
  20
5.6972
  42
0
  0
VERTEX
  8
Обводка_Bottom
  10
-28.8756
  20
5.5567
  42
0
  0
VERTEX
  8
Обводка_Bottom
  10
-28.9386
  20
5.4045
  42
0
  0
VERTEX
  8
Обводка_Bottom
  10
-28.9771
  20
5.2443
  42
0
  0
VERTEX
  8
Обводка_Bottom
  10
-28.99
  20
5.08
  42
0
  0
VERTEX
  8
Обводка_Bottom
  10
-28.9771
  20
4.9157
  42
0
  0
SEQEND
  0
POLYLINE
  8
Обводка_Bottom
  6
CONTINUOUS
  66
1
  70
0
  40
0.6
  41
0.6
  0
VERTEX
  8
Обводка_Bottom
  10
-26.1997
  20
5.7554
  42
0
  0
VERTEX
  8
Обводка_Bottom
  10
-26.2495
  20
5.6972
  42
0
  0
VERTEX
  8
Обводка_Bottom
  10
-26.3356
  20
5.5567
  42
0
  0
VERTEX
  8
Обводка_Bottom
  10
-26.3986
  20
5.4045
  42
0
  0
VERTEX
  8
Обводка_Bottom
  10
-26.4371
  20
5.2443
  42
0
  0
VERTEX
  8
Обводка_Bottom
  10
-26.45
  20
5.08
  42
0
  0
VERTEX
  8
Обводка_Bottom
  10
-26.4371
  20
4.9157
  42
0
  0
VERTEX
  8
Обводка_Bottom
  10
-26.3986
  20
4.7555
  42
0
  0
VERTEX
  8
Обводка_Bottom
  10
-26.3356
  20
4.6033
  42
0
  0
VERTEX
  8
Обводка_Bottom
  10
-26.2495
  20
4.4628
  42
0
  0
VERTEX
  8
Обводка_Bottom
  10
-26.1425
  20
4.3375
  42
0
  0
VERTEX
  8
Обводка_Bottom
  10
-26.0172
  20
4.2305
  42
0
  0
VERTEX
  8
Обводка_Bottom
  10
-25.8767
  20
4.1444
  42
0
  0
VERTEX
  8
Обводка_Bottom
  10
-25.7245
  20
4.0814
  42
0
  0
VERTEX
  8
Обводка_Bottom
  10
-25.5643
  20
4.0429
  42
0
  0
VERTEX
  8
Обводка_Bottom
  10
-25.4
  20
4.03
  42
0
  0
VERTEX
  8
Обводка_Bottom
  10
-25.2357
  20
4.0429
  42
0
  0
VERTEX
  8
Обводка_Bottom
  10
-25.0755
  20
4.0814
  42
0
  0
VERTEX
  8
Обводка_Bottom
  10
-24.9233
  20
4.1444
  42
0
  0
VERTEX
  8
Обводка_Bottom
  10
-24.7828
  20
4.2305
  42
0
  0
VERTEX
  8
Обводка_Bottom
  10
-24.6575
  20
4.3375
  42
0
  0
VERTEX
  8
Обводка_Bottom
  10
-24.5505
  20
4.4628
  42
0
  0
VERTEX
  8
Обводка_Bottom
  10
-24.4644
  20
4.6033
  42
0
  0
VERTEX
  8
Обводка_Bottom
  10
-24.4014
  20
4.7555
  42
0
  0
VERTEX
  8
Обводка_Bottom
  10
-24.3629
  20
4.9157
  42
0
  0
VERTEX
  8
Обводка_Bottom
  10
-24.35
  20
5.08
  42
0
  0
VERTEX
  8
Обводка_Bottom
  10
-24.3629
  20
5.2443
  42
0
  0
VERTEX
  8
Обводка_Bottom
  10
-24.4014
  20
5.4045
  42
0
  0
VERTEX
  8
Обводка_Bottom
  10
-24.4644
  20
5.5567
  42
0
  0
VERTEX
  8
Обводка_Bottom
  10
-24.5505
  20
5.6972
  42
0
  0
VERTEX
  8
Обводка_Bottom
  10
-24.6003
  20
5.7554
  42
0
  0
VERTEX
  8
Обводка_Bottom
  10
-24.6
  20
9.8293
  42
0
  0
VERTEX
  8
Обводка_Bottom
  10
-19.9882
  20
14.4404
  42
0
  0
VERTEX
  8
Обводка_Bottom
  10
-1.27
  20
14.44
  42
0
  0
VERTEX
  8
Обводка_Bottom
  10
-1.1449
  20
14.4498
  42
0
  0
VERTEX
  8
Обводка_Bottom
  10
-1.0228
  20
14.4792
  42
0
  0
VERTEX
  8
Обводка_Bottom
  10
-0.9068
  20
14.5272
  42
0
  0
VERTEX
  8
Обводка_Bottom
  10
-0.7998
  20
14.5928
  42
0
  0
VERTEX
  8
Обводка_Bottom
  10
-0.7043
  20
14.6743
  42
0
  0
VERTEX
  8
Обводка_Bottom
  10
-0.6228
  20
14.7698
  42
0
  0
VERTEX
  8
Обводка_Bottom
  10
-0.5572
  20
14.8768
  42
0
  0
VERTEX
  8
Обводка_Bottom
  10
-0.5092
  20
14.9928
  42
0
  0
VERTEX
  8
Обводка_Bottom
  10
-0.4798
  20
15.1149
  42
0
  0
VERTEX
  8
Обводка_Bottom
  10
-0.47
  20
15.24
  42
0
  0
VERTEX
  8
Обводка_Bottom
  10
-0.4798
  20
15.3651
  42
0
  0
VERTEX
  8
Обводка_Bottom
  10
-0.5092
  20
15.4872
  42
0
  0
VERTEX
  8
Обводка_Bottom
  10
-0.5572
  20
15.6032
  42
0
  0
VERTEX
  8
Обводка_Bottom
  10
-0.6228
  20
15.7102
  42
0
  0
VERTEX
  8
Обводка_Bottom
  10
-0.7043
  20
15.8057
  42
0
  0
VERTEX
  8
Обводка_Bottom
  10
-0.7998
  20
15.8872
  42
0
  0
VERTEX
  8
Обводка_Bottom
  10
-0.9068
  20
15.9528
  42
0
  0
VERTEX
  8
Обводка_Bottom
  10
-1.0228
  20
16.0008
  42
0
  0
VERTEX
  8
Обводка_Bottom
  10
-1.1449
  20
16.0302
  42
0
  0
VERTEX
  8
Обводка_Bottom
  10
-1.4684
  20
16.04
  42
0
  0
VERTEX
  8
Обводка_Bottom
  10
-20.32
  20
16.04
  42
0
  0
VERTEX
  8
Обводка_Bottom
  10
-20.4451
  20
16.0302
  42
0
  0
VERTEX
  8
Обводка_Bottom
  10
-20.5672
  20
16.0008
  42
0
  0
VERTEX
  8
Обводка_Bottom
  10
-20.6832
  20
15.9528
  42
0
  0
VERTEX
  8
Обводка_Bottom
  10
-20.7902
  20
15.8872
  42
0
  0
VERTEX
  8
Обводка_Bottom
  10
-21.0268
  20
15.6646
  42
0
  0
VERTEX
  8
Обводка_Bottom
  10
-25.9657
  20
10.7257
  42
0
  0
VERTEX
  8
Обводка_Bottom
  10
-26.0472
  20
10.6302
  42
0
  0
VERTEX
  8
Обводка_Bottom
  10
-26.1128
  20
10.5232
  42
0
  0
VERTEX
  8
Обводка_Bottom
  10
-26.1608
  20
10.4072
  42
0
  0
VERTEX
  8
Обводка_Bottom
  10
-26.1902
  20
10.2851
  42
0
  0
VERTEX
  8
Обводка_Bottom
  10
-26.2
  20
9.9646
  42
0
  0
VERTEX
  8
Обводка_Bottom
  10
-26.2
  20
5.7607
  42
0
  0
VERTEX
  8
Обводка_Bottom
  10
-26.1997
  20
5.7554
  42
0
  0
SEQEND
  0
POLYLINE
  8
Обводка_Bottom
  6
CONTINUOUS
  66
1
  70
0
  40
0.6
  41
0.6
  0
VERTEX
  8
Обводка_Bottom
  10
-21.3571
  20
4.9157
  42
0
  0
VERTEX
  8
Обводка_Bottom
  10
-21.3186
  20
4.7555
  42
0
  0
VERTEX
  8
Обводка_Bottom
  10
-21.2556
  20
4.6033
  42
0
  0
VERTEX
  8
Обводка_Bottom
  10
-21.1695
  20
4.4628
  42
0
  0
VERTEX
  8
Обводка_Bottom
  10
-21.0625
  20
4.3375
  42
0
  0
VERTEX
  8
Обводка_Bottom
  10
-20.9372
  20
4.2305
  42
0
  0
VERTEX
  8
Обводка_Bottom
  10
-20.7967
  20
4.1444
  42
0
  0
VERTEX
  8
Обводка_Bottom
  10
-20.6445
  20
4.0814
  42
0
  0
VERTEX
  8
Обводка_Bottom
  10
-20.4843
  20
4.0429
  42
0
  0
VERTEX
  8
Обводка_Bottom
  10
-20.32
  20
4.03
  42
0
  0
VERTEX
  8
Обводка_Bottom
  10
-20.1557
  20
4.0429
  42
0
  0
VERTEX
  8
Обводка_Bottom
  10
-19.9955
  20
4.0814
  42
0
  0
VERTEX
  8
Обводка_Bottom
  10
-19.8433
  20
4.1444
  42
0
  0
VERTEX
  8
Обводка_Bottom
  10
-19.7028
  20
4.2305
  42
0
  0
VERTEX
  8
Обводка_Bottom
  10
-19.5775
  20
4.3375
  42
0
  0
VERTEX
  8
Обводка_Bottom
  10
-19.4705
  20
4.4628
  42
0
  0
VERTEX
  8
Обводка_Bottom
  10
-19.3844
  20
4.6033
  42
0
  0
VERTEX
  8
Обводка_Bottom
  10
-19.3214
  20
4.7555
  42
0
  0
VERTEX
  8
Обводка_Bottom
  10
-19.2829
  20
4.9157
  42
0
  0
VERTEX
  8
Обводка_Bottom
  10
-19.27
  20
5.08
  42
0
  0
VERTEX
  8
Обводка_Bottom
  10
-19.2829
  20
5.2443
  42
0
  0
VERTEX
  8
Обводка_Bottom
  10
-19.3214
  20
5.4045
  42
0
  0
VERTEX
  8
Обводка_Bottom
  10
-19.3844
  20
5.5567
  42
0
  0
VERTEX
  8
Обводка_Bottom
  10
-19.4705
  20
5.6972
  42
0
  0
VERTEX
  8
Обводка_Bottom
  10
-19.5203
  20
5.7554
  42
0
  0
VERTEX
  8
Обводка_Bottom
  10
-19.52
  20
7.2888
  42
0
  0
VERTEX
  8
Обводка_Bottom
  10
-17.4482
  20
9.3604
  42
0
  0
VERTEX
  8
Обводка_Bottom
  10
-1.27
  20
9.36
  42
0
  0
VERTEX
  8
Обводка_Bottom
  10
-1.1449
  20
9.3698
  42
0
  0
VERTEX
  8
Обводка_Bottom
  10
-1.0228
  20
9.3992
  42
0
  0
VERTEX
  8
Обводка_Bottom
  10
-0.9068
  20
9.4472
  42
0
  0
VERTEX
  8
Обводка_Bottom
  10
-0.7998
  20
9.5128
  42
0
  0
VERTEX
  8
Обводка_Bottom
  10
-0.7043
  20
9.5943
  42
0
  0
VERTEX
  8
Обводка_Bottom
  10
-0.6228
  20
9.6898
  42
0
  0
VERTEX
  8
Обводка_Bottom
  10
-0.5572
  20
9.7968
  42
0
  0
VERTEX
  8
Обводка_Bottom
  10
-0.5092
  20
9.9128
  42
0
  0
VERTEX
  8
Обводка_Bottom
  10
-0.4798
  20
10.0349
  42
0
  0
VERTEX
  8
Обводка_Bottom
  10
-0.47
  20
10.16
  42
0
  0
VERTEX
  8
Обводка_Bottom
  10
-0.4798
  20
10.2851
  42
0
  0
VERTEX
  8
Обводка_Bottom
  10
-0.5092
  20
10.4072
  42
0
  0
VERTEX
  8
Обводка_Bottom
  10
-0.5572
  20
10.5232
  42
0
  0
VERTEX
  8
Обводка_Bottom
  10
-0.6228
  20
10.6302
  42
0
  0
VERTEX
  8
Обводка_Bottom
  10
-0.7043
  20
10.7257
  42
0
  0
VERTEX
  8
Обводка_Bottom
  10
-0.7998
  20
10.8072
  42
0
  0
VERTEX
  8
Обводка_Bottom
  10
-0.9068
  20
10.8728
  42
0
  0
VERTEX
  8
Обводка_Bottom
  10
-1.0228
  20
10.9208
  42
0
  0
VERTEX
  8
Обводка_Bottom
  10
-1.1449
  20
10.9502
  42
0
  0
VERTEX
  8
Обводка_Bottom
  10
-1.4665
  20
10.96
  42
0
  0
VERTEX
  8
Обводка_Bottom
  10
-17.78
  20
10.96
  42
0
  0
VERTEX
  8
Обводка_Bottom
  10
-17.9051
  20
10.9502
  42
0
  0
VERTEX
  8
Обводка_Bottom
  10
-18.0272
  20
10.9208
  42
0
  0
VERTEX
  8
Обводка_Bottom
  10
-18.1432
  20
10.8728
  42
0
  0
VERTEX
  8
Обводка_Bottom
  10
-18.2502
  20
10.8072
  42
0
  0
VERTEX
  8
Обводка_Bottom
  10
-18.4868
  20
10.5846
  42
0
  0
VERTEX
  8
Обводка_Bottom
  10
-20.8857
  20
8.1857
  42
0
  0
VERTEX
  8
Обводка_Bottom
  10
-20.9672
  20
8.0902
  42
0
  0
VERTEX
  8
Обводка_Bottom
  10
-21.0328
  20
7.9832
  42
0
  0
VERTEX
  8
Обводка_Bottom
  10
-21.0808
  20
7.8672
  42
0
  0
VERTEX
  8
Обводка_Bottom
  10
-21.1102
  20
7.7451
  42
0
  0
VERTEX
  8
Обводка_Bottom
  10
-21.12
  20
7.4386
  42
0
  0
VERTEX
  8
Обводка_Bottom
  10
-21.12
  20
5.7597
  42
0
  0
VERTEX
  8
Обводка_Bottom
  10
-21.2556
  20
5.5567
  42
0
  0
VERTEX
  8
Обводка_Bottom
  10
-21.3186
  20
5.4045
  42
0
  0
VERTEX
  8
Обводка_Bottom
  10
-21.3571
  20
5.2443
  42
0
  0
VERTEX
  8
Обводка_Bottom
  10
-21.37
  20
5.08
  42
0
  0
VERTEX
  8
Обводка_Bottom
  10
-21.3571
  20
4.9157
  42
0
  0
SEQEND
  0
POLYLINE
  8
Обводка_Bottom
  6
CONTINUOUS
  66
1
  70
0
  40
0.6
  41
0.6
  0
VERTEX
  8
Обводка_Bottom
  10
-56.9171
  20
4.9157
  42
0
  0
VERTEX
  8
Обводка_Bottom
  10
-56.8786
  20
4.7555
  42
0
  0
VERTEX
  8
Обводка_Bottom
  10
-56.8156
  20
4.6033
  42
0
  0
VERTEX
  8
Обводка_Bottom
  10
-56.7295
  20
4.4628
  42
0
  0
VERTEX
  8
Обводка_Bottom
  10
-56.6225
  20
4.3375
  42
0
  0
VERTEX
  8
Обводка_Bottom
  10
-56.4972
  20
4.2305
  42
0
  0
VERTEX
  8
Обводка_Bottom
  10
-56.3567
  20
4.1444
  42
0
  0
VERTEX
  8
Обводка_Bottom
  10
-56.2045
  20
4.0814
  42
0
  0
VERTEX
  8
Обводка_Bottom
  10
-56.0443
  20
4.0429
  42
0
  0
VERTEX
  8
Обводка_Bottom
  10
-55.88
  20
4.03
  42
0
  0
VERTEX
  8
Обводка_Bottom
  10
-55.7157
  20
4.0429
  42
0
  0
VERTEX
  8
Обводка_Bottom
  10
-55.5555
  20
4.0814
  42
0
  0
VERTEX
  8
Обводка_Bottom
  10
-55.4033
  20
4.1444
  42
0
  0
VERTEX
  8
Обводка_Bottom
  10
-55.2628
  20
4.2305
  42
0
  0
VERTEX
  8
Обводка_Bottom
  10
-55.1375
  20
4.3375
  42
0
  0
VERTEX
  8
Обводка_Bottom
  10
-55.0305
  20
4.4628
  42
0
  0
VERTEX
  8
Обводка_Bottom
  10
-54.9444
  20
4.6033
  42
0
  0
VERTEX
  8
Обводка_Bottom
  10
-54.8814
  20
4.7555
  42
0
  0
VERTEX
  8
Обводка_Bottom
  10
-54.8429
  20
4.9157
  42
0
  0
VERTEX
  8
Обводка_Bottom
  10
-54.83
  20
5.08
  42
0
  0
VERTEX
  8
Обводка_Bottom
  10
-54.8429
  20
5.2443
  42
0
  0
VERTEX
  8
Обводка_Bottom
  10
-54.8814
  20
5.4045
  42
0
  0
VERTEX
  8
Обводка_Bottom
  10
-54.9444
  20
5.5567
  42
0
  0
VERTEX
  8
Обводка_Bottom
  10
-55.0305
  20
5.6972
  42
0
  0
VERTEX
  8
Обводка_Bottom
  10
-55.1375
  20
5.8225
  42
0
  0
VERTEX
  8
Обводка_Bottom
  10
-55.2628
  20
5.9295
  42
0
  0
VERTEX
  8
Обводка_Bottom
  10
-55.4033
  20
6.0156
  42
0
  0
VERTEX
  8
Обводка_Bottom
  10
-55.5555
  20
6.0786
  42
0
  0
VERTEX
  8
Обводка_Bottom
  10
-55.7157
  20
6.1171
  42
0
  0
VERTEX
  8
Обводка_Bottom
  10
-55.88
  20
6.13
  42
0
  0
VERTEX
  8
Обводка_Bottom
  10
-56.0443
  20
6.1171
  42
0
  0
VERTEX
  8
Обводка_Bottom
  10
-56.2045
  20
6.0786
  42
0
  0
VERTEX
  8
Обводка_Bottom
  10
-56.3567
  20
6.0156
  42
0
  0
VERTEX
  8
Обводка_Bottom
  10
-56.4972
  20
5.9295
  42
0
  0
VERTEX
  8
Обводка_Bottom
  10
-56.6225
  20
5.8225
  42
0
  0
VERTEX
  8
Обводка_Bottom
  10
-56.7295
  20
5.6972
  42
0
  0
VERTEX
  8
Обводка_Bottom
  10
-56.8156
  20
5.5567
  42
0
  0
VERTEX
  8
Обводка_Bottom
  10
-56.8786
  20
5.4045
  42
0
  0
VERTEX
  8
Обводка_Bottom
  10
-56.9171
  20
5.2443
  42
0
  0
VERTEX
  8
Обводка_Bottom
  10
-56.93
  20
5.08
  42
0
  0
VERTEX
  8
Обводка_Bottom
  10
-56.9171
  20
4.9157
  42
0
  0
SEQEND
  0
POLYLINE
  8
Обводка_Bottom
  6
CONTINUOUS
  66
1
  70
0
  40
0.6
  41
0.6
  0
VERTEX
  8
Обводка_Bottom
  10
-54.3771
  20
4.9157
  42
0
  0
VERTEX
  8
Обводка_Bottom
  10
-54.3386
  20
4.7555
  42
0
  0
VERTEX
  8
Обводка_Bottom
  10
-54.2756
  20
4.6033
  42
0
  0
VERTEX
  8
Обводка_Bottom
  10
-54.1895
  20
4.4628
  42
0
  0
VERTEX
  8
Обводка_Bottom
  10
-54.0825
  20
4.3375
  42
0
  0
VERTEX
  8
Обводка_Bottom
  10
-53.9572
  20
4.2305
  42
0
  0
VERTEX
  8
Обводка_Bottom
  10
-53.8167
  20
4.1444
  42
0
  0
VERTEX
  8
Обводка_Bottom
  10
-53.6645
  20
4.0814
  42
0
  0
VERTEX
  8
Обводка_Bottom
  10
-53.5043
  20
4.0429
  42
0
  0
VERTEX
  8
Обводка_Bottom
  10
-53.34
  20
4.03
  42
0
  0
VERTEX
  8
Обводка_Bottom
  10
-53.1757
  20
4.0429
  42
0
  0
VERTEX
  8
Обводка_Bottom
  10
-53.0155
  20
4.0814
  42
0
  0
VERTEX
  8
Обводка_Bottom
  10
-52.8633
  20
4.1444
  42
0
  0
VERTEX
  8
Обводка_Bottom
  10
-52.7228
  20
4.2305
  42
0
  0
VERTEX
  8
Обводка_Bottom
  10
-52.5975
  20
4.3375
  42
0
  0
VERTEX
  8
Обводка_Bottom
  10
-52.4905
  20
4.4628
  42
0
  0
VERTEX
  8
Обводка_Bottom
  10
-52.4044
  20
4.6033
  42
0
  0
VERTEX
  8
Обводка_Bottom
  10
-52.3414
  20
4.7555
  42
0
  0
VERTEX
  8
Обводка_Bottom
  10
-52.3029
  20
4.9157
  42
0
  0
VERTEX
  8
Обводка_Bottom
  10
-52.29
  20
5.08
  42
0
  0
VERTEX
  8
Обводка_Bottom
  10
-52.3029
  20
5.2443
  42
0
  0
VERTEX
  8
Обводка_Bottom
  10
-52.3414
  20
5.4045
  42
0
  0
VERTEX
  8
Обводка_Bottom
  10
-52.4044
  20
5.5567
  42
0
  0
VERTEX
  8
Обводка_Bottom
  10
-52.4905
  20
5.6972
  42
0
  0
VERTEX
  8
Обводка_Bottom
  10
-52.5975
  20
5.8225
  42
0
  0
VERTEX
  8
Обводка_Bottom
  10
-52.7228
  20
5.9295
  42
0
  0
VERTEX
  8
Обводка_Bottom
  10
-52.8633
  20
6.0156
  42
0
  0
VERTEX
  8
Обводка_Bottom
  10
-53.0155
  20
6.0786
  42
0
  0
VERTEX
  8
Обводка_Bottom
  10
-53.1757
  20
6.1171
  42
0
  0
VERTEX
  8
Обводка_Bottom
  10
-53.34
  20
6.13
  42
0
  0
VERTEX
  8
Обводка_Bottom
  10
-53.5043
  20
6.1171
  42
0
  0
VERTEX
  8
Обводка_Bottom
  10
-53.6645
  20
6.0786
  42
0
  0
VERTEX
  8
Обводка_Bottom
  10
-53.8167
  20
6.0156
  42
0
  0
VERTEX
  8
Обводка_Bottom
  10
-53.9572
  20
5.9295
  42
0
  0
VERTEX
  8
Обводка_Bottom
  10
-54.0825
  20
5.8225
  42
0
  0
VERTEX
  8
Обводка_Bottom
  10
-54.1895
  20
5.6972
  42
0
  0
VERTEX
  8
Обводка_Bottom
  10
-54.2756
  20
5.5567
  42
0
  0
VERTEX
  8
Обводка_Bottom
  10
-54.3386
  20
5.4045
  42
0
  0
VERTEX
  8
Обводка_Bottom
  10
-54.3771
  20
5.2443
  42
0
  0
VERTEX
  8
Обводка_Bottom
  10
-54.39
  20
5.08
  42
0
  0
VERTEX
  8
Обводка_Bottom
  10
-54.3771
  20
4.9157
  42
0
  0
SEQEND
  0
POLYLINE
  8
Обводка_Bottom
  6
CONTINUOUS
  66
1
  70
0
  40
0.6
  41
0.6
  0
VERTEX
  8
Обводка_Bottom
  10
-51.8371
  20
4.9157
  42
0
  0
VERTEX
  8
Обводка_Bottom
  10
-51.7986
  20
4.7555
  42
0
  0
VERTEX
  8
Обводка_Bottom
  10
-51.7356
  20
4.6033
  42
0
  0
VERTEX
  8
Обводка_Bottom
  10
-51.6495
  20
4.4628
  42
0
  0
VERTEX
  8
Обводка_Bottom
  10
-51.5425
  20
4.3375
  42
0
  0
VERTEX
  8
Обводка_Bottom
  10
-51.4172
  20
4.2305
  42
0
  0
VERTEX
  8
Обводка_Bottom
  10
-51.2767
  20
4.1444
  42
0
  0
VERTEX
  8
Обводка_Bottom
  10
-51.1245
  20
4.0814
  42
0
  0
VERTEX
  8
Обводка_Bottom
  10
-50.9643
  20
4.0429
  42
0
  0
VERTEX
  8
Обводка_Bottom
  10
-50.8
  20
4.03
  42
0
  0
VERTEX
  8
Обводка_Bottom
  10
-50.6357
  20
4.0429
  42
0
  0
VERTEX
  8
Обводка_Bottom
  10
-50.4755
  20
4.0814
  42
0
  0
VERTEX
  8
Обводка_Bottom
  10
-50.3233
  20
4.1444
  42
0
  0
VERTEX
  8
Обводка_Bottom
  10
-50.1828
  20
4.2305
  42
0
  0
VERTEX
  8
Обводка_Bottom
  10
-50.0575
  20
4.3375
  42
0
  0
VERTEX
  8
Обводка_Bottom
  10
-49.9505
  20
4.4628
  42
0
  0
VERTEX
  8
Обводка_Bottom
  10
-49.8644
  20
4.6033
  42
0
  0
VERTEX
  8
Обводка_Bottom
  10
-49.8014
  20
4.7555
  42
0
  0
VERTEX
  8
Обводка_Bottom
  10
-49.7629
  20
4.9157
  42
0
  0
VERTEX
  8
Обводка_Bottom
  10
-49.75
  20
5.08
  42
0
  0
VERTEX
  8
Обводка_Bottom
  10
-49.7629
  20
5.2443
  42
0
  0
VERTEX
  8
Обводка_Bottom
  10
-49.8014
  20
5.4045
  42
0
  0
VERTEX
  8
Обводка_Bottom
  10
-49.8644
  20
5.5567
  42
0
  0
VERTEX
  8
Обводка_Bottom
  10
-49.9505
  20
5.6972
  42
0
  0
VERTEX
  8
Обводка_Bottom
  10
-50.0575
  20
5.8225
  42
0
  0
VERTEX
  8
Обводка_Bottom
  10
-50.1828
  20
5.9295
  42
0
  0
VERTEX
  8
Обводка_Bottom
  10
-50.3233
  20
6.0156
  42
0
  0
VERTEX
  8
Обводка_Bottom
  10
-50.4755
  20
6.0786
  42
0
  0
VERTEX
  8
Обводка_Bottom
  10
-50.6357
  20
6.1171
  42
0
  0
VERTEX
  8
Обводка_Bottom
  10
-50.8
  20
6.13
  42
0
  0
VERTEX
  8
Обводка_Bottom
  10
-50.9643
  20
6.1171
  42
0
  0
VERTEX
  8
Обводка_Bottom
  10
-51.1245
  20
6.0786
  42
0
  0
VERTEX
  8
Обводка_Bottom
  10
-51.2767
  20
6.0156
  42
0
  0
VERTEX
  8
Обводка_Bottom
  10
-51.4172
  20
5.9295
  42
0
  0
VERTEX
  8
Обводка_Bottom
  10
-51.5425
  20
5.8225
  42
0
  0
VERTEX
  8
Обводка_Bottom
  10
-51.6495
  20
5.6972
  42
0
  0
VERTEX
  8
Обводка_Bottom
  10
-51.7356
  20
5.5567
  42
0
  0
VERTEX
  8
Обводка_Bottom
  10
-51.7986
  20
5.4045
  42
0
  0
VERTEX
  8
Обводка_Bottom
  10
-51.8371
  20
5.2443
  42
0
  0
VERTEX
  8
Обводка_Bottom
  10
-51.85
  20
5.08
  42
0
  0
VERTEX
  8
Обводка_Bottom
  10
-51.8371
  20
4.9157
  42
0
  0
SEQEND
  0
POLYLINE
  8
Обводка_Bottom
  6
CONTINUOUS
  66
1
  70
0
  40
0.6
  41
0.6
  0
VERTEX
  8
Обводка_Bottom
  10
-49.2971
  20
4.9157
  42
0
  0
VERTEX
  8
Обводка_Bottom
  10
-49.2586
  20
4.7555
  42
0
  0
VERTEX
  8
Обводка_Bottom
  10
-49.1956
  20
4.6033
  42
0
  0
VERTEX
  8
Обводка_Bottom
  10
-49.1095
  20
4.4628
  42
0
  0
VERTEX
  8
Обводка_Bottom
  10
-49.0025
  20
4.3375
  42
0
  0
VERTEX
  8
Обводка_Bottom
  10
-48.8772
  20
4.2305
  42
0
  0
VERTEX
  8
Обводка_Bottom
  10
-48.7367
  20
4.1444
  42
0
  0
VERTEX
  8
Обводка_Bottom
  10
-48.5845
  20
4.0814
  42
0
  0
VERTEX
  8
Обводка_Bottom
  10
-48.4243
  20
4.0429
  42
0
  0
VERTEX
  8
Обводка_Bottom
  10
-48.26
  20
4.03
  42
0
  0
VERTEX
  8
Обводка_Bottom
  10
-48.0957
  20
4.0429
  42
0
  0
VERTEX
  8
Обводка_Bottom
  10
-47.9355
  20
4.0814
  42
0
  0
VERTEX
  8
Обводка_Bottom
  10
-47.7833
  20
4.1444
  42
0
  0
VERTEX
  8
Обводка_Bottom
  10
-47.6428
  20
4.2305
  42
0
  0
VERTEX
  8
Обводка_Bottom
  10
-47.5175
  20
4.3375
  42
0
  0
VERTEX
  8
Обводка_Bottom
  10
-47.4105
  20
4.4628
  42
0
  0
VERTEX
  8
Обводка_Bottom
  10
-47.3244
  20
4.6033
  42
0
  0
VERTEX
  8
Обводка_Bottom
  10
-47.2614
  20
4.7555
  42
0
  0
VERTEX
  8
Обводка_Bottom
  10
-47.2229
  20
4.9157
  42
0
  0
VERTEX
  8
Обводка_Bottom
  10
-47.21
  20
5.08
  42
0
  0
VERTEX
  8
Обводка_Bottom
  10
-47.2229
  20
5.2443
  42
0
  0
VERTEX
  8
Обводка_Bottom
  10
-47.2614
  20
5.4045
  42
0
  0
VERTEX
  8
Обводка_Bottom
  10
-47.3244
  20
5.5567
  42
0
  0
VERTEX
  8
Обводка_Bottom
  10
-47.4105
  20
5.6972
  42
0
  0
VERTEX
  8
Обводка_Bottom
  10
-47.5175
  20
5.8225
  42
0
  0
VERTEX
  8
Обводка_Bottom
  10
-47.6428
  20
5.9295
  42
0
  0
VERTEX
  8
Обводка_Bottom
  10
-47.7833
  20
6.0156
  42
0
  0
VERTEX
  8
Обводка_Bottom
  10
-47.9355
  20
6.0786
  42
0
  0
VERTEX
  8
Обводка_Bottom
  10
-48.0957
  20
6.1171
  42
0
  0
VERTEX
  8
Обводка_Bottom
  10
-48.26
  20
6.13
  42
0
  0
VERTEX
  8
Обводка_Bottom
  10
-48.4243
  20
6.1171
  42
0
  0
VERTEX
  8
Обводка_Bottom
  10
-48.5845
  20
6.0786
  42
0
  0
VERTEX
  8
Обводка_Bottom
  10
-48.7367
  20
6.0156
  42
0
  0
VERTEX
  8
Обводка_Bottom
  10
-48.8772
  20
5.9295
  42
0
  0
VERTEX
  8
Обводка_Bottom
  10
-49.0025
  20
5.8225
  42
0
  0
VERTEX
  8
Обводка_Bottom
  10
-49.1095
  20
5.6972
  42
0
  0
VERTEX
  8
Обводка_Bottom
  10
-49.1956
  20
5.5567
  42
0
  0
VERTEX
  8
Обводка_Bottom
  10
-49.2586
  20
5.4045
  42
0
  0
VERTEX
  8
Обводка_Bottom
  10
-49.2971
  20
5.2443
  42
0
  0
VERTEX
  8
Обводка_Bottom
  10
-49.31
  20
5.08
  42
0
  0
VERTEX
  8
Обводка_Bottom
  10
-49.2971
  20
4.9157
  42
0
  0
SEQEND
  0
POLYLINE
  8
Обводка_Bottom
  6
CONTINUOUS
  66
1
  70
0
  40
0.6
  41
0.6
  0
VERTEX
  8
Обводка_Bottom
  10
-46.7571
  20
4.9157
  42
0
  0
VERTEX
  8
Обводка_Bottom
  10
-46.7186
  20
4.7555
  42
0
  0
VERTEX
  8
Обводка_Bottom
  10
-46.6556
  20
4.6033
  42
0
  0
VERTEX
  8
Обводка_Bottom
  10
-46.5695
  20
4.4628
  42
0
  0
VERTEX
  8
Обводка_Bottom
  10
-46.4625
  20
4.3375
  42
0
  0
VERTEX
  8
Обводка_Bottom
  10
-46.3372
  20
4.2305
  42
0
  0
VERTEX
  8
Обводка_Bottom
  10
-46.1967
  20
4.1444
  42
0
  0
VERTEX
  8
Обводка_Bottom
  10
-46.0445
  20
4.0814
  42
0
  0
VERTEX
  8
Обводка_Bottom
  10
-45.8843
  20
4.0429
  42
0
  0
VERTEX
  8
Обводка_Bottom
  10
-45.72
  20
4.03
  42
0
  0
VERTEX
  8
Обводка_Bottom
  10
-45.5557
  20
4.0429
  42
0
  0
VERTEX
  8
Обводка_Bottom
  10
-45.3955
  20
4.0814
  42
0
  0
VERTEX
  8
Обводка_Bottom
  10
-45.2433
  20
4.1444
  42
0
  0
VERTEX
  8
Обводка_Bottom
  10
-45.1028
  20
4.2305
  42
0
  0
VERTEX
  8
Обводка_Bottom
  10
-44.9775
  20
4.3375
  42
0
  0
VERTEX
  8
Обводка_Bottom
  10
-44.8705
  20
4.4628
  42
0
  0
VERTEX
  8
Обводка_Bottom
  10
-44.7844
  20
4.6033
  42
0
  0
VERTEX
  8
Обводка_Bottom
  10
-44.7214
  20
4.7555
  42
0
  0
VERTEX
  8
Обводка_Bottom
  10
-44.6829
  20
4.9157
  42
0
  0
VERTEX
  8
Обводка_Bottom
  10
-44.67
  20
5.08
  42
0
  0
VERTEX
  8
Обводка_Bottom
  10
-44.6829
  20
5.2443
  42
0
  0
VERTEX
  8
Обводка_Bottom
  10
-44.7214
  20
5.4045
  42
0
  0
VERTEX
  8
Обводка_Bottom
  10
-44.7844
  20
5.5567
  42
0
  0
VERTEX
  8
Обводка_Bottom
  10
-44.8705
  20
5.6972
  42
0
  0
VERTEX
  8
Обводка_Bottom
  10
-44.9775
  20
5.8225
  42
0
  0
VERTEX
  8
Обводка_Bottom
  10
-45.1028
  20
5.9295
  42
0
  0
VERTEX
  8
Обводка_Bottom
  10
-45.2433
  20
6.0156
  42
0
  0
VERTEX
  8
Обводка_Bottom
  10
-45.3955
  20
6.0786
  42
0
  0
VERTEX
  8
Обводка_Bottom
  10
-45.5557
  20
6.1171
  42
0
  0
VERTEX
  8
Обводка_Bottom
  10
-45.72
  20
6.13
  42
0
  0
VERTEX
  8
Обводка_Bottom
  10
-45.8843
  20
6.1171
  42
0
  0
VERTEX
  8
Обводка_Bottom
  10
-46.0445
  20
6.0786
  42
0
  0
VERTEX
  8
Обводка_Bottom
  10
-46.1967
  20
6.0156
  42
0
  0
VERTEX
  8
Обводка_Bottom
  10
-46.3372
  20
5.9295
  42
0
  0
VERTEX
  8
Обводка_Bottom
  10
-46.4625
  20
5.8225
  42
0
  0
VERTEX
  8
Обводка_Bottom
  10
-46.5695
  20
5.6972
  42
0
  0
VERTEX
  8
Обводка_Bottom
  10
-46.6556
  20
5.5567
  42
0
  0
VERTEX
  8
Обводка_Bottom
  10
-46.7186
  20
5.4045
  42
0
  0
VERTEX
  8
Обводка_Bottom
  10
-46.7571
  20
5.2443
  42
0
  0
VERTEX
  8
Обводка_Bottom
  10
-46.77
  20
5.08
  42
0
  0
VERTEX
  8
Обводка_Bottom
  10
-46.7571
  20
4.9157
  42
0
  0
SEQEND
  0
POLYLINE
  8
Обводка_Bottom
  6
CONTINUOUS
  66
1
  70
0
  40
0.6
  41
0.6
  0
VERTEX
  8
Обводка_Bottom
  10
-44.2171
  20
4.9157
  42
0
  0
VERTEX
  8
Обводка_Bottom
  10
-44.1786
  20
4.7555
  42
0
  0
VERTEX
  8
Обводка_Bottom
  10
-44.1156
  20
4.6033
  42
0
  0
VERTEX
  8
Обводка_Bottom
  10
-44.0295
  20
4.4628
  42
0
  0
VERTEX
  8
Обводка_Bottom
  10
-43.9225
  20
4.3375
  42
0
  0
VERTEX
  8
Обводка_Bottom
  10
-43.7972
  20
4.2305
  42
0
  0
VERTEX
  8
Обводка_Bottom
  10
-43.6567
  20
4.1444
  42
0
  0
VERTEX
  8
Обводка_Bottom
  10
-43.5045
  20
4.0814
  42
0
  0
VERTEX
  8
Обводка_Bottom
  10
-43.3443
  20
4.0429
  42
0
  0
VERTEX
  8
Обводка_Bottom
  10
-43.18
  20
4.03
  42
0
  0
VERTEX
  8
Обводка_Bottom
  10
-43.0157
  20
4.0429
  42
0
  0
VERTEX
  8
Обводка_Bottom
  10
-42.8555
  20
4.0814
  42
0
  0
VERTEX
  8
Обводка_Bottom
  10
-42.7033
  20
4.1444
  42
0
  0
VERTEX
  8
Обводка_Bottom
  10
-42.5628
  20
4.2305
  42
0
  0
VERTEX
  8
Обводка_Bottom
  10
-42.4375
  20
4.3375
  42
0
  0
VERTEX
  8
Обводка_Bottom
  10
-42.3305
  20
4.4628
  42
0
  0
VERTEX
  8
Обводка_Bottom
  10
-42.2444
  20
4.6033
  42
0
  0
VERTEX
  8
Обводка_Bottom
  10
-42.1814
  20
4.7555
  42
0
  0
VERTEX
  8
Обводка_Bottom
  10
-42.1429
  20
4.9157
  42
0
  0
VERTEX
  8
Обводка_Bottom
  10
-42.13
  20
5.08
  42
0
  0
VERTEX
  8
Обводка_Bottom
  10
-42.1429
  20
5.2443
  42
0
  0
VERTEX
  8
Обводка_Bottom
  10
-42.1814
  20
5.4045
  42
0
  0
VERTEX
  8
Обводка_Bottom
  10
-42.2444
  20
5.5567
  42
0
  0
VERTEX
  8
Обводка_Bottom
  10
-42.3305
  20
5.6972
  42
0
  0
VERTEX
  8
Обводка_Bottom
  10
-42.4375
  20
5.8225
  42
0
  0
VERTEX
  8
Обводка_Bottom
  10
-42.5628
  20
5.9295
  42
0
  0
VERTEX
  8
Обводка_Bottom
  10
-42.7033
  20
6.0156
  42
0
  0
VERTEX
  8
Обводка_Bottom
  10
-42.8555
  20
6.0786
  42
0
  0
VERTEX
  8
Обводка_Bottom
  10
-43.0157
  20
6.1171
  42
0
  0
VERTEX
  8
Обводка_Bottom
  10
-43.18
  20
6.13
  42
0
  0
VERTEX
  8
Обводка_Bottom
  10
-43.3443
  20
6.1171
  42
0
  0
VERTEX
  8
Обводка_Bottom
  10
-43.5045
  20
6.0786
  42
0
  0
VERTEX
  8
Обводка_Bottom
  10
-43.6567
  20
6.0156
  42
0
  0
VERTEX
  8
Обводка_Bottom
  10
-43.7972
  20
5.9295
  42
0
  0
VERTEX
  8
Обводка_Bottom
  10
-43.9225
  20
5.8225
  42
0
  0
VERTEX
  8
Обводка_Bottom
  10
-44.0295
  20
5.6972
  42
0
  0
VERTEX
  8
Обводка_Bottom
  10
-44.1156
  20
5.5567
  42
0
  0
VERTEX
  8
Обводка_Bottom
  10
-44.1786
  20
5.4045
  42
0
  0
VERTEX
  8
Обводка_Bottom
  10
-44.2171
  20
5.2443
  42
0
  0
VERTEX
  8
Обводка_Bottom
  10
-44.23
  20
5.08
  42
0
  0
VERTEX
  8
Обводка_Bottom
  10
-44.2171
  20
4.9157
  42
0
  0
SEQEND
  0
POLYLINE
  8
Обводка_Bottom
  6
CONTINUOUS
  66
1
  70
0
  40
0.6
  41
0.6
  0
VERTEX
  8
Обводка_Bottom
  10
-35.0223
  20
53.1757
  42
0
  0
VERTEX
  8
Обводка_Bottom
  10
-34.9838
  20
53.0155
  42
0
  0
VERTEX
  8
Обводка_Bottom
  10
-34.9208
  20
52.8633
  42
0
  0
VERTEX
  8
Обводка_Bottom
  10
-34.8347
  20
52.7228
  42
0
  0
VERTEX
  8
Обводка_Bottom
  10
-34.7849
  20
52.6646
  42
0
  0
VERTEX
  8
Обводка_Bottom
  10
-34.7852
  20
46.6852
  42
0
  0
VERTEX
  8
Обводка_Bottom
  10
-34.7754
  20
46.5601
  42
0
  0
VERTEX
  8
Обводка_Bottom
  10
-34.746
  20
46.438
  42
0
  0
VERTEX
  8
Обводка_Bottom
  10
-34.698
  20
46.322
  42
0
  0
VERTEX
  8
Обводка_Bottom
  10
-34.6324
  20
46.215
  42
0
  0
VERTEX
  8
Обводка_Bottom
  10
-34.4124
  20
45.981
  42
0
  0
VERTEX
  8
Обводка_Bottom
  10
-25.9657
  20
37.5343
  42
0
  0
VERTEX
  8
Обводка_Bottom
  10
-25.8702
  20
37.4528
  42
0
  0
VERTEX
  8
Обводка_Bottom
  10
-25.7632
  20
37.3872
  42
0
  0
VERTEX
  8
Обводка_Bottom
  10
-25.6472
  20
37.3392
  42
0
  0
VERTEX
  8
Обводка_Bottom
  10
-25.5251
  20
37.3098
  42
0
  0
VERTEX
  8
Обводка_Bottom
  10
-25.2022
  20
37.3
  42
0
  0
VERTEX
  8
Обводка_Bottom
  10
-1.27
  20
37.3
  42
0
  0
VERTEX
  8
Обводка_Bottom
  10
-1.1449
  20
37.3098
  42
0
  0
VERTEX
  8
Обводка_Bottom
  10
-1.0228
  20
37.3392
  42
0
  0
VERTEX
  8
Обводка_Bottom
  10
-0.9068
  20
37.3872
  42
0
  0
VERTEX
  8
Обводка_Bottom
  10
-0.7998
  20
37.4528
  42
0
  0
VERTEX
  8
Обводка_Bottom
  10
-0.7043
  20
37.5343
  42
0
  0
VERTEX
  8
Обводка_Bottom
  10
-0.6228
  20
37.6298
  42
0
  0
VERTEX
  8
Обводка_Bottom
  10
-0.5572
  20
37.7368
  42
0
  0
VERTEX
  8
Обводка_Bottom
  10
-0.5092
  20
37.8528
  42
0
  0
VERTEX
  8
Обводка_Bottom
  10
-0.4798
  20
37.9749
  42
0
  0
VERTEX
  8
Обводка_Bottom
  10
-0.47
  20
38.1
  42
0
  0
VERTEX
  8
Обводка_Bottom
  10
-0.4798
  20
38.2251
  42
0
  0
VERTEX
  8
Обводка_Bottom
  10
-0.5092
  20
38.3472
  42
0
  0
VERTEX
  8
Обводка_Bottom
  10
-0.5572
  20
38.4632
  42
0
  0
VERTEX
  8
Обводка_Bottom
  10
-0.6228
  20
38.5702
  42
0
  0
VERTEX
  8
Обводка_Bottom
  10
-0.7043
  20
38.6657
  42
0
  0
VERTEX
  8
Обводка_Bottom
  10
-0.7998
  20
38.7472
  42
0
  0
VERTEX
  8
Обводка_Bottom
  10
-0.9068
  20
38.8128
  42
0
  0
VERTEX
  8
Обводка_Bottom
  10
-1.0228
  20
38.8608
  42
0
  0
VERTEX
  8
Обводка_Bottom
  10
-1.1449
  20
38.8902
  42
0
  0
VERTEX
  8
Обводка_Bottom
  10
-1.4678
  20
38.9
  42
0
  0
VERTEX
  8
Обводка_Bottom
  10
-25.0686
  20
38.9
  42
0
  0
VERTEX
  8
Обводка_Bottom
  10
-33.1857
  20
47.0171
  42
0
  0
VERTEX
  8
Обводка_Bottom
  10
-33.1852
  20
52.6598
  42
0
  0
VERTEX
  8
Обводка_Bottom
  10
-33.0496
  20
52.8633
  42
0
  0
VERTEX
  8
Обводка_Bottom
  10
-32.9866
  20
53.0155
  42
0
  0
VERTEX
  8
Обводка_Bottom
  10
-32.9481
  20
53.1757
  42
0
  0
VERTEX
  8
Обводка_Bottom
  10
-32.9352
  20
53.34
  42
0
  0
VERTEX
  8
Обводка_Bottom
  10
-32.9481
  20
53.5043
  42
0
  0
VERTEX
  8
Обводка_Bottom
  10
-32.9866
  20
53.6645
  42
0
  0
VERTEX
  8
Обводка_Bottom
  10
-33.0496
  20
53.8167
  42
0
  0
VERTEX
  8
Обводка_Bottom
  10
-33.1357
  20
53.9572
  42
0
  0
VERTEX
  8
Обводка_Bottom
  10
-33.2427
  20
54.0825
  42
0
  0
VERTEX
  8
Обводка_Bottom
  10
-33.368
  20
54.1895
  42
0
  0
VERTEX
  8
Обводка_Bottom
  10
-33.5085
  20
54.2756
  42
0
  0
VERTEX
  8
Обводка_Bottom
  10
-33.6607
  20
54.3386
  42
0
  0
VERTEX
  8
Обводка_Bottom
  10
-33.8209
  20
54.3771
  42
0
  0
VERTEX
  8
Обводка_Bottom
  10
-33.9852
  20
54.39
  42
0
  0
VERTEX
  8
Обводка_Bottom
  10
-34.1495
  20
54.3771
  42
0
  0
VERTEX
  8
Обводка_Bottom
  10
-34.3097
  20
54.3386
  42
0
  0
VERTEX
  8
Обводка_Bottom
  10
-34.4619
  20
54.2756
  42
0
  0
VERTEX
  8
Обводка_Bottom
  10
-34.6024
  20
54.1895
  42
0
  0
VERTEX
  8
Обводка_Bottom
  10
-34.7277
  20
54.0825
  42
0
  0
VERTEX
  8
Обводка_Bottom
  10
-34.8347
  20
53.9572
  42
0
  0
VERTEX
  8
Обводка_Bottom
  10
-34.9208
  20
53.8167
  42
0
  0
VERTEX
  8
Обводка_Bottom
  10
-34.9838
  20
53.6645
  42
0
  0
VERTEX
  8
Обводка_Bottom
  10
-35.0223
  20
53.5043
  42
0
  0
VERTEX
  8
Обводка_Bottom
  10
-35.0352
  20
53.34
  42
0
  0
VERTEX
  8
Обводка_Bottom
  10
-35.0223
  20
53.1757
  42
0
  0
SEQEND
  0
POLYLINE
  8
Обводка_Bottom
  6
CONTINUOUS
  66
1
  70
0
  40
0.6
  41
0.6
  0
VERTEX
  8
Обводка_Bottom
  10
-32.4823
  20
53.1757
  42
0
  0
VERTEX
  8
Обводка_Bottom
  10
-32.4438
  20
53.0155
  42
0
  0
VERTEX
  8
Обводка_Bottom
  10
-32.3808
  20
52.8633
  42
0
  0
VERTEX
  8
Обводка_Bottom
  10
-32.2947
  20
52.7228
  42
0
  0
VERTEX
  8
Обводка_Bottom
  10
-32.2449
  20
52.6646
  42
0
  0
VERTEX
  8
Обводка_Bottom
  10
-32.2452
  20
47.9552
  42
0
  0
VERTEX
  8
Обводка_Bottom
  10
-32.2354
  20
47.8301
  42
0
  0
VERTEX
  8
Обводка_Bottom
  10
-32.206
  20
47.708
  42
0
  0
VERTEX
  8
Обводка_Bottom
  10
-32.158
  20
47.592
  42
0
  0
VERTEX
  8
Обводка_Bottom
  10
-32.0924
  20
47.485
  42
0
  0
VERTEX
  8
Обводка_Bottom
  10
-31.8702
  20
47.2488
  42
0
  0
VERTEX
  8
Обводка_Bottom
  10
-24.6957
  20
40.0743
  42
0
  0
VERTEX
  8
Обводка_Bottom
  10
-24.6002
  20
39.9928
  42
0
  0
VERTEX
  8
Обводка_Bottom
  10
-24.4932
  20
39.9272
  42
0
  0
VERTEX
  8
Обводка_Bottom
  10
-24.3772
  20
39.8792
  42
0
  0
VERTEX
  8
Обводка_Bottom
  10
-24.2551
  20
39.8498
  42
0
  0
VERTEX
  8
Обводка_Bottom
  10
-23.9295
  20
39.84
  42
0
  0
VERTEX
  8
Обводка_Bottom
  10
-1.27
  20
39.84
  42
0
  0
VERTEX
  8
Обводка_Bottom
  10
-1.1449
  20
39.8498
  42
0
  0
VERTEX
  8
Обводка_Bottom
  10
-1.0228
  20
39.8792
  42
0
  0
VERTEX
  8
Обводка_Bottom
  10
-0.9068
  20
39.9272
  42
0
  0
VERTEX
  8
Обводка_Bottom
  10
-0.7998
  20
39.9928
  42
0
  0
VERTEX
  8
Обводка_Bottom
  10
-0.7043
  20
40.0743
  42
0
  0
VERTEX
  8
Обводка_Bottom
  10
-0.6228
  20
40.1698
  42
0
  0
VERTEX
  8
Обводка_Bottom
  10
-0.5572
  20
40.2768
  42
0
  0
VERTEX
  8
Обводка_Bottom
  10
-0.5092
  20
40.3928
  42
0
  0
VERTEX
  8
Обводка_Bottom
  10
-0.4798
  20
40.5149
  42
0
  0
VERTEX
  8
Обводка_Bottom
  10
-0.47
  20
40.64
  42
0
  0
VERTEX
  8
Обводка_Bottom
  10
-0.4798
  20
40.7651
  42
0
  0
VERTEX
  8
Обводка_Bottom
  10
-0.5092
  20
40.8872
  42
0
  0
VERTEX
  8
Обводка_Bottom
  10
-0.5572
  20
41.0032
  42
0
  0
VERTEX
  8
Обводка_Bottom
  10
-0.6228
  20
41.1102
  42
0
  0
VERTEX
  8
Обводка_Bottom
  10
-0.7043
  20
41.2057
  42
0
  0
VERTEX
  8
Обводка_Bottom
  10
-0.7998
  20
41.2872
  42
0
  0
VERTEX
  8
Обводка_Bottom
  10
-0.9068
  20
41.3528
  42
0
  0
VERTEX
  8
Обводка_Bottom
  10
-1.0228
  20
41.4008
  42
0
  0
VERTEX
  8
Обводка_Bottom
  10
-1.1449
  20
41.4302
  42
0
  0
VERTEX
  8
Обводка_Bottom
  10
-1.4705
  20
41.44
  42
0
  0
VERTEX
  8
Обводка_Bottom
  10
-23.7979
  20
41.44
  42
0
  0
VERTEX
  8
Обводка_Bottom
  10
-30.6451
  20
48.2865
  42
0
  0
VERTEX
  8
Обводка_Bottom
  10
-30.6452
  20
52.6592
  42
0
  0
VERTEX
  8
Обводка_Bottom
  10
-30.5096
  20
52.8633
  42
0
  0
VERTEX
  8
Обводка_Bottom
  10
-30.4466
  20
53.0155
  42
0
  0
VERTEX
  8
Обводка_Bottom
  10
-30.4081
  20
53.1757
  42
0
  0
VERTEX
  8
Обводка_Bottom
  10
-30.3952
  20
53.34
  42
0
  0
VERTEX
  8
Обводка_Bottom
  10
-30.4081
  20
53.5043
  42
0
  0
VERTEX
  8
Обводка_Bottom
  10
-30.4466
  20
53.6645
  42
0
  0
VERTEX
  8
Обводка_Bottom
  10
-30.5096
  20
53.8167
  42
0
  0
VERTEX
  8
Обводка_Bottom
  10
-30.5957
  20
53.9572
  42
0
  0
VERTEX
  8
Обводка_Bottom
  10
-30.7027
  20
54.0825
  42
0
  0
VERTEX
  8
Обводка_Bottom
  10
-30.828
  20
54.1895
  42
0
  0
VERTEX
  8
Обводка_Bottom
  10
-30.9685
  20
54.2756
  42
0
  0
VERTEX
  8
Обводка_Bottom
  10
-31.1207
  20
54.3386
  42
0
  0
VERTEX
  8
Обводка_Bottom
  10
-31.2809
  20
54.3771
  42
0
  0
VERTEX
  8
Обводка_Bottom
  10
-31.4452
  20
54.39
  42
0
  0
VERTEX
  8
Обводка_Bottom
  10
-31.6095
  20
54.3771
  42
0
  0
VERTEX
  8
Обводка_Bottom
  10
-31.7697
  20
54.3386
  42
0
  0
VERTEX
  8
Обводка_Bottom
  10
-31.9219
  20
54.2756
  42
0
  0
VERTEX
  8
Обводка_Bottom
  10
-32.0624
  20
54.1895
  42
0
  0
VERTEX
  8
Обводка_Bottom
  10
-32.1877
  20
54.0825
  42
0
  0
VERTEX
  8
Обводка_Bottom
  10
-32.2947
  20
53.9572
  42
0
  0
VERTEX
  8
Обводка_Bottom
  10
-32.3808
  20
53.8167
  42
0
  0
VERTEX
  8
Обводка_Bottom
  10
-32.4438
  20
53.6645
  42
0
  0
VERTEX
  8
Обводка_Bottom
  10
-32.4823
  20
53.5043
  42
0
  0
VERTEX
  8
Обводка_Bottom
  10
-32.4952
  20
53.34
  42
0
  0
VERTEX
  8
Обводка_Bottom
  10
-32.4823
  20
53.1757
  42
0
  0
SEQEND
  0
POLYLINE
  8
Обводка_Bottom
  6
CONTINUOUS
  66
1
  70
0
  40
0.6
  41
0.6
  0
VERTEX
  8
Обводка_Bottom
  10
-29.7049
  20
54.0154
  42
0
  0
VERTEX
  8
Обводка_Bottom
  10
-29.7547
  20
53.9572
  42
0
  0
VERTEX
  8
Обводка_Bottom
  10
-29.8408
  20
53.8167
  42
0
  0
VERTEX
  8
Обводка_Bottom
  10
-29.9038
  20
53.6645
  42
0
  0
VERTEX
  8
Обводка_Bottom
  10
-29.9423
  20
53.5043
  42
0
  0
VERTEX
  8
Обводка_Bottom
  10
-29.9552
  20
53.34
  42
0
  0
VERTEX
  8
Обводка_Bottom
  10
-29.9423
  20
53.1757
  42
0
  0
VERTEX
  8
Обводка_Bottom
  10
-29.9038
  20
53.0155
  42
0
  0
VERTEX
  8
Обводка_Bottom
  10
-29.8408
  20
52.8633
  42
0
  0
VERTEX
  8
Обводка_Bottom
  10
-29.7547
  20
52.7228
  42
0
  0
VERTEX
  8
Обводка_Bottom
  10
-29.6477
  20
52.5975
  42
0
  0
VERTEX
  8
Обводка_Bottom
  10
-29.5224
  20
52.4905
  42
0
  0
VERTEX
  8
Обводка_Bottom
  10
-29.3819
  20
52.4044
  42
0
  0
VERTEX
  8
Обводка_Bottom
  10
-29.2297
  20
52.3414
  42
0
  0
VERTEX
  8
Обводка_Bottom
  10
-29.0695
  20
52.3029
  42
0
  0
VERTEX
  8
Обводка_Bottom
  10
-28.9052
  20
52.29
  42
0
  0
VERTEX
  8
Обводка_Bottom
  10
-28.7409
  20
52.3029
  42
0
  0
VERTEX
  8
Обводка_Bottom
  10
-28.5807
  20
52.3414
  42
0
  0
VERTEX
  8
Обводка_Bottom
  10
-28.4285
  20
52.4044
  42
0
  0
VERTEX
  8
Обводка_Bottom
  10
-28.288
  20
52.4905
  42
0
  0
VERTEX
  8
Обводка_Bottom
  10
-28.1627
  20
52.5975
  42
0
  0
VERTEX
  8
Обводка_Bottom
  10
-28.0557
  20
52.7228
  42
0
  0
VERTEX
  8
Обводка_Bottom
  10
-27.9696
  20
52.8633
  42
0
  0
VERTEX
  8
Обводка_Bottom
  10
-27.9066
  20
53.0155
  42
0
  0
VERTEX
  8
Обводка_Bottom
  10
-27.8681
  20
53.1757
  42
0
  0
VERTEX
  8
Обводка_Bottom
  10
-27.8552
  20
53.34
  42
0
  0
VERTEX
  8
Обводка_Bottom
  10
-27.8681
  20
53.5043
  42
0
  0
VERTEX
  8
Обводка_Bottom
  10
-27.9066
  20
53.6645
  42
0
  0
VERTEX
  8
Обводка_Bottom
  10
-27.9696
  20
53.8167
  42
0
  0
VERTEX
  8
Обводка_Bottom
  10
-28.0557
  20
53.9572
  42
0
  0
VERTEX
  8
Обводка_Bottom
  10
-28.1055
  20
54.0154
  42
0
  0
VERTEX
  8
Обводка_Bottom
  10
-28.1052
  20
54.5829
  42
0
  0
VERTEX
  8
Обводка_Bottom
  10
-27.6084
  20
55.0802
  42
0
  0
VERTEX
  8
Обводка_Bottom
  10
-18.111
  20
55.08
  42
0
  0
VERTEX
  8
Обводка_Bottom
  10
-16.6755
  20
53.6442
  42
0
  0
VERTEX
  8
Обводка_Bottom
  10
-16.675
  20
51.435
  42
0
  0
VERTEX
  8
Обводка_Bottom
  10
-16.6652
  20
51.3099
  42
0
  0
VERTEX
  8
Обводка_Bottom
  10
-16.6358
  20
51.1878
  42
0
  0
VERTEX
  8
Обводка_Bottom
  10
-16.5878
  20
51.0718
  42
0
  0
VERTEX
  8
Обводка_Bottom
  10
-16.5222
  20
50.9648
  42
0
  0
VERTEX
  8
Обводка_Bottom
  10
-16.2819
  20
50.7106
  42
0
  0
VERTEX
  8
Обводка_Bottom
  10
-15.8057
  20
50.2343
  42
0
  0
VERTEX
  8
Обводка_Bottom
  10
-15.7102
  20
50.1528
  42
0
  0
VERTEX
  8
Обводка_Bottom
  10
-15.6032
  20
50.0872
  42
0
  0
VERTEX
  8
Обводка_Bottom
  10
-15.4872
  20
50.0392
  42
0
  0
VERTEX
  8
Обводка_Bottom
  10
-15.3651
  20
50.0098
  42
0
  0
VERTEX
  8
Обводка_Bottom
  10
-15.0404
  20
50.0
  42
0
  0
VERTEX
  8
Обводка_Bottom
  10
-1.27
  20
50.0
  42
0
  0
VERTEX
  8
Обводка_Bottom
  10
-1.1449
  20
50.0098
  42
0
  0
VERTEX
  8
Обводка_Bottom
  10
-1.0228
  20
50.0392
  42
0
  0
VERTEX
  8
Обводка_Bottom
  10
-0.9068
  20
50.0872
  42
0
  0
VERTEX
  8
Обводка_Bottom
  10
-0.7998
  20
50.1528
  42
0
  0
VERTEX
  8
Обводка_Bottom
  10
-0.7043
  20
50.2343
  42
0
  0
VERTEX
  8
Обводка_Bottom
  10
-0.6228
  20
50.3298
  42
0
  0
VERTEX
  8
Обводка_Bottom
  10
-0.5572
  20
50.4368
  42
0
  0
VERTEX
  8
Обводка_Bottom
  10
-0.5092
  20
50.5528
  42
0
  0
VERTEX
  8
Обводка_Bottom
  10
-0.4798
  20
50.6749
  42
0
  0
VERTEX
  8
Обводка_Bottom
  10
-0.47
  20
50.8
  42
0
  0
VERTEX
  8
Обводка_Bottom
  10
-0.4798
  20
50.9251
  42
0
  0
VERTEX
  8
Обводка_Bottom
  10
-0.5092
  20
51.0472
  42
0
  0
VERTEX
  8
Обводка_Bottom
  10
-0.5572
  20
51.1632
  42
0
  0
VERTEX
  8
Обводка_Bottom
  10
-0.6228
  20
51.2702
  42
0
  0
VERTEX
  8
Обводка_Bottom
  10
-0.7043
  20
51.3657
  42
0
  0
VERTEX
  8
Обводка_Bottom
  10
-0.7998
  20
51.4472
  42
0
  0
VERTEX
  8
Обводка_Bottom
  10
-0.9068
  20
51.5128
  42
0
  0
VERTEX
  8
Обводка_Bottom
  10
-1.0228
  20
51.5608
  42
0
  0
VERTEX
  8
Обводка_Bottom
  10
-1.1449
  20
51.5902
  42
0
  0
VERTEX
  8
Обводка_Bottom
  10
-1.4696
  20
51.6
  42
0
  0
VERTEX
  8
Обводка_Bottom
  10
-14.9079
  20
51.6
  42
0
  0
VERTEX
  8
Обводка_Bottom
  10
-15.075
  20
51.7656
  42
0
  0
VERTEX
  8
Обводка_Bottom
  10
-15.075
  20
53.975
  42
0
  0
VERTEX
  8
Обводка_Bottom
  10
-15.0848
  20
54.1001
  42
0
  0
VERTEX
  8
Обводка_Bottom
  10
-15.1142
  20
54.2222
  42
0
  0
VERTEX
  8
Обводка_Bottom
  10
-15.1622
  20
54.3382
  42
0
  0
VERTEX
  8
Обводка_Bottom
  10
-15.2278
  20
54.4452
  42
0
  0
VERTEX
  8
Обводка_Bottom
  10
-15.4454
  20
54.6768
  42
0
  0
VERTEX
  8
Обводка_Bottom
  10
-17.2143
  20
56.4457
  42
0
  0
VERTEX
  8
Обводка_Bottom
  10
-17.3098
  20
56.5272
  42
0
  0
VERTEX
  8
Обводка_Bottom
  10
-17.4168
  20
56.5928
  42
0
  0
VERTEX
  8
Обводка_Bottom
  10
-17.5328
  20
56.6408
  42
0
  0
VERTEX
  8
Обводка_Bottom
  10
-17.6549
  20
56.6702
  42
0
  0
VERTEX
  8
Обводка_Bottom
  10
-17.9754
  20
56.68
  42
0
  0
VERTEX
  8
Обводка_Bottom
  10
-27.94
  20
56.68
  42
0
  0
VERTEX
  8
Обводка_Bottom
  10
-28.0651
  20
56.6702
  42
0
  0
VERTEX
  8
Обводка_Bottom
  10
-28.1872
  20
56.6408
  42
0
  0
VERTEX
  8
Обводка_Bottom
  10
-28.3032
  20
56.5928
  42
0
  0
VERTEX
  8
Обводка_Bottom
  10
-28.4102
  20
56.5272
  42
0
  0
VERTEX
  8
Обводка_Bottom
  10
-28.6263
  20
56.325
  42
0
  0
VERTEX
  8
Обводка_Bottom
  10
-29.4709
  20
55.4805
  42
0
  0
VERTEX
  8
Обводка_Bottom
  10
-29.5524
  20
55.385
  42
0
  0
VERTEX
  8
Обводка_Bottom
  10
-29.618
  20
55.278
  42
0
  0
VERTEX
  8
Обводка_Bottom
  10
-29.666
  20
55.162
  42
0
  0
VERTEX
  8
Обводка_Bottom
  10
-29.6954
  20
55.0399
  42
0
  0
VERTEX
  8
Обводка_Bottom
  10
-29.7052
  20
54.718
  42
0
  0
VERTEX
  8
Обводка_Bottom
  10
-29.7052
  20
54.0203
  42
0
  0
VERTEX
  8
Обводка_Bottom
  10
-29.7049
  20
54.0154
  42
0
  0
SEQEND
  0
POLYLINE
  8
Обводка_Bottom
  6
CONTINUOUS
  66
1
  70
0
  40
0.6
  41
0.6
  0
VERTEX
  8
Обводка_Bottom
  10
-27.4023
  20
53.1757
  42
0
  0
VERTEX
  8
Обводка_Bottom
  10
-27.3638
  20
53.0155
  42
0
  0
VERTEX
  8
Обводка_Bottom
  10
-27.3008
  20
52.8633
  42
0
  0
VERTEX
  8
Обводка_Bottom
  10
-27.2147
  20
52.7228
  42
0
  0
VERTEX
  8
Обводка_Bottom
  10
-27.1649
  20
52.6646
  42
0
  0
VERTEX
  8
Обводка_Bottom
  10
-27.1652
  20
47.9552
  42
0
  0
VERTEX
  8
Обводка_Bottom
  10
-27.1554
  20
47.8301
  42
0
  0
VERTEX
  8
Обводка_Bottom
  10
-27.126
  20
47.708
  42
0
  0
VERTEX
  8
Обводка_Bottom
  10
-27.078
  20
47.592
  42
0
  0
VERTEX
  8
Обводка_Bottom
  10
-27.0124
  20
47.485
  42
0
  0
VERTEX
  8
Обводка_Bottom
  10
-26.7912
  20
47.2498
  42
0
  0
VERTEX
  8
Обводка_Bottom
  10
-24.6957
  20
45.1543
  42
0
  0
VERTEX
  8
Обводка_Bottom
  10
-24.6002
  20
45.0728
  42
0
  0
VERTEX
  8
Обводка_Bottom
  10
-24.4932
  20
45.0072
  42
0
  0
VERTEX
  8
Обводка_Bottom
  10
-24.3772
  20
44.9592
  42
0
  0
VERTEX
  8
Обводка_Bottom
  10
-24.2551
  20
44.9298
  42
0
  0
VERTEX
  8
Обводка_Bottom
  10
-23.9295
  20
44.92
  42
0
  0
VERTEX
  8
Обводка_Bottom
  10
-1.27
  20
44.92
  42
0
  0
VERTEX
  8
Обводка_Bottom
  10
-1.1449
  20
44.9298
  42
0
  0
VERTEX
  8
Обводка_Bottom
  10
-1.0228
  20
44.9592
  42
0
  0
VERTEX
  8
Обводка_Bottom
  10
-0.9068
  20
45.0072
  42
0
  0
VERTEX
  8
Обводка_Bottom
  10
-0.7998
  20
45.0728
  42
0
  0
VERTEX
  8
Обводка_Bottom
  10
-0.7043
  20
45.1543
  42
0
  0
VERTEX
  8
Обводка_Bottom
  10
-0.6228
  20
45.2498
  42
0
  0
VERTEX
  8
Обводка_Bottom
  10
-0.5572
  20
45.3568
  42
0
  0
VERTEX
  8
Обводка_Bottom
  10
-0.5092
  20
45.4728
  42
0
  0
VERTEX
  8
Обводка_Bottom
  10
-0.4798
  20
45.5949
  42
0
  0
VERTEX
  8
Обводка_Bottom
  10
-0.47
  20
45.72
  42
0
  0
VERTEX
  8
Обводка_Bottom
  10
-0.4798
  20
45.8451
  42
0
  0
VERTEX
  8
Обводка_Bottom
  10
-0.5092
  20
45.9672
  42
0
  0
VERTEX
  8
Обводка_Bottom
  10
-0.5572
  20
46.0832
  42
0
  0
VERTEX
  8
Обводка_Bottom
  10
-0.6228
  20
46.1902
  42
0
  0
VERTEX
  8
Обводка_Bottom
  10
-0.7043
  20
46.2857
  42
0
  0
VERTEX
  8
Обводка_Bottom
  10
-0.7998
  20
46.3672
  42
0
  0
VERTEX
  8
Обводка_Bottom
  10
-0.9068
  20
46.4328
  42
0
  0
VERTEX
  8
Обводка_Bottom
  10
-1.0228
  20
46.4808
  42
0
  0
VERTEX
  8
Обводка_Bottom
  10
-1.1449
  20
46.5102
  42
0
  0
VERTEX
  8
Обводка_Bottom
  10
-1.4705
  20
46.52
  42
0
  0
VERTEX
  8
Обводка_Bottom
  10
-23.7979
  20
46.52
  42
0
  0
VERTEX
  8
Обводка_Bottom
  10
-25.5651
  20
48.2865
  42
0
  0
VERTEX
  8
Обводка_Bottom
  10
-25.5652
  20
52.6592
  42
0
  0
VERTEX
  8
Обводка_Bottom
  10
-25.4296
  20
52.8633
  42
0
  0
VERTEX
  8
Обводка_Bottom
  10
-25.3666
  20
53.0155
  42
0
  0
VERTEX
  8
Обводка_Bottom
  10
-25.3281
  20
53.1757
  42
0
  0
VERTEX
  8
Обводка_Bottom
  10
-25.3152
  20
53.34
  42
0
  0
VERTEX
  8
Обводка_Bottom
  10
-25.3281
  20
53.5043
  42
0
  0
VERTEX
  8
Обводка_Bottom
  10
-25.3666
  20
53.6645
  42
0
  0
VERTEX
  8
Обводка_Bottom
  10
-25.4296
  20
53.8167
  42
0
  0
VERTEX
  8
Обводка_Bottom
  10
-25.5157
  20
53.9572
  42
0
  0
VERTEX
  8
Обводка_Bottom
  10
-25.6227
  20
54.0825
  42
0
  0
VERTEX
  8
Обводка_Bottom
  10
-25.748
  20
54.1895
  42
0
  0
VERTEX
  8
Обводка_Bottom
  10
-25.8885
  20
54.2756
  42
0
  0
VERTEX
  8
Обводка_Bottom
  10
-26.0407
  20
54.3386
  42
0
  0
VERTEX
  8
Обводка_Bottom
  10
-26.2009
  20
54.3771
  42
0
  0
VERTEX
  8
Обводка_Bottom
  10
-26.3652
  20
54.39
  42
0
  0
VERTEX
  8
Обводка_Bottom
  10
-26.5295
  20
54.3771
  42
0
  0
VERTEX
  8
Обводка_Bottom
  10
-26.6897
  20
54.3386
  42
0
  0
VERTEX
  8
Обводка_Bottom
  10
-26.8419
  20
54.2756
  42
0
  0
VERTEX
  8
Обводка_Bottom
  10
-26.9824
  20
54.1895
  42
0
  0
VERTEX
  8
Обводка_Bottom
  10
-27.1077
  20
54.0825
  42
0
  0
VERTEX
  8
Обводка_Bottom
  10
-27.2147
  20
53.9572
  42
0
  0
VERTEX
  8
Обводка_Bottom
  10
-27.3008
  20
53.8167
  42
0
  0
VERTEX
  8
Обводка_Bottom
  10
-27.3638
  20
53.6645
  42
0
  0
VERTEX
  8
Обводка_Bottom
  10
-27.4023
  20
53.5043
  42
0
  0
VERTEX
  8
Обводка_Bottom
  10
-27.4152
  20
53.34
  42
0
  0
VERTEX
  8
Обводка_Bottom
  10
-27.4023
  20
53.1757
  42
0
  0
SEQEND
  0
POLYLINE
  8
Обводка_Bottom
  6
CONTINUOUS
  66
1
  70
0
  40
0.6
  41
0.6
  0
VERTEX
  8
Обводка_Bottom
  10
-22.3223
  20
53.1757
  42
0
  0
VERTEX
  8
Обводка_Bottom
  10
-22.2838
  20
53.0155
  42
0
  0
VERTEX
  8
Обводка_Bottom
  10
-22.2208
  20
52.8633
  42
0
  0
VERTEX
  8
Обводка_Bottom
  10
-22.1347
  20
52.7228
  42
0
  0
VERTEX
  8
Обводка_Bottom
  10
-22.0849
  20
52.6646
  42
0
  0
VERTEX
  8
Обводка_Bottom
  10
-22.0852
  20
52.4002
  42
0
  0
VERTEX
  8
Обводка_Bottom
  10
-22.0754
  20
52.2751
  42
0
  0
VERTEX
  8
Обводка_Bottom
  10
-22.046
  20
52.153
  42
0
  0
VERTEX
  8
Обводка_Bottom
  10
-21.998
  20
52.037
  42
0
  0
VERTEX
  8
Обводка_Bottom
  10
-21.9324
  20
51.93
  42
0
  0
VERTEX
  8
Обводка_Bottom
  10
-21.7129
  20
51.6965
  42
0
  0
VERTEX
  8
Обводка_Bottom
  10
-17.7107
  20
47.6943
  42
0
  0
VERTEX
  8
Обводка_Bottom
  10
-17.6152
  20
47.6128
  42
0
  0
VERTEX
  8
Обводка_Bottom
  10
-17.5082
  20
47.5472
  42
0
  0
VERTEX
  8
Обводка_Bottom
  10
-17.3922
  20
47.4992
  42
0
  0
VERTEX
  8
Обводка_Bottom
  10
-17.2701
  20
47.4698
  42
0
  0
VERTEX
  8
Обводка_Bottom
  10
-16.9466
  20
47.46
  42
0
  0
VERTEX
  8
Обводка_Bottom
  10
-1.27
  20
47.46
  42
0
  0
VERTEX
  8
Обводка_Bottom
  10
-1.1449
  20
47.4698
  42
0
  0
VERTEX
  8
Обводка_Bottom
  10
-1.0228
  20
47.4992
  42
0
  0
VERTEX
  8
Обводка_Bottom
  10
-0.9068
  20
47.5472
  42
0
  0
VERTEX
  8
Обводка_Bottom
  10
-0.7998
  20
47.6128
  42
0
  0
VERTEX
  8
Обводка_Bottom
  10
-0.7043
  20
47.6943
  42
0
  0
VERTEX
  8
Обводка_Bottom
  10
-0.6228
  20
47.7898
  42
0
  0
VERTEX
  8
Обводка_Bottom
  10
-0.5572
  20
47.8968
  42
0
  0
VERTEX
  8
Обводка_Bottom
  10
-0.5092
  20
48.0128
  42
0
  0
VERTEX
  8
Обводка_Bottom
  10
-0.4798
  20
48.1349
  42
0
  0
VERTEX
  8
Обводка_Bottom
  10
-0.47
  20
48.26
  42
0
  0
VERTEX
  8
Обводка_Bottom
  10
-0.4798
  20
48.3851
  42
0
  0
VERTEX
  8
Обводка_Bottom
  10
-0.5092
  20
48.5072
  42
0
  0
VERTEX
  8
Обводка_Bottom
  10
-0.5572
  20
48.6232
  42
0
  0
VERTEX
  8
Обводка_Bottom
  10
-0.6228
  20
48.7302
  42
0
  0
VERTEX
  8
Обводка_Bottom
  10
-0.7043
  20
48.8257
  42
0
  0
VERTEX
  8
Обводка_Bottom
  10
-0.7998
  20
48.9072
  42
0
  0
VERTEX
  8
Обводка_Bottom
  10
-0.9068
  20
48.9728
  42
0
  0
VERTEX
  8
Обводка_Bottom
  10
-1.0228
  20
49.0208
  42
0
  0
VERTEX
  8
Обводка_Bottom
  10
-1.1449
  20
49.0502
  42
0
  0
VERTEX
  8
Обводка_Bottom
  10
-1.4684
  20
49.06
  42
0
  0
VERTEX
  8
Обводка_Bottom
  10
-16.813
  20
49.06
  42
0
  0
VERTEX
  8
Обводка_Bottom
  10
-20.4534
  20
52.6998
  42
0
  0
VERTEX
  8
Обводка_Bottom
  10
-20.3496
  20
52.8633
  42
0
  0
VERTEX
  8
Обводка_Bottom
  10
-20.2866
  20
53.0155
  42
0
  0
VERTEX
  8
Обводка_Bottom
  10
-20.2481
  20
53.1757
  42
0
  0
VERTEX
  8
Обводка_Bottom
  10
-20.2352
  20
53.34
  42
0
  0
VERTEX
  8
Обводка_Bottom
  10
-20.2481
  20
53.5043
  42
0
  0
VERTEX
  8
Обводка_Bottom
  10
-20.2866
  20
53.6645
  42
0
  0
VERTEX
  8
Обводка_Bottom
  10
-20.3496
  20
53.8167
  42
0
  0
VERTEX
  8
Обводка_Bottom
  10
-20.4357
  20
53.9572
  42
0
  0
VERTEX
  8
Обводка_Bottom
  10
-20.5427
  20
54.0825
  42
0
  0
VERTEX
  8
Обводка_Bottom
  10
-20.668
  20
54.1895
  42
0
  0
VERTEX
  8
Обводка_Bottom
  10
-20.8085
  20
54.2756
  42
0
  0
VERTEX
  8
Обводка_Bottom
  10
-20.9607
  20
54.3386
  42
0
  0
VERTEX
  8
Обводка_Bottom
  10
-21.1209
  20
54.3771
  42
0
  0
VERTEX
  8
Обводка_Bottom
  10
-21.2852
  20
54.39
  42
0
  0
VERTEX
  8
Обводка_Bottom
  10
-21.4495
  20
54.3771
  42
0
  0
VERTEX
  8
Обводка_Bottom
  10
-21.6097
  20
54.3386
  42
0
  0
VERTEX
  8
Обводка_Bottom
  10
-21.7619
  20
54.2756
  42
0
  0
VERTEX
  8
Обводка_Bottom
  10
-21.9024
  20
54.1895
  42
0
  0
VERTEX
  8
Обводка_Bottom
  10
-22.0277
  20
54.0825
  42
0
  0
VERTEX
  8
Обводка_Bottom
  10
-22.1347
  20
53.9572
  42
0
  0
VERTEX
  8
Обводка_Bottom
  10
-22.2208
  20
53.8167
  42
0
  0
VERTEX
  8
Обводка_Bottom
  10
-22.2838
  20
53.6645
  42
0
  0
VERTEX
  8
Обводка_Bottom
  10
-22.3223
  20
53.5043
  42
0
  0
VERTEX
  8
Обводка_Bottom
  10
-22.3352
  20
53.34
  42
0
  0
VERTEX
  8
Обводка_Bottom
  10
-22.3223
  20
53.1757
  42
0
  0
SEQEND
  0
POLYLINE
  8
Обводка_Bottom
  6
CONTINUOUS
  66
1
  70
0
  40
0.6
  41
0.6
  0
VERTEX
  8
Обводка_Bottom
  10
-19.7823
  20
53.1757
  42
0
  0
VERTEX
  8
Обводка_Bottom
  10
-19.7438
  20
53.0155
  42
0
  0
VERTEX
  8
Обводка_Bottom
  10
-19.6808
  20
52.8633
  42
0
  0
VERTEX
  8
Обводка_Bottom
  10
-19.5947
  20
52.7228
  42
0
  0
VERTEX
  8
Обводка_Bottom
  10
-19.4877
  20
52.5975
  42
0
  0
VERTEX
  8
Обводка_Bottom
  10
-19.3624
  20
52.4905
  42
0
  0
VERTEX
  8
Обводка_Bottom
  10
-19.2219
  20
52.4044
  42
0
  0
VERTEX
  8
Обводка_Bottom
  10
-19.0697
  20
52.3414
  42
0
  0
VERTEX
  8
Обводка_Bottom
  10
-18.9095
  20
52.3029
  42
0
  0
VERTEX
  8
Обводка_Bottom
  10
-18.7452
  20
52.29
  42
0
  0
VERTEX
  8
Обводка_Bottom
  10
-18.5809
  20
52.3029
  42
0
  0
VERTEX
  8
Обводка_Bottom
  10
-18.4207
  20
52.3414
  42
0
  0
VERTEX
  8
Обводка_Bottom
  10
-18.2685
  20
52.4044
  42
0
  0
VERTEX
  8
Обводка_Bottom
  10
-18.128
  20
52.4905
  42
0
  0
VERTEX
  8
Обводка_Bottom
  10
-18.0027
  20
52.5975
  42
0
  0
VERTEX
  8
Обводка_Bottom
  10
-17.8957
  20
52.7228
  42
0
  0
VERTEX
  8
Обводка_Bottom
  10
-17.8096
  20
52.8633
  42
0
  0
VERTEX
  8
Обводка_Bottom
  10
-17.7466
  20
53.0155
  42
0
  0
VERTEX
  8
Обводка_Bottom
  10
-17.7081
  20
53.1757
  42
0
  0
VERTEX
  8
Обводка_Bottom
  10
-17.6952
  20
53.34
  42
0
  0
VERTEX
  8
Обводка_Bottom
  10
-17.7081
  20
53.5043
  42
0
  0
VERTEX
  8
Обводка_Bottom
  10
-17.7466
  20
53.6645
  42
0
  0
VERTEX
  8
Обводка_Bottom
  10
-17.8096
  20
53.8167
  42
0
  0
VERTEX
  8
Обводка_Bottom
  10
-17.8957
  20
53.9572
  42
0
  0
VERTEX
  8
Обводка_Bottom
  10
-18.0027
  20
54.0825
  42
0
  0
VERTEX
  8
Обводка_Bottom
  10
-18.128
  20
54.1895
  42
0
  0
VERTEX
  8
Обводка_Bottom
  10
-18.2685
  20
54.2756
  42
0
  0
VERTEX
  8
Обводка_Bottom
  10
-18.4207
  20
54.3386
  42
0
  0
VERTEX
  8
Обводка_Bottom
  10
-18.5809
  20
54.3771
  42
0
  0
VERTEX
  8
Обводка_Bottom
  10
-18.7452
  20
54.39
  42
0
  0
VERTEX
  8
Обводка_Bottom
  10
-18.9095
  20
54.3771
  42
0
  0
VERTEX
  8
Обводка_Bottom
  10
-19.0697
  20
54.3386
  42
0
  0
VERTEX
  8
Обводка_Bottom
  10
-19.2219
  20
54.2756
  42
0
  0
VERTEX
  8
Обводка_Bottom
  10
-19.3624
  20
54.1895
  42
0
  0
VERTEX
  8
Обводка_Bottom
  10
-19.4877
  20
54.0825
  42
0
  0
VERTEX
  8
Обводка_Bottom
  10
-19.5947
  20
53.9572
  42
0
  0
VERTEX
  8
Обводка_Bottom
  10
-19.6808
  20
53.8167
  42
0
  0
VERTEX
  8
Обводка_Bottom
  10
-19.7438
  20
53.6645
  42
0
  0
VERTEX
  8
Обводка_Bottom
  10
-19.7823
  20
53.5043
  42
0
  0
VERTEX
  8
Обводка_Bottom
  10
-19.7952
  20
53.34
  42
0
  0
VERTEX
  8
Обводка_Bottom
  10
-19.7823
  20
53.1757
  42
0
  0
SEQEND
  0
POLYLINE
  8
Обводка_Bottom
  6
CONTINUOUS
  66
1
  70
0
  40
0.6
  41
0.6
  0
VERTEX
  8
Обводка_Bottom
  10
-14.3721
  20
53.1757
  42
0
  0
VERTEX
  8
Обводка_Bottom
  10
-14.3336
  20
53.0155
  42
0
  0
VERTEX
  8
Обводка_Bottom
  10
-14.2706
  20
52.8633
  42
0
  0
VERTEX
  8
Обводка_Bottom
  10
-14.1845
  20
52.7228
  42
0
  0
VERTEX
  8
Обводка_Bottom
  10
-14.0775
  20
52.5975
  42
0
  0
VERTEX
  8
Обводка_Bottom
  10
-13.9522
  20
52.4905
  42
0
  0
VERTEX
  8
Обводка_Bottom
  10
-13.8117
  20
52.4044
  42
0
  0
VERTEX
  8
Обводка_Bottom
  10
-13.6595
  20
52.3414
  42
0
  0
VERTEX
  8
Обводка_Bottom
  10
-13.4993
  20
52.3029
  42
0
  0
VERTEX
  8
Обводка_Bottom
  10
-13.335
  20
52.29
  42
0
  0
VERTEX
  8
Обводка_Bottom
  10
-13.1707
  20
52.3029
  42
0
  0
VERTEX
  8
Обводка_Bottom
  10
-13.0105
  20
52.3414
  42
0
  0
VERTEX
  8
Обводка_Bottom
  10
-12.8583
  20
52.4044
  42
0
  0
VERTEX
  8
Обводка_Bottom
  10
-12.7178
  20
52.4905
  42
0
  0
VERTEX
  8
Обводка_Bottom
  10
-12.6596
  20
52.5403
  42
0
  0
VERTEX
  8
Обводка_Bottom
  10
-1.27
  20
52.54
  42
0
  0
VERTEX
  8
Обводка_Bottom
  10
-1.1449
  20
52.5498
  42
0
  0
VERTEX
  8
Обводка_Bottom
  10
-1.0228
  20
52.5792
  42
0
  0
VERTEX
  8
Обводка_Bottom
  10
-0.9068
  20
52.6272
  42
0
  0
VERTEX
  8
Обводка_Bottom
  10
-0.7998
  20
52.6928
  42
0
  0
VERTEX
  8
Обводка_Bottom
  10
-0.7043
  20
52.7743
  42
0
  0
VERTEX
  8
Обводка_Bottom
  10
-0.6228
  20
52.8698
  42
0
  0
VERTEX
  8
Обводка_Bottom
  10
-0.5572
  20
52.9768
  42
0
  0
VERTEX
  8
Обводка_Bottom
  10
-0.5092
  20
53.0928
  42
0
  0
VERTEX
  8
Обводка_Bottom
  10
-0.4798
  20
53.2149
  42
0
  0
VERTEX
  8
Обводка_Bottom
  10
-0.47
  20
53.34
  42
0
  0
VERTEX
  8
Обводка_Bottom
  10
-0.4798
  20
53.4651
  42
0
  0
VERTEX
  8
Обводка_Bottom
  10
-0.5092
  20
53.5872
  42
0
  0
VERTEX
  8
Обводка_Bottom
  10
-0.5572
  20
53.7032
  42
0
  0
VERTEX
  8
Обводка_Bottom
  10
-0.6228
  20
53.8102
  42
0
  0
VERTEX
  8
Обводка_Bottom
  10
-0.7043
  20
53.9057
  42
0
  0
VERTEX
  8
Обводка_Bottom
  10
-0.7998
  20
53.9872
  42
0
  0
VERTEX
  8
Обводка_Bottom
  10
-0.9068
  20
54.0528
  42
0
  0
VERTEX
  8
Обводка_Bottom
  10
-1.0228
  20
54.1008
  42
0
  0
VERTEX
  8
Обводка_Bottom
  10
-1.1449
  20
54.1302
  42
0
  0
VERTEX
  8
Обводка_Bottom
  10
-1.4711
  20
54.14
  42
0
  0
VERTEX
  8
Обводка_Bottom
  10
-12.6547
  20
54.14
  42
0
  0
VERTEX
  8
Обводка_Bottom
  10
-12.8583
  20
54.2756
  42
0
  0
VERTEX
  8
Обводка_Bottom
  10
-13.0105
  20
54.3386
  42
0
  0
VERTEX
  8
Обводка_Bottom
  10
-13.1707
  20
54.3771
  42
0
  0
VERTEX
  8
Обводка_Bottom
  10
-13.335
  20
54.39
  42
0
  0
VERTEX
  8
Обводка_Bottom
  10
-13.4993
  20
54.3771
  42
0
  0
VERTEX
  8
Обводка_Bottom
  10
-13.6595
  20
54.3386
  42
0
  0
VERTEX
  8
Обводка_Bottom
  10
-13.8117
  20
54.2756
  42
0
  0
VERTEX
  8
Обводка_Bottom
  10
-13.9522
  20
54.1895
  42
0
  0
VERTEX
  8
Обводка_Bottom
  10
-14.0775
  20
54.0825
  42
0
  0
VERTEX
  8
Обводка_Bottom
  10
-14.1845
  20
53.9572
  42
0
  0
VERTEX
  8
Обводка_Bottom
  10
-14.2706
  20
53.8167
  42
0
  0
VERTEX
  8
Обводка_Bottom
  10
-14.3336
  20
53.6645
  42
0
  0
VERTEX
  8
Обводка_Bottom
  10
-14.3721
  20
53.5043
  42
0
  0
VERTEX
  8
Обводка_Bottom
  10
-14.385
  20
53.34
  42
0
  0
VERTEX
  8
Обводка_Bottom
  10
-14.3721
  20
53.1757
  42
0
  0
SEQEND
  0
POLYLINE
  8
Обводка_Bottom
  6
CONTINUOUS
  66
1
  70
0
  40
0.6
  41
0.6
  0
VERTEX
  8
Обводка_Bottom
  10
-28.9771
  20
2.3757
  42
0
  0
VERTEX
  8
Обводка_Bottom
  10
-28.9386
  20
2.2155
  42
0
  0
VERTEX
  8
Обводка_Bottom
  10
-28.8756
  20
2.0633
  42
0
  0
VERTEX
  8
Обводка_Bottom
  10
-28.7895
  20
1.9228
  42
0
  0
VERTEX
  8
Обводка_Bottom
  10
-28.6825
  20
1.7975
  42
0
  0
VERTEX
  8
Обводка_Bottom
  10
-28.5572
  20
1.6905
  42
0
  0
VERTEX
  8
Обводка_Bottom
  10
-28.4167
  20
1.6044
  42
0
  0
VERTEX
  8
Обводка_Bottom
  10
-28.2645
  20
1.5414
  42
0
  0
VERTEX
  8
Обводка_Bottom
  10
-28.1043
  20
1.5029
  42
0
  0
VERTEX
  8
Обводка_Bottom
  10
-27.94
  20
1.49
  42
0
  0
VERTEX
  8
Обводка_Bottom
  10
-27.7757
  20
1.5029
  42
0
  0
VERTEX
  8
Обводка_Bottom
  10
-27.6155
  20
1.5414
  42
0
  0
VERTEX
  8
Обводка_Bottom
  10
-27.4633
  20
1.6044
  42
0
  0
VERTEX
  8
Обводка_Bottom
  10
-27.3228
  20
1.6905
  42
0
  0
VERTEX
  8
Обводка_Bottom
  10
-27.1975
  20
1.7975
  42
0
  0
VERTEX
  8
Обводка_Bottom
  10
-27.0905
  20
1.9228
  42
0
  0
VERTEX
  8
Обводка_Bottom
  10
-27.0044
  20
2.0633
  42
0
  0
VERTEX
  8
Обводка_Bottom
  10
-26.9414
  20
2.2155
  42
0
  0
VERTEX
  8
Обводка_Bottom
  10
-26.9029
  20
2.3757
  42
0
  0
VERTEX
  8
Обводка_Bottom
  10
-26.89
  20
2.54
  42
0
  0
VERTEX
  8
Обводка_Bottom
  10
-26.9029
  20
2.7043
  42
0
  0
VERTEX
  8
Обводка_Bottom
  10
-26.9414
  20
2.8645
  42
0
  0
VERTEX
  8
Обводка_Bottom
  10
-27.0044
  20
3.0167
  42
0
  0
VERTEX
  8
Обводка_Bottom
  10
-27.0905
  20
3.1572
  42
0
  0
VERTEX
  8
Обводка_Bottom
  10
-27.1975
  20
3.2825
  42
0
  0
VERTEX
  8
Обводка_Bottom
  10
-27.3228
  20
3.3895
  42
0
  0
VERTEX
  8
Обводка_Bottom
  10
-27.4633
  20
3.4756
  42
0
  0
VERTEX
  8
Обводка_Bottom
  10
-27.6155
  20
3.5386
  42
0
  0
VERTEX
  8
Обводка_Bottom
  10
-27.7757
  20
3.5771
  42
0
  0
VERTEX
  8
Обводка_Bottom
  10
-27.94
  20
3.59
  42
0
  0
VERTEX
  8
Обводка_Bottom
  10
-28.1043
  20
3.5771
  42
0
  0
VERTEX
  8
Обводка_Bottom
  10
-28.2645
  20
3.5386
  42
0
  0
VERTEX
  8
Обводка_Bottom
  10
-28.4167
  20
3.4756
  42
0
  0
VERTEX
  8
Обводка_Bottom
  10
-28.5572
  20
3.3895
  42
0
  0
VERTEX
  8
Обводка_Bottom
  10
-28.6825
  20
3.2825
  42
0
  0
VERTEX
  8
Обводка_Bottom
  10
-28.7895
  20
3.1572
  42
0
  0
VERTEX
  8
Обводка_Bottom
  10
-28.8756
  20
3.0167
  42
0
  0
VERTEX
  8
Обводка_Bottom
  10
-28.9386
  20
2.8645
  42
0
  0
VERTEX
  8
Обводка_Bottom
  10
-28.9771
  20
2.7043
  42
0
  0
VERTEX
  8
Обводка_Bottom
  10
-28.99
  20
2.54
  42
0
  0
VERTEX
  8
Обводка_Bottom
  10
-28.9771
  20
2.3757
  42
0
  0
SEQEND
  0
POLYLINE
  8
Обводка_Bottom
  6
CONTINUOUS
  66
1
  70
0
  40
0.6
  41
0.6
  0
VERTEX
  8
Обводка_Bottom
  10
-56.9171
  20
53.1757
  42
0
  0
VERTEX
  8
Обводка_Bottom
  10
-56.8786
  20
53.0155
  42
0
  0
VERTEX
  8
Обводка_Bottom
  10
-56.8156
  20
52.8633
  42
0
  0
VERTEX
  8
Обводка_Bottom
  10
-56.7295
  20
52.7228
  42
0
  0
VERTEX
  8
Обводка_Bottom
  10
-56.6225
  20
52.5975
  42
0
  0
VERTEX
  8
Обводка_Bottom
  10
-56.4972
  20
52.4905
  42
0
  0
VERTEX
  8
Обводка_Bottom
  10
-56.3567
  20
52.4044
  42
0
  0
VERTEX
  8
Обводка_Bottom
  10
-56.2045
  20
52.3414
  42
0
  0
VERTEX
  8
Обводка_Bottom
  10
-56.0443
  20
52.3029
  42
0
  0
VERTEX
  8
Обводка_Bottom
  10
-55.88
  20
52.29
  42
0
  0
VERTEX
  8
Обводка_Bottom
  10
-55.7157
  20
52.3029
  42
0
  0
VERTEX
  8
Обводка_Bottom
  10
-55.5555
  20
52.3414
  42
0
  0
VERTEX
  8
Обводка_Bottom
  10
-55.4033
  20
52.4044
  42
0
  0
VERTEX
  8
Обводка_Bottom
  10
-55.2628
  20
52.4905
  42
0
  0
VERTEX
  8
Обводка_Bottom
  10
-55.1375
  20
52.5975
  42
0
  0
VERTEX
  8
Обводка_Bottom
  10
-55.0305
  20
52.7228
  42
0
  0
VERTEX
  8
Обводка_Bottom
  10
-54.9444
  20
52.8633
  42
0
  0
VERTEX
  8
Обводка_Bottom
  10
-54.8814
  20
53.0155
  42
0
  0
VERTEX
  8
Обводка_Bottom
  10
-54.8429
  20
53.1757
  42
0
  0
VERTEX
  8
Обводка_Bottom
  10
-54.83
  20
53.34
  42
0
  0
VERTEX
  8
Обводка_Bottom
  10
-54.8429
  20
53.5043
  42
0
  0
VERTEX
  8
Обводка_Bottom
  10
-54.8814
  20
53.6645
  42
0
  0
VERTEX
  8
Обводка_Bottom
  10
-54.9444
  20
53.8167
  42
0
  0
VERTEX
  8
Обводка_Bottom
  10
-55.0305
  20
53.9572
  42
0
  0
VERTEX
  8
Обводка_Bottom
  10
-55.1375
  20
54.0825
  42
0
  0
VERTEX
  8
Обводка_Bottom
  10
-55.2628
  20
54.1895
  42
0
  0
VERTEX
  8
Обводка_Bottom
  10
-55.4033
  20
54.2756
  42
0
  0
VERTEX
  8
Обводка_Bottom
  10
-55.5555
  20
54.3386
  42
0
  0
VERTEX
  8
Обводка_Bottom
  10
-55.7157
  20
54.3771
  42
0
  0
VERTEX
  8
Обводка_Bottom
  10
-55.88
  20
54.39
  42
0
  0
VERTEX
  8
Обводка_Bottom
  10
-56.0443
  20
54.3771
  42
0
  0
VERTEX
  8
Обводка_Bottom
  10
-56.2045
  20
54.3386
  42
0
  0
VERTEX
  8
Обводка_Bottom
  10
-56.3567
  20
54.2756
  42
0
  0
VERTEX
  8
Обводка_Bottom
  10
-56.4972
  20
54.1895
  42
0
  0
VERTEX
  8
Обводка_Bottom
  10
-56.6225
  20
54.0825
  42
0
  0
VERTEX
  8
Обводка_Bottom
  10
-56.7295
  20
53.9572
  42
0
  0
VERTEX
  8
Обводка_Bottom
  10
-56.8156
  20
53.8167
  42
0
  0
VERTEX
  8
Обводка_Bottom
  10
-56.8786
  20
53.6645
  42
0
  0
VERTEX
  8
Обводка_Bottom
  10
-56.9171
  20
53.5043
  42
0
  0
VERTEX
  8
Обводка_Bottom
  10
-56.93
  20
53.34
  42
0
  0
VERTEX
  8
Обводка_Bottom
  10
-56.9171
  20
53.1757
  42
0
  0
SEQEND
  0
POLYLINE
  8
Обводка_Bottom
  6
CONTINUOUS
  66
1
  70
0
  40
0.6
  41
0.6
  0
VERTEX
  8
Обводка_Bottom
  10
-54.3771
  20
53.1757
  42
0
  0
VERTEX
  8
Обводка_Bottom
  10
-54.3386
  20
53.0155
  42
0
  0
VERTEX
  8
Обводка_Bottom
  10
-54.2756
  20
52.8633
  42
0
  0
VERTEX
  8
Обводка_Bottom
  10
-54.1895
  20
52.7228
  42
0
  0
VERTEX
  8
Обводка_Bottom
  10
-54.0825
  20
52.5975
  42
0
  0
VERTEX
  8
Обводка_Bottom
  10
-53.9572
  20
52.4905
  42
0
  0
VERTEX
  8
Обводка_Bottom
  10
-53.8167
  20
52.4044
  42
0
  0
VERTEX
  8
Обводка_Bottom
  10
-53.6645
  20
52.3414
  42
0
  0
VERTEX
  8
Обводка_Bottom
  10
-53.5043
  20
52.3029
  42
0
  0
VERTEX
  8
Обводка_Bottom
  10
-53.34
  20
52.29
  42
0
  0
VERTEX
  8
Обводка_Bottom
  10
-53.1757
  20
52.3029
  42
0
  0
VERTEX
  8
Обводка_Bottom
  10
-53.0155
  20
52.3414
  42
0
  0
VERTEX
  8
Обводка_Bottom
  10
-52.8633
  20
52.4044
  42
0
  0
VERTEX
  8
Обводка_Bottom
  10
-52.7228
  20
52.4905
  42
0
  0
VERTEX
  8
Обводка_Bottom
  10
-52.5975
  20
52.5975
  42
0
  0
VERTEX
  8
Обводка_Bottom
  10
-52.4905
  20
52.7228
  42
0
  0
VERTEX
  8
Обводка_Bottom
  10
-52.4044
  20
52.8633
  42
0
  0
VERTEX
  8
Обводка_Bottom
  10
-52.3414
  20
53.0155
  42
0
  0
VERTEX
  8
Обводка_Bottom
  10
-52.3029
  20
53.1757
  42
0
  0
VERTEX
  8
Обводка_Bottom
  10
-52.29
  20
53.34
  42
0
  0
VERTEX
  8
Обводка_Bottom
  10
-52.3029
  20
53.5043
  42
0
  0
VERTEX
  8
Обводка_Bottom
  10
-52.3414
  20
53.6645
  42
0
  0
VERTEX
  8
Обводка_Bottom
  10
-52.4044
  20
53.8167
  42
0
  0
VERTEX
  8
Обводка_Bottom
  10
-52.4905
  20
53.9572
  42
0
  0
VERTEX
  8
Обводка_Bottom
  10
-52.5975
  20
54.0825
  42
0
  0
VERTEX
  8
Обводка_Bottom
  10
-52.7228
  20
54.1895
  42
0
  0
VERTEX
  8
Обводка_Bottom
  10
-52.8633
  20
54.2756
  42
0
  0
VERTEX
  8
Обводка_Bottom
  10
-53.0155
  20
54.3386
  42
0
  0
VERTEX
  8
Обводка_Bottom
  10
-53.1757
  20
54.3771
  42
0
  0
VERTEX
  8
Обводка_Bottom
  10
-53.34
  20
54.39
  42
0
  0
VERTEX
  8
Обводка_Bottom
  10
-53.5043
  20
54.3771
  42
0
  0
VERTEX
  8
Обводка_Bottom
  10
-53.6645
  20
54.3386
  42
0
  0
VERTEX
  8
Обводка_Bottom
  10
-53.8167
  20
54.2756
  42
0
  0
VERTEX
  8
Обводка_Bottom
  10
-53.9572
  20
54.1895
  42
0
  0
VERTEX
  8
Обводка_Bottom
  10
-54.0825
  20
54.0825
  42
0
  0
VERTEX
  8
Обводка_Bottom
  10
-54.1895
  20
53.9572
  42
0
  0
VERTEX
  8
Обводка_Bottom
  10
-54.2756
  20
53.8167
  42
0
  0
VERTEX
  8
Обводка_Bottom
  10
-54.3386
  20
53.6645
  42
0
  0
VERTEX
  8
Обводка_Bottom
  10
-54.3771
  20
53.5043
  42
0
  0
VERTEX
  8
Обводка_Bottom
  10
-54.39
  20
53.34
  42
0
  0
VERTEX
  8
Обводка_Bottom
  10
-54.3771
  20
53.1757
  42
0
  0
SEQEND
  0
POLYLINE
  8
Обводка_Bottom
  6
CONTINUOUS
  66
1
  70
0
  40
0.6
  41
0.6
  0
VERTEX
  8
Обводка_Bottom
  10
-51.8371
  20
53.1757
  42
0
  0
VERTEX
  8
Обводка_Bottom
  10
-51.7986
  20
53.0155
  42
0
  0
VERTEX
  8
Обводка_Bottom
  10
-51.7356
  20
52.8633
  42
0
  0
VERTEX
  8
Обводка_Bottom
  10
-51.6495
  20
52.7228
  42
0
  0
VERTEX
  8
Обводка_Bottom
  10
-51.5425
  20
52.5975
  42
0
  0
VERTEX
  8
Обводка_Bottom
  10
-51.4172
  20
52.4905
  42
0
  0
VERTEX
  8
Обводка_Bottom
  10
-51.2767
  20
52.4044
  42
0
  0
VERTEX
  8
Обводка_Bottom
  10
-51.1245
  20
52.3414
  42
0
  0
VERTEX
  8
Обводка_Bottom
  10
-50.9643
  20
52.3029
  42
0
  0
VERTEX
  8
Обводка_Bottom
  10
-50.8
  20
52.29
  42
0
  0
VERTEX
  8
Обводка_Bottom
  10
-50.6357
  20
52.3029
  42
0
  0
VERTEX
  8
Обводка_Bottom
  10
-50.4755
  20
52.3414
  42
0
  0
VERTEX
  8
Обводка_Bottom
  10
-50.3233
  20
52.4044
  42
0
  0
VERTEX
  8
Обводка_Bottom
  10
-50.1828
  20
52.4905
  42
0
  0
VERTEX
  8
Обводка_Bottom
  10
-50.0575
  20
52.5975
  42
0
  0
VERTEX
  8
Обводка_Bottom
  10
-49.9505
  20
52.7228
  42
0
  0
VERTEX
  8
Обводка_Bottom
  10
-49.8644
  20
52.8633
  42
0
  0
VERTEX
  8
Обводка_Bottom
  10
-49.8014
  20
53.0155
  42
0
  0
VERTEX
  8
Обводка_Bottom
  10
-49.7629
  20
53.1757
  42
0
  0
VERTEX
  8
Обводка_Bottom
  10
-49.75
  20
53.34
  42
0
  0
VERTEX
  8
Обводка_Bottom
  10
-49.7629
  20
53.5043
  42
0
  0
VERTEX
  8
Обводка_Bottom
  10
-49.8014
  20
53.6645
  42
0
  0
VERTEX
  8
Обводка_Bottom
  10
-49.8644
  20
53.8167
  42
0
  0
VERTEX
  8
Обводка_Bottom
  10
-49.9505
  20
53.9572
  42
0
  0
VERTEX
  8
Обводка_Bottom
  10
-50.0575
  20
54.0825
  42
0
  0
VERTEX
  8
Обводка_Bottom
  10
-50.1828
  20
54.1895
  42
0
  0
VERTEX
  8
Обводка_Bottom
  10
-50.3233
  20
54.2756
  42
0
  0
VERTEX
  8
Обводка_Bottom
  10
-50.4755
  20
54.3386
  42
0
  0
VERTEX
  8
Обводка_Bottom
  10
-50.6357
  20
54.3771
  42
0
  0
VERTEX
  8
Обводка_Bottom
  10
-50.8
  20
54.39
  42
0
  0
VERTEX
  8
Обводка_Bottom
  10
-50.9643
  20
54.3771
  42
0
  0
VERTEX
  8
Обводка_Bottom
  10
-51.1245
  20
54.3386
  42
0
  0
VERTEX
  8
Обводка_Bottom
  10
-51.2767
  20
54.2756
  42
0
  0
VERTEX
  8
Обводка_Bottom
  10
-51.4172
  20
54.1895
  42
0
  0
VERTEX
  8
Обводка_Bottom
  10
-51.5425
  20
54.0825
  42
0
  0
VERTEX
  8
Обводка_Bottom
  10
-51.6495
  20
53.9572
  42
0
  0
VERTEX
  8
Обводка_Bottom
  10
-51.7356
  20
53.8167
  42
0
  0
VERTEX
  8
Обводка_Bottom
  10
-51.7986
  20
53.6645
  42
0
  0
VERTEX
  8
Обводка_Bottom
  10
-51.8371
  20
53.5043
  42
0
  0
VERTEX
  8
Обводка_Bottom
  10
-51.85
  20
53.34
  42
0
  0
VERTEX
  8
Обводка_Bottom
  10
-51.8371
  20
53.1757
  42
0
  0
SEQEND
  0
POLYLINE
  8
Обводка_Bottom
  6
CONTINUOUS
  66
1
  70
0
  40
0.6
  41
0.6
  0
VERTEX
  8
Обводка_Bottom
  10
-49.2971
  20
53.1757
  42
0
  0
VERTEX
  8
Обводка_Bottom
  10
-49.2586
  20
53.0155
  42
0
  0
VERTEX
  8
Обводка_Bottom
  10
-49.1956
  20
52.8633
  42
0
  0
VERTEX
  8
Обводка_Bottom
  10
-49.1095
  20
52.7228
  42
0
  0
VERTEX
  8
Обводка_Bottom
  10
-49.0025
  20
52.5975
  42
0
  0
VERTEX
  8
Обводка_Bottom
  10
-48.8772
  20
52.4905
  42
0
  0
VERTEX
  8
Обводка_Bottom
  10
-48.7367
  20
52.4044
  42
0
  0
VERTEX
  8
Обводка_Bottom
  10
-48.5845
  20
52.3414
  42
0
  0
VERTEX
  8
Обводка_Bottom
  10
-48.4243
  20
52.3029
  42
0
  0
VERTEX
  8
Обводка_Bottom
  10
-48.26
  20
52.29
  42
0
  0
VERTEX
  8
Обводка_Bottom
  10
-48.0957
  20
52.3029
  42
0
  0
VERTEX
  8
Обводка_Bottom
  10
-47.9355
  20
52.3414
  42
0
  0
VERTEX
  8
Обводка_Bottom
  10
-47.7833
  20
52.4044
  42
0
  0
VERTEX
  8
Обводка_Bottom
  10
-47.6428
  20
52.4905
  42
0
  0
VERTEX
  8
Обводка_Bottom
  10
-47.5175
  20
52.5975
  42
0
  0
VERTEX
  8
Обводка_Bottom
  10
-47.4105
  20
52.7228
  42
0
  0
VERTEX
  8
Обводка_Bottom
  10
-47.3244
  20
52.8633
  42
0
  0
VERTEX
  8
Обводка_Bottom
  10
-47.2614
  20
53.0155
  42
0
  0
VERTEX
  8
Обводка_Bottom
  10
-47.2229
  20
53.1757
  42
0
  0
VERTEX
  8
Обводка_Bottom
  10
-47.21
  20
53.34
  42
0
  0
VERTEX
  8
Обводка_Bottom
  10
-47.2229
  20
53.5043
  42
0
  0
VERTEX
  8
Обводка_Bottom
  10
-47.2614
  20
53.6645
  42
0
  0
VERTEX
  8
Обводка_Bottom
  10
-47.3244
  20
53.8167
  42
0
  0
VERTEX
  8
Обводка_Bottom
  10
-47.4105
  20
53.9572
  42
0
  0
VERTEX
  8
Обводка_Bottom
  10
-47.5175
  20
54.0825
  42
0
  0
VERTEX
  8
Обводка_Bottom
  10
-47.6428
  20
54.1895
  42
0
  0
VERTEX
  8
Обводка_Bottom
  10
-47.7833
  20
54.2756
  42
0
  0
VERTEX
  8
Обводка_Bottom
  10
-47.9355
  20
54.3386
  42
0
  0
VERTEX
  8
Обводка_Bottom
  10
-48.0957
  20
54.3771
  42
0
  0
VERTEX
  8
Обводка_Bottom
  10
-48.26
  20
54.39
  42
0
  0
VERTEX
  8
Обводка_Bottom
  10
-48.4243
  20
54.3771
  42
0
  0
VERTEX
  8
Обводка_Bottom
  10
-48.5845
  20
54.3386
  42
0
  0
VERTEX
  8
Обводка_Bottom
  10
-48.7367
  20
54.2756
  42
0
  0
VERTEX
  8
Обводка_Bottom
  10
-48.8772
  20
54.1895
  42
0
  0
VERTEX
  8
Обводка_Bottom
  10
-49.0025
  20
54.0825
  42
0
  0
VERTEX
  8
Обводка_Bottom
  10
-49.1095
  20
53.9572
  42
0
  0
VERTEX
  8
Обводка_Bottom
  10
-49.1956
  20
53.8167
  42
0
  0
VERTEX
  8
Обводка_Bottom
  10
-49.2586
  20
53.6645
  42
0
  0
VERTEX
  8
Обводка_Bottom
  10
-49.2971
  20
53.5043
  42
0
  0
VERTEX
  8
Обводка_Bottom
  10
-49.31
  20
53.34
  42
0
  0
VERTEX
  8
Обводка_Bottom
  10
-49.2971
  20
53.1757
  42
0
  0
SEQEND
  0
POLYLINE
  8
Обводка_Bottom
  6
CONTINUOUS
  66
1
  70
0
  40
0.6
  41
0.6
  0
VERTEX
  8
Обводка_Bottom
  10
-46.7571
  20
53.1757
  42
0
  0
VERTEX
  8
Обводка_Bottom
  10
-46.7186
  20
53.0155
  42
0
  0
VERTEX
  8
Обводка_Bottom
  10
-46.6556
  20
52.8633
  42
0
  0
VERTEX
  8
Обводка_Bottom
  10
-46.5695
  20
52.7228
  42
0
  0
VERTEX
  8
Обводка_Bottom
  10
-46.4625
  20
52.5975
  42
0
  0
VERTEX
  8
Обводка_Bottom
  10
-46.3372
  20
52.4905
  42
0
  0
VERTEX
  8
Обводка_Bottom
  10
-46.1967
  20
52.4044
  42
0
  0
VERTEX
  8
Обводка_Bottom
  10
-46.0445
  20
52.3414
  42
0
  0
VERTEX
  8
Обводка_Bottom
  10
-45.8843
  20
52.3029
  42
0
  0
VERTEX
  8
Обводка_Bottom
  10
-45.72
  20
52.29
  42
0
  0
VERTEX
  8
Обводка_Bottom
  10
-45.5557
  20
52.3029
  42
0
  0
VERTEX
  8
Обводка_Bottom
  10
-45.3955
  20
52.3414
  42
0
  0
VERTEX
  8
Обводка_Bottom
  10
-45.2433
  20
52.4044
  42
0
  0
VERTEX
  8
Обводка_Bottom
  10
-45.1028
  20
52.4905
  42
0
  0
VERTEX
  8
Обводка_Bottom
  10
-44.9775
  20
52.5975
  42
0
  0
VERTEX
  8
Обводка_Bottom
  10
-44.8705
  20
52.7228
  42
0
  0
VERTEX
  8
Обводка_Bottom
  10
-44.7844
  20
52.8633
  42
0
  0
VERTEX
  8
Обводка_Bottom
  10
-44.7214
  20
53.0155
  42
0
  0
VERTEX
  8
Обводка_Bottom
  10
-44.6829
  20
53.1757
  42
0
  0
VERTEX
  8
Обводка_Bottom
  10
-44.67
  20
53.34
  42
0
  0
VERTEX
  8
Обводка_Bottom
  10
-44.6829
  20
53.5043
  42
0
  0
VERTEX
  8
Обводка_Bottom
  10
-44.7214
  20
53.6645
  42
0
  0
VERTEX
  8
Обводка_Bottom
  10
-44.7844
  20
53.8167
  42
0
  0
VERTEX
  8
Обводка_Bottom
  10
-44.8705
  20
53.9572
  42
0
  0
VERTEX
  8
Обводка_Bottom
  10
-44.9775
  20
54.0825
  42
0
  0
VERTEX
  8
Обводка_Bottom
  10
-45.1028
  20
54.1895
  42
0
  0
VERTEX
  8
Обводка_Bottom
  10
-45.2433
  20
54.2756
  42
0
  0
VERTEX
  8
Обводка_Bottom
  10
-45.3955
  20
54.3386
  42
0
  0
VERTEX
  8
Обводка_Bottom
  10
-45.5557
  20
54.3771
  42
0
  0
VERTEX
  8
Обводка_Bottom
  10
-45.72
  20
54.39
  42
0
  0
VERTEX
  8
Обводка_Bottom
  10
-45.8843
  20
54.3771
  42
0
  0
VERTEX
  8
Обводка_Bottom
  10
-46.0445
  20
54.3386
  42
0
  0
VERTEX
  8
Обводка_Bottom
  10
-46.1967
  20
54.2756
  42
0
  0
VERTEX
  8
Обводка_Bottom
  10
-46.3372
  20
54.1895
  42
0
  0
VERTEX
  8
Обводка_Bottom
  10
-46.4625
  20
54.0825
  42
0
  0
VERTEX
  8
Обводка_Bottom
  10
-46.5695
  20
53.9572
  42
0
  0
VERTEX
  8
Обводка_Bottom
  10
-46.6556
  20
53.8167
  42
0
  0
VERTEX
  8
Обводка_Bottom
  10
-46.7186
  20
53.6645
  42
0
  0
VERTEX
  8
Обводка_Bottom
  10
-46.7571
  20
53.5043
  42
0
  0
VERTEX
  8
Обводка_Bottom
  10
-46.77
  20
53.34
  42
0
  0
VERTEX
  8
Обводка_Bottom
  10
-46.7571
  20
53.1757
  42
0
  0
SEQEND
  0
POLYLINE
  8
Обводка_Bottom
  6
CONTINUOUS
  66
1
  70
0
  40
0.6
  41
0.6
  0
VERTEX
  8
Обводка_Bottom
  10
-44.2171
  20
53.1757
  42
0
  0
VERTEX
  8
Обводка_Bottom
  10
-44.1786
  20
53.0155
  42
0
  0
VERTEX
  8
Обводка_Bottom
  10
-44.1156
  20
52.8633
  42
0
  0
VERTEX
  8
Обводка_Bottom
  10
-44.0295
  20
52.7228
  42
0
  0
VERTEX
  8
Обводка_Bottom
  10
-43.9225
  20
52.5975
  42
0
  0
VERTEX
  8
Обводка_Bottom
  10
-43.7972
  20
52.4905
  42
0
  0
VERTEX
  8
Обводка_Bottom
  10
-43.6567
  20
52.4044
  42
0
  0
VERTEX
  8
Обводка_Bottom
  10
-43.5045
  20
52.3414
  42
0
  0
VERTEX
  8
Обводка_Bottom
  10
-43.3443
  20
52.3029
  42
0
  0
VERTEX
  8
Обводка_Bottom
  10
-43.18
  20
52.29
  42
0
  0
VERTEX
  8
Обводка_Bottom
  10
-43.0157
  20
52.3029
  42
0
  0
VERTEX
  8
Обводка_Bottom
  10
-42.8555
  20
52.3414
  42
0
  0
VERTEX
  8
Обводка_Bottom
  10
-42.7033
  20
52.4044
  42
0
  0
VERTEX
  8
Обводка_Bottom
  10
-42.5628
  20
52.4905
  42
0
  0
VERTEX
  8
Обводка_Bottom
  10
-42.4375
  20
52.5975
  42
0
  0
VERTEX
  8
Обводка_Bottom
  10
-42.3305
  20
52.7228
  42
0
  0
VERTEX
  8
Обводка_Bottom
  10
-42.2444
  20
52.8633
  42
0
  0
VERTEX
  8
Обводка_Bottom
  10
-42.1814
  20
53.0155
  42
0
  0
VERTEX
  8
Обводка_Bottom
  10
-42.1429
  20
53.1757
  42
0
  0
VERTEX
  8
Обводка_Bottom
  10
-42.13
  20
53.34
  42
0
  0
VERTEX
  8
Обводка_Bottom
  10
-42.1429
  20
53.5043
  42
0
  0
VERTEX
  8
Обводка_Bottom
  10
-42.1814
  20
53.6645
  42
0
  0
VERTEX
  8
Обводка_Bottom
  10
-42.2444
  20
53.8167
  42
0
  0
VERTEX
  8
Обводка_Bottom
  10
-42.3305
  20
53.9572
  42
0
  0
VERTEX
  8
Обводка_Bottom
  10
-42.4375
  20
54.0825
  42
0
  0
VERTEX
  8
Обводка_Bottom
  10
-42.5628
  20
54.1895
  42
0
  0
VERTEX
  8
Обводка_Bottom
  10
-42.7033
  20
54.2756
  42
0
  0
VERTEX
  8
Обводка_Bottom
  10
-42.8555
  20
54.3386
  42
0
  0
VERTEX
  8
Обводка_Bottom
  10
-43.0157
  20
54.3771
  42
0
  0
VERTEX
  8
Обводка_Bottom
  10
-43.18
  20
54.39
  42
0
  0
VERTEX
  8
Обводка_Bottom
  10
-43.3443
  20
54.3771
  42
0
  0
VERTEX
  8
Обводка_Bottom
  10
-43.5045
  20
54.3386
  42
0
  0
VERTEX
  8
Обводка_Bottom
  10
-43.6567
  20
54.2756
  42
0
  0
VERTEX
  8
Обводка_Bottom
  10
-43.7972
  20
54.1895
  42
0
  0
VERTEX
  8
Обводка_Bottom
  10
-43.9225
  20
54.0825
  42
0
  0
VERTEX
  8
Обводка_Bottom
  10
-44.0295
  20
53.9572
  42
0
  0
VERTEX
  8
Обводка_Bottom
  10
-44.1156
  20
53.8167
  42
0
  0
VERTEX
  8
Обводка_Bottom
  10
-44.1786
  20
53.6645
  42
0
  0
VERTEX
  8
Обводка_Bottom
  10
-44.2171
  20
53.5043
  42
0
  0
VERTEX
  8
Обводка_Bottom
  10
-44.23
  20
53.34
  42
0
  0
VERTEX
  8
Обводка_Bottom
  10
-44.2171
  20
53.1757
  42
0
  0
SEQEND
  0
POLYLINE
  8
Обводка_Bottom
  6
CONTINUOUS
  66
1
  70
0
  40
0.6
  41
0.6
  0
VERTEX
  8
Обводка_Bottom
  10
-41.6771
  20
53.1757
  42
0
  0
VERTEX
  8
Обводка_Bottom
  10
-41.6386
  20
53.0155
  42
0
  0
VERTEX
  8
Обводка_Bottom
  10
-41.5756
  20
52.8633
  42
0
  0
VERTEX
  8
Обводка_Bottom
  10
-41.4895
  20
52.7228
  42
0
  0
VERTEX
  8
Обводка_Bottom
  10
-41.3825
  20
52.5975
  42
0
  0
VERTEX
  8
Обводка_Bottom
  10
-41.2572
  20
52.4905
  42
0
  0
VERTEX
  8
Обводка_Bottom
  10
-41.1167
  20
52.4044
  42
0
  0
VERTEX
  8
Обводка_Bottom
  10
-40.9645
  20
52.3414
  42
0
  0
VERTEX
  8
Обводка_Bottom
  10
-40.8043
  20
52.3029
  42
0
  0
VERTEX
  8
Обводка_Bottom
  10
-40.64
  20
52.29
  42
0
  0
VERTEX
  8
Обводка_Bottom
  10
-40.4757
  20
52.3029
  42
0
  0
VERTEX
  8
Обводка_Bottom
  10
-40.3155
  20
52.3414
  42
0
  0
VERTEX
  8
Обводка_Bottom
  10
-40.1633
  20
52.4044
  42
0
  0
VERTEX
  8
Обводка_Bottom
  10
-40.0228
  20
52.4905
  42
0
  0
VERTEX
  8
Обводка_Bottom
  10
-39.8975
  20
52.5975
  42
0
  0
VERTEX
  8
Обводка_Bottom
  10
-39.7905
  20
52.7228
  42
0
  0
VERTEX
  8
Обводка_Bottom
  10
-39.7044
  20
52.8633
  42
0
  0
VERTEX
  8
Обводка_Bottom
  10
-39.6414
  20
53.0155
  42
0
  0
VERTEX
  8
Обводка_Bottom
  10
-39.6029
  20
53.1757
  42
0
  0
VERTEX
  8
Обводка_Bottom
  10
-39.59
  20
53.34
  42
0
  0
VERTEX
  8
Обводка_Bottom
  10
-39.6029
  20
53.5043
  42
0
  0
VERTEX
  8
Обводка_Bottom
  10
-39.6414
  20
53.6645
  42
0
  0
VERTEX
  8
Обводка_Bottom
  10
-39.7044
  20
53.8167
  42
0
  0
VERTEX
  8
Обводка_Bottom
  10
-39.7905
  20
53.9572
  42
0
  0
VERTEX
  8
Обводка_Bottom
  10
-39.8975
  20
54.0825
  42
0
  0
VERTEX
  8
Обводка_Bottom
  10
-40.0228
  20
54.1895
  42
0
  0
VERTEX
  8
Обводка_Bottom
  10
-40.1633
  20
54.2756
  42
0
  0
VERTEX
  8
Обводка_Bottom
  10
-40.3155
  20
54.3386
  42
0
  0
VERTEX
  8
Обводка_Bottom
  10
-40.4757
  20
54.3771
  42
0
  0
VERTEX
  8
Обводка_Bottom
  10
-40.64
  20
54.39
  42
0
  0
VERTEX
  8
Обводка_Bottom
  10
-40.8043
  20
54.3771
  42
0
  0
VERTEX
  8
Обводка_Bottom
  10
-40.9645
  20
54.3386
  42
0
  0
VERTEX
  8
Обводка_Bottom
  10
-41.1167
  20
54.2756
  42
0
  0
VERTEX
  8
Обводка_Bottom
  10
-41.2572
  20
54.1895
  42
0
  0
VERTEX
  8
Обводка_Bottom
  10
-41.3825
  20
54.0825
  42
0
  0
VERTEX
  8
Обводка_Bottom
  10
-41.4895
  20
53.9572
  42
0
  0
VERTEX
  8
Обводка_Bottom
  10
-41.5756
  20
53.8167
  42
0
  0
VERTEX
  8
Обводка_Bottom
  10
-41.6386
  20
53.6645
  42
0
  0
VERTEX
  8
Обводка_Bottom
  10
-41.6771
  20
53.5043
  42
0
  0
VERTEX
  8
Обводка_Bottom
  10
-41.69
  20
53.34
  42
0
  0
VERTEX
  8
Обводка_Bottom
  10
-41.6771
  20
53.1757
  42
0
  0
SEQEND
  0
POLYLINE
  8
Обводка_Bottom
  6
CONTINUOUS
  66
1
  70
0
  40
0.6
  41
0.6
  0
VERTEX
  8
Обводка_Bottom
  10
-39.1371
  20
53.1757
  42
0
  0
VERTEX
  8
Обводка_Bottom
  10
-39.0986
  20
53.0155
  42
0
  0
VERTEX
  8
Обводка_Bottom
  10
-39.0356
  20
52.8633
  42
0
  0
VERTEX
  8
Обводка_Bottom
  10
-38.9495
  20
52.7228
  42
0
  0
VERTEX
  8
Обводка_Bottom
  10
-38.8425
  20
52.5975
  42
0
  0
VERTEX
  8
Обводка_Bottom
  10
-38.7172
  20
52.4905
  42
0
  0
VERTEX
  8
Обводка_Bottom
  10
-38.5767
  20
52.4044
  42
0
  0
VERTEX
  8
Обводка_Bottom
  10
-38.4245
  20
52.3414
  42
0
  0
VERTEX
  8
Обводка_Bottom
  10
-38.2643
  20
52.3029
  42
0
  0
VERTEX
  8
Обводка_Bottom
  10
-38.1
  20
52.29
  42
0
  0
VERTEX
  8
Обводка_Bottom
  10
-37.9357
  20
52.3029
  42
0
  0
VERTEX
  8
Обводка_Bottom
  10
-37.7755
  20
52.3414
  42
0
  0
VERTEX
  8
Обводка_Bottom
  10
-37.6233
  20
52.4044
  42
0
  0
VERTEX
  8
Обводка_Bottom
  10
-37.4828
  20
52.4905
  42
0
  0
VERTEX
  8
Обводка_Bottom
  10
-37.3575
  20
52.5975
  42
0
  0
VERTEX
  8
Обводка_Bottom
  10
-37.2505
  20
52.7228
  42
0
  0
VERTEX
  8
Обводка_Bottom
  10
-37.1644
  20
52.8633
  42
0
  0
VERTEX
  8
Обводка_Bottom
  10
-37.1014
  20
53.0155
  42
0
  0
VERTEX
  8
Обводка_Bottom
  10
-37.0629
  20
53.1757
  42
0
  0
VERTEX
  8
Обводка_Bottom
  10
-37.05
  20
53.34
  42
0
  0
VERTEX
  8
Обводка_Bottom
  10
-37.0629
  20
53.5043
  42
0
  0
VERTEX
  8
Обводка_Bottom
  10
-37.1014
  20
53.6645
  42
0
  0
VERTEX
  8
Обводка_Bottom
  10
-37.1644
  20
53.8167
  42
0
  0
VERTEX
  8
Обводка_Bottom
  10
-37.2505
  20
53.9572
  42
0
  0
VERTEX
  8
Обводка_Bottom
  10
-37.3575
  20
54.0825
  42
0
  0
VERTEX
  8
Обводка_Bottom
  10
-37.4828
  20
54.1895
  42
0
  0
VERTEX
  8
Обводка_Bottom
  10
-37.6233
  20
54.2756
  42
0
  0
VERTEX
  8
Обводка_Bottom
  10
-37.7755
  20
54.3386
  42
0
  0
VERTEX
  8
Обводка_Bottom
  10
-37.9357
  20
54.3771
  42
0
  0
VERTEX
  8
Обводка_Bottom
  10
-38.1
  20
54.39
  42
0
  0
VERTEX
  8
Обводка_Bottom
  10
-38.2643
  20
54.3771
  42
0
  0
VERTEX
  8
Обводка_Bottom
  10
-38.4245
  20
54.3386
  42
0
  0
VERTEX
  8
Обводка_Bottom
  10
-38.5767
  20
54.2756
  42
0
  0
VERTEX
  8
Обводка_Bottom
  10
-38.7172
  20
54.1895
  42
0
  0
VERTEX
  8
Обводка_Bottom
  10
-38.8425
  20
54.0825
  42
0
  0
VERTEX
  8
Обводка_Bottom
  10
-38.9495
  20
53.9572
  42
0
  0
VERTEX
  8
Обводка_Bottom
  10
-39.0356
  20
53.8167
  42
0
  0
VERTEX
  8
Обводка_Bottom
  10
-39.0986
  20
53.6645
  42
0
  0
VERTEX
  8
Обводка_Bottom
  10
-39.1371
  20
53.5043
  42
0
  0
VERTEX
  8
Обводка_Bottom
  10
-39.15
  20
53.34
  42
0
  0
VERTEX
  8
Обводка_Bottom
  10
-39.1371
  20
53.1757
  42
0
  0
SEQEND
  0
POLYLINE
  8
Обводка_Bottom
  6
CONTINUOUS
  66
1
  70
0
  40
0.6
  41
0.6
  0
VERTEX
  8
Обводка_Bottom
  10
-38.8997
  20
5.7554
  42
0
  0
VERTEX
  8
Обводка_Bottom
  10
-38.9495
  20
5.6972
  42
0
  0
VERTEX
  8
Обводка_Bottom
  10
-39.0356
  20
5.5567
  42
0
  0
VERTEX
  8
Обводка_Bottom
  10
-39.0986
  20
5.4045
  42
0
  0
VERTEX
  8
Обводка_Bottom
  10
-39.1371
  20
5.2443
  42
0
  0
VERTEX
  8
Обводка_Bottom
  10
-39.15
  20
5.08
  42
0
  0
VERTEX
  8
Обводка_Bottom
  10
-39.1371
  20
4.9157
  42
0
  0
VERTEX
  8
Обводка_Bottom
  10
-39.0986
  20
4.7555
  42
0
  0
VERTEX
  8
Обводка_Bottom
  10
-39.0356
  20
4.6033
  42
0
  0
VERTEX
  8
Обводка_Bottom
  10
-38.9495
  20
4.4628
  42
0
  0
VERTEX
  8
Обводка_Bottom
  10
-38.8425
  20
4.3375
  42
0
  0
VERTEX
  8
Обводка_Bottom
  10
-38.7172
  20
4.2305
  42
0
  0
VERTEX
  8
Обводка_Bottom
  10
-38.5767
  20
4.1444
  42
0
  0
VERTEX
  8
Обводка_Bottom
  10
-38.4245
  20
4.0814
  42
0
  0
VERTEX
  8
Обводка_Bottom
  10
-38.2643
  20
4.0429
  42
0
  0
VERTEX
  8
Обводка_Bottom
  10
-38.1
  20
4.03
  42
0
  0
VERTEX
  8
Обводка_Bottom
  10
-37.9357
  20
4.0429
  42
0
  0
VERTEX
  8
Обводка_Bottom
  10
-37.7755
  20
4.0814
  42
0
  0
VERTEX
  8
Обводка_Bottom
  10
-37.6233
  20
4.1444
  42
0
  0
VERTEX
  8
Обводка_Bottom
  10
-37.4828
  20
4.2305
  42
0
  0
VERTEX
  8
Обводка_Bottom
  10
-37.4246
  20
4.2803
  42
0
  0
VERTEX
  8
Обводка_Bottom
  10
-36.2398
  20
4.28
  42
0
  0
VERTEX
  8
Обводка_Bottom
  10
-36.0367
  20
4.1444
  42
0
  0
VERTEX
  8
Обводка_Bottom
  10
-35.8845
  20
4.0814
  42
0
  0
VERTEX
  8
Обводка_Bottom
  10
-35.7243
  20
4.0429
  42
0
  0
VERTEX
  8
Обводка_Bottom
  10
-35.56
  20
4.03
  42
0
  0
VERTEX
  8
Обводка_Bottom
  10
-35.3957
  20
4.0429
  42
0
  0
VERTEX
  8
Обводка_Bottom
  10
-35.2355
  20
4.0814
  42
0
  0
VERTEX
  8
Обводка_Bottom
  10
-35.0833
  20
4.1444
  42
0
  0
VERTEX
  8
Обводка_Bottom
  10
-34.9428
  20
4.2305
  42
0
  0
VERTEX
  8
Обводка_Bottom
  10
-34.8846
  20
4.2803
  42
0
  0
VERTEX
  8
Обводка_Bottom
  10
-33.8195
  20
4.28
  42
0
  0
VERTEX
  8
Обводка_Bottom
  10
-33.82
  20
3.81
  42
0
  0
VERTEX
  8
Обводка_Bottom
  10
-33.8102
  20
3.6849
  42
0
  0
VERTEX
  8
Обводка_Bottom
  10
-33.7808
  20
3.5628
  42
0
  0
VERTEX
  8
Обводка_Bottom
  10
-33.7328
  20
3.4468
  42
0
  0
VERTEX
  8
Обводка_Bottom
  10
-33.6672
  20
3.3398
  42
0
  0
VERTEX
  8
Обводка_Bottom
  10
-33.4587
  20
3.1173
  42
0
  0
VERTEX
  8
Обводка_Bottom
  10
-32.3157
  20
1.9743
  42
0
  0
VERTEX
  8
Обводка_Bottom
  10
-32.2202
  20
1.8928
  42
0
  0
VERTEX
  8
Обводка_Bottom
  10
-32.1132
  20
1.8272
  42
0
  0
VERTEX
  8
Обводка_Bottom
  10
-31.9972
  20
1.7792
  42
0
  0
VERTEX
  8
Обводка_Bottom
  10
-31.8751
  20
1.7498
  42
0
  0
VERTEX
  8
Обводка_Bottom
  10
-31.5383
  20
1.74
  42
0
  0
VERTEX
  8
Обводка_Bottom
  10
-31.1554
  20
1.7403
  42
0
  0
VERTEX
  8
Обводка_Bottom
  10
-31.0972
  20
1.6905
  42
0
  0
VERTEX
  8
Обводка_Bottom
  10
-30.9567
  20
1.6044
  42
0
  0
VERTEX
  8
Обводка_Bottom
  10
-30.8045
  20
1.5414
  42
0
  0
VERTEX
  8
Обводка_Bottom
  10
-30.6443
  20
1.5029
  42
0
  0
VERTEX
  8
Обводка_Bottom
  10
-30.48
  20
1.49
  42
0
  0
VERTEX
  8
Обводка_Bottom
  10
-30.3157
  20
1.5029
  42
0
  0
VERTEX
  8
Обводка_Bottom
  10
-30.1555
  20
1.5414
  42
0
  0
VERTEX
  8
Обводка_Bottom
  10
-30.0033
  20
1.6044
  42
0
  0
VERTEX
  8
Обводка_Bottom
  10
-29.8628
  20
1.6905
  42
0
  0
VERTEX
  8
Обводка_Bottom
  10
-29.7375
  20
1.7975
  42
0
  0
VERTEX
  8
Обводка_Bottom
  10
-29.6305
  20
1.9228
  42
0
  0
VERTEX
  8
Обводка_Bottom
  10
-29.5444
  20
2.0633
  42
0
  0
VERTEX
  8
Обводка_Bottom
  10
-29.4814
  20
2.2155
  42
0
  0
VERTEX
  8
Обводка_Bottom
  10
-29.4429
  20
2.3757
  42
0
  0
VERTEX
  8
Обводка_Bottom
  10
-29.43
  20
2.54
  42
0
  0
VERTEX
  8
Обводка_Bottom
  10
-29.4429
  20
2.7043
  42
0
  0
VERTEX
  8
Обводка_Bottom
  10
-29.4814
  20
2.8645
  42
0
  0
VERTEX
  8
Обводка_Bottom
  10
-29.5444
  20
3.0167
  42
0
  0
VERTEX
  8
Обводка_Bottom
  10
-29.6305
  20
3.1572
  42
0
  0
VERTEX
  8
Обводка_Bottom
  10
-29.7375
  20
3.2825
  42
0
  0
VERTEX
  8
Обводка_Bottom
  10
-29.8628
  20
3.3895
  42
0
  0
VERTEX
  8
Обводка_Bottom
  10
-30.0033
  20
3.4756
  42
0
  0
VERTEX
  8
Обводка_Bottom
  10
-30.1555
  20
3.5386
  42
0
  0
VERTEX
  8
Обводка_Bottom
  10
-30.3157
  20
3.5771
  42
0
  0
VERTEX
  8
Обводка_Bottom
  10
-30.48
  20
3.59
  42
0
  0
VERTEX
  8
Обводка_Bottom
  10
-30.6443
  20
3.5771
  42
0
  0
VERTEX
  8
Обводка_Bottom
  10
-30.8045
  20
3.5386
  42
0
  0
VERTEX
  8
Обводка_Bottom
  10
-30.9567
  20
3.4756
  42
0
  0
VERTEX
  8
Обводка_Bottom
  10
-31.0972
  20
3.3895
  42
0
  0
VERTEX
  8
Обводка_Bottom
  10
-31.1554
  20
3.3397
  42
0
  0
VERTEX
  8
Обводка_Bottom
  10
-31.419
  20
3.34
  42
0
  0
VERTEX
  8
Обводка_Bottom
  10
-32.2201
  20
4.1414
  42
0
  0
VERTEX
  8
Обводка_Bottom
  10
-32.2203
  20
4.4046
  42
0
  0
VERTEX
  8
Обводка_Bottom
  10
-32.1705
  20
4.4628
  42
0
  0
VERTEX
  8
Обводка_Bottom
  10
-32.0844
  20
4.6033
  42
0
  0
VERTEX
  8
Обводка_Bottom
  10
-32.0214
  20
4.7555
  42
0
  0
VERTEX
  8
Обводка_Bottom
  10
-31.9829
  20
4.9157
  42
0
  0
VERTEX
  8
Обводка_Bottom
  10
-31.97
  20
5.08
  42
0
  0
VERTEX
  8
Обводка_Bottom
  10
-31.9829
  20
5.2443
  42
0
  0
VERTEX
  8
Обводка_Bottom
  10
-32.0214
  20
5.4045
  42
0
  0
VERTEX
  8
Обводка_Bottom
  10
-32.0844
  20
5.5567
  42
0
  0
VERTEX
  8
Обводка_Bottom
  10
-32.1705
  20
5.6972
  42
0
  0
VERTEX
  8
Обводка_Bottom
  10
-32.2203
  20
5.7554
  42
0
  0
VERTEX
  8
Обводка_Bottom
  10
-32.22
  20
13.6391
  42
0
  0
VERTEX
  8
Обводка_Bottom
  10
-23.7986
  20
22.06
  42
0
  0
VERTEX
  8
Обводка_Bottom
  10
-1.27
  20
22.06
  42
0
  0
VERTEX
  8
Обводка_Bottom
  10
-1.1449
  20
22.0698
  42
0
  0
VERTEX
  8
Обводка_Bottom
  10
-1.0228
  20
22.0992
  42
0
  0
VERTEX
  8
Обводка_Bottom
  10
-0.9068
  20
22.1472
  42
0
  0
VERTEX
  8
Обводка_Bottom
  10
-0.7998
  20
22.2128
  42
0
  0
VERTEX
  8
Обводка_Bottom
  10
-0.7043
  20
22.2943
  42
0
  0
VERTEX
  8
Обводка_Bottom
  10
-0.6228
  20
22.3898
  42
0
  0
VERTEX
  8
Обводка_Bottom
  10
-0.5572
  20
22.4968
  42
0
  0
VERTEX
  8
Обводка_Bottom
  10
-0.5092
  20
22.6128
  42
0
  0
VERTEX
  8
Обводка_Bottom
  10
-0.4798
  20
22.7349
  42
0
  0
VERTEX
  8
Обводка_Bottom
  10
-0.47
  20
22.86
  42
0
  0
VERTEX
  8
Обводка_Bottom
  10
-0.4798
  20
22.9851
  42
0
  0
VERTEX
  8
Обводка_Bottom
  10
-0.5092
  20
23.1072
  42
0
  0
VERTEX
  8
Обводка_Bottom
  10
-0.5572
  20
23.2232
  42
0
  0
VERTEX
  8
Обводка_Bottom
  10
-0.6228
  20
23.3302
  42
0
  0
VERTEX
  8
Обводка_Bottom
  10
-0.7043
  20
23.4257
  42
0
  0
VERTEX
  8
Обводка_Bottom
  10
-0.7998
  20
23.5072
  42
0
  0
VERTEX
  8
Обводка_Bottom
  10
-0.9068
  20
23.5728
  42
0
  0
VERTEX
  8
Обводка_Bottom
  10
-1.0228
  20
23.6208
  42
0
  0
VERTEX
  8
Обводка_Bottom
  10
-1.1449
  20
23.6502
  42
0
  0
VERTEX
  8
Обводка_Bottom
  10
-1.4705
  20
23.66
  42
0
  0
VERTEX
  8
Обводка_Bottom
  10
-24.13
  20
23.66
  42
0
  0
VERTEX
  8
Обводка_Bottom
  10
-24.2551
  20
23.6502
  42
0
  0
VERTEX
  8
Обводка_Bottom
  10
-24.3772
  20
23.6208
  42
0
  0
VERTEX
  8
Обводка_Bottom
  10
-24.4932
  20
23.5728
  42
0
  0
VERTEX
  8
Обводка_Bottom
  10
-24.6002
  20
23.5072
  42
0
  0
VERTEX
  8
Обводка_Bottom
  10
-24.8346
  20
23.2868
  42
0
  0
VERTEX
  8
Обводка_Bottom
  10
-33.5857
  20
14.5357
  42
0
  0
VERTEX
  8
Обводка_Bottom
  10
-33.6672
  20
14.4402
  42
0
  0
VERTEX
  8
Обводка_Bottom
  10
-33.7328
  20
14.3332
  42
0
  0
VERTEX
  8
Обводка_Bottom
  10
-33.7808
  20
14.2172
  42
0
  0
VERTEX
  8
Обводка_Bottom
  10
-33.8102
  20
14.0951
  42
0
  0
VERTEX
  8
Обводка_Bottom
  10
-33.82
  20
13.768
  42
0
  0
VERTEX
  8
Обводка_Bottom
  10
-33.8193
  20
5.88
  42
0
  0
VERTEX
  8
Обводка_Bottom
  10
-34.7599
  20
5.88
  42
0
  0
VERTEX
  8
Обводка_Bottom
  10
-34.76
  20
14.909
  42
0
  0
VERTEX
  8
Обводка_Bottom
  10
-25.0692
  20
24.5995
  42
0
  0
VERTEX
  8
Обводка_Bottom
  10
-1.27
  20
24.6
  42
0
  0
VERTEX
  8
Обводка_Bottom
  10
-1.1449
  20
24.6098
  42
0
  0
VERTEX
  8
Обводка_Bottom
  10
-1.0228
  20
24.6392
  42
0
  0
VERTEX
  8
Обводка_Bottom
  10
-0.9068
  20
24.6872
  42
0
  0
VERTEX
  8
Обводка_Bottom
  10
-0.7998
  20
24.7528
  42
0
  0
VERTEX
  8
Обводка_Bottom
  10
-0.7043
  20
24.8343
  42
0
  0
VERTEX
  8
Обводка_Bottom
  10
-0.6228
  20
24.9298
  42
0
  0
VERTEX
  8
Обводка_Bottom
  10
-0.5572
  20
25.0368
  42
0
  0
VERTEX
  8
Обводка_Bottom
  10
-0.5092
  20
25.1528
  42
0
  0
VERTEX
  8
Обводка_Bottom
  10
-0.4798
  20
25.2749
  42
0
  0
VERTEX
  8
Обводка_Bottom
  10
-0.47
  20
25.4
  42
0
  0
VERTEX
  8
Обводка_Bottom
  10
-0.4798
  20
25.5251
  42
0
  0
VERTEX
  8
Обводка_Bottom
  10
-0.5092
  20
25.6472
  42
0
  0
VERTEX
  8
Обводка_Bottom
  10
-0.5572
  20
25.7632
  42
0
  0
VERTEX
  8
Обводка_Bottom
  10
-0.6228
  20
25.8702
  42
0
  0
VERTEX
  8
Обводка_Bottom
  10
-0.7043
  20
25.9657
  42
0
  0
VERTEX
  8
Обводка_Bottom
  10
-0.7998
  20
26.0472
  42
0
  0
VERTEX
  8
Обводка_Bottom
  10
-0.9068
  20
26.1128
  42
0
  0
VERTEX
  8
Обводка_Bottom
  10
-1.0228
  20
26.1608
  42
0
  0
VERTEX
  8
Обводка_Bottom
  10
-1.1449
  20
26.1902
  42
0
  0
VERTEX
  8
Обводка_Bottom
  10
-1.4678
  20
26.2
  42
0
  0
VERTEX
  8
Обводка_Bottom
  10
-25.4
  20
26.2
  42
0
  0
VERTEX
  8
Обводка_Bottom
  10
-25.5251
  20
26.1902
  42
0
  0
VERTEX
  8
Обводка_Bottom
  10
-25.6472
  20
26.1608
  42
0
  0
VERTEX
  8
Обводка_Bottom
  10
-25.7632
  20
26.1128
  42
0
  0
VERTEX
  8
Обводка_Bottom
  10
-25.8702
  20
26.0472
  42
0
  0
VERTEX
  8
Обводка_Bottom
  10
-26.1068
  20
25.8246
  42
0
  0
VERTEX
  8
Обводка_Bottom
  10
-36.1257
  20
15.8057
  42
0
  0
VERTEX
  8
Обводка_Bottom
  10
-36.2072
  20
15.7102
  42
0
  0
VERTEX
  8
Обводка_Bottom
  10
-36.2728
  20
15.6032
  42
0
  0
VERTEX
  8
Обводка_Bottom
  10
-36.3208
  20
15.4872
  42
0
  0
VERTEX
  8
Обводка_Bottom
  10
-36.3502
  20
15.3651
  42
0
  0
VERTEX
  8
Обводка_Bottom
  10
-36.36
  20
15.0446
  42
0
  0
VERTEX
  8
Обводка_Bottom
  10
-36.3599
  20
5.88
  42
0
  0
VERTEX
  8
Обводка_Bottom
  10
-37.3005
  20
5.88
  42
0
  0
VERTEX
  8
Обводка_Bottom
  10
-37.3
  20
16.1779
  42
0
  0
VERTEX
  8
Обводка_Bottom
  10
-26.3381
  20
27.1405
  42
0
  0
VERTEX
  8
Обводка_Bottom
  10
-1.27
  20
27.14
  42
0
  0
VERTEX
  8
Обводка_Bottom
  10
-1.1449
  20
27.1498
  42
0
  0
VERTEX
  8
Обводка_Bottom
  10
-1.0228
  20
27.1792
  42
0
  0
VERTEX
  8
Обводка_Bottom
  10
-0.9068
  20
27.2272
  42
0
  0
VERTEX
  8
Обводка_Bottom
  10
-0.7998
  20
27.2928
  42
0
  0
VERTEX
  8
Обводка_Bottom
  10
-0.7043
  20
27.3743
  42
0
  0
VERTEX
  8
Обводка_Bottom
  10
-0.6228
  20
27.4698
  42
0
  0
VERTEX
  8
Обводка_Bottom
  10
-0.5572
  20
27.5768
  42
0
  0
VERTEX
  8
Обводка_Bottom
  10
-0.5092
  20
27.6928
  42
0
  0
VERTEX
  8
Обводка_Bottom
  10
-0.4798
  20
27.8149
  42
0
  0
VERTEX
  8
Обводка_Bottom
  10
-0.47
  20
27.94
  42
0
  0
VERTEX
  8
Обводка_Bottom
  10
-0.4798
  20
28.0651
  42
0
  0
VERTEX
  8
Обводка_Bottom
  10
-0.5092
  20
28.1872
  42
0
  0
VERTEX
  8
Обводка_Bottom
  10
-0.5572
  20
28.3032
  42
0
  0
VERTEX
  8
Обводка_Bottom
  10
-0.6228
  20
28.4102
  42
0
  0
VERTEX
  8
Обводка_Bottom
  10
-0.7043
  20
28.5057
  42
0
  0
VERTEX
  8
Обводка_Bottom
  10
-0.7998
  20
28.5872
  42
0
  0
VERTEX
  8
Обводка_Bottom
  10
-0.9068
  20
28.6528
  42
0
  0
VERTEX
  8
Обводка_Bottom
  10
-1.0228
  20
28.7008
  42
0
  0
VERTEX
  8
Обводка_Bottom
  10
-1.1449
  20
28.7302
  42
0
  0
VERTEX
  8
Обводка_Bottom
  10
-1.4684
  20
28.74
  42
0
  0
VERTEX
  8
Обводка_Bottom
  10
-26.67
  20
28.74
  42
0
  0
VERTEX
  8
Обводка_Bottom
  10
-26.7951
  20
28.7302
  42
0
  0
VERTEX
  8
Обводка_Bottom
  10
-26.9172
  20
28.7008
  42
0
  0
VERTEX
  8
Обводка_Bottom
  10
-27.0332
  20
28.6528
  42
0
  0
VERTEX
  8
Обводка_Bottom
  10
-27.1402
  20
28.5872
  42
0
  0
VERTEX
  8
Обводка_Bottom
  10
-27.3751
  20
28.3663
  42
0
  0
VERTEX
  8
Обводка_Bottom
  10
-38.6657
  20
17.0757
  42
0
  0
VERTEX
  8
Обводка_Bottom
  10
-38.7472
  20
16.9802
  42
0
  0
VERTEX
  8
Обводка_Bottom
  10
-38.8128
  20
16.8732
  42
0
  0
VERTEX
  8
Обводка_Bottom
  10
-38.8608
  20
16.7572
  42
0
  0
VERTEX
  8
Обводка_Bottom
  10
-38.8902
  20
16.6351
  42
0
  0
VERTEX
  8
Обводка_Bottom
  10
-38.9
  20
16.3129
  42
0
  0
VERTEX
  8
Обводка_Bottom
  10
-38.9
  20
5.7606
  42
0
  0
VERTEX
  8
Обводка_Bottom
  10
-38.8997
  20
5.7554
  42
0
  0
SEQEND
  0
POLYLINE
  8
Обводка_Bottom
  6
CONTINUOUS
  66
1
  70
0
  40
0.6
  41
0.6
  0
VERTEX
  8
Обводка_Bottom
  10
-59.4571
  20
4.9157
  42
0
  0
VERTEX
  8
Обводка_Bottom
  10
-59.4186
  20
4.7555
  42
0
  0
VERTEX
  8
Обводка_Bottom
  10
-59.3556
  20
4.6033
  42
0
  0
VERTEX
  8
Обводка_Bottom
  10
-59.2695
  20
4.4628
  42
0
  0
VERTEX
  8
Обводка_Bottom
  10
-59.1625
  20
4.3375
  42
0
  0
VERTEX
  8
Обводка_Bottom
  10
-59.0372
  20
4.2305
  42
0
  0
VERTEX
  8
Обводка_Bottom
  10
-58.8967
  20
4.1444
  42
0
  0
VERTEX
  8
Обводка_Bottom
  10
-58.7445
  20
4.0814
  42
0
  0
VERTEX
  8
Обводка_Bottom
  10
-58.5843
  20
4.0429
  42
0
  0
VERTEX
  8
Обводка_Bottom
  10
-58.42
  20
4.03
  42
0
  0
VERTEX
  8
Обводка_Bottom
  10
-58.2557
  20
4.0429
  42
0
  0
VERTEX
  8
Обводка_Bottom
  10
-58.0955
  20
4.0814
  42
0
  0
VERTEX
  8
Обводка_Bottom
  10
-57.9433
  20
4.1444
  42
0
  0
VERTEX
  8
Обводка_Bottom
  10
-57.8028
  20
4.2305
  42
0
  0
VERTEX
  8
Обводка_Bottom
  10
-57.6775
  20
4.3375
  42
0
  0
VERTEX
  8
Обводка_Bottom
  10
-57.5705
  20
4.4628
  42
0
  0
VERTEX
  8
Обводка_Bottom
  10
-57.4844
  20
4.6033
  42
0
  0
VERTEX
  8
Обводка_Bottom
  10
-57.4214
  20
4.7555
  42
0
  0
VERTEX
  8
Обводка_Bottom
  10
-57.3829
  20
4.9157
  42
0
  0
VERTEX
  8
Обводка_Bottom
  10
-57.37
  20
5.08
  42
0
  0
VERTEX
  8
Обводка_Bottom
  10
-57.3829
  20
5.2443
  42
0
  0
VERTEX
  8
Обводка_Bottom
  10
-57.4214
  20
5.4045
  42
0
  0
VERTEX
  8
Обводка_Bottom
  10
-57.4844
  20
5.5567
  42
0
  0
VERTEX
  8
Обводка_Bottom
  10
-57.5705
  20
5.6972
  42
0
  0
VERTEX
  8
Обводка_Bottom
  10
-57.6775
  20
5.8225
  42
0
  0
VERTEX
  8
Обводка_Bottom
  10
-57.8028
  20
5.9295
  42
0
  0
VERTEX
  8
Обводка_Bottom
  10
-57.9433
  20
6.0156
  42
0
  0
VERTEX
  8
Обводка_Bottom
  10
-58.0955
  20
6.0786
  42
0
  0
VERTEX
  8
Обводка_Bottom
  10
-58.2557
  20
6.1171
  42
0
  0
VERTEX
  8
Обводка_Bottom
  10
-58.42
  20
6.13
  42
0
  0
VERTEX
  8
Обводка_Bottom
  10
-58.5843
  20
6.1171
  42
0
  0
VERTEX
  8
Обводка_Bottom
  10
-58.7445
  20
6.0786
  42
0
  0
VERTEX
  8
Обводка_Bottom
  10
-58.8967
  20
6.0156
  42
0
  0
VERTEX
  8
Обводка_Bottom
  10
-59.0372
  20
5.9295
  42
0
  0
VERTEX
  8
Обводка_Bottom
  10
-59.1625
  20
5.8225
  42
0
  0
VERTEX
  8
Обводка_Bottom
  10
-59.2695
  20
5.6972
  42
0
  0
VERTEX
  8
Обводка_Bottom
  10
-59.3556
  20
5.5567
  42
0
  0
VERTEX
  8
Обводка_Bottom
  10
-59.4186
  20
5.4045
  42
0
  0
VERTEX
  8
Обводка_Bottom
  10
-59.4571
  20
5.2443
  42
0
  0
VERTEX
  8
Обводка_Bottom
  10
-59.47
  20
5.08
  42
0
  0
VERTEX
  8
Обводка_Bottom
  10
-59.4571
  20
4.9157
  42
0
  0
SEQEND
  0
POLYLINE
  8
Обводка_Bottom
  6
CONTINUOUS
  66
1
  70
0
  40
0.6
  41
0.6
  0
VERTEX
  8
Обводка_Bottom
  10
-61.7597
  20
5.7554
  42
0
  0
VERTEX
  8
Обводка_Bottom
  10
-61.8095
  20
5.6972
  42
0
  0
VERTEX
  8
Обводка_Bottom
  10
-61.8956
  20
5.5567
  42
0
  0
VERTEX
  8
Обводка_Bottom
  10
-61.9586
  20
5.4045
  42
0
  0
VERTEX
  8
Обводка_Bottom
  10
-61.9971
  20
5.2443
  42
0
  0
VERTEX
  8
Обводка_Bottom
  10
-62.01
  20
5.08
  42
0
  0
VERTEX
  8
Обводка_Bottom
  10
-61.9971
  20
4.9157
  42
0
  0
VERTEX
  8
Обводка_Bottom
  10
-61.9586
  20
4.7555
  42
0
  0
VERTEX
  8
Обводка_Bottom
  10
-61.8956
  20
4.6033
  42
0
  0
VERTEX
  8
Обводка_Bottom
  10
-61.8095
  20
4.4628
  42
0
  0
VERTEX
  8
Обводка_Bottom
  10
-61.7025
  20
4.3375
  42
0
  0
VERTEX
  8
Обводка_Bottom
  10
-61.5772
  20
4.2305
  42
0
  0
VERTEX
  8
Обводка_Bottom
  10
-61.4367
  20
4.1444
  42
0
  0
VERTEX
  8
Обводка_Bottom
  10
-61.2845
  20
4.0814
  42
0
  0
VERTEX
  8
Обводка_Bottom
  10
-61.1243
  20
4.0429
  42
0
  0
VERTEX
  8
Обводка_Bottom
  10
-60.96
  20
4.03
  42
0
  0
VERTEX
  8
Обводка_Bottom
  10
-60.7957
  20
4.0429
  42
0
  0
VERTEX
  8
Обводка_Bottom
  10
-60.6355
  20
4.0814
  42
0
  0
VERTEX
  8
Обводка_Bottom
  10
-60.4833
  20
4.1444
  42
0
  0
VERTEX
  8
Обводка_Bottom
  10
-60.3428
  20
4.2305
  42
0
  0
VERTEX
  8
Обводка_Bottom
  10
-60.2175
  20
4.3375
  42
0
  0
VERTEX
  8
Обводка_Bottom
  10
-60.1105
  20
4.4628
  42
0
  0
VERTEX
  8
Обводка_Bottom
  10
-60.0244
  20
4.6033
  42
0
  0
VERTEX
  8
Обводка_Bottom
  10
-59.9614
  20
4.7555
  42
0
  0
VERTEX
  8
Обводка_Bottom
  10
-59.9229
  20
4.9157
  42
0
  0
VERTEX
  8
Обводка_Bottom
  10
-59.91
  20
5.08
  42
0
  0
VERTEX
  8
Обводка_Bottom
  10
-59.9229
  20
5.2443
  42
0
  0
VERTEX
  8
Обводка_Bottom
  10
-59.9614
  20
5.4045
  42
0
  0
VERTEX
  8
Обводка_Bottom
  10
-60.0244
  20
5.5567
  42
0
  0
VERTEX
  8
Обводка_Bottom
  10
-60.1105
  20
5.6972
  42
0
  0
VERTEX
  8
Обводка_Bottom
  10
-60.1603
  20
5.7554
  42
0
  0
VERTEX
  8
Обводка_Bottom
  10
-60.16
  20
8.5588
  42
0
  0
VERTEX
  8
Обводка_Bottom
  10
-36.4991
  20
32.2195
  42
0
  0
VERTEX
  8
Обводка_Bottom
  10
-1.27
  20
32.22
  42
0
  0
VERTEX
  8
Обводка_Bottom
  10
-1.1449
  20
32.2298
  42
0
  0
VERTEX
  8
Обводка_Bottom
  10
-1.0228
  20
32.2592
  42
0
  0
VERTEX
  8
Обводка_Bottom
  10
-0.9068
  20
32.3072
  42
0
  0
VERTEX
  8
Обводка_Bottom
  10
-0.7998
  20
32.3728
  42
0
  0
VERTEX
  8
Обводка_Bottom
  10
-0.7043
  20
32.4543
  42
0
  0
VERTEX
  8
Обводка_Bottom
  10
-0.6228
  20
32.5498
  42
0
  0
VERTEX
  8
Обводка_Bottom
  10
-0.5572
  20
32.6568
  42
0
  0
VERTEX
  8
Обводка_Bottom
  10
-0.5092
  20
32.7728
  42
0
  0
VERTEX
  8
Обводка_Bottom
  10
-0.4798
  20
32.8949
  42
0
  0
VERTEX
  8
Обводка_Bottom
  10
-0.47
  20
33.02
  42
0
  0
VERTEX
  8
Обводка_Bottom
  10
-0.4798
  20
33.1451
  42
0
  0
VERTEX
  8
Обводка_Bottom
  10
-0.5092
  20
33.2672
  42
0
  0
VERTEX
  8
Обводка_Bottom
  10
-0.5572
  20
33.3832
  42
0
  0
VERTEX
  8
Обводка_Bottom
  10
-0.6228
  20
33.4902
  42
0
  0
VERTEX
  8
Обводка_Bottom
  10
-0.7043
  20
33.5857
  42
0
  0
VERTEX
  8
Обводка_Bottom
  10
-0.7998
  20
33.6672
  42
0
  0
VERTEX
  8
Обводка_Bottom
  10
-0.9068
  20
33.7328
  42
0
  0
VERTEX
  8
Обводка_Bottom
  10
-1.0228
  20
33.7808
  42
0
  0
VERTEX
  8
Обводка_Bottom
  10
-1.1449
  20
33.8102
  42
0
  0
VERTEX
  8
Обводка_Bottom
  10
-1.4698
  20
33.82
  42
0
  0
VERTEX
  8
Обводка_Bottom
  10
-36.83
  20
33.82
  42
0
  0
VERTEX
  8
Обводка_Bottom
  10
-36.9551
  20
33.8102
  42
0
  0
VERTEX
  8
Обводка_Bottom
  10
-37.0772
  20
33.7808
  42
0
  0
VERTEX
  8
Обводка_Bottom
  10
-37.1932
  20
33.7328
  42
0
  0
VERTEX
  8
Обводка_Bottom
  10
-37.3002
  20
33.6672
  42
0
  0
VERTEX
  8
Обводка_Bottom
  10
-37.536
  20
33.4454
  42
0
  0
VERTEX
  8
Обводка_Bottom
  10
-61.5257
  20
9.4557
  42
0
  0
VERTEX
  8
Обводка_Bottom
  10
-61.6072
  20
9.3602
  42
0
  0
VERTEX
  8
Обводка_Bottom
  10
-61.6728
  20
9.2532
  42
0
  0
VERTEX
  8
Обводка_Bottom
  10
-61.7208
  20
9.1372
  42
0
  0
VERTEX
  8
Обводка_Bottom
  10
-61.7502
  20
9.0151
  42
0
  0
VERTEX
  8
Обводка_Bottom
  10
-61.76
  20
8.6995
  42
0
  0
VERTEX
  8
Обводка_Bottom
  10
-61.76
  20
5.7597
  42
0
  0
VERTEX
  8
Обводка_Bottom
  10
-61.7597
  20
5.7554
  42
0
  0
SEQEND
  0
POLYLINE
  8
Обводка_Bottom
  6
CONTINUOUS
  66
1
  70
0
  40
0.6
  41
0.6
  0
VERTEX
  8
Обводка_Bottom
  10
-26.4371
  20
2.3757
  42
0
  0
VERTEX
  8
Обводка_Bottom
  10
-26.3986
  20
2.2155
  42
0
  0
VERTEX
  8
Обводка_Bottom
  10
-26.3356
  20
2.0633
  42
0
  0
VERTEX
  8
Обводка_Bottom
  10
-26.2495
  20
1.9228
  42
0
  0
VERTEX
  8
Обводка_Bottom
  10
-26.1425
  20
1.7975
  42
0
  0
VERTEX
  8
Обводка_Bottom
  10
-26.0172
  20
1.6905
  42
0
  0
VERTEX
  8
Обводка_Bottom
  10
-25.8767
  20
1.6044
  42
0
  0
VERTEX
  8
Обводка_Bottom
  10
-25.7245
  20
1.5414
  42
0
  0
VERTEX
  8
Обводка_Bottom
  10
-25.5643
  20
1.5029
  42
0
  0
VERTEX
  8
Обводка_Bottom
  10
-25.4
  20
1.49
  42
0
  0
VERTEX
  8
Обводка_Bottom
  10
-25.2357
  20
1.5029
  42
0
  0
VERTEX
  8
Обводка_Bottom
  10
-25.0755
  20
1.5414
  42
0
  0
VERTEX
  8
Обводка_Bottom
  10
-24.9233
  20
1.6044
  42
0
  0
VERTEX
  8
Обводка_Bottom
  10
-24.7828
  20
1.6905
  42
0
  0
VERTEX
  8
Обводка_Bottom
  10
-24.6575
  20
1.7975
  42
0
  0
VERTEX
  8
Обводка_Bottom
  10
-24.5505
  20
1.9228
  42
0
  0
VERTEX
  8
Обводка_Bottom
  10
-24.4644
  20
2.0633
  42
0
  0
VERTEX
  8
Обводка_Bottom
  10
-24.4014
  20
2.2155
  42
0
  0
VERTEX
  8
Обводка_Bottom
  10
-24.3629
  20
2.3757
  42
0
  0
VERTEX
  8
Обводка_Bottom
  10
-24.35
  20
2.54
  42
0
  0
VERTEX
  8
Обводка_Bottom
  10
-24.3629
  20
2.7043
  42
0
  0
VERTEX
  8
Обводка_Bottom
  10
-24.4014
  20
2.8645
  42
0
  0
VERTEX
  8
Обводка_Bottom
  10
-24.4644
  20
3.0167
  42
0
  0
VERTEX
  8
Обводка_Bottom
  10
-24.5505
  20
3.1572
  42
0
  0
VERTEX
  8
Обводка_Bottom
  10
-24.6575
  20
3.2825
  42
0
  0
VERTEX
  8
Обводка_Bottom
  10
-24.7828
  20
3.3895
  42
0
  0
VERTEX
  8
Обводка_Bottom
  10
-24.9233
  20
3.4756
  42
0
  0
VERTEX
  8
Обводка_Bottom
  10
-25.0755
  20
3.5386
  42
0
  0
VERTEX
  8
Обводка_Bottom
  10
-25.2357
  20
3.5771
  42
0
  0
VERTEX
  8
Обводка_Bottom
  10
-25.4
  20
3.59
  42
0
  0
VERTEX
  8
Обводка_Bottom
  10
-25.5643
  20
3.5771
  42
0
  0
VERTEX
  8
Обводка_Bottom
  10
-25.7245
  20
3.5386
  42
0
  0
VERTEX
  8
Обводка_Bottom
  10
-25.8767
  20
3.4756
  42
0
  0
VERTEX
  8
Обводка_Bottom
  10
-26.0172
  20
3.3895
  42
0
  0
VERTEX
  8
Обводка_Bottom
  10
-26.1425
  20
3.2825
  42
0
  0
VERTEX
  8
Обводка_Bottom
  10
-26.2495
  20
3.1572
  42
0
  0
VERTEX
  8
Обводка_Bottom
  10
-26.3356
  20
3.0167
  42
0
  0
VERTEX
  8
Обводка_Bottom
  10
-26.3986
  20
2.8645
  42
0
  0
VERTEX
  8
Обводка_Bottom
  10
-26.4371
  20
2.7043
  42
0
  0
VERTEX
  8
Обводка_Bottom
  10
-26.45
  20
2.54
  42
0
  0
VERTEX
  8
Обводка_Bottom
  10
-26.4371
  20
2.3757
  42
0
  0
SEQEND
  0
POLYLINE
  8
Обводка_Bottom
  6
CONTINUOUS
  66
1
  70
0
  40
0.6
  41
0.6
  0
VERTEX
  8
Обводка_Bottom
  10
-16.2771
  20
4.9157
  42
0
  0
VERTEX
  8
Обводка_Bottom
  10
-16.2386
  20
4.7555
  42
0
  0
VERTEX
  8
Обводка_Bottom
  10
-16.1756
  20
4.6033
  42
0
  0
VERTEX
  8
Обводка_Bottom
  10
-16.0895
  20
4.4628
  42
0
  0
VERTEX
  8
Обводка_Bottom
  10
-15.9825
  20
4.3375
  42
0
  0
VERTEX
  8
Обводка_Bottom
  10
-15.8572
  20
4.2305
  42
0
  0
VERTEX
  8
Обводка_Bottom
  10
-15.7167
  20
4.1444
  42
0
  0
VERTEX
  8
Обводка_Bottom
  10
-15.5645
  20
4.0814
  42
0
  0
VERTEX
  8
Обводка_Bottom
  10
-15.4043
  20
4.0429
  42
0
  0
VERTEX
  8
Обводка_Bottom
  10
-15.24
  20
4.03
  42
0
  0
VERTEX
  8
Обводка_Bottom
  10
-15.0757
  20
4.0429
  42
0
  0
VERTEX
  8
Обводка_Bottom
  10
-14.9155
  20
4.0814
  42
0
  0
VERTEX
  8
Обводка_Bottom
  10
-14.7633
  20
4.1444
  42
0
  0
VERTEX
  8
Обводка_Bottom
  10
-14.6228
  20
4.2305
  42
0
  0
VERTEX
  8
Обводка_Bottom
  10
-14.5646
  20
4.2803
  42
0
  0
VERTEX
  8
Обводка_Bottom
  10
-1.27
  20
4.28
  42
0
  0
VERTEX
  8
Обводка_Bottom
  10
-1.1449
  20
4.2898
  42
0
  0
VERTEX
  8
Обводка_Bottom
  10
-1.0228
  20
4.3192
  42
0
  0
VERTEX
  8
Обводка_Bottom
  10
-0.9068
  20
4.3672
  42
0
  0
VERTEX
  8
Обводка_Bottom
  10
-0.7998
  20
4.4328
  42
0
  0
VERTEX
  8
Обводка_Bottom
  10
-0.7043
  20
4.5143
  42
0
  0
VERTEX
  8
Обводка_Bottom
  10
-0.6228
  20
4.6098
  42
0
  0
VERTEX
  8
Обводка_Bottom
  10
-0.5572
  20
4.7168
  42
0
  0
VERTEX
  8
Обводка_Bottom
  10
-0.5092
  20
4.8328
  42
0
  0
VERTEX
  8
Обводка_Bottom
  10
-0.4798
  20
4.9549
  42
0
  0
VERTEX
  8
Обводка_Bottom
  10
-0.47
  20
5.08
  42
0
  0
VERTEX
  8
Обводка_Bottom
  10
-0.4798
  20
5.2051
  42
0
  0
VERTEX
  8
Обводка_Bottom
  10
-0.5092
  20
5.3272
  42
0
  0
VERTEX
  8
Обводка_Bottom
  10
-0.5572
  20
5.4432
  42
0
  0
VERTEX
  8
Обводка_Bottom
  10
-0.6228
  20
5.5502
  42
0
  0
VERTEX
  8
Обводка_Bottom
  10
-0.7043
  20
5.6457
  42
0
  0
VERTEX
  8
Обводка_Bottom
  10
-0.7998
  20
5.7272
  42
0
  0
VERTEX
  8
Обводка_Bottom
  10
-0.9068
  20
5.7928
  42
0
  0
VERTEX
  8
Обводка_Bottom
  10
-1.0228
  20
5.8408
  42
0
  0
VERTEX
  8
Обводка_Bottom
  10
-1.1449
  20
5.8702
  42
0
  0
VERTEX
  8
Обводка_Bottom
  10
-1.4696
  20
5.88
  42
0
  0
VERTEX
  8
Обводка_Bottom
  10
-14.5594
  20
5.88
  42
0
  0
VERTEX
  8
Обводка_Bottom
  10
-14.7633
  20
6.0156
  42
0
  0
VERTEX
  8
Обводка_Bottom
  10
-14.9155
  20
6.0786
  42
0
  0
VERTEX
  8
Обводка_Bottom
  10
-15.0757
  20
6.1171
  42
0
  0
VERTEX
  8
Обводка_Bottom
  10
-15.24
  20
6.13
  42
0
  0
VERTEX
  8
Обводка_Bottom
  10
-15.4043
  20
6.1171
  42
0
  0
VERTEX
  8
Обводка_Bottom
  10
-15.5645
  20
6.0786
  42
0
  0
VERTEX
  8
Обводка_Bottom
  10
-15.7167
  20
6.0156
  42
0
  0
VERTEX
  8
Обводка_Bottom
  10
-15.8572
  20
5.9295
  42
0
  0
VERTEX
  8
Обводка_Bottom
  10
-15.9825
  20
5.8225
  42
0
  0
VERTEX
  8
Обводка_Bottom
  10
-16.0895
  20
5.6972
  42
0
  0
VERTEX
  8
Обводка_Bottom
  10
-16.1756
  20
5.5567
  42
0
  0
VERTEX
  8
Обводка_Bottom
  10
-16.2386
  20
5.4045
  42
0
  0
VERTEX
  8
Обводка_Bottom
  10
-16.2771
  20
5.2443
  42
0
  0
VERTEX
  8
Обводка_Bottom
  10
-16.29
  20
5.08
  42
0
  0
VERTEX
  8
Обводка_Bottom
  10
-16.2771
  20
4.9157
  42
0
  0
SEQEND
  0
POLYLINE
  8
Обводка_Bottom
  6
CONTINUOUS
  66
1
  70
0
  40
0.6
  41
0.6
  0
VERTEX
  8
Обводка_Bottom
  10
-18.8171
  20
4.9157
  42
0
  0
VERTEX
  8
Обводка_Bottom
  10
-18.7786
  20
4.7555
  42
0
  0
VERTEX
  8
Обводка_Bottom
  10
-18.7156
  20
4.6033
  42
0
  0
VERTEX
  8
Обводка_Bottom
  10
-18.6295
  20
4.4628
  42
0
  0
VERTEX
  8
Обводка_Bottom
  10
-18.5225
  20
4.3375
  42
0
  0
VERTEX
  8
Обводка_Bottom
  10
-18.3972
  20
4.2305
  42
0
  0
VERTEX
  8
Обводка_Bottom
  10
-18.2567
  20
4.1444
  42
0
  0
VERTEX
  8
Обводка_Bottom
  10
-18.1045
  20
4.0814
  42
0
  0
VERTEX
  8
Обводка_Bottom
  10
-17.9443
  20
4.0429
  42
0
  0
VERTEX
  8
Обводка_Bottom
  10
-17.78
  20
4.03
  42
0
  0
VERTEX
  8
Обводка_Bottom
  10
-17.6157
  20
4.0429
  42
0
  0
VERTEX
  8
Обводка_Bottom
  10
-17.4555
  20
4.0814
  42
0
  0
VERTEX
  8
Обводка_Bottom
  10
-17.3033
  20
4.1444
  42
0
  0
VERTEX
  8
Обводка_Bottom
  10
-17.1628
  20
4.2305
  42
0
  0
VERTEX
  8
Обводка_Bottom
  10
-17.0375
  20
4.3375
  42
0
  0
VERTEX
  8
Обводка_Bottom
  10
-16.9305
  20
4.4628
  42
0
  0
VERTEX
  8
Обводка_Bottom
  10
-16.8444
  20
4.6033
  42
0
  0
VERTEX
  8
Обводка_Bottom
  10
-16.7814
  20
4.7555
  42
0
  0
VERTEX
  8
Обводка_Bottom
  10
-16.7429
  20
4.9157
  42
0
  0
VERTEX
  8
Обводка_Bottom
  10
-16.73
  20
5.08
  42
0
  0
VERTEX
  8
Обводка_Bottom
  10
-16.7429
  20
5.2443
  42
0
  0
VERTEX
  8
Обводка_Bottom
  10
-16.7814
  20
5.4045
  42
0
  0
VERTEX
  8
Обводка_Bottom
  10
-16.8444
  20
5.5567
  42
0
  0
VERTEX
  8
Обводка_Bottom
  10
-16.9305
  20
5.6972
  42
0
  0
VERTEX
  8
Обводка_Bottom
  10
-16.9803
  20
5.7554
  42
0
  0
VERTEX
  8
Обводка_Bottom
  10
-16.98
  20
6.019
  42
0
  0
VERTEX
  8
Обводка_Bottom
  10
-16.1786
  20
6.8201
  42
0
  0
VERTEX
  8
Обводка_Bottom
  10
-1.27
  20
6.82
  42
0
  0
VERTEX
  8
Обводка_Bottom
  10
-1.1449
  20
6.8298
  42
0
  0
VERTEX
  8
Обводка_Bottom
  10
-1.0228
  20
6.8592
  42
0
  0
VERTEX
  8
Обводка_Bottom
  10
-0.9068
  20
6.9072
  42
0
  0
VERTEX
  8
Обводка_Bottom
  10
-0.7998
  20
6.9728
  42
0
  0
VERTEX
  8
Обводка_Bottom
  10
-0.7043
  20
7.0543
  42
0
  0
VERTEX
  8
Обводка_Bottom
  10
-0.6228
  20
7.1498
  42
0
  0
VERTEX
  8
Обводка_Bottom
  10
-0.5572
  20
7.2568
  42
0
  0
VERTEX
  8
Обводка_Bottom
  10
-0.5092
  20
7.3728
  42
0
  0
VERTEX
  8
Обводка_Bottom
  10
-0.4798
  20
7.4949
  42
0
  0
VERTEX
  8
Обводка_Bottom
  10
-0.47
  20
7.62
  42
0
  0
VERTEX
  8
Обводка_Bottom
  10
-0.4798
  20
7.7451
  42
0
  0
VERTEX
  8
Обводка_Bottom
  10
-0.5092
  20
7.8672
  42
0
  0
VERTEX
  8
Обводка_Bottom
  10
-0.5572
  20
7.9832
  42
0
  0
VERTEX
  8
Обводка_Bottom
  10
-0.6228
  20
8.0902
  42
0
  0
VERTEX
  8
Обводка_Bottom
  10
-0.7043
  20
8.1857
  42
0
  0
VERTEX
  8
Обводка_Bottom
  10
-0.7998
  20
8.2672
  42
0
  0
VERTEX
  8
Обводка_Bottom
  10
-0.9068
  20
8.3328
  42
0
  0
VERTEX
  8
Обводка_Bottom
  10
-1.0228
  20
8.3808
  42
0
  0
VERTEX
  8
Обводка_Bottom
  10
-1.1449
  20
8.4102
  42
0
  0
VERTEX
  8
Обводка_Bottom
  10
-1.4705
  20
8.42
  42
0
  0
VERTEX
  8
Обводка_Bottom
  10
-16.51
  20
8.42
  42
0
  0
VERTEX
  8
Обводка_Bottom
  10
-16.6351
  20
8.4102
  42
0
  0
VERTEX
  8
Обводка_Bottom
  10
-16.7572
  20
8.3808
  42
0
  0
VERTEX
  8
Обводка_Bottom
  10
-16.8732
  20
8.3328
  42
0
  0
VERTEX
  8
Обводка_Bottom
  10
-16.9802
  20
8.2672
  42
0
  0
VERTEX
  8
Обводка_Bottom
  10
-17.2027
  20
8.0587
  42
0
  0
VERTEX
  8
Обводка_Bottom
  10
-18.3457
  20
6.9157
  42
0
  0
VERTEX
  8
Обводка_Bottom
  10
-18.4272
  20
6.8202
  42
0
  0
VERTEX
  8
Обводка_Bottom
  10
-18.4928
  20
6.7132
  42
0
  0
VERTEX
  8
Обводка_Bottom
  10
-18.5408
  20
6.5972
  42
0
  0
VERTEX
  8
Обводка_Bottom
  10
-18.5702
  20
6.4751
  42
0
  0
VERTEX
  8
Обводка_Bottom
  10
-18.58
  20
6.1383
  42
0
  0
VERTEX
  8
Обводка_Bottom
  10
-18.58
  20
5.7594
  42
0
  0
VERTEX
  8
Обводка_Bottom
  10
-18.7156
  20
5.5567
  42
0
  0
VERTEX
  8
Обводка_Bottom
  10
-18.7786
  20
5.4045
  42
0
  0
VERTEX
  8
Обводка_Bottom
  10
-18.8171
  20
5.2443
  42
0
  0
VERTEX
  8
Обводка_Bottom
  10
-18.83
  20
5.08
  42
0
  0
VERTEX
  8
Обводка_Bottom
  10
-18.8171
  20
4.9157
  42
0
  0
SEQEND
  0
POLYLINE
  8
Обводка_Bottom
  6
CONTINUOUS
  66
1
  70
0
  40
0.6
  41
0.6
  0
VERTEX
  8
Обводка_Bottom
  10
-59.4571
  20
34.1257
  42
0
  0
VERTEX
  8
Обводка_Bottom
  10
-59.4186
  20
33.9655
  42
0
  0
VERTEX
  8
Обводка_Bottom
  10
-59.3556
  20
33.8133
  42
0
  0
VERTEX
  8
Обводка_Bottom
  10
-59.2695
  20
33.6728
  42
0
  0
VERTEX
  8
Обводка_Bottom
  10
-59.1625
  20
33.5475
  42
0
  0
VERTEX
  8
Обводка_Bottom
  10
-59.0372
  20
33.4405
  42
0
  0
VERTEX
  8
Обводка_Bottom
  10
-58.8967
  20
33.3544
  42
0
  0
VERTEX
  8
Обводка_Bottom
  10
-58.7445
  20
33.2914
  42
0
  0
VERTEX
  8
Обводка_Bottom
  10
-58.5843
  20
33.2529
  42
0
  0
VERTEX
  8
Обводка_Bottom
  10
-58.42
  20
33.24
  42
0
  0
VERTEX
  8
Обводка_Bottom
  10
-58.2557
  20
33.2529
  42
0
  0
VERTEX
  8
Обводка_Bottom
  10
-58.0955
  20
33.2914
  42
0
  0
VERTEX
  8
Обводка_Bottom
  10
-57.9433
  20
33.3544
  42
0
  0
VERTEX
  8
Обводка_Bottom
  10
-57.8028
  20
33.4405
  42
0
  0
VERTEX
  8
Обводка_Bottom
  10
-57.6775
  20
33.5475
  42
0
  0
VERTEX
  8
Обводка_Bottom
  10
-57.5705
  20
33.6728
  42
0
  0
VERTEX
  8
Обводка_Bottom
  10
-57.4844
  20
33.8133
  42
0
  0
VERTEX
  8
Обводка_Bottom
  10
-57.4214
  20
33.9655
  42
0
  0
VERTEX
  8
Обводка_Bottom
  10
-57.3829
  20
34.1257
  42
0
  0
VERTEX
  8
Обводка_Bottom
  10
-57.37
  20
34.29
  42
0
  0
VERTEX
  8
Обводка_Bottom
  10
-57.3829
  20
34.4543
  42
0
  0
VERTEX
  8
Обводка_Bottom
  10
-57.4214
  20
34.6145
  42
0
  0
VERTEX
  8
Обводка_Bottom
  10
-57.4844
  20
34.7667
  42
0
  0
VERTEX
  8
Обводка_Bottom
  10
-57.5705
  20
34.9072
  42
0
  0
VERTEX
  8
Обводка_Bottom
  10
-57.6775
  20
35.0325
  42
0
  0
VERTEX
  8
Обводка_Bottom
  10
-57.8028
  20
35.1395
  42
0
  0
VERTEX
  8
Обводка_Bottom
  10
-57.9433
  20
35.2256
  42
0
  0
VERTEX
  8
Обводка_Bottom
  10
-58.0955
  20
35.2886
  42
0
  0
VERTEX
  8
Обводка_Bottom
  10
-58.2557
  20
35.3271
  42
0
  0
VERTEX
  8
Обводка_Bottom
  10
-58.42
  20
35.34
  42
0
  0
VERTEX
  8
Обводка_Bottom
  10
-58.5843
  20
35.3271
  42
0
  0
VERTEX
  8
Обводка_Bottom
  10
-58.7445
  20
35.2886
  42
0
  0
VERTEX
  8
Обводка_Bottom
  10
-58.8967
  20
35.2256
  42
0
  0
VERTEX
  8
Обводка_Bottom
  10
-59.0372
  20
35.1395
  42
0
  0
VERTEX
  8
Обводка_Bottom
  10
-59.1625
  20
35.0325
  42
0
  0
VERTEX
  8
Обводка_Bottom
  10
-59.2695
  20
34.9072
  42
0
  0
VERTEX
  8
Обводка_Bottom
  10
-59.3556
  20
34.7667
  42
0
  0
VERTEX
  8
Обводка_Bottom
  10
-59.4186
  20
34.6145
  42
0
  0
VERTEX
  8
Обводка_Bottom
  10
-59.4571
  20
34.4543
  42
0
  0
VERTEX
  8
Обводка_Bottom
  10
-59.47
  20
34.29
  42
0
  0
VERTEX
  8
Обводка_Bottom
  10
-59.4571
  20
34.1257
  42
0
  0
SEQEND
  0
POLYLINE
  8
Обводка_Bottom
  6
CONTINUOUS
  66
1
  70
0
  40
0.6
  41
0.6
  0
VERTEX
  8
Обводка_Bottom
  10
-59.4571
  20
31.5857
  42
0
  0
VERTEX
  8
Обводка_Bottom
  10
-59.4186
  20
31.4255
  42
0
  0
VERTEX
  8
Обводка_Bottom
  10
-59.3556
  20
31.2733
  42
0
  0
VERTEX
  8
Обводка_Bottom
  10
-59.2695
  20
31.1328
  42
0
  0
VERTEX
  8
Обводка_Bottom
  10
-59.1625
  20
31.0075
  42
0
  0
VERTEX
  8
Обводка_Bottom
  10
-59.0372
  20
30.9005
  42
0
  0
VERTEX
  8
Обводка_Bottom
  10
-58.8967
  20
30.8144
  42
0
  0
VERTEX
  8
Обводка_Bottom
  10
-58.7445
  20
30.7514
  42
0
  0
VERTEX
  8
Обводка_Bottom
  10
-58.5843
  20
30.7129
  42
0
  0
VERTEX
  8
Обводка_Bottom
  10
-58.42
  20
30.7
  42
0
  0
VERTEX
  8
Обводка_Bottom
  10
-58.2557
  20
30.7129
  42
0
  0
VERTEX
  8
Обводка_Bottom
  10
-58.0955
  20
30.7514
  42
0
  0
VERTEX
  8
Обводка_Bottom
  10
-57.9433
  20
30.8144
  42
0
  0
VERTEX
  8
Обводка_Bottom
  10
-57.8028
  20
30.9005
  42
0
  0
VERTEX
  8
Обводка_Bottom
  10
-57.6775
  20
31.0075
  42
0
  0
VERTEX
  8
Обводка_Bottom
  10
-57.5705
  20
31.1328
  42
0
  0
VERTEX
  8
Обводка_Bottom
  10
-57.4844
  20
31.2733
  42
0
  0
VERTEX
  8
Обводка_Bottom
  10
-57.4214
  20
31.4255
  42
0
  0
VERTEX
  8
Обводка_Bottom
  10
-57.3829
  20
31.5857
  42
0
  0
VERTEX
  8
Обводка_Bottom
  10
-57.37
  20
31.75
  42
0
  0
VERTEX
  8
Обводка_Bottom
  10
-57.3829
  20
31.9143
  42
0
  0
VERTEX
  8
Обводка_Bottom
  10
-57.4214
  20
32.0745
  42
0
  0
VERTEX
  8
Обводка_Bottom
  10
-57.4844
  20
32.2267
  42
0
  0
VERTEX
  8
Обводка_Bottom
  10
-57.5705
  20
32.3672
  42
0
  0
VERTEX
  8
Обводка_Bottom
  10
-57.6775
  20
32.4925
  42
0
  0
VERTEX
  8
Обводка_Bottom
  10
-57.8028
  20
32.5995
  42
0
  0
VERTEX
  8
Обводка_Bottom
  10
-57.9433
  20
32.6856
  42
0
  0
VERTEX
  8
Обводка_Bottom
  10
-58.0955
  20
32.7486
  42
0
  0
VERTEX
  8
Обводка_Bottom
  10
-58.2557
  20
32.7871
  42
0
  0
VERTEX
  8
Обводка_Bottom
  10
-58.42
  20
32.8
  42
0
  0
VERTEX
  8
Обводка_Bottom
  10
-58.5843
  20
32.7871
  42
0
  0
VERTEX
  8
Обводка_Bottom
  10
-58.7445
  20
32.7486
  42
0
  0
VERTEX
  8
Обводка_Bottom
  10
-58.8967
  20
32.6856
  42
0
  0
VERTEX
  8
Обводка_Bottom
  10
-59.0372
  20
32.5995
  42
0
  0
VERTEX
  8
Обводка_Bottom
  10
-59.1625
  20
32.4925
  42
0
  0
VERTEX
  8
Обводка_Bottom
  10
-59.2695
  20
32.3672
  42
0
  0
VERTEX
  8
Обводка_Bottom
  10
-59.3556
  20
32.2267
  42
0
  0
VERTEX
  8
Обводка_Bottom
  10
-59.4186
  20
32.0745
  42
0
  0
VERTEX
  8
Обводка_Bottom
  10
-59.4571
  20
31.9143
  42
0
  0
VERTEX
  8
Обводка_Bottom
  10
-59.47
  20
31.75
  42
0
  0
VERTEX
  8
Обводка_Bottom
  10
-59.4571
  20
31.5857
  42
0
  0
SEQEND
  0
POLYLINE
  8
Обводка_Bottom
  6
CONTINUOUS
  66
1
  70
0
  40
0.6
  41
0.6
  0
VERTEX
  8
Обводка_Bottom
  10
-59.4571
  20
29.0457
  42
0
  0
VERTEX
  8
Обводка_Bottom
  10
-59.4186
  20
28.8855
  42
0
  0
VERTEX
  8
Обводка_Bottom
  10
-59.3556
  20
28.7333
  42
0
  0
VERTEX
  8
Обводка_Bottom
  10
-59.2695
  20
28.5928
  42
0
  0
VERTEX
  8
Обводка_Bottom
  10
-59.1625
  20
28.4675
  42
0
  0
VERTEX
  8
Обводка_Bottom
  10
-59.0372
  20
28.3605
  42
0
  0
VERTEX
  8
Обводка_Bottom
  10
-58.8967
  20
28.2744
  42
0
  0
VERTEX
  8
Обводка_Bottom
  10
-58.7445
  20
28.2114
  42
0
  0
VERTEX
  8
Обводка_Bottom
  10
-58.5843
  20
28.1729
  42
0
  0
VERTEX
  8
Обводка_Bottom
  10
-58.42
  20
28.16
  42
0
  0
VERTEX
  8
Обводка_Bottom
  10
-58.2557
  20
28.1729
  42
0
  0
VERTEX
  8
Обводка_Bottom
  10
-58.0955
  20
28.2114
  42
0
  0
VERTEX
  8
Обводка_Bottom
  10
-57.9433
  20
28.2744
  42
0
  0
VERTEX
  8
Обводка_Bottom
  10
-57.8028
  20
28.3605
  42
0
  0
VERTEX
  8
Обводка_Bottom
  10
-57.6775
  20
28.4675
  42
0
  0
VERTEX
  8
Обводка_Bottom
  10
-57.5705
  20
28.5928
  42
0
  0
VERTEX
  8
Обводка_Bottom
  10
-57.4844
  20
28.7333
  42
0
  0
VERTEX
  8
Обводка_Bottom
  10
-57.4214
  20
28.8855
  42
0
  0
VERTEX
  8
Обводка_Bottom
  10
-57.3829
  20
29.0457
  42
0
  0
VERTEX
  8
Обводка_Bottom
  10
-57.37
  20
29.21
  42
0
  0
VERTEX
  8
Обводка_Bottom
  10
-57.3829
  20
29.3743
  42
0
  0
VERTEX
  8
Обводка_Bottom
  10
-57.4214
  20
29.5345
  42
0
  0
VERTEX
  8
Обводка_Bottom
  10
-57.4844
  20
29.6867
  42
0
  0
VERTEX
  8
Обводка_Bottom
  10
-57.5705
  20
29.8272
  42
0
  0
VERTEX
  8
Обводка_Bottom
  10
-57.6775
  20
29.9525
  42
0
  0
VERTEX
  8
Обводка_Bottom
  10
-57.8028
  20
30.0595
  42
0
  0
VERTEX
  8
Обводка_Bottom
  10
-57.9433
  20
30.1456
  42
0
  0
VERTEX
  8
Обводка_Bottom
  10
-58.0955
  20
30.2086
  42
0
  0
VERTEX
  8
Обводка_Bottom
  10
-58.2557
  20
30.2471
  42
0
  0
VERTEX
  8
Обводка_Bottom
  10
-58.42
  20
30.26
  42
0
  0
VERTEX
  8
Обводка_Bottom
  10
-58.5843
  20
30.2471
  42
0
  0
VERTEX
  8
Обводка_Bottom
  10
-58.7445
  20
30.2086
  42
0
  0
VERTEX
  8
Обводка_Bottom
  10
-58.8967
  20
30.1456
  42
0
  0
VERTEX
  8
Обводка_Bottom
  10
-59.0372
  20
30.0595
  42
0
  0
VERTEX
  8
Обводка_Bottom
  10
-59.1625
  20
29.9525
  42
0
  0
VERTEX
  8
Обводка_Bottom
  10
-59.2695
  20
29.8272
  42
0
  0
VERTEX
  8
Обводка_Bottom
  10
-59.3556
  20
29.6867
  42
0
  0
VERTEX
  8
Обводка_Bottom
  10
-59.4186
  20
29.5345
  42
0
  0
VERTEX
  8
Обводка_Bottom
  10
-59.4571
  20
29.3743
  42
0
  0
VERTEX
  8
Обводка_Bottom
  10
-59.47
  20
29.21
  42
0
  0
VERTEX
  8
Обводка_Bottom
  10
-59.4571
  20
29.0457
  42
0
  0
SEQEND
  0
POLYLINE
  8
Обводка_Bottom
  6
CONTINUOUS
  66
1
  70
0
  40
0.6
  41
0.6
  0
VERTEX
  8
Обводка_Bottom
  10
-59.4571
  20
26.5057
  42
0
  0
VERTEX
  8
Обводка_Bottom
  10
-59.4186
  20
26.3455
  42
0
  0
VERTEX
  8
Обводка_Bottom
  10
-59.3556
  20
26.1933
  42
0
  0
VERTEX
  8
Обводка_Bottom
  10
-59.2695
  20
26.0528
  42
0
  0
VERTEX
  8
Обводка_Bottom
  10
-59.1625
  20
25.9275
  42
0
  0
VERTEX
  8
Обводка_Bottom
  10
-59.0372
  20
25.8205
  42
0
  0
VERTEX
  8
Обводка_Bottom
  10
-58.8967
  20
25.7344
  42
0
  0
VERTEX
  8
Обводка_Bottom
  10
-58.7445
  20
25.6714
  42
0
  0
VERTEX
  8
Обводка_Bottom
  10
-58.5843
  20
25.6329
  42
0
  0
VERTEX
  8
Обводка_Bottom
  10
-58.42
  20
25.62
  42
0
  0
VERTEX
  8
Обводка_Bottom
  10
-58.2557
  20
25.6329
  42
0
  0
VERTEX
  8
Обводка_Bottom
  10
-58.0955
  20
25.6714
  42
0
  0
VERTEX
  8
Обводка_Bottom
  10
-57.9433
  20
25.7344
  42
0
  0
VERTEX
  8
Обводка_Bottom
  10
-57.8028
  20
25.8205
  42
0
  0
VERTEX
  8
Обводка_Bottom
  10
-57.6775
  20
25.9275
  42
0
  0
VERTEX
  8
Обводка_Bottom
  10
-57.5705
  20
26.0528
  42
0
  0
VERTEX
  8
Обводка_Bottom
  10
-57.4844
  20
26.1933
  42
0
  0
VERTEX
  8
Обводка_Bottom
  10
-57.4214
  20
26.3455
  42
0
  0
VERTEX
  8
Обводка_Bottom
  10
-57.3829
  20
26.5057
  42
0
  0
VERTEX
  8
Обводка_Bottom
  10
-57.37
  20
26.67
  42
0
  0
VERTEX
  8
Обводка_Bottom
  10
-57.3829
  20
26.8343
  42
0
  0
VERTEX
  8
Обводка_Bottom
  10
-57.4214
  20
26.9945
  42
0
  0
VERTEX
  8
Обводка_Bottom
  10
-57.4844
  20
27.1467
  42
0
  0
VERTEX
  8
Обводка_Bottom
  10
-57.5705
  20
27.2872
  42
0
  0
VERTEX
  8
Обводка_Bottom
  10
-57.6775
  20
27.4125
  42
0
  0
VERTEX
  8
Обводка_Bottom
  10
-57.8028
  20
27.5195
  42
0
  0
VERTEX
  8
Обводка_Bottom
  10
-57.9433
  20
27.6056
  42
0
  0
VERTEX
  8
Обводка_Bottom
  10
-58.0955
  20
27.6686
  42
0
  0
VERTEX
  8
Обводка_Bottom
  10
-58.2557
  20
27.7071
  42
0
  0
VERTEX
  8
Обводка_Bottom
  10
-58.42
  20
27.72
  42
0
  0
VERTEX
  8
Обводка_Bottom
  10
-58.5843
  20
27.7071
  42
0
  0
VERTEX
  8
Обводка_Bottom
  10
-58.7445
  20
27.6686
  42
0
  0
VERTEX
  8
Обводка_Bottom
  10
-58.8967
  20
27.6056
  42
0
  0
VERTEX
  8
Обводка_Bottom
  10
-59.0372
  20
27.5195
  42
0
  0
VERTEX
  8
Обводка_Bottom
  10
-59.1625
  20
27.4125
  42
0
  0
VERTEX
  8
Обводка_Bottom
  10
-59.2695
  20
27.2872
  42
0
  0
VERTEX
  8
Обводка_Bottom
  10
-59.3556
  20
27.1467
  42
0
  0
VERTEX
  8
Обводка_Bottom
  10
-59.4186
  20
26.9945
  42
0
  0
VERTEX
  8
Обводка_Bottom
  10
-59.4571
  20
26.8343
  42
0
  0
VERTEX
  8
Обводка_Bottom
  10
-59.47
  20
26.67
  42
0
  0
VERTEX
  8
Обводка_Bottom
  10
-59.4571
  20
26.5057
  42
0
  0
SEQEND
  0
POLYLINE
  8
Обводка_Bottom
  6
CONTINUOUS
  66
1
  70
0
  40
0.6
  41
0.6
  0
VERTEX
  8
Обводка_Bottom
  10
-23.66
  20
5.7597
  42
0
  0
VERTEX
  8
Обводка_Bottom
  10
-23.66
  20
8.89
  42
0
  0
VERTEX
  8
Обводка_Bottom
  10
-23.6502
  20
9.0151
  42
0
  0
VERTEX
  8
Обводка_Bottom
  10
-23.6208
  20
9.1372
  42
0
  0
VERTEX
  8
Обводка_Bottom
  10
-23.5728
  20
9.2532
  42
0
  0
VERTEX
  8
Обводка_Bottom
  10
-23.5072
  20
9.3602
  42
0
  0
VERTEX
  8
Обводка_Bottom
  10
-23.2873
  20
9.5941
  42
0
  0
VERTEX
  8
Обводка_Bottom
  10
-19.6157
  20
13.2657
  42
0
  0
VERTEX
  8
Обводка_Bottom
  10
-19.5202
  20
13.3472
  42
0
  0
VERTEX
  8
Обводка_Bottom
  10
-19.4132
  20
13.4128
  42
0
  0
VERTEX
  8
Обводка_Bottom
  10
-19.2972
  20
13.4608
  42
0
  0
VERTEX
  8
Обводка_Bottom
  10
-19.1751
  20
13.4902
  42
0
  0
VERTEX
  8
Обводка_Bottom
  10
-18.8676
  20
13.5
  42
0
  0
VERTEX
  8
Обводка_Bottom
  10
-1.27
  20
13.5
  42
0
  0
VERTEX
  8
Обводка_Bottom
  10
-1.1449
  20
13.4902
  42
0
  0
VERTEX
  8
Обводка_Bottom
  10
-1.0228
  20
13.4608
  42
0
  0
VERTEX
  8
Обводка_Bottom
  10
-0.9068
  20
13.4128
  42
0
  0
VERTEX
  8
Обводка_Bottom
  10
-0.7998
  20
13.3472
  42
0
  0
VERTEX
  8
Обводка_Bottom
  10
-0.7043
  20
13.2657
  42
0
  0
VERTEX
  8
Обводка_Bottom
  10
-0.6228
  20
13.1702
  42
0
  0
VERTEX
  8
Обводка_Bottom
  10
-0.5572
  20
13.0632
  42
0
  0
VERTEX
  8
Обводка_Bottom
  10
-0.5092
  20
12.9472
  42
0
  0
VERTEX
  8
Обводка_Bottom
  10
-0.4798
  20
12.8251
  42
0
  0
VERTEX
  8
Обводка_Bottom
  10
-0.47
  20
12.7
  42
0
  0
VERTEX
  8
Обводка_Bottom
  10
-0.4798
  20
12.5749
  42
0
  0
VERTEX
  8
Обводка_Bottom
  10
-0.5092
  20
12.4528
  42
0
  0
VERTEX
  8
Обводка_Bottom
  10
-0.5572
  20
12.3368
  42
0
  0
VERTEX
  8
Обводка_Bottom
  10
-0.6228
  20
12.2298
  42
0
  0
VERTEX
  8
Обводка_Bottom
  10
-0.7043
  20
12.1343
  42
0
  0
VERTEX
  8
Обводка_Bottom
  10
-0.7998
  20
12.0528
  42
0
  0
VERTEX
  8
Обводка_Bottom
  10
-0.9068
  20
11.9872
  42
0
  0
VERTEX
  8
Обводка_Bottom
  10
-1.0228
  20
11.9392
  42
0
  0
VERTEX
  8
Обводка_Bottom
  10
-1.1449
  20
11.9098
  42
0
  0
VERTEX
  8
Обводка_Bottom
  10
-1.4524
  20
11.9
  42
0
  0
VERTEX
  8
Обводка_Bottom
  10
-18.7183
  20
11.9003
  42
0
  0
VERTEX
  8
Обводка_Bottom
  10
-22.06
  20
8.5588
  42
0
  0
VERTEX
  8
Обводка_Bottom
  10
-22.0603
  20
5.7554
  42
0
  0
VERTEX
  8
Обводка_Bottom
  10
-22.0105
  20
5.6972
  42
0
  0
VERTEX
  8
Обводка_Bottom
  10
-21.9244
  20
5.5567
  42
0
  0
VERTEX
  8
Обводка_Bottom
  10
-21.8614
  20
5.4045
  42
0
  0
VERTEX
  8
Обводка_Bottom
  10
-21.8229
  20
5.2443
  42
0
  0
VERTEX
  8
Обводка_Bottom
  10
-21.81
  20
5.08
  42
0
  0
VERTEX
  8
Обводка_Bottom
  10
-21.8229
  20
4.9157
  42
0
  0
VERTEX
  8
Обводка_Bottom
  10
-21.8614
  20
4.7555
  42
0
  0
VERTEX
  8
Обводка_Bottom
  10
-21.9244
  20
4.6033
  42
0
  0
VERTEX
  8
Обводка_Bottom
  10
-22.0105
  20
4.4628
  42
0
  0
VERTEX
  8
Обводка_Bottom
  10
-22.1175
  20
4.3375
  42
0
  0
VERTEX
  8
Обводка_Bottom
  10
-22.2428
  20
4.2305
  42
0
  0
VERTEX
  8
Обводка_Bottom
  10
-22.3833
  20
4.1444
  42
0
  0
VERTEX
  8
Обводка_Bottom
  10
-22.5355
  20
4.0814
  42
0
  0
VERTEX
  8
Обводка_Bottom
  10
-22.6957
  20
4.0429
  42
0
  0
VERTEX
  8
Обводка_Bottom
  10
-22.86
  20
4.03
  42
0
  0
VERTEX
  8
Обводка_Bottom
  10
-23.0243
  20
4.0429
  42
0
  0
VERTEX
  8
Обводка_Bottom
  10
-23.1845
  20
4.0814
  42
0
  0
VERTEX
  8
Обводка_Bottom
  10
-23.3367
  20
4.1444
  42
0
  0
VERTEX
  8
Обводка_Bottom
  10
-23.4772
  20
4.2305
  42
0
  0
VERTEX
  8
Обводка_Bottom
  10
-23.6025
  20
4.3375
  42
0
  0
VERTEX
  8
Обводка_Bottom
  10
-23.7095
  20
4.4628
  42
0
  0
VERTEX
  8
Обводка_Bottom
  10
-23.7956
  20
4.6033
  42
0
  0
VERTEX
  8
Обводка_Bottom
  10
-23.8586
  20
4.7555
  42
0
  0
VERTEX
  8
Обводка_Bottom
  10
-23.8971
  20
4.9157
  42
0
  0
VERTEX
  8
Обводка_Bottom
  10
-23.91
  20
5.08
  42
0
  0
VERTEX
  8
Обводка_Bottom
  10
-23.8971
  20
5.2443
  42
0
  0
VERTEX
  8
Обводка_Bottom
  10
-23.8586
  20
5.4045
  42
0
  0
VERTEX
  8
Обводка_Bottom
  10
-23.7956
  20
5.5567
  42
0
  0
VERTEX
  8
Обводка_Bottom
  10
-23.7095
  20
5.6972
  42
0
  0
VERTEX
  8
Обводка_Bottom
  10
-23.6597
  20
5.7554
  42
0
  0
VERTEX
  8
Обводка_Bottom
  10
-23.66
  20
5.7597
  42
0
  0
SEQEND
  0
POLYLINE
  8
Обводка_Bottom
  6
CONTINUOUS
  66
1
  70
0
  40
0.6
  41
0.6
  0
VERTEX
  8
Обводка_Bottom
  10
-27.1396
  20
11.099
  42
0
  0
VERTEX
  8
Обводка_Bottom
  10
-21.2588
  20
16.98
  42
0
  0
VERTEX
  8
Обводка_Bottom
  10
-1.27
  20
16.98
  42
0
  0
VERTEX
  8
Обводка_Bottom
  10
-1.1449
  20
16.9898
  42
0
  0
VERTEX
  8
Обводка_Bottom
  10
-1.0228
  20
17.0192
  42
0
  0
VERTEX
  8
Обводка_Bottom
  10
-0.9068
  20
17.0672
  42
0
  0
VERTEX
  8
Обводка_Bottom
  10
-0.7998
  20
17.1328
  42
0
  0
VERTEX
  8
Обводка_Bottom
  10
-0.7043
  20
17.2143
  42
0
  0
VERTEX
  8
Обводка_Bottom
  10
-0.6228
  20
17.3098
  42
0
  0
VERTEX
  8
Обводка_Bottom
  10
-0.5572
  20
17.4168
  42
0
  0
VERTEX
  8
Обводка_Bottom
  10
-0.5092
  20
17.5328
  42
0
  0
VERTEX
  8
Обводка_Bottom
  10
-0.4798
  20
17.6549
  42
0
  0
VERTEX
  8
Обводка_Bottom
  10
-0.47
  20
17.78
  42
0
  0
VERTEX
  8
Обводка_Bottom
  10
-0.4798
  20
17.9051
  42
0
  0
VERTEX
  8
Обводка_Bottom
  10
-0.5092
  20
18.0272
  42
0
  0
VERTEX
  8
Обводка_Bottom
  10
-0.5572
  20
18.1432
  42
0
  0
VERTEX
  8
Обводка_Bottom
  10
-0.6228
  20
18.2502
  42
0
  0
VERTEX
  8
Обводка_Bottom
  10
-0.7043
  20
18.3457
  42
0
  0
VERTEX
  8
Обводка_Bottom
  10
-0.7998
  20
18.4272
  42
0
  0
VERTEX
  8
Обводка_Bottom
  10
-0.9068
  20
18.4928
  42
0
  0
VERTEX
  8
Обводка_Bottom
  10
-1.0228
  20
18.5408
  42
0
  0
VERTEX
  8
Обводка_Bottom
  10
-1.1449
  20
18.5702
  42
0
  0
VERTEX
  8
Обводка_Bottom
  10
-1.4692
  20
18.58
  42
0
  0
VERTEX
  8
Обводка_Bottom
  10
-21.59
  20
18.58
  42
0
  0
VERTEX
  8
Обводка_Bottom
  10
-21.7151
  20
18.5702
  42
0
  0
VERTEX
  8
Обводка_Bottom
  10
-21.8372
  20
18.5408
  42
0
  0
VERTEX
  8
Обводка_Bottom
  10
-21.9532
  20
18.4928
  42
0
  0
VERTEX
  8
Обводка_Bottom
  10
-22.0602
  20
18.4272
  42
0
  0
VERTEX
  8
Обводка_Bottom
  10
-22.2937
  20
18.2076
  42
0
  0
VERTEX
  8
Обводка_Bottom
  10
-28.5057
  20
11.9957
  42
0
  0
VERTEX
  8
Обводка_Bottom
  10
-28.5872
  20
11.9002
  42
0
  0
VERTEX
  8
Обводка_Bottom
  10
-28.6528
  20
11.7932
  42
0
  0
VERTEX
  8
Обводка_Bottom
  10
-28.7008
  20
11.6772
  42
0
  0
VERTEX
  8
Обводка_Bottom
  10
-28.7302
  20
11.5551
  42
0
  0
VERTEX
  8
Обводка_Bottom
  10
-28.74
  20
11.2486
  42
0
  0
VERTEX
  8
Обводка_Bottom
  10
-28.74
  20
8.89
  42
0
  0
VERTEX
  8
Обводка_Bottom
  10
-28.7302
  20
8.7649
  42
0
  0
VERTEX
  8
Обводка_Bottom
  10
-28.7008
  20
8.6428
  42
0
  0
VERTEX
  8
Обводка_Bottom
  10
-28.6528
  20
8.5268
  42
0
  0
VERTEX
  8
Обводка_Bottom
  10
-28.5872
  20
8.4198
  42
0
  0
VERTEX
  8
Обводка_Bottom
  10
-28.5057
  20
8.3243
  42
0
  0
VERTEX
  8
Обводка_Bottom
  10
-28.4102
  20
8.2428
  42
0
  0
VERTEX
  8
Обводка_Bottom
  10
-28.3032
  20
8.1772
  42
0
  0
VERTEX
  8
Обводка_Bottom
  10
-28.1872
  20
8.1292
  42
0
  0
VERTEX
  8
Обводка_Bottom
  10
-28.0651
  20
8.0998
  42
0
  0
VERTEX
  8
Обводка_Bottom
  10
-27.94
  20
8.09
  42
0
  0
VERTEX
  8
Обводка_Bottom
  10
-27.8149
  20
8.0998
  42
0
  0
VERTEX
  8
Обводка_Bottom
  10
-27.6928
  20
8.1292
  42
0
  0
VERTEX
  8
Обводка_Bottom
  10
-27.5768
  20
8.1772
  42
0
  0
VERTEX
  8
Обводка_Bottom
  10
-27.4698
  20
8.2428
  42
0
  0
VERTEX
  8
Обводка_Bottom
  10
-27.3743
  20
8.3243
  42
0
  0
VERTEX
  8
Обводка_Bottom
  10
-27.2928
  20
8.4198
  42
0
  0
VERTEX
  8
Обводка_Bottom
  10
-27.2272
  20
8.5268
  42
0
  0
VERTEX
  8
Обводка_Bottom
  10
-27.1792
  20
8.6428
  42
0
  0
VERTEX
  8
Обводка_Bottom
  10
-27.1498
  20
8.7649
  42
0
  0
VERTEX
  8
Обводка_Bottom
  10
-27.14
  20
9.0714
  42
0
  0
VERTEX
  8
Обводка_Bottom
  10
-27.14
  20
11.0988
  42
0
  0
VERTEX
  8
Обводка_Bottom
  10
-27.1396
  20
11.099
  42
0
  0
SEQEND
  0
POLYLINE
  8
Обводка_Bottom
  6
CONTINUOUS
  66
1
  70
0
  40
0.6
  41
0.6
  0
VERTEX
  8
Обводка_Bottom
  10
-31.28
  20
5.7596
  42
0
  0
VERTEX
  8
Обводка_Bottom
  10
-31.28
  20
12.7
  42
0
  0
VERTEX
  8
Обводка_Bottom
  10
-31.2702
  20
12.8251
  42
0
  0
VERTEX
  8
Обводка_Bottom
  10
-31.2408
  20
12.9472
  42
0
  0
VERTEX
  8
Обводка_Bottom
  10
-31.1928
  20
13.0632
  42
0
  0
VERTEX
  8
Обводка_Bottom
  10
-31.1272
  20
13.1702
  42
0
  0
VERTEX
  8
Обводка_Bottom
  10
-30.9207
  20
13.3907
  42
0
  0
VERTEX
  8
Обводка_Bottom
  10
-23.4257
  20
20.8857
  42
0
  0
VERTEX
  8
Обводка_Bottom
  10
-23.3302
  20
20.9672
  42
0
  0
VERTEX
  8
Обводка_Bottom
  10
-23.2232
  20
21.0328
  42
0
  0
VERTEX
  8
Обводка_Bottom
  10
-23.1072
  20
21.0808
  42
0
  0
VERTEX
  8
Обводка_Bottom
  10
-22.9851
  20
21.1102
  42
0
  0
VERTEX
  8
Обводка_Bottom
  10
-22.6699
  20
21.12
  42
0
  0
VERTEX
  8
Обводка_Bottom
  10
-1.27
  20
21.12
  42
0
  0
VERTEX
  8
Обводка_Bottom
  10
-1.1449
  20
21.1102
  42
0
  0
VERTEX
  8
Обводка_Bottom
  10
-1.0228
  20
21.0808
  42
0
  0
VERTEX
  8
Обводка_Bottom
  10
-0.9068
  20
21.0328
  42
0
  0
VERTEX
  8
Обводка_Bottom
  10
-0.7998
  20
20.9672
  42
0
  0
VERTEX
  8
Обводка_Bottom
  10
-0.7043
  20
20.8857
  42
0
  0
VERTEX
  8
Обводка_Bottom
  10
-0.6228
  20
20.7902
  42
0
  0
VERTEX
  8
Обводка_Bottom
  10
-0.5572
  20
20.6832
  42
0
  0
VERTEX
  8
Обводка_Bottom
  10
-0.5092
  20
20.5672
  42
0
  0
VERTEX
  8
Обводка_Bottom
  10
-0.4798
  20
20.4451
  42
0
  0
VERTEX
  8
Обводка_Bottom
  10
-0.47
  20
20.32
  42
0
  0
VERTEX
  8
Обводка_Bottom
  10
-0.4798
  20
20.1949
  42
0
  0
VERTEX
  8
Обводка_Bottom
  10
-0.5092
  20
20.0728
  42
0
  0
VERTEX
  8
Обводка_Bottom
  10
-0.5572
  20
19.9568
  42
0
  0
VERTEX
  8
Обводка_Bottom
  10
-0.6228
  20
19.8498
  42
0
  0
VERTEX
  8
Обводка_Bottom
  10
-0.7043
  20
19.7543
  42
0
  0
VERTEX
  8
Обводка_Bottom
  10
-0.7998
  20
19.6728
  42
0
  0
VERTEX
  8
Обводка_Bottom
  10
-0.9068
  20
19.6072
  42
0
  0
VERTEX
  8
Обводка_Bottom
  10
-1.0228
  20
19.5592
  42
0
  0
VERTEX
  8
Обводка_Bottom
  10
-1.1449
  20
19.5298
  42
0
  0
VERTEX
  8
Обводка_Bottom
  10
-1.4601
  20
19.52
  42
0
  0
VERTEX
  8
Обводка_Bottom
  10
-22.5281
  20
19.5205
  42
0
  0
VERTEX
  8
Обводка_Bottom
  10
-29.68
  20
12.3688
  42
0
  0
VERTEX
  8
Обводка_Bottom
  10
-29.6803
  20
5.7554
  42
0
  0
VERTEX
  8
Обводка_Bottom
  10
-29.6305
  20
5.6972
  42
0
  0
VERTEX
  8
Обводка_Bottom
  10
-29.5444
  20
5.5567
  42
0
  0
VERTEX
  8
Обводка_Bottom
  10
-29.4814
  20
5.4045
  42
0
  0
VERTEX
  8
Обводка_Bottom
  10
-29.4429
  20
5.2443
  42
0
  0
VERTEX
  8
Обводка_Bottom
  10
-29.43
  20
5.08
  42
0
  0
VERTEX
  8
Обводка_Bottom
  10
-29.4429
  20
4.9157
  42
0
  0
VERTEX
  8
Обводка_Bottom
  10
-29.4814
  20
4.7555
  42
0
  0
VERTEX
  8
Обводка_Bottom
  10
-29.5444
  20
4.6033
  42
0
  0
VERTEX
  8
Обводка_Bottom
  10
-29.6305
  20
4.4628
  42
0
  0
VERTEX
  8
Обводка_Bottom
  10
-29.7375
  20
4.3375
  42
0
  0
VERTEX
  8
Обводка_Bottom
  10
-29.8628
  20
4.2305
  42
0
  0
VERTEX
  8
Обводка_Bottom
  10
-30.0033
  20
4.1444
  42
0
  0
VERTEX
  8
Обводка_Bottom
  10
-30.1555
  20
4.0814
  42
0
  0
VERTEX
  8
Обводка_Bottom
  10
-30.3157
  20
4.0429
  42
0
  0
VERTEX
  8
Обводка_Bottom
  10
-30.48
  20
4.03
  42
0
  0
VERTEX
  8
Обводка_Bottom
  10
-30.6443
  20
4.0429
  42
0
  0
VERTEX
  8
Обводка_Bottom
  10
-30.8045
  20
4.0814
  42
0
  0
VERTEX
  8
Обводка_Bottom
  10
-30.9567
  20
4.1444
  42
0
  0
VERTEX
  8
Обводка_Bottom
  10
-31.0972
  20
4.2305
  42
0
  0
VERTEX
  8
Обводка_Bottom
  10
-31.2225
  20
4.3375
  42
0
  0
VERTEX
  8
Обводка_Bottom
  10
-31.3295
  20
4.4628
  42
0
  0
VERTEX
  8
Обводка_Bottom
  10
-31.4156
  20
4.6033
  42
0
  0
VERTEX
  8
Обводка_Bottom
  10
-31.4786
  20
4.7555
  42
0
  0
VERTEX
  8
Обводка_Bottom
  10
-31.5171
  20
4.9157
  42
0
  0
VERTEX
  8
Обводка_Bottom
  10
-31.53
  20
5.08
  42
0
  0
VERTEX
  8
Обводка_Bottom
  10
-31.5171
  20
5.2443
  42
0
  0
VERTEX
  8
Обводка_Bottom
  10
-31.4786
  20
5.4045
  42
0
  0
VERTEX
  8
Обводка_Bottom
  10
-31.4156
  20
5.5567
  42
0
  0
VERTEX
  8
Обводка_Bottom
  10
-31.3295
  20
5.6972
  42
0
  0
VERTEX
  8
Обводка_Bottom
  10
-31.2797
  20
5.7554
  42
0
  0
VERTEX
  8
Обводка_Bottom
  10
-31.28
  20
5.7596
  42
0
  0
SEQEND
  0
POLYLINE
  8
Обводка_Bottom
  6
CONTINUOUS
  66
1
  70
0
  40
0.6
  41
0.6
  0
VERTEX
  8
Обводка_Bottom
  10
-1.4699
  20
43.98
  42
0
  0
VERTEX
  8
Обводка_Bottom
  10
-22.86
  20
43.98
  42
0
  0
VERTEX
  8
Обводка_Bottom
  10
-22.9851
  20
43.9702
  42
0
  0
VERTEX
  8
Обводка_Bottom
  10
-23.1072
  20
43.9408
  42
0
  0
VERTEX
  8
Обводка_Bottom
  10
-23.2232
  20
43.8928
  42
0
  0
VERTEX
  8
Обводка_Bottom
  10
-23.3302
  20
43.8272
  42
0
  0
VERTEX
  8
Обводка_Bottom
  10
-23.4257
  20
43.7457
  42
0
  0
VERTEX
  8
Обводка_Bottom
  10
-23.5072
  20
43.6502
  42
0
  0
VERTEX
  8
Обводка_Bottom
  10
-23.5728
  20
43.5432
  42
0
  0
VERTEX
  8
Обводка_Bottom
  10
-23.6208
  20
43.4272
  42
0
  0
VERTEX
  8
Обводка_Bottom
  10
-23.6502
  20
43.3051
  42
0
  0
VERTEX
  8
Обводка_Bottom
  10
-23.66
  20
43.18
  42
0
  0
VERTEX
  8
Обводка_Bottom
  10
-23.6502
  20
43.0549
  42
0
  0
VERTEX
  8
Обводка_Bottom
  10
-23.6208
  20
42.9328
  42
0
  0
VERTEX
  8
Обводка_Bottom
  10
-23.5728
  20
42.8168
  42
0
  0
VERTEX
  8
Обводка_Bottom
  10
-23.5072
  20
42.7098
  42
0
  0
VERTEX
  8
Обводка_Bottom
  10
-23.4257
  20
42.6143
  42
0
  0
VERTEX
  8
Обводка_Bottom
  10
-23.3302
  20
42.5328
  42
0
  0
VERTEX
  8
Обводка_Bottom
  10
-23.2232
  20
42.4672
  42
0
  0
VERTEX
  8
Обводка_Bottom
  10
-23.1072
  20
42.4192
  42
0
  0
VERTEX
  8
Обводка_Bottom
  10
-22.9851
  20
42.3898
  42
0
  0
VERTEX
  8
Обводка_Bottom
  10
-22.6601
  20
42.38
  42
0
  0
VERTEX
  8
Обводка_Bottom
  10
-1.27
  20
42.38
  42
0
  0
VERTEX
  8
Обводка_Bottom
  10
-1.1449
  20
42.3898
  42
0
  0
VERTEX
  8
Обводка_Bottom
  10
-1.0228
  20
42.4192
  42
0
  0
VERTEX
  8
Обводка_Bottom
  10
-0.9068
  20
42.4672
  42
0
  0
VERTEX
  8
Обводка_Bottom
  10
-0.7998
  20
42.5328
  42
0
  0
VERTEX
  8
Обводка_Bottom
  10
-0.7043
  20
42.6143
  42
0
  0
VERTEX
  8
Обводка_Bottom
  10
-0.6228
  20
42.7098
  42
0
  0
VERTEX
  8
Обводка_Bottom
  10
-0.5572
  20
42.8168
  42
0
  0
VERTEX
  8
Обводка_Bottom
  10
-0.5092
  20
42.9328
  42
0
  0
VERTEX
  8
Обводка_Bottom
  10
-0.4798
  20
43.0549
  42
0
  0
VERTEX
  8
Обводка_Bottom
  10
-0.47
  20
43.18
  42
0
  0
VERTEX
  8
Обводка_Bottom
  10
-0.4798
  20
43.3051
  42
0
  0
VERTEX
  8
Обводка_Bottom
  10
-0.5092
  20
43.4272
  42
0
  0
VERTEX
  8
Обводка_Bottom
  10
-0.5572
  20
43.5432
  42
0
  0
VERTEX
  8
Обводка_Bottom
  10
-0.6228
  20
43.6502
  42
0
  0
VERTEX
  8
Обводка_Bottom
  10
-0.7043
  20
43.7457
  42
0
  0
VERTEX
  8
Обводка_Bottom
  10
-0.7998
  20
43.8272
  42
0
  0
VERTEX
  8
Обводка_Bottom
  10
-0.9068
  20
43.8928
  42
0
  0
VERTEX
  8
Обводка_Bottom
  10
-1.0228
  20
43.9408
  42
0
  0
VERTEX
  8
Обводка_Bottom
  10
-1.1449
  20
43.9702
  42
0
  0
VERTEX
  8
Обводка_Bottom
  10
-1.4699
  20
43.98
  42
0
  0
SEQEND
  0
POLYLINE
  8
Обводка_Bottom
  6
CONTINUOUS
  66
1
  70
0
  40
0.6
  41
0.6
  0
VERTEX
  8
Обводка_Bottom
  10
-23.0252
  20
52.6599
  42
0
  0
VERTEX
  8
Обводка_Bottom
  10
-23.0254
  20
49.5568
  42
0
  0
VERTEX
  8
Обводка_Bottom
  10
-22.5288
  20
49.06
  42
0
  0
VERTEX
  8
Обводка_Bottom
  10
-20.32
  20
49.06
  42
0
  0
VERTEX
  8
Обводка_Bottom
  10
-20.1949
  20
49.0502
  42
0
  0
VERTEX
  8
Обводка_Bottom
  10
-20.0728
  20
49.0208
  42
0
  0
VERTEX
  8
Обводка_Bottom
  10
-19.9568
  20
48.9728
  42
0
  0
VERTEX
  8
Обводка_Bottom
  10
-19.8498
  20
48.9072
  42
0
  0
VERTEX
  8
Обводка_Bottom
  10
-19.7543
  20
48.8257
  42
0
  0
VERTEX
  8
Обводка_Bottom
  10
-19.6728
  20
48.7302
  42
0
  0
VERTEX
  8
Обводка_Bottom
  10
-19.6072
  20
48.6232
  42
0
  0
VERTEX
  8
Обводка_Bottom
  10
-19.5592
  20
48.5072
  42
0
  0
VERTEX
  8
Обводка_Bottom
  10
-19.5298
  20
48.3851
  42
0
  0
VERTEX
  8
Обводка_Bottom
  10
-19.52
  20
48.26
  42
0
  0
VERTEX
  8
Обводка_Bottom
  10
-19.5298
  20
48.1349
  42
0
  0
VERTEX
  8
Обводка_Bottom
  10
-19.5592
  20
48.0128
  42
0
  0
VERTEX
  8
Обводка_Bottom
  10
-19.6072
  20
47.8968
  42
0
  0
VERTEX
  8
Обводка_Bottom
  10
-19.6728
  20
47.7898
  42
0
  0
VERTEX
  8
Обводка_Bottom
  10
-19.7543
  20
47.6943
  42
0
  0
VERTEX
  8
Обводка_Bottom
  10
-19.8498
  20
47.6128
  42
0
  0
VERTEX
  8
Обводка_Bottom
  10
-19.9568
  20
47.5472
  42
0
  0
VERTEX
  8
Обводка_Bottom
  10
-20.0728
  20
47.4992
  42
0
  0
VERTEX
  8
Обводка_Bottom
  10
-20.1949
  20
47.4698
  42
0
  0
VERTEX
  8
Обводка_Bottom
  10
-20.4786
  20
47.46
  42
0
  0
VERTEX
  8
Обводка_Bottom
  10
-22.86
  20
47.46
  42
0
  0
VERTEX
  8
Обводка_Bottom
  10
-22.9851
  20
47.4698
  42
0
  0
VERTEX
  8
Обводка_Bottom
  10
-23.1072
  20
47.4992
  42
0
  0
VERTEX
  8
Обводка_Bottom
  10
-23.2232
  20
47.5472
  42
0
  0
VERTEX
  8
Обводка_Bottom
  10
-23.3302
  20
47.6128
  42
0
  0
VERTEX
  8
Обводка_Bottom
  10
-23.5631
  20
47.8318
  42
0
  0
VERTEX
  8
Обводка_Bottom
  10
-24.3909
  20
48.6595
  42
0
  0
VERTEX
  8
Обводка_Bottom
  10
-24.4724
  20
48.755
  42
0
  0
VERTEX
  8
Обводка_Bottom
  10
-24.538
  20
48.862
  42
0
  0
VERTEX
  8
Обводка_Bottom
  10
-24.586
  20
48.978
  42
0
  0
VERTEX
  8
Обводка_Bottom
  10
-24.6154
  20
49.1001
  42
0
  0
VERTEX
  8
Обводка_Bottom
  10
-24.6252
  20
49.353
  42
0
  0
VERTEX
  8
Обводка_Bottom
  10
-24.6249
  20
52.6646
  42
0
  0
VERTEX
  8
Обводка_Bottom
  10
-24.6747
  20
52.7228
  42
0
  0
VERTEX
  8
Обводка_Bottom
  10
-24.7608
  20
52.8633
  42
0
  0
VERTEX
  8
Обводка_Bottom
  10
-24.8238
  20
53.0155
  42
0
  0
VERTEX
  8
Обводка_Bottom
  10
-24.8623
  20
53.1757
  42
0
  0
VERTEX
  8
Обводка_Bottom
  10
-24.8752
  20
53.34
  42
0
  0
VERTEX
  8
Обводка_Bottom
  10
-24.8623
  20
53.5043
  42
0
  0
VERTEX
  8
Обводка_Bottom
  10
-24.8238
  20
53.6645
  42
0
  0
VERTEX
  8
Обводка_Bottom
  10
-24.7608
  20
53.8167
  42
0
  0
VERTEX
  8
Обводка_Bottom
  10
-24.6747
  20
53.9572
  42
0
  0
VERTEX
  8
Обводка_Bottom
  10
-24.5677
  20
54.0825
  42
0
  0
VERTEX
  8
Обводка_Bottom
  10
-24.4424
  20
54.1895
  42
0
  0
VERTEX
  8
Обводка_Bottom
  10
-24.3019
  20
54.2756
  42
0
  0
VERTEX
  8
Обводка_Bottom
  10
-24.1497
  20
54.3386
  42
0
  0
VERTEX
  8
Обводка_Bottom
  10
-23.9895
  20
54.3771
  42
0
  0
VERTEX
  8
Обводка_Bottom
  10
-23.8252
  20
54.39
  42
0
  0
VERTEX
  8
Обводка_Bottom
  10
-23.6609
  20
54.3771
  42
0
  0
VERTEX
  8
Обводка_Bottom
  10
-23.5007
  20
54.3386
  42
0
  0
VERTEX
  8
Обводка_Bottom
  10
-23.3485
  20
54.2756
  42
0
  0
VERTEX
  8
Обводка_Bottom
  10
-23.208
  20
54.1895
  42
0
  0
VERTEX
  8
Обводка_Bottom
  10
-23.0827
  20
54.0825
  42
0
  0
VERTEX
  8
Обводка_Bottom
  10
-22.9757
  20
53.9572
  42
0
  0
VERTEX
  8
Обводка_Bottom
  10
-22.8896
  20
53.8167
  42
0
  0
VERTEX
  8
Обводка_Bottom
  10
-22.8266
  20
53.6645
  42
0
  0
VERTEX
  8
Обводка_Bottom
  10
-22.7881
  20
53.5043
  42
0
  0
VERTEX
  8
Обводка_Bottom
  10
-22.7752
  20
53.34
  42
0
  0
VERTEX
  8
Обводка_Bottom
  10
-22.7881
  20
53.1757
  42
0
  0
VERTEX
  8
Обводка_Bottom
  10
-22.8266
  20
53.0155
  42
0
  0
VERTEX
  8
Обводка_Bottom
  10
-22.8896
  20
52.8633
  42
0
  0
VERTEX
  8
Обводка_Bottom
  10
-22.9757
  20
52.7228
  42
0
  0
VERTEX
  8
Обводка_Bottom
  10
-23.0255
  20
52.6646
  42
0
  0
VERTEX
  8
Обводка_Bottom
  10
-23.0252
  20
52.6599
  42
0
  0
SEQEND
  0
ENDSEC
  0
EOF
