M48
METRIC,0000.00
T01C0.9
%
T01
X+003302Y+000508
X+003048Y+000508
X+003048Y+000254
X+002794Y+000254
X+002794Y+000508
X+002540Y+000508
X+002286Y+000508
X+002032Y+000508
X+001778Y+000508
X+001524Y+000508
X+002540Y+000254
X+003556Y+000508
X+003810Y+000508
X+004318Y+000508
X+004572Y+000508
X+004826Y+000508
X+005080Y+000508
X+005334Y+000508
X+005588Y+000508
X+005842Y+000508
X+006096Y+000508
X+005842Y+002667
X+005842Y+002921
X+005842Y+003175
X+005842Y+003429
X+005588Y+005334
X+005334Y+005334
X+005080Y+005334
X+004826Y+005334
X+004572Y+005334
X+004318Y+005334
X+004064Y+005334
X+003810Y+005334
X+003399Y+005334
X+003145Y+005334
X+002891Y+005334
X+002637Y+005334
X+002383Y+005334
X+002129Y+005334
X+001875Y+005334
X+001334Y+005334
T00
M30
