  0
SECTION
  2
HEADER
  9
$ACADVER
  1
AC1009
  9
$ANGDIR
  70
0
  9
$CECOLOR
  62
256
  9
$CELTYPE
  6
BYLAYER
  9
$EXTMIN
  10
0.0
  20
0.0
  9
$EXTMAX
  10
64.77
  20
58.42
  9
$FILLMODE
  70
1
  9
$MIRRTEXT
  70
0
  0
ENDSEC
  0
SECTION
  2
TABLES
  0
TABLE
  2
LAYER
  70
23
  0
LAYER
  2
Обводка_Top
  70
64
  62
22
  6
CONTINUOUS
  0
ENDTAB
  0
ENDSEC
  0
SECTION
  2
ENTITIES
  0
POLYLINE
  8
Обводка_Top
  6
CONTINUOUS
  66
1
  70
0
  40
1.0
  41
1.0
  0
VERTEX
  8
Обводка_Top
  10
29.19
  20
5.6425
  42
0
  0
VERTEX
  8
Обводка_Top
  10
29.19
  20
1.79
  42
0
  0
VERTEX
  8
Обводка_Top
  10
29.1746
  20
1.5945
  42
0
  0
VERTEX
  8
Обводка_Top
  10
29.1288
  20
1.4037
  42
0
  0
VERTEX
  8
Обводка_Top
  10
29.0538
  20
1.2225
  42
0
  0
VERTEX
  8
Обводка_Top
  10
28.9513
  20
1.0553
  42
0
  0
VERTEX
  8
Обводка_Top
  10
28.8239
  20
0.9061
  42
0
  0
VERTEX
  8
Обводка_Top
  10
28.6747
  20
0.7787
  42
0
  0
VERTEX
  8
Обводка_Top
  10
28.5075
  20
0.6762
  42
0
  0
VERTEX
  8
Обводка_Top
  10
28.3263
  20
0.6012
  42
0
  0
VERTEX
  8
Обводка_Top
  10
28.1355
  20
0.5554
  42
0
  0
VERTEX
  8
Обводка_Top
  10
27.94
  20
0.54
  42
0
  0
VERTEX
  8
Обводка_Top
  10
27.7445
  20
0.5554
  42
0
  0
VERTEX
  8
Обводка_Top
  10
27.5537
  20
0.6012
  42
0
  0
VERTEX
  8
Обводка_Top
  10
27.3725
  20
0.6762
  42
0
  0
VERTEX
  8
Обводка_Top
  10
27.2053
  20
0.7787
  42
0
  0
VERTEX
  8
Обводка_Top
  10
27.0561
  20
0.9061
  42
0
  0
VERTEX
  8
Обводка_Top
  10
26.9287
  20
1.0553
  42
0
  0
VERTEX
  8
Обводка_Top
  10
26.8262
  20
1.2225
  42
0
  0
VERTEX
  8
Обводка_Top
  10
26.7512
  20
1.4037
  42
0
  0
VERTEX
  8
Обводка_Top
  10
26.7054
  20
1.5945
  42
0
  0
VERTEX
  8
Обводка_Top
  10
26.69
  20
1.79
  42
0
  0
VERTEX
  8
Обводка_Top
  10
26.69
  20
5.83
  42
0
  0
VERTEX
  8
Обводка_Top
  10
26.7054
  20
6.0255
  42
0
  0
VERTEX
  8
Обводка_Top
  10
26.7512
  20
6.2163
  42
0
  0
VERTEX
  8
Обводка_Top
  10
26.8262
  20
6.3975
  42
0
  0
VERTEX
  8
Обводка_Top
  10
26.9287
  20
6.5647
  42
0
  0
VERTEX
  8
Обводка_Top
  10
27.0561
  20
6.7139
  42
0
  0
VERTEX
  8
Обводка_Top
  10
27.2053
  20
6.8413
  42
0
  0
VERTEX
  8
Обводка_Top
  10
27.3725
  20
6.9438
  42
0
  0
VERTEX
  8
Обводка_Top
  10
27.5537
  20
7.0188
  42
0
  0
VERTEX
  8
Обводка_Top
  10
27.7445
  20
7.0646
  42
0
  0
VERTEX
  8
Обводка_Top
  10
27.94
  20
7.08
  42
0
  0
VERTEX
  8
Обводка_Top
  10
28.1355
  20
7.0646
  42
0
  0
VERTEX
  8
Обводка_Top
  10
28.3263
  20
7.0188
  42
0
  0
VERTEX
  8
Обводка_Top
  10
28.5075
  20
6.9438
  42
0
  0
VERTEX
  8
Обводка_Top
  10
28.6747
  20
6.8413
  42
0
  0
VERTEX
  8
Обводка_Top
  10
28.8239
  20
6.7139
  42
0
  0
VERTEX
  8
Обводка_Top
  10
28.9513
  20
6.5647
  42
0
  0
VERTEX
  8
Обводка_Top
  10
29.0538
  20
6.3975
  42
0
  0
VERTEX
  8
Обводка_Top
  10
29.1288
  20
6.2163
  42
0
  0
VERTEX
  8
Обводка_Top
  10
29.1746
  20
6.0255
  42
0
  0
VERTEX
  8
Обводка_Top
  10
29.19
  20
5.83
  42
0
  0
VERTEX
  8
Обводка_Top
  10
29.19
  20
5.6425
  42
0
  0
SEQEND
  0
POLYLINE
  8
Обводка_Top
  6
CONTINUOUS
  66
1
  70
0
  40
1.0
  41
1.0
  0
VERTEX
  8
Обводка_Top
  10
24.35
  20
6.33
  42
0
  0
VERTEX
  8
Обводка_Top
  10
26.65
  20
6.33
  42
0
  0
VERTEX
  8
Обводка_Top
  10
26.65
  20
3.83
  42
0
  0
VERTEX
  8
Обводка_Top
  10
24.15
  20
3.83
  42
0
  0
VERTEX
  8
Обводка_Top
  10
24.15
  20
6.33
  42
0
  0
VERTEX
  8
Обводка_Top
  10
24.35
  20
6.33
  42
0
  0
SEQEND
  0
POLYLINE
  8
Обводка_Top
  6
CONTINUOUS
  66
1
  70
0
  40
1.0
  41
1.0
  0
VERTEX
  8
Обводка_Top
  10
24.11
  20
5.6425
  42
0
  0
VERTEX
  8
Обводка_Top
  10
24.11
  20
4.33
  42
0
  0
VERTEX
  8
Обводка_Top
  10
24.0946
  20
4.1345
  42
0
  0
VERTEX
  8
Обводка_Top
  10
24.0488
  20
3.9437
  42
0
  0
VERTEX
  8
Обводка_Top
  10
23.9738
  20
3.7625
  42
0
  0
VERTEX
  8
Обводка_Top
  10
23.8713
  20
3.5953
  42
0
  0
VERTEX
  8
Обводка_Top
  10
23.7439
  20
3.4461
  42
0
  0
VERTEX
  8
Обводка_Top
  10
23.5947
  20
3.3187
  42
0
  0
VERTEX
  8
Обводка_Top
  10
23.4275
  20
3.2162
  42
0
  0
VERTEX
  8
Обводка_Top
  10
23.2463
  20
3.1412
  42
0
  0
VERTEX
  8
Обводка_Top
  10
23.0555
  20
3.0954
  42
0
  0
VERTEX
  8
Обводка_Top
  10
22.86
  20
3.08
  42
0
  0
VERTEX
  8
Обводка_Top
  10
22.6645
  20
3.0954
  42
0
  0
VERTEX
  8
Обводка_Top
  10
22.4737
  20
3.1412
  42
0
  0
VERTEX
  8
Обводка_Top
  10
22.2925
  20
3.2162
  42
0
  0
VERTEX
  8
Обводка_Top
  10
22.1253
  20
3.3187
  42
0
  0
VERTEX
  8
Обводка_Top
  10
21.9761
  20
3.4461
  42
0
  0
VERTEX
  8
Обводка_Top
  10
21.8487
  20
3.5953
  42
0
  0
VERTEX
  8
Обводка_Top
  10
21.7462
  20
3.7625
  42
0
  0
VERTEX
  8
Обводка_Top
  10
21.6712
  20
3.9437
  42
0
  0
VERTEX
  8
Обводка_Top
  10
21.6254
  20
4.1345
  42
0
  0
VERTEX
  8
Обводка_Top
  10
21.61
  20
4.33
  42
0
  0
VERTEX
  8
Обводка_Top
  10
21.61
  20
5.83
  42
0
  0
VERTEX
  8
Обводка_Top
  10
21.6254
  20
6.0255
  42
0
  0
VERTEX
  8
Обводка_Top
  10
21.6712
  20
6.2163
  42
0
  0
VERTEX
  8
Обводка_Top
  10
21.7462
  20
6.3975
  42
0
  0
VERTEX
  8
Обводка_Top
  10
21.8487
  20
6.5647
  42
0
  0
VERTEX
  8
Обводка_Top
  10
21.9761
  20
6.7139
  42
0
  0
VERTEX
  8
Обводка_Top
  10
22.1253
  20
6.8413
  42
0
  0
VERTEX
  8
Обводка_Top
  10
22.2925
  20
6.9438
  42
0
  0
VERTEX
  8
Обводка_Top
  10
22.4737
  20
7.0188
  42
0
  0
VERTEX
  8
Обводка_Top
  10
22.6645
  20
7.0646
  42
0
  0
VERTEX
  8
Обводка_Top
  10
22.86
  20
7.08
  42
0
  0
VERTEX
  8
Обводка_Top
  10
23.0555
  20
7.0646
  42
0
  0
VERTEX
  8
Обводка_Top
  10
23.2463
  20
7.0188
  42
0
  0
VERTEX
  8
Обводка_Top
  10
23.4275
  20
6.9438
  42
0
  0
VERTEX
  8
Обводка_Top
  10
23.5947
  20
6.8413
  42
0
  0
VERTEX
  8
Обводка_Top
  10
23.7439
  20
6.7139
  42
0
  0
VERTEX
  8
Обводка_Top
  10
23.8713
  20
6.5647
  42
0
  0
VERTEX
  8
Обводка_Top
  10
23.9738
  20
6.3975
  42
0
  0
VERTEX
  8
Обводка_Top
  10
24.0488
  20
6.2163
  42
0
  0
VERTEX
  8
Обводка_Top
  10
24.0946
  20
6.0255
  42
0
  0
VERTEX
  8
Обводка_Top
  10
24.11
  20
5.83
  42
0
  0
VERTEX
  8
Обводка_Top
  10
24.11
  20
5.6425
  42
0
  0
SEQEND
  0
POLYLINE
  8
Обводка_Top
  6
CONTINUOUS
  66
1
  70
0
  40
1.0
  41
1.0
  0
VERTEX
  8
Обводка_Top
  10
21.57
  20
5.6425
  42
0
  0
VERTEX
  8
Обводка_Top
  10
21.57
  20
4.33
  42
0
  0
VERTEX
  8
Обводка_Top
  10
21.5546
  20
4.1345
  42
0
  0
VERTEX
  8
Обводка_Top
  10
21.5088
  20
3.9437
  42
0
  0
VERTEX
  8
Обводка_Top
  10
21.4338
  20
3.7625
  42
0
  0
VERTEX
  8
Обводка_Top
  10
21.3313
  20
3.5953
  42
0
  0
VERTEX
  8
Обводка_Top
  10
21.2039
  20
3.4461
  42
0
  0
VERTEX
  8
Обводка_Top
  10
21.0547
  20
3.3187
  42
0
  0
VERTEX
  8
Обводка_Top
  10
20.8875
  20
3.2162
  42
0
  0
VERTEX
  8
Обводка_Top
  10
20.7063
  20
3.1412
  42
0
  0
VERTEX
  8
Обводка_Top
  10
20.5155
  20
3.0954
  42
0
  0
VERTEX
  8
Обводка_Top
  10
20.32
  20
3.08
  42
0
  0
VERTEX
  8
Обводка_Top
  10
20.1245
  20
3.0954
  42
0
  0
VERTEX
  8
Обводка_Top
  10
19.9337
  20
3.1412
  42
0
  0
VERTEX
  8
Обводка_Top
  10
19.7525
  20
3.2162
  42
0
  0
VERTEX
  8
Обводка_Top
  10
19.5853
  20
3.3187
  42
0
  0
VERTEX
  8
Обводка_Top
  10
19.4361
  20
3.4461
  42
0
  0
VERTEX
  8
Обводка_Top
  10
19.3087
  20
3.5953
  42
0
  0
VERTEX
  8
Обводка_Top
  10
19.2062
  20
3.7625
  42
0
  0
VERTEX
  8
Обводка_Top
  10
19.1312
  20
3.9437
  42
0
  0
VERTEX
  8
Обводка_Top
  10
19.0854
  20
4.1345
  42
0
  0
VERTEX
  8
Обводка_Top
  10
19.07
  20
4.33
  42
0
  0
VERTEX
  8
Обводка_Top
  10
19.07
  20
5.83
  42
0
  0
VERTEX
  8
Обводка_Top
  10
19.0854
  20
6.0255
  42
0
  0
VERTEX
  8
Обводка_Top
  10
19.1312
  20
6.2163
  42
0
  0
VERTEX
  8
Обводка_Top
  10
19.2062
  20
6.3975
  42
0
  0
VERTEX
  8
Обводка_Top
  10
19.3087
  20
6.5647
  42
0
  0
VERTEX
  8
Обводка_Top
  10
19.4361
  20
6.7139
  42
0
  0
VERTEX
  8
Обводка_Top
  10
19.5853
  20
6.8413
  42
0
  0
VERTEX
  8
Обводка_Top
  10
19.7525
  20
6.9438
  42
0
  0
VERTEX
  8
Обводка_Top
  10
19.9337
  20
7.0188
  42
0
  0
VERTEX
  8
Обводка_Top
  10
20.1245
  20
7.0646
  42
0
  0
VERTEX
  8
Обводка_Top
  10
20.32
  20
7.08
  42
0
  0
VERTEX
  8
Обводка_Top
  10
20.5155
  20
7.0646
  42
0
  0
VERTEX
  8
Обводка_Top
  10
20.7063
  20
7.0188
  42
0
  0
VERTEX
  8
Обводка_Top
  10
20.8875
  20
6.9438
  42
0
  0
VERTEX
  8
Обводка_Top
  10
21.0547
  20
6.8413
  42
0
  0
VERTEX
  8
Обводка_Top
  10
21.2039
  20
6.7139
  42
0
  0
VERTEX
  8
Обводка_Top
  10
21.3313
  20
6.5647
  42
0
  0
VERTEX
  8
Обводка_Top
  10
21.4338
  20
6.3975
  42
0
  0
VERTEX
  8
Обводка_Top
  10
21.5088
  20
6.2163
  42
0
  0
VERTEX
  8
Обводка_Top
  10
21.5546
  20
6.0255
  42
0
  0
VERTEX
  8
Обводка_Top
  10
21.57
  20
5.83
  42
0
  0
VERTEX
  8
Обводка_Top
  10
21.57
  20
5.6425
  42
0
  0
SEQEND
  0
POLYLINE
  8
Обводка_Top
  6
CONTINUOUS
  66
1
  70
0
  40
1.0
  41
1.0
  0
VERTEX
  8
Обводка_Top
  10
44.43
  20
5.205
  42
0
  0
VERTEX
  8
Обводка_Top
  10
44.43
  20
4.83
  42
0
  0
VERTEX
  8
Обводка_Top
  10
44.4146
  20
4.6345
  42
0
  0
VERTEX
  8
Обводка_Top
  10
44.3688
  20
4.4437
  42
0
  0
VERTEX
  8
Обводка_Top
  10
44.2938
  20
4.2625
  42
0
  0
VERTEX
  8
Обводка_Top
  10
44.1913
  20
4.0953
  42
0
  0
VERTEX
  8
Обводка_Top
  10
44.0639
  20
3.9461
  42
0
  0
VERTEX
  8
Обводка_Top
  10
43.9147
  20
3.8187
  42
0
  0
VERTEX
  8
Обводка_Top
  10
43.7475
  20
3.7162
  42
0
  0
VERTEX
  8
Обводка_Top
  10
43.5663
  20
3.6412
  42
0
  0
VERTEX
  8
Обводка_Top
  10
43.3755
  20
3.5954
  42
0
  0
VERTEX
  8
Обводка_Top
  10
43.18
  20
3.58
  42
0
  0
VERTEX
  8
Обводка_Top
  10
42.9845
  20
3.5954
  42
0
  0
VERTEX
  8
Обводка_Top
  10
42.7937
  20
3.6412
  42
0
  0
VERTEX
  8
Обводка_Top
  10
42.6125
  20
3.7162
  42
0
  0
VERTEX
  8
Обводка_Top
  10
42.4453
  20
3.8187
  42
0
  0
VERTEX
  8
Обводка_Top
  10
42.2961
  20
3.9461
  42
0
  0
VERTEX
  8
Обводка_Top
  10
42.1687
  20
4.0953
  42
0
  0
VERTEX
  8
Обводка_Top
  10
42.0662
  20
4.2625
  42
0
  0
VERTEX
  8
Обводка_Top
  10
41.9912
  20
4.4437
  42
0
  0
VERTEX
  8
Обводка_Top
  10
41.9731
  20
4.519
  42
0
  0
VERTEX
  8
Обводка_Top
  10
38.8527
  20
7.6396
  42
0
  0
VERTEX
  8
Обводка_Top
  10
1.27
  20
7.64
  42
0
  0
VERTEX
  8
Обводка_Top
  10
1.0745
  20
7.6554
  42
0
  0
VERTEX
  8
Обводка_Top
  10
0.8837
  20
7.7012
  42
0
  0
VERTEX
  8
Обводка_Top
  10
0.7025
  20
7.7762
  42
0
  0
VERTEX
  8
Обводка_Top
  10
0.5353
  20
7.8787
  42
0
  0
VERTEX
  8
Обводка_Top
  10
0.3861
  20
8.0061
  42
0
  0
VERTEX
  8
Обводка_Top
  10
0.2587
  20
8.1553
  42
0
  0
VERTEX
  8
Обводка_Top
  10
0.1562
  20
8.3225
  42
0
  0
VERTEX
  8
Обводка_Top
  10
0.0812
  20
8.5037
  42
0
  0
VERTEX
  8
Обводка_Top
  10
0.0354
  20
8.6945
  42
0
  0
VERTEX
  8
Обводка_Top
  10
0.02
  20
8.89
  42
0
  0
VERTEX
  8
Обводка_Top
  10
0.0354
  20
9.0855
  42
0
  0
VERTEX
  8
Обводка_Top
  10
0.0812
  20
9.2763
  42
0
  0
VERTEX
  8
Обводка_Top
  10
0.1562
  20
9.4575
  42
0
  0
VERTEX
  8
Обводка_Top
  10
0.2587
  20
9.6247
  42
0
  0
VERTEX
  8
Обводка_Top
  10
0.3861
  20
9.7739
  42
0
  0
VERTEX
  8
Обводка_Top
  10
0.5353
  20
9.9013
  42
0
  0
VERTEX
  8
Обводка_Top
  10
0.7025
  20
10.0038
  42
0
  0
VERTEX
  8
Обводка_Top
  10
0.8837
  20
10.0788
  42
0
  0
VERTEX
  8
Обводка_Top
  10
1.0745
  20
10.1246
  42
0
  0
VERTEX
  8
Обводка_Top
  10
1.27
  20
10.14
  42
0
  0
VERTEX
  8
Обводка_Top
  10
39.37
  20
10.14
  42
0
  0
VERTEX
  8
Обводка_Top
  10
39.5655
  20
10.1246
  42
0
  0
VERTEX
  8
Обводка_Top
  10
39.7563
  20
10.0788
  42
0
  0
VERTEX
  8
Обводка_Top
  10
39.9375
  20
10.0038
  42
0
  0
VERTEX
  8
Обводка_Top
  10
40.1047
  20
9.9013
  42
0
  0
VERTEX
  8
Обводка_Top
  10
40.2539
  20
9.7739
  42
0
  0
VERTEX
  8
Обводка_Top
  10
43.4852
  20
6.5426
  42
0
  0
VERTEX
  8
Обводка_Top
  10
43.7475
  20
6.4438
  42
0
  0
VERTEX
  8
Обводка_Top
  10
43.9147
  20
6.3413
  42
0
  0
VERTEX
  8
Обводка_Top
  10
44.0639
  20
6.2139
  42
0
  0
VERTEX
  8
Обводка_Top
  10
44.1913
  20
6.0647
  42
0
  0
VERTEX
  8
Обводка_Top
  10
44.2938
  20
5.8975
  42
0
  0
VERTEX
  8
Обводка_Top
  10
44.3688
  20
5.7163
  42
0
  0
VERTEX
  8
Обводка_Top
  10
44.4146
  20
5.5255
  42
0
  0
VERTEX
  8
Обводка_Top
  10
44.43
  20
5.205
  42
0
  0
SEQEND
  0
POLYLINE
  8
Обводка_Top
  6
CONTINUOUS
  66
1
  70
0
  40
1.0
  41
1.0
  0
VERTEX
  8
Обводка_Top
  10
35.2352
  20
53.9025
  42
0
  0
VERTEX
  8
Обводка_Top
  10
35.2352
  20
52.59
  42
0
  0
VERTEX
  8
Обводка_Top
  10
35.2198
  20
52.3945
  42
0
  0
VERTEX
  8
Обводка_Top
  10
35.174
  20
52.2037
  42
0
  0
VERTEX
  8
Обводка_Top
  10
35.099
  20
52.0225
  42
0
  0
VERTEX
  8
Обводка_Top
  10
34.9965
  20
51.8553
  42
0
  0
VERTEX
  8
Обводка_Top
  10
34.8691
  20
51.7061
  42
0
  0
VERTEX
  8
Обводка_Top
  10
34.7199
  20
51.5787
  42
0
  0
VERTEX
  8
Обводка_Top
  10
34.5527
  20
51.4762
  42
0
  0
VERTEX
  8
Обводка_Top
  10
34.3715
  20
51.4012
  42
0
  0
VERTEX
  8
Обводка_Top
  10
34.1807
  20
51.3554
  42
0
  0
VERTEX
  8
Обводка_Top
  10
33.9852
  20
51.34
  42
0
  0
VERTEX
  8
Обводка_Top
  10
33.7897
  20
51.3554
  42
0
  0
VERTEX
  8
Обводка_Top
  10
33.5989
  20
51.4012
  42
0
  0
VERTEX
  8
Обводка_Top
  10
33.4177
  20
51.4762
  42
0
  0
VERTEX
  8
Обводка_Top
  10
33.2505
  20
51.5787
  42
0
  0
VERTEX
  8
Обводка_Top
  10
33.1013
  20
51.7061
  42
0
  0
VERTEX
  8
Обводка_Top
  10
32.9739
  20
51.8553
  42
0
  0
VERTEX
  8
Обводка_Top
  10
32.8714
  20
52.0225
  42
0
  0
VERTEX
  8
Обводка_Top
  10
32.7964
  20
52.2037
  42
0
  0
VERTEX
  8
Обводка_Top
  10
32.7506
  20
52.3945
  42
0
  0
VERTEX
  8
Обводка_Top
  10
32.7352
  20
52.59
  42
0
  0
VERTEX
  8
Обводка_Top
  10
32.7352
  20
54.09
  42
0
  0
VERTEX
  8
Обводка_Top
  10
32.7506
  20
54.2855
  42
0
  0
VERTEX
  8
Обводка_Top
  10
32.7964
  20
54.4763
  42
0
  0
VERTEX
  8
Обводка_Top
  10
32.8714
  20
54.6575
  42
0
  0
VERTEX
  8
Обводка_Top
  10
32.9739
  20
54.8247
  42
0
  0
VERTEX
  8
Обводка_Top
  10
33.1013
  20
54.9739
  42
0
  0
VERTEX
  8
Обводка_Top
  10
33.2505
  20
55.1013
  42
0
  0
VERTEX
  8
Обводка_Top
  10
33.4177
  20
55.2038
  42
0
  0
VERTEX
  8
Обводка_Top
  10
33.5989
  20
55.2788
  42
0
  0
VERTEX
  8
Обводка_Top
  10
33.7897
  20
55.3246
  42
0
  0
VERTEX
  8
Обводка_Top
  10
33.9852
  20
55.34
  42
0
  0
VERTEX
  8
Обводка_Top
  10
34.1807
  20
55.3246
  42
0
  0
VERTEX
  8
Обводка_Top
  10
34.3715
  20
55.2788
  42
0
  0
VERTEX
  8
Обводка_Top
  10
34.5527
  20
55.2038
  42
0
  0
VERTEX
  8
Обводка_Top
  10
34.7199
  20
55.1013
  42
0
  0
VERTEX
  8
Обводка_Top
  10
34.8691
  20
54.9739
  42
0
  0
VERTEX
  8
Обводка_Top
  10
34.9965
  20
54.8247
  42
0
  0
VERTEX
  8
Обводка_Top
  10
35.099
  20
54.6575
  42
0
  0
VERTEX
  8
Обводка_Top
  10
35.174
  20
54.4763
  42
0
  0
VERTEX
  8
Обводка_Top
  10
35.2198
  20
54.2855
  42
0
  0
VERTEX
  8
Обводка_Top
  10
35.2352
  20
54.09
  42
0
  0
VERTEX
  8
Обводка_Top
  10
35.2352
  20
53.9025
  42
0
  0
SEQEND
  0
POLYLINE
  8
Обводка_Top
  6
CONTINUOUS
  66
1
  70
0
  40
1.0
  41
1.0
  0
VERTEX
  8
Обводка_Top
  10
32.6952
  20
53.9025
  42
0
  0
VERTEX
  8
Обводка_Top
  10
32.6952
  20
52.59
  42
0
  0
VERTEX
  8
Обводка_Top
  10
32.6798
  20
52.3945
  42
0
  0
VERTEX
  8
Обводка_Top
  10
32.634
  20
52.2037
  42
0
  0
VERTEX
  8
Обводка_Top
  10
32.559
  20
52.0225
  42
0
  0
VERTEX
  8
Обводка_Top
  10
32.4565
  20
51.8553
  42
0
  0
VERTEX
  8
Обводка_Top
  10
32.3291
  20
51.7061
  42
0
  0
VERTEX
  8
Обводка_Top
  10
32.1799
  20
51.5787
  42
0
  0
VERTEX
  8
Обводка_Top
  10
32.0127
  20
51.4762
  42
0
  0
VERTEX
  8
Обводка_Top
  10
31.8315
  20
51.4012
  42
0
  0
VERTEX
  8
Обводка_Top
  10
31.6407
  20
51.3554
  42
0
  0
VERTEX
  8
Обводка_Top
  10
31.4452
  20
51.34
  42
0
  0
VERTEX
  8
Обводка_Top
  10
31.2497
  20
51.3554
  42
0
  0
VERTEX
  8
Обводка_Top
  10
31.0589
  20
51.4012
  42
0
  0
VERTEX
  8
Обводка_Top
  10
30.8777
  20
51.4762
  42
0
  0
VERTEX
  8
Обводка_Top
  10
30.7105
  20
51.5787
  42
0
  0
VERTEX
  8
Обводка_Top
  10
30.5613
  20
51.7061
  42
0
  0
VERTEX
  8
Обводка_Top
  10
30.4339
  20
51.8553
  42
0
  0
VERTEX
  8
Обводка_Top
  10
30.3314
  20
52.0225
  42
0
  0
VERTEX
  8
Обводка_Top
  10
30.2564
  20
52.2037
  42
0
  0
VERTEX
  8
Обводка_Top
  10
30.2106
  20
52.3945
  42
0
  0
VERTEX
  8
Обводка_Top
  10
30.1952
  20
52.59
  42
0
  0
VERTEX
  8
Обводка_Top
  10
30.1952
  20
54.09
  42
0
  0
VERTEX
  8
Обводка_Top
  10
30.2106
  20
54.2855
  42
0
  0
VERTEX
  8
Обводка_Top
  10
30.2564
  20
54.4763
  42
0
  0
VERTEX
  8
Обводка_Top
  10
30.3314
  20
54.6575
  42
0
  0
VERTEX
  8
Обводка_Top
  10
30.4339
  20
54.8247
  42
0
  0
VERTEX
  8
Обводка_Top
  10
30.5613
  20
54.9739
  42
0
  0
VERTEX
  8
Обводка_Top
  10
30.7105
  20
55.1013
  42
0
  0
VERTEX
  8
Обводка_Top
  10
30.8777
  20
55.2038
  42
0
  0
VERTEX
  8
Обводка_Top
  10
31.0589
  20
55.2788
  42
0
  0
VERTEX
  8
Обводка_Top
  10
31.2497
  20
55.3246
  42
0
  0
VERTEX
  8
Обводка_Top
  10
31.4452
  20
55.34
  42
0
  0
VERTEX
  8
Обводка_Top
  10
31.6407
  20
55.3246
  42
0
  0
VERTEX
  8
Обводка_Top
  10
31.8315
  20
55.2788
  42
0
  0
VERTEX
  8
Обводка_Top
  10
32.0127
  20
55.2038
  42
0
  0
VERTEX
  8
Обводка_Top
  10
32.1799
  20
55.1013
  42
0
  0
VERTEX
  8
Обводка_Top
  10
32.3291
  20
54.9739
  42
0
  0
VERTEX
  8
Обводка_Top
  10
32.4565
  20
54.8247
  42
0
  0
VERTEX
  8
Обводка_Top
  10
32.559
  20
54.6575
  42
0
  0
VERTEX
  8
Обводка_Top
  10
32.634
  20
54.4763
  42
0
  0
VERTEX
  8
Обводка_Top
  10
32.6798
  20
54.2855
  42
0
  0
VERTEX
  8
Обводка_Top
  10
32.6952
  20
54.09
  42
0
  0
VERTEX
  8
Обводка_Top
  10
32.6952
  20
53.9025
  42
0
  0
SEQEND
  0
POLYLINE
  8
Обводка_Top
  6
CONTINUOUS
  66
1
  70
0
  40
1.0
  41
1.0
  0
VERTEX
  8
Обводка_Top
  10
30.1552
  20
53.9025
  42
0
  0
VERTEX
  8
Обводка_Top
  10
30.1552
  20
52.59
  42
0
  0
VERTEX
  8
Обводка_Top
  10
30.1398
  20
52.3945
  42
0
  0
VERTEX
  8
Обводка_Top
  10
30.094
  20
52.2037
  42
0
  0
VERTEX
  8
Обводка_Top
  10
30.019
  20
52.0225
  42
0
  0
VERTEX
  8
Обводка_Top
  10
29.9165
  20
51.8553
  42
0
  0
VERTEX
  8
Обводка_Top
  10
29.7891
  20
51.7061
  42
0
  0
VERTEX
  8
Обводка_Top
  10
29.6399
  20
51.5787
  42
0
  0
VERTEX
  8
Обводка_Top
  10
29.4727
  20
51.4762
  42
0
  0
VERTEX
  8
Обводка_Top
  10
29.2915
  20
51.4012
  42
0
  0
VERTEX
  8
Обводка_Top
  10
29.1007
  20
51.3554
  42
0
  0
VERTEX
  8
Обводка_Top
  10
28.9052
  20
51.34
  42
0
  0
VERTEX
  8
Обводка_Top
  10
28.7097
  20
51.3554
  42
0
  0
VERTEX
  8
Обводка_Top
  10
28.5189
  20
51.4012
  42
0
  0
VERTEX
  8
Обводка_Top
  10
28.3377
  20
51.4762
  42
0
  0
VERTEX
  8
Обводка_Top
  10
28.1705
  20
51.5787
  42
0
  0
VERTEX
  8
Обводка_Top
  10
28.0213
  20
51.7061
  42
0
  0
VERTEX
  8
Обводка_Top
  10
27.8939
  20
51.8553
  42
0
  0
VERTEX
  8
Обводка_Top
  10
27.7914
  20
52.0225
  42
0
  0
VERTEX
  8
Обводка_Top
  10
27.7164
  20
52.2037
  42
0
  0
VERTEX
  8
Обводка_Top
  10
27.6706
  20
52.3945
  42
0
  0
VERTEX
  8
Обводка_Top
  10
27.6552
  20
52.59
  42
0
  0
VERTEX
  8
Обводка_Top
  10
27.6552
  20
54.09
  42
0
  0
VERTEX
  8
Обводка_Top
  10
27.6706
  20
54.2855
  42
0
  0
VERTEX
  8
Обводка_Top
  10
27.7164
  20
54.4763
  42
0
  0
VERTEX
  8
Обводка_Top
  10
27.7914
  20
54.6575
  42
0
  0
VERTEX
  8
Обводка_Top
  10
27.8939
  20
54.8247
  42
0
  0
VERTEX
  8
Обводка_Top
  10
28.0213
  20
54.9739
  42
0
  0
VERTEX
  8
Обводка_Top
  10
28.1705
  20
55.1013
  42
0
  0
VERTEX
  8
Обводка_Top
  10
28.3377
  20
55.2038
  42
0
  0
VERTEX
  8
Обводка_Top
  10
28.5189
  20
55.2788
  42
0
  0
VERTEX
  8
Обводка_Top
  10
28.7097
  20
55.3246
  42
0
  0
VERTEX
  8
Обводка_Top
  10
28.9052
  20
55.34
  42
0
  0
VERTEX
  8
Обводка_Top
  10
29.1007
  20
55.3246
  42
0
  0
VERTEX
  8
Обводка_Top
  10
29.2915
  20
55.2788
  42
0
  0
VERTEX
  8
Обводка_Top
  10
29.4727
  20
55.2038
  42
0
  0
VERTEX
  8
Обводка_Top
  10
29.6399
  20
55.1013
  42
0
  0
VERTEX
  8
Обводка_Top
  10
29.7891
  20
54.9739
  42
0
  0
VERTEX
  8
Обводка_Top
  10
29.9165
  20
54.8247
  42
0
  0
VERTEX
  8
Обводка_Top
  10
30.019
  20
54.6575
  42
0
  0
VERTEX
  8
Обводка_Top
  10
30.094
  20
54.4763
  42
0
  0
VERTEX
  8
Обводка_Top
  10
30.1398
  20
54.2855
  42
0
  0
VERTEX
  8
Обводка_Top
  10
30.1552
  20
54.09
  42
0
  0
VERTEX
  8
Обводка_Top
  10
30.1552
  20
53.9025
  42
0
  0
SEQEND
  0
POLYLINE
  8
Обводка_Top
  6
CONTINUOUS
  66
1
  70
0
  40
1.0
  41
1.0
  0
VERTEX
  8
Обводка_Top
  10
27.6152
  20
53.9025
  42
0
  0
VERTEX
  8
Обводка_Top
  10
27.6152
  20
52.59
  42
0
  0
VERTEX
  8
Обводка_Top
  10
27.5998
  20
52.3945
  42
0
  0
VERTEX
  8
Обводка_Top
  10
27.554
  20
52.2037
  42
0
  0
VERTEX
  8
Обводка_Top
  10
27.479
  20
52.0225
  42
0
  0
VERTEX
  8
Обводка_Top
  10
27.3765
  20
51.8553
  42
0
  0
VERTEX
  8
Обводка_Top
  10
27.2491
  20
51.7061
  42
0
  0
VERTEX
  8
Обводка_Top
  10
27.0999
  20
51.5787
  42
0
  0
VERTEX
  8
Обводка_Top
  10
26.9327
  20
51.4762
  42
0
  0
VERTEX
  8
Обводка_Top
  10
26.7515
  20
51.4012
  42
0
  0
VERTEX
  8
Обводка_Top
  10
26.5607
  20
51.3554
  42
0
  0
VERTEX
  8
Обводка_Top
  10
26.3652
  20
51.34
  42
0
  0
VERTEX
  8
Обводка_Top
  10
26.1697
  20
51.3554
  42
0
  0
VERTEX
  8
Обводка_Top
  10
25.9789
  20
51.4012
  42
0
  0
VERTEX
  8
Обводка_Top
  10
25.7977
  20
51.4762
  42
0
  0
VERTEX
  8
Обводка_Top
  10
25.6305
  20
51.5787
  42
0
  0
VERTEX
  8
Обводка_Top
  10
25.4813
  20
51.7061
  42
0
  0
VERTEX
  8
Обводка_Top
  10
25.3539
  20
51.8553
  42
0
  0
VERTEX
  8
Обводка_Top
  10
25.2514
  20
52.0225
  42
0
  0
VERTEX
  8
Обводка_Top
  10
25.1764
  20
52.2037
  42
0
  0
VERTEX
  8
Обводка_Top
  10
25.1306
  20
52.3945
  42
0
  0
VERTEX
  8
Обводка_Top
  10
25.1152
  20
52.59
  42
0
  0
VERTEX
  8
Обводка_Top
  10
25.1152
  20
54.09
  42
0
  0
VERTEX
  8
Обводка_Top
  10
25.1306
  20
54.2855
  42
0
  0
VERTEX
  8
Обводка_Top
  10
25.1764
  20
54.4763
  42
0
  0
VERTEX
  8
Обводка_Top
  10
25.2514
  20
54.6575
  42
0
  0
VERTEX
  8
Обводка_Top
  10
25.3539
  20
54.8247
  42
0
  0
VERTEX
  8
Обводка_Top
  10
25.4813
  20
54.9739
  42
0
  0
VERTEX
  8
Обводка_Top
  10
25.6305
  20
55.1013
  42
0
  0
VERTEX
  8
Обводка_Top
  10
25.7977
  20
55.2038
  42
0
  0
VERTEX
  8
Обводка_Top
  10
25.9789
  20
55.2788
  42
0
  0
VERTEX
  8
Обводка_Top
  10
26.1697
  20
55.3246
  42
0
  0
VERTEX
  8
Обводка_Top
  10
26.3652
  20
55.34
  42
0
  0
VERTEX
  8
Обводка_Top
  10
26.5607
  20
55.3246
  42
0
  0
VERTEX
  8
Обводка_Top
  10
26.7515
  20
55.2788
  42
0
  0
VERTEX
  8
Обводка_Top
  10
26.9327
  20
55.2038
  42
0
  0
VERTEX
  8
Обводка_Top
  10
27.0999
  20
55.1013
  42
0
  0
VERTEX
  8
Обводка_Top
  10
27.2491
  20
54.9739
  42
0
  0
VERTEX
  8
Обводка_Top
  10
27.3765
  20
54.8247
  42
0
  0
VERTEX
  8
Обводка_Top
  10
27.479
  20
54.6575
  42
0
  0
VERTEX
  8
Обводка_Top
  10
27.554
  20
54.4763
  42
0
  0
VERTEX
  8
Обводка_Top
  10
27.5998
  20
54.2855
  42
0
  0
VERTEX
  8
Обводка_Top
  10
27.6152
  20
54.09
  42
0
  0
VERTEX
  8
Обводка_Top
  10
27.6152
  20
53.9025
  42
0
  0
SEQEND
  0
POLYLINE
  8
Обводка_Top
  6
CONTINUOUS
  66
1
  70
0
  40
1.0
  41
1.0
  0
VERTEX
  8
Обводка_Top
  10
25.0752
  20
53.9025
  42
0
  0
VERTEX
  8
Обводка_Top
  10
25.0752
  20
52.59
  42
0
  0
VERTEX
  8
Обводка_Top
  10
25.0598
  20
52.3945
  42
0
  0
VERTEX
  8
Обводка_Top
  10
25.014
  20
52.2037
  42
0
  0
VERTEX
  8
Обводка_Top
  10
24.939
  20
52.0225
  42
0
  0
VERTEX
  8
Обводка_Top
  10
24.8365
  20
51.8553
  42
0
  0
VERTEX
  8
Обводка_Top
  10
24.7091
  20
51.7061
  42
0
  0
VERTEX
  8
Обводка_Top
  10
24.5599
  20
51.5787
  42
0
  0
VERTEX
  8
Обводка_Top
  10
24.3927
  20
51.4762
  42
0
  0
VERTEX
  8
Обводка_Top
  10
24.2115
  20
51.4012
  42
0
  0
VERTEX
  8
Обводка_Top
  10
24.0207
  20
51.3554
  42
0
  0
VERTEX
  8
Обводка_Top
  10
23.8252
  20
51.34
  42
0
  0
VERTEX
  8
Обводка_Top
  10
23.6297
  20
51.3554
  42
0
  0
VERTEX
  8
Обводка_Top
  10
23.4389
  20
51.4012
  42
0
  0
VERTEX
  8
Обводка_Top
  10
23.2577
  20
51.4762
  42
0
  0
VERTEX
  8
Обводка_Top
  10
23.0905
  20
51.5787
  42
0
  0
VERTEX
  8
Обводка_Top
  10
22.9413
  20
51.7061
  42
0
  0
VERTEX
  8
Обводка_Top
  10
22.8139
  20
51.8553
  42
0
  0
VERTEX
  8
Обводка_Top
  10
22.7114
  20
52.0225
  42
0
  0
VERTEX
  8
Обводка_Top
  10
22.6364
  20
52.2037
  42
0
  0
VERTEX
  8
Обводка_Top
  10
22.5906
  20
52.3945
  42
0
  0
VERTEX
  8
Обводка_Top
  10
22.5752
  20
52.59
  42
0
  0
VERTEX
  8
Обводка_Top
  10
22.5752
  20
54.09
  42
0
  0
VERTEX
  8
Обводка_Top
  10
22.5906
  20
54.2855
  42
0
  0
VERTEX
  8
Обводка_Top
  10
22.6364
  20
54.4763
  42
0
  0
VERTEX
  8
Обводка_Top
  10
22.7114
  20
54.6575
  42
0
  0
VERTEX
  8
Обводка_Top
  10
22.8139
  20
54.8247
  42
0
  0
VERTEX
  8
Обводка_Top
  10
22.9413
  20
54.9739
  42
0
  0
VERTEX
  8
Обводка_Top
  10
23.0905
  20
55.1013
  42
0
  0
VERTEX
  8
Обводка_Top
  10
23.2577
  20
55.2038
  42
0
  0
VERTEX
  8
Обводка_Top
  10
23.4389
  20
55.2788
  42
0
  0
VERTEX
  8
Обводка_Top
  10
23.6297
  20
55.3246
  42
0
  0
VERTEX
  8
Обводка_Top
  10
23.8252
  20
55.34
  42
0
  0
VERTEX
  8
Обводка_Top
  10
24.0207
  20
55.3246
  42
0
  0
VERTEX
  8
Обводка_Top
  10
24.2115
  20
55.2788
  42
0
  0
VERTEX
  8
Обводка_Top
  10
24.3927
  20
55.2038
  42
0
  0
VERTEX
  8
Обводка_Top
  10
24.5599
  20
55.1013
  42
0
  0
VERTEX
  8
Обводка_Top
  10
24.7091
  20
54.9739
  42
0
  0
VERTEX
  8
Обводка_Top
  10
24.8365
  20
54.8247
  42
0
  0
VERTEX
  8
Обводка_Top
  10
24.939
  20
54.6575
  42
0
  0
VERTEX
  8
Обводка_Top
  10
25.014
  20
54.4763
  42
0
  0
VERTEX
  8
Обводка_Top
  10
25.0598
  20
54.2855
  42
0
  0
VERTEX
  8
Обводка_Top
  10
25.0752
  20
54.09
  42
0
  0
VERTEX
  8
Обводка_Top
  10
25.0752
  20
53.9025
  42
0
  0
SEQEND
  0
POLYLINE
  8
Обводка_Top
  6
CONTINUOUS
  66
1
  70
0
  40
1.0
  41
1.0
  0
VERTEX
  8
Обводка_Top
  10
22.5352
  20
53.9025
  42
0
  0
VERTEX
  8
Обводка_Top
  10
22.5352
  20
52.59
  42
0
  0
VERTEX
  8
Обводка_Top
  10
22.5198
  20
52.3945
  42
0
  0
VERTEX
  8
Обводка_Top
  10
22.474
  20
52.2037
  42
0
  0
VERTEX
  8
Обводка_Top
  10
22.399
  20
52.0225
  42
0
  0
VERTEX
  8
Обводка_Top
  10
22.2965
  20
51.8553
  42
0
  0
VERTEX
  8
Обводка_Top
  10
22.1691
  20
51.7061
  42
0
  0
VERTEX
  8
Обводка_Top
  10
22.0199
  20
51.5787
  42
0
  0
VERTEX
  8
Обводка_Top
  10
21.8527
  20
51.4762
  42
0
  0
VERTEX
  8
Обводка_Top
  10
21.6715
  20
51.4012
  42
0
  0
VERTEX
  8
Обводка_Top
  10
21.4807
  20
51.3554
  42
0
  0
VERTEX
  8
Обводка_Top
  10
21.2852
  20
51.34
  42
0
  0
VERTEX
  8
Обводка_Top
  10
21.0897
  20
51.3554
  42
0
  0
VERTEX
  8
Обводка_Top
  10
20.8989
  20
51.4012
  42
0
  0
VERTEX
  8
Обводка_Top
  10
20.7177
  20
51.4762
  42
0
  0
VERTEX
  8
Обводка_Top
  10
20.5505
  20
51.5787
  42
0
  0
VERTEX
  8
Обводка_Top
  10
20.4013
  20
51.7061
  42
0
  0
VERTEX
  8
Обводка_Top
  10
20.2739
  20
51.8553
  42
0
  0
VERTEX
  8
Обводка_Top
  10
20.1714
  20
52.0225
  42
0
  0
VERTEX
  8
Обводка_Top
  10
20.0964
  20
52.2037
  42
0
  0
VERTEX
  8
Обводка_Top
  10
20.0506
  20
52.3945
  42
0
  0
VERTEX
  8
Обводка_Top
  10
20.0352
  20
52.59
  42
0
  0
VERTEX
  8
Обводка_Top
  10
20.0352
  20
54.09
  42
0
  0
VERTEX
  8
Обводка_Top
  10
20.0506
  20
54.2855
  42
0
  0
VERTEX
  8
Обводка_Top
  10
20.0964
  20
54.4763
  42
0
  0
VERTEX
  8
Обводка_Top
  10
20.1714
  20
54.6575
  42
0
  0
VERTEX
  8
Обводка_Top
  10
20.2739
  20
54.8247
  42
0
  0
VERTEX
  8
Обводка_Top
  10
20.4013
  20
54.9739
  42
0
  0
VERTEX
  8
Обводка_Top
  10
20.5505
  20
55.1013
  42
0
  0
VERTEX
  8
Обводка_Top
  10
20.7177
  20
55.2038
  42
0
  0
VERTEX
  8
Обводка_Top
  10
20.8989
  20
55.2788
  42
0
  0
VERTEX
  8
Обводка_Top
  10
21.0897
  20
55.3246
  42
0
  0
VERTEX
  8
Обводка_Top
  10
21.2852
  20
55.34
  42
0
  0
VERTEX
  8
Обводка_Top
  10
21.4807
  20
55.3246
  42
0
  0
VERTEX
  8
Обводка_Top
  10
21.6715
  20
55.2788
  42
0
  0
VERTEX
  8
Обводка_Top
  10
21.8527
  20
55.2038
  42
0
  0
VERTEX
  8
Обводка_Top
  10
22.0199
  20
55.1013
  42
0
  0
VERTEX
  8
Обводка_Top
  10
22.1691
  20
54.9739
  42
0
  0
VERTEX
  8
Обводка_Top
  10
22.2965
  20
54.8247
  42
0
  0
VERTEX
  8
Обводка_Top
  10
22.399
  20
54.6575
  42
0
  0
VERTEX
  8
Обводка_Top
  10
22.474
  20
54.4763
  42
0
  0
VERTEX
  8
Обводка_Top
  10
22.5198
  20
54.2855
  42
0
  0
VERTEX
  8
Обводка_Top
  10
22.5352
  20
54.09
  42
0
  0
VERTEX
  8
Обводка_Top
  10
22.5352
  20
53.9025
  42
0
  0
SEQEND
  0
POLYLINE
  8
Обводка_Top
  6
CONTINUOUS
  66
1
  70
0
  40
1.0
  41
1.0
  0
VERTEX
  8
Обводка_Top
  10
19.9952
  20
53.9025
  42
0
  0
VERTEX
  8
Обводка_Top
  10
19.9952
  20
52.59
  42
0
  0
VERTEX
  8
Обводка_Top
  10
19.9798
  20
52.3945
  42
0
  0
VERTEX
  8
Обводка_Top
  10
19.934
  20
52.2037
  42
0
  0
VERTEX
  8
Обводка_Top
  10
19.859
  20
52.0225
  42
0
  0
VERTEX
  8
Обводка_Top
  10
19.7565
  20
51.8553
  42
0
  0
VERTEX
  8
Обводка_Top
  10
19.6291
  20
51.7061
  42
0
  0
VERTEX
  8
Обводка_Top
  10
19.4799
  20
51.5787
  42
0
  0
VERTEX
  8
Обводка_Top
  10
19.3127
  20
51.4762
  42
0
  0
VERTEX
  8
Обводка_Top
  10
19.1315
  20
51.4012
  42
0
  0
VERTEX
  8
Обводка_Top
  10
18.9407
  20
51.3554
  42
0
  0
VERTEX
  8
Обводка_Top
  10
18.7452
  20
51.34
  42
0
  0
VERTEX
  8
Обводка_Top
  10
18.5497
  20
51.3554
  42
0
  0
VERTEX
  8
Обводка_Top
  10
18.3589
  20
51.4012
  42
0
  0
VERTEX
  8
Обводка_Top
  10
18.1777
  20
51.4762
  42
0
  0
VERTEX
  8
Обводка_Top
  10
18.0105
  20
51.5787
  42
0
  0
VERTEX
  8
Обводка_Top
  10
17.8613
  20
51.7061
  42
0
  0
VERTEX
  8
Обводка_Top
  10
17.7339
  20
51.8553
  42
0
  0
VERTEX
  8
Обводка_Top
  10
17.6314
  20
52.0225
  42
0
  0
VERTEX
  8
Обводка_Top
  10
17.6036
  20
52.0898
  42
0
  0
VERTEX
  8
Обводка_Top
  10
12.085
  20
52.09
  42
0
  0
VERTEX
  8
Обводка_Top
  10
12.085
  20
54.59
  42
0
  0
VERTEX
  8
Обводка_Top
  10
17.5993
  20
54.59
  42
0
  0
VERTEX
  8
Обводка_Top
  10
17.7339
  20
54.8247
  42
0
  0
VERTEX
  8
Обводка_Top
  10
17.8613
  20
54.9739
  42
0
  0
VERTEX
  8
Обводка_Top
  10
18.0105
  20
55.1013
  42
0
  0
VERTEX
  8
Обводка_Top
  10
18.1777
  20
55.2038
  42
0
  0
VERTEX
  8
Обводка_Top
  10
18.3589
  20
55.2788
  42
0
  0
VERTEX
  8
Обводка_Top
  10
18.5497
  20
55.3246
  42
0
  0
VERTEX
  8
Обводка_Top
  10
18.7452
  20
55.34
  42
0
  0
VERTEX
  8
Обводка_Top
  10
18.9407
  20
55.3246
  42
0
  0
VERTEX
  8
Обводка_Top
  10
19.1315
  20
55.2788
  42
0
  0
VERTEX
  8
Обводка_Top
  10
19.3127
  20
55.2038
  42
0
  0
VERTEX
  8
Обводка_Top
  10
19.4799
  20
55.1013
  42
0
  0
VERTEX
  8
Обводка_Top
  10
19.6291
  20
54.9739
  42
0
  0
VERTEX
  8
Обводка_Top
  10
19.7565
  20
54.8247
  42
0
  0
VERTEX
  8
Обводка_Top
  10
19.859
  20
54.6575
  42
0
  0
VERTEX
  8
Обводка_Top
  10
19.934
  20
54.4763
  42
0
  0
VERTEX
  8
Обводка_Top
  10
19.9798
  20
54.2855
  42
0
  0
VERTEX
  8
Обводка_Top
  10
19.9952
  20
54.09
  42
0
  0
VERTEX
  8
Обводка_Top
  10
19.9952
  20
53.9025
  42
0
  0
SEQEND
  0
POLYLINE
  8
Обводка_Top
  6
CONTINUOUS
  66
1
  70
0
  40
1.0
  41
1.0
  0
VERTEX
  8
Обводка_Top
  10
54.59
  20
53.9025
  42
0
  0
VERTEX
  8
Обводка_Top
  10
54.59
  20
44.45
  42
0
  0
VERTEX
  8
Обводка_Top
  10
54.5746
  20
44.2545
  42
0
  0
VERTEX
  8
Обводка_Top
  10
54.5288
  20
44.0637
  42
0
  0
VERTEX
  8
Обводка_Top
  10
54.4538
  20
43.8825
  42
0
  0
VERTEX
  8
Обводка_Top
  10
54.3513
  20
43.7153
  42
0
  0
VERTEX
  8
Обводка_Top
  10
54.2233
  20
43.5656
  42
0
  0
VERTEX
  8
Обводка_Top
  10
49.1439
  20
38.4861
  42
0
  0
VERTEX
  8
Обводка_Top
  10
48.9947
  20
38.3587
  42
0
  0
VERTEX
  8
Обводка_Top
  10
48.8275
  20
38.2562
  42
0
  0
VERTEX
  8
Обводка_Top
  10
48.6463
  20
38.1812
  42
0
  0
VERTEX
  8
Обводка_Top
  10
48.4555
  20
38.1354
  42
0
  0
VERTEX
  8
Обводка_Top
  10
48.2592
  20
38.1201
  42
0
  0
VERTEX
  8
Обводка_Top
  10
1.27
  20
38.12
  42
0
  0
VERTEX
  8
Обводка_Top
  10
1.0745
  20
38.1354
  42
0
  0
VERTEX
  8
Обводка_Top
  10
0.8837
  20
38.1812
  42
0
  0
VERTEX
  8
Обводка_Top
  10
0.7025
  20
38.2562
  42
0
  0
VERTEX
  8
Обводка_Top
  10
0.5353
  20
38.3587
  42
0
  0
VERTEX
  8
Обводка_Top
  10
0.3861
  20
38.4861
  42
0
  0
VERTEX
  8
Обводка_Top
  10
0.2587
  20
38.6353
  42
0
  0
VERTEX
  8
Обводка_Top
  10
0.1562
  20
38.8025
  42
0
  0
VERTEX
  8
Обводка_Top
  10
0.0812
  20
38.9837
  42
0
  0
VERTEX
  8
Обводка_Top
  10
0.0354
  20
39.1745
  42
0
  0
VERTEX
  8
Обводка_Top
  10
0.02
  20
39.37
  42
0
  0
VERTEX
  8
Обводка_Top
  10
0.0354
  20
39.5655
  42
0
  0
VERTEX
  8
Обводка_Top
  10
0.0812
  20
39.7563
  42
0
  0
VERTEX
  8
Обводка_Top
  10
0.1562
  20
39.9375
  42
0
  0
VERTEX
  8
Обводка_Top
  10
0.2587
  20
40.1047
  42
0
  0
VERTEX
  8
Обводка_Top
  10
0.3861
  20
40.2539
  42
0
  0
VERTEX
  8
Обводка_Top
  10
0.5353
  20
40.3813
  42
0
  0
VERTEX
  8
Обводка_Top
  10
0.7025
  20
40.4838
  42
0
  0
VERTEX
  8
Обводка_Top
  10
0.8837
  20
40.5588
  42
0
  0
VERTEX
  8
Обводка_Top
  10
1.0745
  20
40.6046
  42
0
  0
VERTEX
  8
Обводка_Top
  10
1.27
  20
40.62
  42
0
  0
VERTEX
  8
Обводка_Top
  10
47.7418
  20
40.62
  42
0
  0
VERTEX
  8
Обводка_Top
  10
52.0897
  20
44.9674
  42
0
  0
VERTEX
  8
Обводка_Top
  10
52.09
  20
54.09
  42
0
  0
VERTEX
  8
Обводка_Top
  10
52.1054
  20
54.2855
  42
0
  0
VERTEX
  8
Обводка_Top
  10
52.1512
  20
54.4763
  42
0
  0
VERTEX
  8
Обводка_Top
  10
52.2262
  20
54.6575
  42
0
  0
VERTEX
  8
Обводка_Top
  10
52.3287
  20
54.8247
  42
0
  0
VERTEX
  8
Обводка_Top
  10
52.4561
  20
54.9739
  42
0
  0
VERTEX
  8
Обводка_Top
  10
52.6053
  20
55.1013
  42
0
  0
VERTEX
  8
Обводка_Top
  10
52.7725
  20
55.2038
  42
0
  0
VERTEX
  8
Обводка_Top
  10
52.9537
  20
55.2788
  42
0
  0
VERTEX
  8
Обводка_Top
  10
53.1445
  20
55.3246
  42
0
  0
VERTEX
  8
Обводка_Top
  10
53.34
  20
55.34
  42
0
  0
VERTEX
  8
Обводка_Top
  10
53.5355
  20
55.3246
  42
0
  0
VERTEX
  8
Обводка_Top
  10
53.7263
  20
55.2788
  42
0
  0
VERTEX
  8
Обводка_Top
  10
53.9075
  20
55.2038
  42
0
  0
VERTEX
  8
Обводка_Top
  10
54.0747
  20
55.1013
  42
0
  0
VERTEX
  8
Обводка_Top
  10
54.2239
  20
54.9739
  42
0
  0
VERTEX
  8
Обводка_Top
  10
54.3513
  20
54.8247
  42
0
  0
VERTEX
  8
Обводка_Top
  10
54.4538
  20
54.6575
  42
0
  0
VERTEX
  8
Обводка_Top
  10
54.5288
  20
54.4763
  42
0
  0
VERTEX
  8
Обводка_Top
  10
54.5746
  20
54.2855
  42
0
  0
VERTEX
  8
Обводка_Top
  10
54.59
  20
54.09
  42
0
  0
VERTEX
  8
Обводка_Top
  10
54.59
  20
53.9025
  42
0
  0
SEQEND
  0
POLYLINE
  8
Обводка_Top
  6
CONTINUOUS
  66
1
  70
0
  40
1.0
  41
1.0
  0
VERTEX
  8
Обводка_Top
  10
52.05
  20
53.9025
  42
0
  0
VERTEX
  8
Обводка_Top
  10
52.05
  20
45.72
  42
0
  0
VERTEX
  8
Обводка_Top
  10
52.0346
  20
45.5245
  42
0
  0
VERTEX
  8
Обводка_Top
  10
51.9888
  20
45.3337
  42
0
  0
VERTEX
  8
Обводка_Top
  10
51.9138
  20
45.1525
  42
0
  0
VERTEX
  8
Обводка_Top
  10
51.8113
  20
44.9853
  42
0
  0
VERTEX
  8
Обводка_Top
  10
51.6839
  20
44.8361
  42
0
  0
VERTEX
  8
Обводка_Top
  10
51.5347
  20
44.7087
  42
0
  0
VERTEX
  8
Обводка_Top
  10
51.3675
  20
44.6062
  42
0
  0
VERTEX
  8
Обводка_Top
  10
51.1863
  20
44.5312
  42
0
  0
VERTEX
  8
Обводка_Top
  10
50.978
  20
44.484
  42
0
  0
VERTEX
  8
Обводка_Top
  10
47.5384
  20
41.0442
  42
0
  0
VERTEX
  8
Обводка_Top
  10
47.4191
  20
40.9422
  42
0
  0
VERTEX
  8
Обводка_Top
  10
47.2853
  20
40.8603
  42
0
  0
VERTEX
  8
Обводка_Top
  10
47.1403
  20
40.8002
  42
0
  0
VERTEX
  8
Обводка_Top
  10
46.9877
  20
40.7636
  42
0
  0
VERTEX
  8
Обводка_Top
  10
46.8307
  20
40.7513
  42
0
  0
VERTEX
  8
Обводка_Top
  10
6.343
  20
40.7513
  42
0
  0
VERTEX
  8
Обводка_Top
  10
6.26
  20
40.7212
  42
0
  0
VERTEX
  8
Обводка_Top
  10
6.0693
  20
40.6754
  42
0
  0
VERTEX
  8
Обводка_Top
  10
5.8737
  20
40.66
  42
0
  0
VERTEX
  8
Обводка_Top
  10
1.27
  20
40.66
  42
0
  0
VERTEX
  8
Обводка_Top
  10
1.0745
  20
40.6754
  42
0
  0
VERTEX
  8
Обводка_Top
  10
0.8837
  20
40.7212
  42
0
  0
VERTEX
  8
Обводка_Top
  10
0.7025
  20
40.7962
  42
0
  0
VERTEX
  8
Обводка_Top
  10
0.5353
  20
40.8987
  42
0
  0
VERTEX
  8
Обводка_Top
  10
0.3861
  20
41.0261
  42
0
  0
VERTEX
  8
Обводка_Top
  10
0.2587
  20
41.1753
  42
0
  0
VERTEX
  8
Обводка_Top
  10
0.1562
  20
41.3425
  42
0
  0
VERTEX
  8
Обводка_Top
  10
0.0812
  20
41.5237
  42
0
  0
VERTEX
  8
Обводка_Top
  10
0.0354
  20
41.7145
  42
0
  0
VERTEX
  8
Обводка_Top
  10
0.02
  20
41.91
  42
0
  0
VERTEX
  8
Обводка_Top
  10
0.0354
  20
42.1055
  42
0
  0
VERTEX
  8
Обводка_Top
  10
0.0812
  20
42.2963
  42
0
  0
VERTEX
  8
Обводка_Top
  10
0.1562
  20
42.4775
  42
0
  0
VERTEX
  8
Обводка_Top
  10
0.2587
  20
42.6447
  42
0
  0
VERTEX
  8
Обводка_Top
  10
0.3861
  20
42.7939
  42
0
  0
VERTEX
  8
Обводка_Top
  10
0.5353
  20
42.9213
  42
0
  0
VERTEX
  8
Обводка_Top
  10
0.7025
  20
43.0238
  42
0
  0
VERTEX
  8
Обводка_Top
  10
0.8837
  20
43.0988
  42
0
  0
VERTEX
  8
Обводка_Top
  10
1.0745
  20
43.1446
  42
0
  0
VERTEX
  8
Обводка_Top
  10
1.27
  20
43.16
  42
0
  0
VERTEX
  8
Обводка_Top
  10
5.8737
  20
43.16
  42
0
  0
VERTEX
  8
Обводка_Top
  10
6.0693
  20
43.1446
  42
0
  0
VERTEX
  8
Обводка_Top
  10
6.26
  20
43.0988
  42
0
  0
VERTEX
  8
Обводка_Top
  10
6.4412
  20
43.0238
  42
0
  0
VERTEX
  8
Обводка_Top
  10
6.6085
  20
42.9213
  42
0
  0
VERTEX
  8
Обводка_Top
  10
6.7576
  20
42.7939
  42
0
  0
VERTEX
  8
Обводка_Top
  10
6.7939
  20
42.7514
  42
0
  0
VERTEX
  8
Обводка_Top
  10
46.4177
  20
42.7513
  42
0
  0
VERTEX
  8
Обводка_Top
  10
49.5501
  20
45.8843
  42
0
  0
VERTEX
  8
Обводка_Top
  10
49.55
  20
54.09
  42
0
  0
VERTEX
  8
Обводка_Top
  10
49.5654
  20
54.2855
  42
0
  0
VERTEX
  8
Обводка_Top
  10
49.6112
  20
54.4763
  42
0
  0
VERTEX
  8
Обводка_Top
  10
49.6862
  20
54.6575
  42
0
  0
VERTEX
  8
Обводка_Top
  10
49.7887
  20
54.8247
  42
0
  0
VERTEX
  8
Обводка_Top
  10
49.9161
  20
54.9739
  42
0
  0
VERTEX
  8
Обводка_Top
  10
50.0653
  20
55.1013
  42
0
  0
VERTEX
  8
Обводка_Top
  10
50.2325
  20
55.2038
  42
0
  0
VERTEX
  8
Обводка_Top
  10
50.4137
  20
55.2788
  42
0
  0
VERTEX
  8
Обводка_Top
  10
50.6045
  20
55.3246
  42
0
  0
VERTEX
  8
Обводка_Top
  10
50.8
  20
55.34
  42
0
  0
VERTEX
  8
Обводка_Top
  10
50.9955
  20
55.3246
  42
0
  0
VERTEX
  8
Обводка_Top
  10
51.1863
  20
55.2788
  42
0
  0
VERTEX
  8
Обводка_Top
  10
51.3675
  20
55.2038
  42
0
  0
VERTEX
  8
Обводка_Top
  10
51.5347
  20
55.1013
  42
0
  0
VERTEX
  8
Обводка_Top
  10
51.6839
  20
54.9739
  42
0
  0
VERTEX
  8
Обводка_Top
  10
51.8113
  20
54.8247
  42
0
  0
VERTEX
  8
Обводка_Top
  10
51.9138
  20
54.6575
  42
0
  0
VERTEX
  8
Обводка_Top
  10
51.9888
  20
54.4763
  42
0
  0
VERTEX
  8
Обводка_Top
  10
52.0346
  20
54.2855
  42
0
  0
VERTEX
  8
Обводка_Top
  10
52.05
  20
54.09
  42
0
  0
VERTEX
  8
Обводка_Top
  10
52.05
  20
53.9025
  42
0
  0
SEQEND
  0
POLYLINE
  8
Обводка_Top
  6
CONTINUOUS
  66
1
  70
0
  40
1.0
  41
1.0
  0
VERTEX
  8
Обводка_Top
  10
49.51
  20
53.9025
  42
0
  0
VERTEX
  8
Обводка_Top
  10
49.51
  20
46.99
  42
0
  0
VERTEX
  8
Обводка_Top
  10
49.4946
  20
46.7945
  42
0
  0
VERTEX
  8
Обводка_Top
  10
49.4488
  20
46.6037
  42
0
  0
VERTEX
  8
Обводка_Top
  10
49.3738
  20
46.4225
  42
0
  0
VERTEX
  8
Обводка_Top
  10
49.2713
  20
46.2553
  42
0
  0
VERTEX
  8
Обводка_Top
  10
49.1439
  20
46.1061
  42
0
  0
VERTEX
  8
Обводка_Top
  10
48.9947
  20
45.9787
  42
0
  0
VERTEX
  8
Обводка_Top
  10
48.8275
  20
45.8762
  42
0
  0
VERTEX
  8
Обводка_Top
  10
48.6463
  20
45.8012
  42
0
  0
VERTEX
  8
Обводка_Top
  10
48.438
  20
45.754
  42
0
  0
VERTEX
  8
Обводка_Top
  10
45.7921
  20
43.1079
  42
0
  0
VERTEX
  8
Обводка_Top
  10
45.6728
  20
43.006
  42
0
  0
VERTEX
  8
Обводка_Top
  10
45.539
  20
42.924
  42
0
  0
VERTEX
  8
Обводка_Top
  10
45.394
  20
42.8639
  42
0
  0
VERTEX
  8
Обводка_Top
  10
45.2414
  20
42.8273
  42
0
  0
VERTEX
  8
Обводка_Top
  10
45.0844
  20
42.815
  42
0
  0
VERTEX
  8
Обводка_Top
  10
7.3025
  20
42.815
  42
0
  0
VERTEX
  8
Обводка_Top
  10
7.1461
  20
42.8273
  42
0
  0
VERTEX
  8
Обводка_Top
  10
6.9935
  20
42.8639
  42
0
  0
VERTEX
  8
Обводка_Top
  10
6.8485
  20
42.924
  42
0
  0
VERTEX
  8
Обводка_Top
  10
6.7147
  20
43.006
  42
0
  0
VERTEX
  8
Обводка_Top
  10
6.503
  20
43.2003
  42
0
  0
VERTEX
  8
Обводка_Top
  10
1.27
  20
43.2
  42
0
  0
VERTEX
  8
Обводка_Top
  10
1.0745
  20
43.2154
  42
0
  0
VERTEX
  8
Обводка_Top
  10
0.8837
  20
43.2612
  42
0
  0
VERTEX
  8
Обводка_Top
  10
0.7025
  20
43.3362
  42
0
  0
VERTEX
  8
Обводка_Top
  10
0.5353
  20
43.4387
  42
0
  0
VERTEX
  8
Обводка_Top
  10
0.3861
  20
43.5661
  42
0
  0
VERTEX
  8
Обводка_Top
  10
0.2587
  20
43.7153
  42
0
  0
VERTEX
  8
Обводка_Top
  10
0.1562
  20
43.8825
  42
0
  0
VERTEX
  8
Обводка_Top
  10
0.0812
  20
44.0637
  42
0
  0
VERTEX
  8
Обводка_Top
  10
0.0354
  20
44.2545
  42
0
  0
VERTEX
  8
Обводка_Top
  10
0.02
  20
44.45
  42
0
  0
VERTEX
  8
Обводка_Top
  10
0.0354
  20
44.6455
  42
0
  0
VERTEX
  8
Обводка_Top
  10
0.0812
  20
44.8363
  42
0
  0
VERTEX
  8
Обводка_Top
  10
0.1562
  20
45.0175
  42
0
  0
VERTEX
  8
Обводка_Top
  10
0.2587
  20
45.1847
  42
0
  0
VERTEX
  8
Обводка_Top
  10
0.3861
  20
45.3339
  42
0
  0
VERTEX
  8
Обводка_Top
  10
0.5353
  20
45.4613
  42
0
  0
VERTEX
  8
Обводка_Top
  10
0.7025
  20
45.5638
  42
0
  0
VERTEX
  8
Обводка_Top
  10
0.8837
  20
45.6388
  42
0
  0
VERTEX
  8
Обводка_Top
  10
1.0745
  20
45.6846
  42
0
  0
VERTEX
  8
Обводка_Top
  10
1.27
  20
45.7
  42
0
  0
VERTEX
  8
Обводка_Top
  10
6.6675
  20
45.7
  42
0
  0
VERTEX
  8
Обводка_Top
  10
6.863
  20
45.6846
  42
0
  0
VERTEX
  8
Обводка_Top
  10
7.0538
  20
45.6388
  42
0
  0
VERTEX
  8
Обводка_Top
  10
7.235
  20
45.5638
  42
0
  0
VERTEX
  8
Обводка_Top
  10
7.4022
  20
45.4613
  42
0
  0
VERTEX
  8
Обводка_Top
  10
7.5514
  20
45.3339
  42
0
  0
VERTEX
  8
Обводка_Top
  10
7.6788
  20
45.1847
  42
0
  0
VERTEX
  8
Обводка_Top
  10
7.7813
  20
45.0175
  42
0
  0
VERTEX
  8
Обводка_Top
  10
7.8615
  20
44.8147
  42
0
  0
VERTEX
  8
Обводка_Top
  10
44.6709
  20
44.815
  42
0
  0
VERTEX
  8
Обводка_Top
  10
47.0098
  20
47.154
  42
0
  0
VERTEX
  8
Обводка_Top
  10
47.01
  20
54.09
  42
0
  0
VERTEX
  8
Обводка_Top
  10
47.0254
  20
54.2855
  42
0
  0
VERTEX
  8
Обводка_Top
  10
47.0712
  20
54.4763
  42
0
  0
VERTEX
  8
Обводка_Top
  10
47.1462
  20
54.6575
  42
0
  0
VERTEX
  8
Обводка_Top
  10
47.2487
  20
54.8247
  42
0
  0
VERTEX
  8
Обводка_Top
  10
47.3761
  20
54.9739
  42
0
  0
VERTEX
  8
Обводка_Top
  10
47.5253
  20
55.1013
  42
0
  0
VERTEX
  8
Обводка_Top
  10
47.6925
  20
55.2038
  42
0
  0
VERTEX
  8
Обводка_Top
  10
47.8737
  20
55.2788
  42
0
  0
VERTEX
  8
Обводка_Top
  10
48.0645
  20
55.3246
  42
0
  0
VERTEX
  8
Обводка_Top
  10
48.26
  20
55.34
  42
0
  0
VERTEX
  8
Обводка_Top
  10
48.4555
  20
55.3246
  42
0
  0
VERTEX
  8
Обводка_Top
  10
48.6463
  20
55.2788
  42
0
  0
VERTEX
  8
Обводка_Top
  10
48.8275
  20
55.2038
  42
0
  0
VERTEX
  8
Обводка_Top
  10
48.9947
  20
55.1013
  42
0
  0
VERTEX
  8
Обводка_Top
  10
49.1439
  20
54.9739
  42
0
  0
VERTEX
  8
Обводка_Top
  10
49.2713
  20
54.8247
  42
0
  0
VERTEX
  8
Обводка_Top
  10
49.3738
  20
54.6575
  42
0
  0
VERTEX
  8
Обводка_Top
  10
49.4488
  20
54.4763
  42
0
  0
VERTEX
  8
Обводка_Top
  10
49.4946
  20
54.2855
  42
0
  0
VERTEX
  8
Обводка_Top
  10
49.51
  20
54.09
  42
0
  0
VERTEX
  8
Обводка_Top
  10
49.51
  20
53.9025
  42
0
  0
SEQEND
  0
POLYLINE
  8
Обводка_Top
  6
CONTINUOUS
  66
1
  70
0
  40
1.0
  41
1.0
  0
VERTEX
  8
Обводка_Top
  10
46.97
  20
53.9025
  42
0
  0
VERTEX
  8
Обводка_Top
  10
46.97
  20
48.26
  42
0
  0
VERTEX
  8
Обводка_Top
  10
46.9546
  20
48.0645
  42
0
  0
VERTEX
  8
Обводка_Top
  10
46.9088
  20
47.8737
  42
0
  0
VERTEX
  8
Обводка_Top
  10
46.8338
  20
47.6925
  42
0
  0
VERTEX
  8
Обводка_Top
  10
46.7313
  20
47.5253
  42
0
  0
VERTEX
  8
Обводка_Top
  10
46.6039
  20
47.3761
  42
0
  0
VERTEX
  8
Обводка_Top
  10
46.4547
  20
47.2487
  42
0
  0
VERTEX
  8
Обводка_Top
  10
46.2875
  20
47.1462
  42
0
  0
VERTEX
  8
Обводка_Top
  10
46.1063
  20
47.0712
  42
0
  0
VERTEX
  8
Обводка_Top
  10
45.898
  20
47.024
  42
0
  0
VERTEX
  8
Обводка_Top
  10
44.0459
  20
45.1717
  42
0
  0
VERTEX
  8
Обводка_Top
  10
43.9266
  20
45.0697
  42
0
  0
VERTEX
  8
Обводка_Top
  10
43.7928
  20
44.9878
  42
0
  0
VERTEX
  8
Обводка_Top
  10
43.6478
  20
44.9277
  42
0
  0
VERTEX
  8
Обводка_Top
  10
43.4952
  20
44.8911
  42
0
  0
VERTEX
  8
Обводка_Top
  10
43.3382
  20
44.8788
  42
0
  0
VERTEX
  8
Обводка_Top
  10
8.7312
  20
44.8788
  42
0
  0
VERTEX
  8
Обводка_Top
  10
8.5748
  20
44.8911
  42
0
  0
VERTEX
  8
Обводка_Top
  10
8.4222
  20
44.9277
  42
0
  0
VERTEX
  8
Обводка_Top
  10
8.2772
  20
44.9878
  42
0
  0
VERTEX
  8
Обводка_Top
  10
8.1434
  20
45.0697
  42
0
  0
VERTEX
  8
Обводка_Top
  10
8.0237
  20
45.1721
  42
0
  0
VERTEX
  8
Обводка_Top
  10
7.456
  20
45.7398
  42
0
  0
VERTEX
  8
Обводка_Top
  10
1.27
  20
45.74
  42
0
  0
VERTEX
  8
Обводка_Top
  10
1.0745
  20
45.7554
  42
0
  0
VERTEX
  8
Обводка_Top
  10
0.8837
  20
45.8012
  42
0
  0
VERTEX
  8
Обводка_Top
  10
0.7025
  20
45.8762
  42
0
  0
VERTEX
  8
Обводка_Top
  10
0.5353
  20
45.9787
  42
0
  0
VERTEX
  8
Обводка_Top
  10
0.3861
  20
46.1061
  42
0
  0
VERTEX
  8
Обводка_Top
  10
0.2587
  20
46.2553
  42
0
  0
VERTEX
  8
Обводка_Top
  10
0.1562
  20
46.4225
  42
0
  0
VERTEX
  8
Обводка_Top
  10
0.0812
  20
46.6037
  42
0
  0
VERTEX
  8
Обводка_Top
  10
0.0354
  20
46.7945
  42
0
  0
VERTEX
  8
Обводка_Top
  10
0.02
  20
46.99
  42
0
  0
VERTEX
  8
Обводка_Top
  10
0.0354
  20
47.1855
  42
0
  0
VERTEX
  8
Обводка_Top
  10
0.0812
  20
47.3763
  42
0
  0
VERTEX
  8
Обводка_Top
  10
0.1562
  20
47.5575
  42
0
  0
VERTEX
  8
Обводка_Top
  10
0.2587
  20
47.7247
  42
0
  0
VERTEX
  8
Обводка_Top
  10
0.3861
  20
47.8739
  42
0
  0
VERTEX
  8
Обводка_Top
  10
0.5353
  20
48.0013
  42
0
  0
VERTEX
  8
Обводка_Top
  10
0.7025
  20
48.1038
  42
0
  0
VERTEX
  8
Обводка_Top
  10
0.8837
  20
48.1788
  42
0
  0
VERTEX
  8
Обводка_Top
  10
1.0745
  20
48.2246
  42
0
  0
VERTEX
  8
Обводка_Top
  10
1.27
  20
48.24
  42
0
  0
VERTEX
  8
Обводка_Top
  10
7.62
  20
48.24
  42
0
  0
VERTEX
  8
Обводка_Top
  10
7.8155
  20
48.2246
  42
0
  0
VERTEX
  8
Обводка_Top
  10
8.0063
  20
48.1788
  42
0
  0
VERTEX
  8
Обводка_Top
  10
8.1875
  20
48.1038
  42
0
  0
VERTEX
  8
Обводка_Top
  10
8.3547
  20
48.0013
  42
0
  0
VERTEX
  8
Обводка_Top
  10
8.5039
  20
47.8739
  42
0
  0
VERTEX
  8
Обводка_Top
  10
8.6313
  20
47.7247
  42
0
  0
VERTEX
  8
Обводка_Top
  10
8.7338
  20
47.5575
  42
0
  0
VERTEX
  8
Обводка_Top
  10
8.8088
  20
47.3763
  42
0
  0
VERTEX
  8
Обводка_Top
  10
8.856
  20
47.168
  42
0
  0
VERTEX
  8
Обводка_Top
  10
9.1449
  20
46.8793
  42
0
  0
VERTEX
  8
Обводка_Top
  10
42.9247
  20
46.8788
  42
0
  0
VERTEX
  8
Обводка_Top
  10
44.4704
  20
48.4246
  42
0
  0
VERTEX
  8
Обводка_Top
  10
44.47
  20
54.09
  42
0
  0
VERTEX
  8
Обводка_Top
  10
44.4854
  20
54.2855
  42
0
  0
VERTEX
  8
Обводка_Top
  10
44.5312
  20
54.4763
  42
0
  0
VERTEX
  8
Обводка_Top
  10
44.6062
  20
54.6575
  42
0
  0
VERTEX
  8
Обводка_Top
  10
44.7087
  20
54.8247
  42
0
  0
VERTEX
  8
Обводка_Top
  10
44.8361
  20
54.9739
  42
0
  0
VERTEX
  8
Обводка_Top
  10
44.9853
  20
55.1013
  42
0
  0
VERTEX
  8
Обводка_Top
  10
45.1525
  20
55.2038
  42
0
  0
VERTEX
  8
Обводка_Top
  10
45.3337
  20
55.2788
  42
0
  0
VERTEX
  8
Обводка_Top
  10
45.5245
  20
55.3246
  42
0
  0
VERTEX
  8
Обводка_Top
  10
45.72
  20
55.34
  42
0
  0
VERTEX
  8
Обводка_Top
  10
45.9155
  20
55.3246
  42
0
  0
VERTEX
  8
Обводка_Top
  10
46.1063
  20
55.2788
  42
0
  0
VERTEX
  8
Обводка_Top
  10
46.2875
  20
55.2038
  42
0
  0
VERTEX
  8
Обводка_Top
  10
46.4547
  20
55.1013
  42
0
  0
VERTEX
  8
Обводка_Top
  10
46.6039
  20
54.9739
  42
0
  0
VERTEX
  8
Обводка_Top
  10
46.7313
  20
54.8247
  42
0
  0
VERTEX
  8
Обводка_Top
  10
46.8338
  20
54.6575
  42
0
  0
VERTEX
  8
Обводка_Top
  10
46.9088
  20
54.4763
  42
0
  0
VERTEX
  8
Обводка_Top
  10
46.9546
  20
54.2855
  42
0
  0
VERTEX
  8
Обводка_Top
  10
46.97
  20
54.09
  42
0
  0
VERTEX
  8
Обводка_Top
  10
46.97
  20
53.9025
  42
0
  0
SEQEND
  0
POLYLINE
  8
Обводка_Top
  6
CONTINUOUS
  66
1
  70
0
  40
1.0
  41
1.0
  0
VERTEX
  8
Обводка_Top
  10
44.43
  20
53.9025
  42
0
  0
VERTEX
  8
Обводка_Top
  10
44.43
  20
49.53
  42
0
  0
VERTEX
  8
Обводка_Top
  10
44.4146
  20
49.3345
  42
0
  0
VERTEX
  8
Обводка_Top
  10
44.3688
  20
49.1437
  42
0
  0
VERTEX
  8
Обводка_Top
  10
44.2938
  20
48.9625
  42
0
  0
VERTEX
  8
Обводка_Top
  10
44.1913
  20
48.7953
  42
0
  0
VERTEX
  8
Обводка_Top
  10
44.0639
  20
48.6461
  42
0
  0
VERTEX
  8
Обводка_Top
  10
43.9147
  20
48.5187
  42
0
  0
VERTEX
  8
Обводка_Top
  10
43.7475
  20
48.4162
  42
0
  0
VERTEX
  8
Обводка_Top
  10
43.5663
  20
48.3412
  42
0
  0
VERTEX
  8
Обводка_Top
  10
43.358
  20
48.294
  42
0
  0
VERTEX
  8
Обводка_Top
  10
42.2996
  20
47.2354
  42
0
  0
VERTEX
  8
Обводка_Top
  10
42.1803
  20
47.1335
  42
0
  0
VERTEX
  8
Обводка_Top
  10
42.0465
  20
47.0515
  42
0
  0
VERTEX
  8
Обводка_Top
  10
41.9015
  20
46.9914
  42
0
  0
VERTEX
  8
Обводка_Top
  10
41.7489
  20
46.9548
  42
0
  0
VERTEX
  8
Обводка_Top
  10
41.5919
  20
46.9425
  42
0
  0
VERTEX
  8
Обводка_Top
  10
10.16
  20
46.9425
  42
0
  0
VERTEX
  8
Обводка_Top
  10
10.0036
  20
46.9548
  42
0
  0
VERTEX
  8
Обводка_Top
  10
9.851
  20
46.9914
  42
0
  0
VERTEX
  8
Обводка_Top
  10
9.706
  20
47.0515
  42
0
  0
VERTEX
  8
Обводка_Top
  10
9.5722
  20
47.1335
  42
0
  0
VERTEX
  8
Обводка_Top
  10
9.4525
  20
47.2359
  42
0
  0
VERTEX
  8
Обводка_Top
  10
8.4085
  20
48.2797
  42
0
  0
VERTEX
  8
Обводка_Top
  10
1.27
  20
48.28
  42
0
  0
VERTEX
  8
Обводка_Top
  10
1.0745
  20
48.2954
  42
0
  0
VERTEX
  8
Обводка_Top
  10
0.8837
  20
48.3412
  42
0
  0
VERTEX
  8
Обводка_Top
  10
0.7025
  20
48.4162
  42
0
  0
VERTEX
  8
Обводка_Top
  10
0.5353
  20
48.5187
  42
0
  0
VERTEX
  8
Обводка_Top
  10
0.3861
  20
48.6461
  42
0
  0
VERTEX
  8
Обводка_Top
  10
0.2587
  20
48.7953
  42
0
  0
VERTEX
  8
Обводка_Top
  10
0.1562
  20
48.9625
  42
0
  0
VERTEX
  8
Обводка_Top
  10
0.0812
  20
49.1437
  42
0
  0
VERTEX
  8
Обводка_Top
  10
0.0354
  20
49.3345
  42
0
  0
VERTEX
  8
Обводка_Top
  10
0.02
  20
49.53
  42
0
  0
VERTEX
  8
Обводка_Top
  10
0.0354
  20
49.7255
  42
0
  0
VERTEX
  8
Обводка_Top
  10
0.0812
  20
49.9163
  42
0
  0
VERTEX
  8
Обводка_Top
  10
0.1562
  20
50.0975
  42
0
  0
VERTEX
  8
Обводка_Top
  10
0.2587
  20
50.2647
  42
0
  0
VERTEX
  8
Обводка_Top
  10
0.3861
  20
50.4139
  42
0
  0
VERTEX
  8
Обводка_Top
  10
0.5353
  20
50.5413
  42
0
  0
VERTEX
  8
Обводка_Top
  10
0.7025
  20
50.6438
  42
0
  0
VERTEX
  8
Обводка_Top
  10
0.8837
  20
50.7188
  42
0
  0
VERTEX
  8
Обводка_Top
  10
1.0745
  20
50.7646
  42
0
  0
VERTEX
  8
Обводка_Top
  10
1.27
  20
50.78
  42
0
  0
VERTEX
  8
Обводка_Top
  10
8.5725
  20
50.78
  42
0
  0
VERTEX
  8
Обводка_Top
  10
8.768
  20
50.7646
  42
0
  0
VERTEX
  8
Обводка_Top
  10
8.9588
  20
50.7188
  42
0
  0
VERTEX
  8
Обводка_Top
  10
9.14
  20
50.6438
  42
0
  0
VERTEX
  8
Обводка_Top
  10
9.3072
  20
50.5413
  42
0
  0
VERTEX
  8
Обводка_Top
  10
9.4564
  20
50.4139
  42
0
  0
VERTEX
  8
Обводка_Top
  10
9.5838
  20
50.2647
  42
0
  0
VERTEX
  8
Обводка_Top
  10
9.6863
  20
50.0975
  42
0
  0
VERTEX
  8
Обводка_Top
  10
9.7613
  20
49.9163
  42
0
  0
VERTEX
  8
Обводка_Top
  10
9.8085
  20
49.708
  42
0
  0
VERTEX
  8
Обводка_Top
  10
10.5748
  20
48.942
  42
0
  0
VERTEX
  8
Обводка_Top
  10
41.1785
  20
48.9425
  42
0
  0
VERTEX
  8
Обводка_Top
  10
41.9297
  20
49.694
  42
0
  0
VERTEX
  8
Обводка_Top
  10
41.93
  20
54.09
  42
0
  0
VERTEX
  8
Обводка_Top
  10
41.9454
  20
54.2855
  42
0
  0
VERTEX
  8
Обводка_Top
  10
41.9912
  20
54.4763
  42
0
  0
VERTEX
  8
Обводка_Top
  10
42.0662
  20
54.6575
  42
0
  0
VERTEX
  8
Обводка_Top
  10
42.1687
  20
54.8247
  42
0
  0
VERTEX
  8
Обводка_Top
  10
42.2961
  20
54.9739
  42
0
  0
VERTEX
  8
Обводка_Top
  10
42.4453
  20
55.1013
  42
0
  0
VERTEX
  8
Обводка_Top
  10
42.6125
  20
55.2038
  42
0
  0
VERTEX
  8
Обводка_Top
  10
42.7937
  20
55.2788
  42
0
  0
VERTEX
  8
Обводка_Top
  10
42.9845
  20
55.3246
  42
0
  0
VERTEX
  8
Обводка_Top
  10
43.18
  20
55.34
  42
0
  0
VERTEX
  8
Обводка_Top
  10
43.3755
  20
55.3246
  42
0
  0
VERTEX
  8
Обводка_Top
  10
43.5663
  20
55.2788
  42
0
  0
VERTEX
  8
Обводка_Top
  10
43.7475
  20
55.2038
  42
0
  0
VERTEX
  8
Обводка_Top
  10
43.9147
  20
55.1013
  42
0
  0
VERTEX
  8
Обводка_Top
  10
44.0639
  20
54.9739
  42
0
  0
VERTEX
  8
Обводка_Top
  10
44.1913
  20
54.8247
  42
0
  0
VERTEX
  8
Обводка_Top
  10
44.2938
  20
54.6575
  42
0
  0
VERTEX
  8
Обводка_Top
  10
44.3688
  20
54.4763
  42
0
  0
VERTEX
  8
Обводка_Top
  10
44.4146
  20
54.2855
  42
0
  0
VERTEX
  8
Обводка_Top
  10
44.43
  20
54.09
  42
0
  0
VERTEX
  8
Обводка_Top
  10
44.43
  20
53.9025
  42
0
  0
SEQEND
  0
POLYLINE
  8
Обводка_Top
  6
CONTINUOUS
  66
1
  70
0
  40
1.0
  41
1.0
  0
VERTEX
  8
Обводка_Top
  10
41.89
  20
53.9025
  42
0
  0
VERTEX
  8
Обводка_Top
  10
41.89
  20
50.8
  42
0
  0
VERTEX
  8
Обводка_Top
  10
41.8746
  20
50.6045
  42
0
  0
VERTEX
  8
Обводка_Top
  10
41.8288
  20
50.4137
  42
0
  0
VERTEX
  8
Обводка_Top
  10
41.7538
  20
50.2325
  42
0
  0
VERTEX
  8
Обводка_Top
  10
41.6513
  20
50.0653
  42
0
  0
VERTEX
  8
Обводка_Top
  10
41.5239
  20
49.9161
  42
0
  0
VERTEX
  8
Обводка_Top
  10
41.3747
  20
49.7887
  42
0
  0
VERTEX
  8
Обводка_Top
  10
41.2075
  20
49.6862
  42
0
  0
VERTEX
  8
Обводка_Top
  10
41.0263
  20
49.6112
  42
0
  0
VERTEX
  8
Обводка_Top
  10
40.818
  20
49.564
  42
0
  0
VERTEX
  8
Обводка_Top
  10
40.5928
  20
49.356
  42
0
  0
VERTEX
  8
Обводка_Top
  10
40.459
  20
49.274
  42
0
  0
VERTEX
  8
Обводка_Top
  10
40.314
  20
49.2139
  42
0
  0
VERTEX
  8
Обводка_Top
  10
40.1614
  20
49.1773
  42
0
  0
VERTEX
  8
Обводка_Top
  10
40.0044
  20
49.165
  42
0
  0
VERTEX
  8
Обводка_Top
  10
11.43
  20
49.165
  42
0
  0
VERTEX
  8
Обводка_Top
  10
11.2736
  20
49.1773
  42
0
  0
VERTEX
  8
Обводка_Top
  10
11.121
  20
49.2139
  42
0
  0
VERTEX
  8
Обводка_Top
  10
10.976
  20
49.274
  42
0
  0
VERTEX
  8
Обводка_Top
  10
10.8422
  20
49.356
  42
0
  0
VERTEX
  8
Обводка_Top
  10
10.7225
  20
49.4584
  42
0
  0
VERTEX
  8
Обводка_Top
  10
9.361
  20
50.8198
  42
0
  0
VERTEX
  8
Обводка_Top
  10
1.27
  20
50.82
  42
0
  0
VERTEX
  8
Обводка_Top
  10
1.0745
  20
50.8354
  42
0
  0
VERTEX
  8
Обводка_Top
  10
0.8837
  20
50.8812
  42
0
  0
VERTEX
  8
Обводка_Top
  10
0.7025
  20
50.9562
  42
0
  0
VERTEX
  8
Обводка_Top
  10
0.5353
  20
51.0587
  42
0
  0
VERTEX
  8
Обводка_Top
  10
0.3861
  20
51.1861
  42
0
  0
VERTEX
  8
Обводка_Top
  10
0.2587
  20
51.3353
  42
0
  0
VERTEX
  8
Обводка_Top
  10
0.1562
  20
51.5025
  42
0
  0
VERTEX
  8
Обводка_Top
  10
0.0812
  20
51.6837
  42
0
  0
VERTEX
  8
Обводка_Top
  10
0.0354
  20
51.8745
  42
0
  0
VERTEX
  8
Обводка_Top
  10
0.02
  20
52.07
  42
0
  0
VERTEX
  8
Обводка_Top
  10
0.0354
  20
52.2655
  42
0
  0
VERTEX
  8
Обводка_Top
  10
0.0812
  20
52.4563
  42
0
  0
VERTEX
  8
Обводка_Top
  10
0.1562
  20
52.6375
  42
0
  0
VERTEX
  8
Обводка_Top
  10
0.2587
  20
52.8047
  42
0
  0
VERTEX
  8
Обводка_Top
  10
0.3861
  20
52.9539
  42
0
  0
VERTEX
  8
Обводка_Top
  10
0.5353
  20
53.0813
  42
0
  0
VERTEX
  8
Обводка_Top
  10
0.7025
  20
53.1838
  42
0
  0
VERTEX
  8
Обводка_Top
  10
0.8837
  20
53.2588
  42
0
  0
VERTEX
  8
Обводка_Top
  10
1.0745
  20
53.3046
  42
0
  0
VERTEX
  8
Обводка_Top
  10
1.27
  20
53.32
  42
0
  0
VERTEX
  8
Обводка_Top
  10
9.525
  20
53.32
  42
0
  0
VERTEX
  8
Обводка_Top
  10
9.7205
  20
53.3046
  42
0
  0
VERTEX
  8
Обводка_Top
  10
9.9113
  20
53.2588
  42
0
  0
VERTEX
  8
Обводка_Top
  10
10.0925
  20
53.1838
  42
0
  0
VERTEX
  8
Обводка_Top
  10
10.2597
  20
53.0813
  42
0
  0
VERTEX
  8
Обводка_Top
  10
10.4089
  20
52.9539
  42
0
  0
VERTEX
  8
Обводка_Top
  10
10.5363
  20
52.8047
  42
0
  0
VERTEX
  8
Обводка_Top
  10
10.6388
  20
52.6375
  42
0
  0
VERTEX
  8
Обводка_Top
  10
10.7138
  20
52.4563
  42
0
  0
VERTEX
  8
Обводка_Top
  10
10.761
  20
52.248
  42
0
  0
VERTEX
  8
Обводка_Top
  10
11.8437
  20
51.1655
  42
0
  0
VERTEX
  8
Обводка_Top
  10
39.3902
  20
51.165
  42
0
  0
VERTEX
  8
Обводка_Top
  10
39.39
  20
54.09
  42
0
  0
VERTEX
  8
Обводка_Top
  10
39.4054
  20
54.2855
  42
0
  0
VERTEX
  8
Обводка_Top
  10
39.4512
  20
54.4763
  42
0
  0
VERTEX
  8
Обводка_Top
  10
39.5262
  20
54.6575
  42
0
  0
VERTEX
  8
Обводка_Top
  10
39.6287
  20
54.8247
  42
0
  0
VERTEX
  8
Обводка_Top
  10
39.7561
  20
54.9739
  42
0
  0
VERTEX
  8
Обводка_Top
  10
39.9053
  20
55.1013
  42
0
  0
VERTEX
  8
Обводка_Top
  10
40.0725
  20
55.2038
  42
0
  0
VERTEX
  8
Обводка_Top
  10
40.2537
  20
55.2788
  42
0
  0
VERTEX
  8
Обводка_Top
  10
40.4445
  20
55.3246
  42
0
  0
VERTEX
  8
Обводка_Top
  10
40.64
  20
55.34
  42
0
  0
VERTEX
  8
Обводка_Top
  10
40.8355
  20
55.3246
  42
0
  0
VERTEX
  8
Обводка_Top
  10
41.0263
  20
55.2788
  42
0
  0
VERTEX
  8
Обводка_Top
  10
41.2075
  20
55.2038
  42
0
  0
VERTEX
  8
Обводка_Top
  10
41.3747
  20
55.1013
  42
0
  0
VERTEX
  8
Обводка_Top
  10
41.5239
  20
54.9739
  42
0
  0
VERTEX
  8
Обводка_Top
  10
41.6513
  20
54.8247
  42
0
  0
VERTEX
  8
Обводка_Top
  10
41.7538
  20
54.6575
  42
0
  0
VERTEX
  8
Обводка_Top
  10
41.8288
  20
54.4763
  42
0
  0
VERTEX
  8
Обводка_Top
  10
41.8746
  20
54.2855
  42
0
  0
VERTEX
  8
Обводка_Top
  10
41.89
  20
54.09
  42
0
  0
VERTEX
  8
Обводка_Top
  10
41.89
  20
53.9025
  42
0
  0
SEQEND
  0
POLYLINE
  8
Обводка_Top
  6
CONTINUOUS
  66
1
  70
0
  40
1.0
  41
1.0
  0
VERTEX
  8
Обводка_Top
  10
29.43
  20
6.33
  42
0
  0
VERTEX
  8
Обводка_Top
  10
31.73
  20
6.33
  42
0
  0
VERTEX
  8
Обводка_Top
  10
31.73
  20
3.83
  42
0
  0
VERTEX
  8
Обводка_Top
  10
29.23
  20
3.83
  42
0
  0
VERTEX
  8
Обводка_Top
  10
29.23
  20
6.33
  42
0
  0
VERTEX
  8
Обводка_Top
  10
29.43
  20
6.33
  42
0
  0
SEQEND
  0
POLYLINE
  8
Обводка_Top
  6
CONTINUOUS
  66
1
  70
0
  40
1.0
  41
1.0
  0
VERTEX
  8
Обводка_Top
  10
59.6699
  20
5.8308
  42
0
  0
VERTEX
  8
Обводка_Top
  10
59.67
  20
4.33
  42
0
  0
VERTEX
  8
Обводка_Top
  10
59.6546
  20
4.1345
  42
0
  0
VERTEX
  8
Обводка_Top
  10
59.6088
  20
3.9437
  42
0
  0
VERTEX
  8
Обводка_Top
  10
59.5338
  20
3.7625
  42
0
  0
VERTEX
  8
Обводка_Top
  10
59.4313
  20
3.5953
  42
0
  0
VERTEX
  8
Обводка_Top
  10
59.3039
  20
3.4461
  42
0
  0
VERTEX
  8
Обводка_Top
  10
59.1547
  20
3.3187
  42
0
  0
VERTEX
  8
Обводка_Top
  10
58.9875
  20
3.2162
  42
0
  0
VERTEX
  8
Обводка_Top
  10
58.8063
  20
3.1412
  42
0
  0
VERTEX
  8
Обводка_Top
  10
58.6155
  20
3.0954
  42
0
  0
VERTEX
  8
Обводка_Top
  10
58.42
  20
3.08
  42
0
  0
VERTEX
  8
Обводка_Top
  10
58.2245
  20
3.0954
  42
0
  0
VERTEX
  8
Обводка_Top
  10
58.0337
  20
3.1412
  42
0
  0
VERTEX
  8
Обводка_Top
  10
57.8525
  20
3.2162
  42
0
  0
VERTEX
  8
Обводка_Top
  10
57.6853
  20
3.3187
  42
0
  0
VERTEX
  8
Обводка_Top
  10
57.5361
  20
3.4461
  42
0
  0
VERTEX
  8
Обводка_Top
  10
57.4087
  20
3.5953
  42
0
  0
VERTEX
  8
Обводка_Top
  10
57.3062
  20
3.7625
  42
0
  0
VERTEX
  8
Обводка_Top
  10
57.2312
  20
3.9437
  42
0
  0
VERTEX
  8
Обводка_Top
  10
57.1854
  20
4.1345
  42
0
  0
VERTEX
  8
Обводка_Top
  10
57.17
  20
4.33
  42
0
  0
VERTEX
  8
Обводка_Top
  10
57.17
  20
12.1829
  42
0
  0
VERTEX
  8
Обводка_Top
  10
46.4725
  20
22.8798
  42
0
  0
VERTEX
  8
Обводка_Top
  10
1.27
  20
22.88
  42
0
  0
VERTEX
  8
Обводка_Top
  10
1.0745
  20
22.8954
  42
0
  0
VERTEX
  8
Обводка_Top
  10
0.8837
  20
22.9412
  42
0
  0
VERTEX
  8
Обводка_Top
  10
0.7025
  20
23.0162
  42
0
  0
VERTEX
  8
Обводка_Top
  10
0.5353
  20
23.1187
  42
0
  0
VERTEX
  8
Обводка_Top
  10
0.3861
  20
23.2461
  42
0
  0
VERTEX
  8
Обводка_Top
  10
0.2587
  20
23.3953
  42
0
  0
VERTEX
  8
Обводка_Top
  10
0.1562
  20
23.5625
  42
0
  0
VERTEX
  8
Обводка_Top
  10
0.0812
  20
23.7437
  42
0
  0
VERTEX
  8
Обводка_Top
  10
0.0354
  20
23.9345
  42
0
  0
VERTEX
  8
Обводка_Top
  10
0.02
  20
24.13
  42
0
  0
VERTEX
  8
Обводка_Top
  10
0.0354
  20
24.3255
  42
0
  0
VERTEX
  8
Обводка_Top
  10
0.0812
  20
24.5163
  42
0
  0
VERTEX
  8
Обводка_Top
  10
0.1562
  20
24.6975
  42
0
  0
VERTEX
  8
Обводка_Top
  10
0.2587
  20
24.8647
  42
0
  0
VERTEX
  8
Обводка_Top
  10
0.3861
  20
25.0139
  42
0
  0
VERTEX
  8
Обводка_Top
  10
0.5353
  20
25.1413
  42
0
  0
VERTEX
  8
Обводка_Top
  10
0.7025
  20
25.2438
  42
0
  0
VERTEX
  8
Обводка_Top
  10
0.8837
  20
25.3188
  42
0
  0
VERTEX
  8
Обводка_Top
  10
1.0745
  20
25.3646
  42
0
  0
VERTEX
  8
Обводка_Top
  10
1.27
  20
25.38
  42
0
  0
VERTEX
  8
Обводка_Top
  10
46.99
  20
25.38
  42
0
  0
VERTEX
  8
Обводка_Top
  10
47.1855
  20
25.3646
  42
0
  0
VERTEX
  8
Обводка_Top
  10
47.3763
  20
25.3188
  42
0
  0
VERTEX
  8
Обводка_Top
  10
47.5575
  20
25.2438
  42
0
  0
VERTEX
  8
Обводка_Top
  10
47.7247
  20
25.1413
  42
0
  0
VERTEX
  8
Обводка_Top
  10
47.8739
  20
25.0139
  42
0
  0
VERTEX
  8
Обводка_Top
  10
59.3039
  20
13.5839
  42
0
  0
VERTEX
  8
Обводка_Top
  10
59.4313
  20
13.4347
  42
0
  0
VERTEX
  8
Обводка_Top
  10
59.5338
  20
13.2675
  42
0
  0
VERTEX
  8
Обводка_Top
  10
59.6088
  20
13.0863
  42
0
  0
VERTEX
  8
Обводка_Top
  10
59.6546
  20
12.8955
  42
0
  0
VERTEX
  8
Обводка_Top
  10
59.67
  20
12.7
  42
0
  0
VERTEX
  8
Обводка_Top
  10
59.67
  20
5.8315
  42
0
  0
VERTEX
  8
Обводка_Top
  10
59.6699
  20
5.8308
  42
0
  0
SEQEND
  0
POLYLINE
  8
Обводка_Top
  6
CONTINUOUS
  66
1
  70
0
  40
1.0
  41
1.0
  0
VERTEX
  8
Обводка_Top
  10
62.21
  20
5.6425
  42
0
  0
VERTEX
  8
Обводка_Top
  10
62.21
  20
4.33
  42
0
  0
VERTEX
  8
Обводка_Top
  10
62.1946
  20
4.1345
  42
0
  0
VERTEX
  8
Обводка_Top
  10
62.1488
  20
3.9437
  42
0
  0
VERTEX
  8
Обводка_Top
  10
62.0738
  20
3.7625
  42
0
  0
VERTEX
  8
Обводка_Top
  10
61.9713
  20
3.5953
  42
0
  0
VERTEX
  8
Обводка_Top
  10
61.8439
  20
3.4461
  42
0
  0
VERTEX
  8
Обводка_Top
  10
61.6947
  20
3.3187
  42
0
  0
VERTEX
  8
Обводка_Top
  10
61.5275
  20
3.2162
  42
0
  0
VERTEX
  8
Обводка_Top
  10
61.3463
  20
3.1412
  42
0
  0
VERTEX
  8
Обводка_Top
  10
61.1555
  20
3.0954
  42
0
  0
VERTEX
  8
Обводка_Top
  10
60.96
  20
3.08
  42
0
  0
VERTEX
  8
Обводка_Top
  10
60.7645
  20
3.0954
  42
0
  0
VERTEX
  8
Обводка_Top
  10
60.5737
  20
3.1412
  42
0
  0
VERTEX
  8
Обводка_Top
  10
60.3925
  20
3.2162
  42
0
  0
VERTEX
  8
Обводка_Top
  10
60.2253
  20
3.3187
  42
0
  0
VERTEX
  8
Обводка_Top
  10
60.0761
  20
3.4461
  42
0
  0
VERTEX
  8
Обводка_Top
  10
59.9487
  20
3.5953
  42
0
  0
VERTEX
  8
Обводка_Top
  10
59.8462
  20
3.7625
  42
0
  0
VERTEX
  8
Обводка_Top
  10
59.7712
  20
3.9437
  42
0
  0
VERTEX
  8
Обводка_Top
  10
59.7254
  20
4.1345
  42
0
  0
VERTEX
  8
Обводка_Top
  10
59.71
  20
4.33
  42
0
  0
VERTEX
  8
Обводка_Top
  10
59.71
  20
5.83
  42
0
  0
VERTEX
  8
Обводка_Top
  10
59.7254
  20
6.0255
  42
0
  0
VERTEX
  8
Обводка_Top
  10
59.7712
  20
6.2163
  42
0
  0
VERTEX
  8
Обводка_Top
  10
59.8462
  20
6.3975
  42
0
  0
VERTEX
  8
Обводка_Top
  10
59.9487
  20
6.5647
  42
0
  0
VERTEX
  8
Обводка_Top
  10
60.0761
  20
6.7139
  42
0
  0
VERTEX
  8
Обводка_Top
  10
60.2253
  20
6.8413
  42
0
  0
VERTEX
  8
Обводка_Top
  10
60.3925
  20
6.9438
  42
0
  0
VERTEX
  8
Обводка_Top
  10
60.5737
  20
7.0188
  42
0
  0
VERTEX
  8
Обводка_Top
  10
60.7645
  20
7.0646
  42
0
  0
VERTEX
  8
Обводка_Top
  10
60.96
  20
7.08
  42
0
  0
VERTEX
  8
Обводка_Top
  10
61.1555
  20
7.0646
  42
0
  0
VERTEX
  8
Обводка_Top
  10
61.3463
  20
7.0188
  42
0
  0
VERTEX
  8
Обводка_Top
  10
61.5275
  20
6.9438
  42
0
  0
VERTEX
  8
Обводка_Top
  10
61.6947
  20
6.8413
  42
0
  0
VERTEX
  8
Обводка_Top
  10
61.8439
  20
6.7139
  42
0
  0
VERTEX
  8
Обводка_Top
  10
61.9713
  20
6.5647
  42
0
  0
VERTEX
  8
Обводка_Top
  10
62.0738
  20
6.3975
  42
0
  0
VERTEX
  8
Обводка_Top
  10
62.1488
  20
6.2163
  42
0
  0
VERTEX
  8
Обводка_Top
  10
62.1946
  20
6.0255
  42
0
  0
VERTEX
  8
Обводка_Top
  10
62.21
  20
5.83
  42
0
  0
VERTEX
  8
Обводка_Top
  10
62.21
  20
5.6425
  42
0
  0
SEQEND
  0
POLYLINE
  8
Обводка_Top
  6
CONTINUOUS
  66
1
  70
0
  40
1.0
  41
1.0
  0
VERTEX
  8
Обводка_Top
  10
24.35
  20
3.79
  42
0
  0
VERTEX
  8
Обводка_Top
  10
26.65
  20
3.79
  42
0
  0
VERTEX
  8
Обводка_Top
  10
26.65
  20
1.29
  42
0
  0
VERTEX
  8
Обводка_Top
  10
25.282
  20
1.29
  42
0
  0
VERTEX
  8
Обводка_Top
  10
24.3789
  20
0.3861
  42
0
  0
VERTEX
  8
Обводка_Top
  10
24.2297
  20
0.2587
  42
0
  0
VERTEX
  8
Обводка_Top
  10
24.0625
  20
0.1562
  42
0
  0
VERTEX
  8
Обводка_Top
  10
23.8813
  20
0.0812
  42
0
  0
VERTEX
  8
Обводка_Top
  10
23.6905
  20
0.0354
  42
0
  0
VERTEX
  8
Обводка_Top
  10
23.4942
  20
0.0201
  42
0
  0
VERTEX
  8
Обводка_Top
  10
13.97
  20
0.02
  42
0
  0
VERTEX
  8
Обводка_Top
  10
13.7745
  20
0.0354
  42
0
  0
VERTEX
  8
Обводка_Top
  10
13.5837
  20
0.0812
  42
0
  0
VERTEX
  8
Обводка_Top
  10
13.4025
  20
0.1562
  42
0
  0
VERTEX
  8
Обводка_Top
  10
13.2353
  20
0.2587
  42
0
  0
VERTEX
  8
Обводка_Top
  10
13.0856
  20
0.3867
  42
0
  0
VERTEX
  8
Обводка_Top
  10
8.3726
  20
5.0997
  42
0
  0
VERTEX
  8
Обводка_Top
  10
1.27
  20
5.1
  42
0
  0
VERTEX
  8
Обводка_Top
  10
1.0745
  20
5.1154
  42
0
  0
VERTEX
  8
Обводка_Top
  10
0.8837
  20
5.1612
  42
0
  0
VERTEX
  8
Обводка_Top
  10
0.7025
  20
5.2362
  42
0
  0
VERTEX
  8
Обводка_Top
  10
0.5353
  20
5.3387
  42
0
  0
VERTEX
  8
Обводка_Top
  10
0.3861
  20
5.4661
  42
0
  0
VERTEX
  8
Обводка_Top
  10
0.2587
  20
5.6153
  42
0
  0
VERTEX
  8
Обводка_Top
  10
0.1562
  20
5.7825
  42
0
  0
VERTEX
  8
Обводка_Top
  10
0.0812
  20
5.9637
  42
0
  0
VERTEX
  8
Обводка_Top
  10
0.0354
  20
6.1545
  42
0
  0
VERTEX
  8
Обводка_Top
  10
0.02
  20
6.35
  42
0
  0
VERTEX
  8
Обводка_Top
  10
0.0354
  20
6.5455
  42
0
  0
VERTEX
  8
Обводка_Top
  10
0.0812
  20
6.7363
  42
0
  0
VERTEX
  8
Обводка_Top
  10
0.1562
  20
6.9175
  42
0
  0
VERTEX
  8
Обводка_Top
  10
0.2587
  20
7.0847
  42
0
  0
VERTEX
  8
Обводка_Top
  10
0.3861
  20
7.2339
  42
0
  0
VERTEX
  8
Обводка_Top
  10
0.5353
  20
7.3613
  42
0
  0
VERTEX
  8
Обводка_Top
  10
0.7025
  20
7.4638
  42
0
  0
VERTEX
  8
Обводка_Top
  10
0.8837
  20
7.5388
  42
0
  0
VERTEX
  8
Обводка_Top
  10
1.0745
  20
7.5846
  42
0
  0
VERTEX
  8
Обводка_Top
  10
1.27
  20
7.6
  42
0
  0
VERTEX
  8
Обводка_Top
  10
8.89
  20
7.6
  42
0
  0
VERTEX
  8
Обводка_Top
  10
9.0855
  20
7.5846
  42
0
  0
VERTEX
  8
Обводка_Top
  10
9.2763
  20
7.5388
  42
0
  0
VERTEX
  8
Обводка_Top
  10
9.4575
  20
7.4638
  42
0
  0
VERTEX
  8
Обводка_Top
  10
9.6247
  20
7.3613
  42
0
  0
VERTEX
  8
Обводка_Top
  10
9.7739
  20
7.2339
  42
0
  0
VERTEX
  8
Обводка_Top
  10
14.4874
  20
2.5203
  42
0
  0
VERTEX
  8
Обводка_Top
  10
22.977
  20
2.52
  42
0
  0
VERTEX
  8
Обводка_Top
  10
23.8811
  20
3.4239
  42
0
  0
VERTEX
  8
Обводка_Top
  10
24.0309
  20
3.5517
  42
0
  0
SEQEND
  0
POLYLINE
  8
Обводка_Top
  6
CONTINUOUS
  66
1
  70
0
  40
1.0
  41
1.0
  0
VERTEX
  8
Обводка_Top
  10
16.4746
  20
4.8845
  42
0
  0
VERTEX
  8
Обводка_Top
  10
16.4288
  20
4.6937
  42
0
  0
VERTEX
  8
Обводка_Top
  10
16.3538
  20
4.5125
  42
0
  0
VERTEX
  8
Обводка_Top
  10
16.2513
  20
4.3453
  42
0
  0
VERTEX
  8
Обводка_Top
  10
16.1239
  20
4.1961
  42
0
  0
VERTEX
  8
Обводка_Top
  10
15.9747
  20
4.0687
  42
0
  0
VERTEX
  8
Обводка_Top
  10
15.8075
  20
3.9662
  42
0
  0
VERTEX
  8
Обводка_Top
  10
15.6263
  20
3.8912
  42
0
  0
VERTEX
  8
Обводка_Top
  10
15.4355
  20
3.8454
  42
0
  0
VERTEX
  8
Обводка_Top
  10
15.24
  20
3.83
  42
0
  0
VERTEX
  8
Обводка_Top
  10
15.0445
  20
3.8454
  42
0
  0
VERTEX
  8
Обводка_Top
  10
14.8537
  20
3.8912
  42
0
  0
VERTEX
  8
Обводка_Top
  10
14.6725
  20
3.9662
  42
0
  0
VERTEX
  8
Обводка_Top
  10
14.5053
  20
4.0687
  42
0
  0
VERTEX
  8
Обводка_Top
  10
14.3561
  20
4.1961
  42
0
  0
VERTEX
  8
Обводка_Top
  10
14.2287
  20
4.3453
  42
0
  0
VERTEX
  8
Обводка_Top
  10
14.1262
  20
4.5125
  42
0
  0
VERTEX
  8
Обводка_Top
  10
14.0512
  20
4.6937
  42
0
  0
VERTEX
  8
Обводка_Top
  10
14.0054
  20
4.8845
  42
0
  0
VERTEX
  8
Обводка_Top
  10
13.99
  20
5.08
  42
0
  0
VERTEX
  8
Обводка_Top
  10
14.0054
  20
5.2755
  42
0
  0
VERTEX
  8
Обводка_Top
  10
14.0512
  20
5.4663
  42
0
  0
VERTEX
  8
Обводка_Top
  10
14.1262
  20
5.6475
  42
0
  0
VERTEX
  8
Обводка_Top
  10
14.2287
  20
5.8147
  42
0
  0
VERTEX
  8
Обводка_Top
  10
14.3561
  20
5.9639
  42
0
  0
VERTEX
  8
Обводка_Top
  10
14.5053
  20
6.0913
  42
0
  0
VERTEX
  8
Обводка_Top
  10
14.6725
  20
6.1938
  42
0
  0
VERTEX
  8
Обводка_Top
  10
14.8537
  20
6.2688
  42
0
  0
VERTEX
  8
Обводка_Top
  10
15.0445
  20
6.3146
  42
0
  0
VERTEX
  8
Обводка_Top
  10
15.24
  20
6.33
  42
0
  0
VERTEX
  8
Обводка_Top
  10
15.4355
  20
6.3146
  42
0
  0
VERTEX
  8
Обводка_Top
  10
15.6263
  20
6.2688
  42
0
  0
VERTEX
  8
Обводка_Top
  10
15.8075
  20
6.1938
  42
0
  0
VERTEX
  8
Обводка_Top
  10
15.9747
  20
6.0913
  42
0
  0
VERTEX
  8
Обводка_Top
  10
16.1239
  20
5.9639
  42
0
  0
VERTEX
  8
Обводка_Top
  10
16.2513
  20
5.8147
  42
0
  0
VERTEX
  8
Обводка_Top
  10
16.3538
  20
5.6475
  42
0
  0
VERTEX
  8
Обводка_Top
  10
16.4288
  20
5.4663
  42
0
  0
VERTEX
  8
Обводка_Top
  10
16.4746
  20
5.2755
  42
0
  0
VERTEX
  8
Обводка_Top
  10
16.49
  20
5.08
  42
0
  0
VERTEX
  8
Обводка_Top
  10
16.4746
  20
4.8845
  42
0
  0
SEQEND
  0
POLYLINE
  8
Обводка_Top
  6
CONTINUOUS
  66
1
  70
0
  40
1.0
  41
1.0
  0
VERTEX
  8
Обводка_Top
  10
19.03
  20
5.6425
  42
0
  0
VERTEX
  8
Обводка_Top
  10
19.03
  20
4.33
  42
0
  0
VERTEX
  8
Обводка_Top
  10
19.0146
  20
4.1345
  42
0
  0
VERTEX
  8
Обводка_Top
  10
18.9688
  20
3.9437
  42
0
  0
VERTEX
  8
Обводка_Top
  10
18.8938
  20
3.7625
  42
0
  0
VERTEX
  8
Обводка_Top
  10
18.7913
  20
3.5953
  42
0
  0
VERTEX
  8
Обводка_Top
  10
18.6639
  20
3.4461
  42
0
  0
VERTEX
  8
Обводка_Top
  10
18.5147
  20
3.3187
  42
0
  0
VERTEX
  8
Обводка_Top
  10
18.3475
  20
3.2162
  42
0
  0
VERTEX
  8
Обводка_Top
  10
18.1663
  20
3.1412
  42
0
  0
VERTEX
  8
Обводка_Top
  10
17.9755
  20
3.0954
  42
0
  0
VERTEX
  8
Обводка_Top
  10
17.78
  20
3.08
  42
0
  0
VERTEX
  8
Обводка_Top
  10
17.5845
  20
3.0954
  42
0
  0
VERTEX
  8
Обводка_Top
  10
17.3937
  20
3.1412
  42
0
  0
VERTEX
  8
Обводка_Top
  10
17.2125
  20
3.2162
  42
0
  0
VERTEX
  8
Обводка_Top
  10
17.0453
  20
3.3187
  42
0
  0
VERTEX
  8
Обводка_Top
  10
16.8961
  20
3.4461
  42
0
  0
VERTEX
  8
Обводка_Top
  10
16.7687
  20
3.5953
  42
0
  0
VERTEX
  8
Обводка_Top
  10
16.6662
  20
3.7625
  42
0
  0
VERTEX
  8
Обводка_Top
  10
16.5912
  20
3.9437
  42
0
  0
VERTEX
  8
Обводка_Top
  10
16.5454
  20
4.1345
  42
0
  0
VERTEX
  8
Обводка_Top
  10
16.53
  20
4.33
  42
0
  0
VERTEX
  8
Обводка_Top
  10
16.53
  20
5.83
  42
0
  0
VERTEX
  8
Обводка_Top
  10
16.5454
  20
6.0255
  42
0
  0
VERTEX
  8
Обводка_Top
  10
16.5912
  20
6.2163
  42
0
  0
VERTEX
  8
Обводка_Top
  10
16.6662
  20
6.3975
  42
0
  0
VERTEX
  8
Обводка_Top
  10
16.7687
  20
6.5647
  42
0
  0
VERTEX
  8
Обводка_Top
  10
16.8961
  20
6.7139
  42
0
  0
VERTEX
  8
Обводка_Top
  10
17.0453
  20
6.8413
  42
0
  0
VERTEX
  8
Обводка_Top
  10
17.2125
  20
6.9438
  42
0
  0
VERTEX
  8
Обводка_Top
  10
17.3937
  20
7.0188
  42
0
  0
VERTEX
  8
Обводка_Top
  10
17.5845
  20
7.0646
  42
0
  0
VERTEX
  8
Обводка_Top
  10
17.78
  20
7.08
  42
0
  0
VERTEX
  8
Обводка_Top
  10
17.9755
  20
7.0646
  42
0
  0
VERTEX
  8
Обводка_Top
  10
18.1663
  20
7.0188
  42
0
  0
VERTEX
  8
Обводка_Top
  10
18.3475
  20
6.9438
  42
0
  0
VERTEX
  8
Обводка_Top
  10
18.5147
  20
6.8413
  42
0
  0
VERTEX
  8
Обводка_Top
  10
18.6639
  20
6.7139
  42
0
  0
VERTEX
  8
Обводка_Top
  10
18.7913
  20
6.5647
  42
0
  0
VERTEX
  8
Обводка_Top
  10
18.8938
  20
6.3975
  42
0
  0
VERTEX
  8
Обводка_Top
  10
18.9688
  20
6.2163
  42
0
  0
VERTEX
  8
Обводка_Top
  10
19.0146
  20
6.0255
  42
0
  0
VERTEX
  8
Обводка_Top
  10
19.03
  20
5.83
  42
0
  0
VERTEX
  8
Обводка_Top
  10
19.03
  20
5.6425
  42
0
  0
SEQEND
  0
POLYLINE
  8
Обводка_Top
  6
CONTINUOUS
  66
1
  70
0
  40
1.0
  41
1.0
  0
VERTEX
  8
Обводка_Top
  10
57.8575
  20
35.54
  42
0
  0
VERTEX
  8
Обводка_Top
  10
59.17
  20
35.54
  42
0
  0
VERTEX
  8
Обводка_Top
  10
59.3655
  20
35.5246
  42
0
  0
VERTEX
  8
Обводка_Top
  10
59.5563
  20
35.4788
  42
0
  0
VERTEX
  8
Обводка_Top
  10
59.7375
  20
35.4038
  42
0
  0
VERTEX
  8
Обводка_Top
  10
59.9047
  20
35.3013
  42
0
  0
VERTEX
  8
Обводка_Top
  10
60.0539
  20
35.1739
  42
0
  0
VERTEX
  8
Обводка_Top
  10
60.1813
  20
35.0247
  42
0
  0
VERTEX
  8
Обводка_Top
  10
60.2838
  20
34.8575
  42
0
  0
VERTEX
  8
Обводка_Top
  10
60.3588
  20
34.6763
  42
0
  0
VERTEX
  8
Обводка_Top
  10
60.4046
  20
34.4855
  42
0
  0
VERTEX
  8
Обводка_Top
  10
60.42
  20
34.29
  42
0
  0
VERTEX
  8
Обводка_Top
  10
60.4046
  20
34.0945
  42
0
  0
VERTEX
  8
Обводка_Top
  10
60.3588
  20
33.9037
  42
0
  0
VERTEX
  8
Обводка_Top
  10
60.2838
  20
33.7225
  42
0
  0
VERTEX
  8
Обводка_Top
  10
60.1813
  20
33.5553
  42
0
  0
VERTEX
  8
Обводка_Top
  10
60.0539
  20
33.4061
  42
0
  0
VERTEX
  8
Обводка_Top
  10
59.9047
  20
33.2787
  42
0
  0
VERTEX
  8
Обводка_Top
  10
59.7375
  20
33.1762
  42
0
  0
VERTEX
  8
Обводка_Top
  10
59.5563
  20
33.1012
  42
0
  0
VERTEX
  8
Обводка_Top
  10
59.3655
  20
33.0554
  42
0
  0
VERTEX
  8
Обводка_Top
  10
59.17
  20
33.04
  42
0
  0
VERTEX
  8
Обводка_Top
  10
1.27
  20
33.04
  42
0
  0
VERTEX
  8
Обводка_Top
  10
1.0745
  20
33.0554
  42
0
  0
VERTEX
  8
Обводка_Top
  10
0.8837
  20
33.1012
  42
0
  0
VERTEX
  8
Обводка_Top
  10
0.7025
  20
33.1762
  42
0
  0
VERTEX
  8
Обводка_Top
  10
0.5353
  20
33.2787
  42
0
  0
VERTEX
  8
Обводка_Top
  10
0.3861
  20
33.4061
  42
0
  0
VERTEX
  8
Обводка_Top
  10
0.2587
  20
33.5553
  42
0
  0
VERTEX
  8
Обводка_Top
  10
0.1562
  20
33.7225
  42
0
  0
VERTEX
  8
Обводка_Top
  10
0.0812
  20
33.9037
  42
0
  0
VERTEX
  8
Обводка_Top
  10
0.0354
  20
34.0945
  42
0
  0
VERTEX
  8
Обводка_Top
  10
0.02
  20
34.29
  42
0
  0
VERTEX
  8
Обводка_Top
  10
0.0354
  20
34.4855
  42
0
  0
VERTEX
  8
Обводка_Top
  10
0.0812
  20
34.6763
  42
0
  0
VERTEX
  8
Обводка_Top
  10
0.1562
  20
34.8575
  42
0
  0
VERTEX
  8
Обводка_Top
  10
0.2587
  20
35.0247
  42
0
  0
VERTEX
  8
Обводка_Top
  10
0.3861
  20
35.1739
  42
0
  0
VERTEX
  8
Обводка_Top
  10
0.5353
  20
35.3013
  42
0
  0
VERTEX
  8
Обводка_Top
  10
0.7025
  20
35.4038
  42
0
  0
VERTEX
  8
Обводка_Top
  10
0.8837
  20
35.4788
  42
0
  0
VERTEX
  8
Обводка_Top
  10
1.0745
  20
35.5246
  42
0
  0
VERTEX
  8
Обводка_Top
  10
1.27
  20
35.54
  42
0
  0
VERTEX
  8
Обводка_Top
  10
57.8575
  20
35.54
  42
0
  0
SEQEND
  0
POLYLINE
  8
Обводка_Top
  6
CONTINUOUS
  66
1
  70
0
  40
1.0
  41
1.0
  0
VERTEX
  8
Обводка_Top
  10
60.0533
  20
32.6344
  42
0
  0
VERTEX
  8
Обводка_Top
  10
59.9047
  20
32.7613
  42
0
  0
VERTEX
  8
Обводка_Top
  10
59.7375
  20
32.8638
  42
0
  0
VERTEX
  8
Обводка_Top
  10
59.5563
  20
32.9388
  42
0
  0
VERTEX
  8
Обводка_Top
  10
59.3655
  20
32.9846
  42
0
  0
VERTEX
  8
Обводка_Top
  10
59.0575
  20
33.0
  42
0
  0
VERTEX
  8
Обводка_Top
  10
1.27
  20
33.0
  42
0
  0
VERTEX
  8
Обводка_Top
  10
1.0745
  20
32.9846
  42
0
  0
VERTEX
  8
Обводка_Top
  10
0.8837
  20
32.9388
  42
0
  0
VERTEX
  8
Обводка_Top
  10
0.7025
  20
32.8638
  42
0
  0
VERTEX
  8
Обводка_Top
  10
0.5353
  20
32.7613
  42
0
  0
VERTEX
  8
Обводка_Top
  10
0.3861
  20
32.6339
  42
0
  0
VERTEX
  8
Обводка_Top
  10
0.2587
  20
32.4847
  42
0
  0
VERTEX
  8
Обводка_Top
  10
0.1562
  20
32.3175
  42
0
  0
VERTEX
  8
Обводка_Top
  10
0.0812
  20
32.1363
  42
0
  0
VERTEX
  8
Обводка_Top
  10
0.0354
  20
31.9455
  42
0
  0
VERTEX
  8
Обводка_Top
  10
0.02
  20
31.75
  42
0
  0
VERTEX
  8
Обводка_Top
  10
0.0354
  20
31.5545
  42
0
  0
VERTEX
  8
Обводка_Top
  10
0.0812
  20
31.3637
  42
0
  0
VERTEX
  8
Обводка_Top
  10
0.1562
  20
31.1825
  42
0
  0
VERTEX
  8
Обводка_Top
  10
0.2587
  20
31.0153
  42
0
  0
VERTEX
  8
Обводка_Top
  10
0.3861
  20
30.8661
  42
0
  0
VERTEX
  8
Обводка_Top
  10
0.5353
  20
30.7387
  42
0
  0
VERTEX
  8
Обводка_Top
  10
0.7025
  20
30.6362
  42
0
  0
VERTEX
  8
Обводка_Top
  10
0.8837
  20
30.5612
  42
0
  0
VERTEX
  8
Обводка_Top
  10
1.0745
  20
30.5154
  42
0
  0
VERTEX
  8
Обводка_Top
  10
1.27
  20
30.5
  42
0
  0
VERTEX
  8
Обводка_Top
  10
59.17
  20
30.5
  42
0
  0
VERTEX
  8
Обводка_Top
  10
59.3655
  20
30.5154
  42
0
  0
VERTEX
  8
Обводка_Top
  10
59.5563
  20
30.5612
  42
0
  0
VERTEX
  8
Обводка_Top
  10
59.7375
  20
30.6362
  42
0
  0
VERTEX
  8
Обводка_Top
  10
59.9047
  20
30.7387
  42
0
  0
VERTEX
  8
Обводка_Top
  10
60.0539
  20
30.8661
  42
0
  0
SEQEND
  0
POLYLINE
  8
Обводка_Top
  6
CONTINUOUS
  66
1
  70
0
  40
1.0
  41
1.0
  0
VERTEX
  8
Обводка_Top
  10
57.8575
  20
30.46
  42
0
  0
VERTEX
  8
Обводка_Top
  10
59.17
  20
30.46
  42
0
  0
VERTEX
  8
Обводка_Top
  10
59.3655
  20
30.4446
  42
0
  0
VERTEX
  8
Обводка_Top
  10
59.5563
  20
30.3988
  42
0
  0
VERTEX
  8
Обводка_Top
  10
59.7375
  20
30.3238
  42
0
  0
VERTEX
  8
Обводка_Top
  10
59.9047
  20
30.2213
  42
0
  0
VERTEX
  8
Обводка_Top
  10
60.0539
  20
30.0939
  42
0
  0
VERTEX
  8
Обводка_Top
  10
60.1813
  20
29.9447
  42
0
  0
VERTEX
  8
Обводка_Top
  10
60.2838
  20
29.7775
  42
0
  0
VERTEX
  8
Обводка_Top
  10
60.3588
  20
29.5963
  42
0
  0
VERTEX
  8
Обводка_Top
  10
60.4046
  20
29.4055
  42
0
  0
VERTEX
  8
Обводка_Top
  10
60.42
  20
29.21
  42
0
  0
VERTEX
  8
Обводка_Top
  10
60.4046
  20
29.0145
  42
0
  0
VERTEX
  8
Обводка_Top
  10
60.3588
  20
28.8237
  42
0
  0
VERTEX
  8
Обводка_Top
  10
60.2838
  20
28.6425
  42
0
  0
VERTEX
  8
Обводка_Top
  10
60.1813
  20
28.4753
  42
0
  0
VERTEX
  8
Обводка_Top
  10
60.0539
  20
28.3261
  42
0
  0
VERTEX
  8
Обводка_Top
  10
59.9047
  20
28.1987
  42
0
  0
VERTEX
  8
Обводка_Top
  10
59.7375
  20
28.0962
  42
0
  0
VERTEX
  8
Обводка_Top
  10
59.5563
  20
28.0212
  42
0
  0
VERTEX
  8
Обводка_Top
  10
59.3655
  20
27.9754
  42
0
  0
VERTEX
  8
Обводка_Top
  10
59.17
  20
27.96
  42
0
  0
VERTEX
  8
Обводка_Top
  10
1.27
  20
27.96
  42
0
  0
VERTEX
  8
Обводка_Top
  10
1.0745
  20
27.9754
  42
0
  0
VERTEX
  8
Обводка_Top
  10
0.8837
  20
28.0212
  42
0
  0
VERTEX
  8
Обводка_Top
  10
0.7025
  20
28.0962
  42
0
  0
VERTEX
  8
Обводка_Top
  10
0.5353
  20
28.1987
  42
0
  0
VERTEX
  8
Обводка_Top
  10
0.3861
  20
28.3261
  42
0
  0
VERTEX
  8
Обводка_Top
  10
0.2587
  20
28.4753
  42
0
  0
VERTEX
  8
Обводка_Top
  10
0.1562
  20
28.6425
  42
0
  0
VERTEX
  8
Обводка_Top
  10
0.0812
  20
28.8237
  42
0
  0
VERTEX
  8
Обводка_Top
  10
0.0354
  20
29.0145
  42
0
  0
VERTEX
  8
Обводка_Top
  10
0.02
  20
29.21
  42
0
  0
VERTEX
  8
Обводка_Top
  10
0.0354
  20
29.4055
  42
0
  0
VERTEX
  8
Обводка_Top
  10
0.0812
  20
29.5963
  42
0
  0
VERTEX
  8
Обводка_Top
  10
0.1562
  20
29.7775
  42
0
  0
VERTEX
  8
Обводка_Top
  10
0.2587
  20
29.9447
  42
0
  0
VERTEX
  8
Обводка_Top
  10
0.3861
  20
30.0939
  42
0
  0
VERTEX
  8
Обводка_Top
  10
0.5353
  20
30.2213
  42
0
  0
VERTEX
  8
Обводка_Top
  10
0.7025
  20
30.3238
  42
0
  0
VERTEX
  8
Обводка_Top
  10
0.8837
  20
30.3988
  42
0
  0
VERTEX
  8
Обводка_Top
  10
1.0745
  20
30.4446
  42
0
  0
VERTEX
  8
Обводка_Top
  10
1.27
  20
30.46
  42
0
  0
VERTEX
  8
Обводка_Top
  10
57.8575
  20
30.46
  42
0
  0
SEQEND
  0
POLYLINE
  8
Обводка_Top
  6
CONTINUOUS
  66
1
  70
0
  40
1.0
  41
1.0
  0
VERTEX
  8
Обводка_Top
  10
57.8575
  20
27.92
  42
0
  0
VERTEX
  8
Обводка_Top
  10
59.17
  20
27.92
  42
0
  0
VERTEX
  8
Обводка_Top
  10
59.3655
  20
27.9046
  42
0
  0
VERTEX
  8
Обводка_Top
  10
59.5563
  20
27.8588
  42
0
  0
VERTEX
  8
Обводка_Top
  10
59.7375
  20
27.7838
  42
0
  0
VERTEX
  8
Обводка_Top
  10
59.9047
  20
27.6813
  42
0
  0
VERTEX
  8
Обводка_Top
  10
60.0539
  20
27.5539
  42
0
  0
VERTEX
  8
Обводка_Top
  10
60.1813
  20
27.4047
  42
0
  0
VERTEX
  8
Обводка_Top
  10
60.2838
  20
27.2375
  42
0
  0
VERTEX
  8
Обводка_Top
  10
60.3588
  20
27.0563
  42
0
  0
VERTEX
  8
Обводка_Top
  10
60.4046
  20
26.8655
  42
0
  0
VERTEX
  8
Обводка_Top
  10
60.42
  20
26.67
  42
0
  0
VERTEX
  8
Обводка_Top
  10
60.4046
  20
26.4745
  42
0
  0
VERTEX
  8
Обводка_Top
  10
60.3588
  20
26.2837
  42
0
  0
VERTEX
  8
Обводка_Top
  10
60.2838
  20
26.1025
  42
0
  0
VERTEX
  8
Обводка_Top
  10
60.1813
  20
25.9353
  42
0
  0
VERTEX
  8
Обводка_Top
  10
60.0539
  20
25.7861
  42
0
  0
VERTEX
  8
Обводка_Top
  10
59.9047
  20
25.6587
  42
0
  0
VERTEX
  8
Обводка_Top
  10
59.7375
  20
25.5562
  42
0
  0
VERTEX
  8
Обводка_Top
  10
59.5563
  20
25.4812
  42
0
  0
VERTEX
  8
Обводка_Top
  10
59.3655
  20
25.4354
  42
0
  0
VERTEX
  8
Обводка_Top
  10
59.17
  20
25.42
  42
0
  0
VERTEX
  8
Обводка_Top
  10
1.27
  20
25.42
  42
0
  0
VERTEX
  8
Обводка_Top
  10
1.0745
  20
25.4354
  42
0
  0
VERTEX
  8
Обводка_Top
  10
0.8837
  20
25.4812
  42
0
  0
VERTEX
  8
Обводка_Top
  10
0.7025
  20
25.5562
  42
0
  0
VERTEX
  8
Обводка_Top
  10
0.5353
  20
25.6587
  42
0
  0
VERTEX
  8
Обводка_Top
  10
0.3861
  20
25.7861
  42
0
  0
VERTEX
  8
Обводка_Top
  10
0.2587
  20
25.9353
  42
0
  0
VERTEX
  8
Обводка_Top
  10
0.1562
  20
26.1025
  42
0
  0
VERTEX
  8
Обводка_Top
  10
0.0812
  20
26.2837
  42
0
  0
VERTEX
  8
Обводка_Top
  10
0.0354
  20
26.4745
  42
0
  0
VERTEX
  8
Обводка_Top
  10
0.02
  20
26.67
  42
0
  0
VERTEX
  8
Обводка_Top
  10
0.0354
  20
26.8655
  42
0
  0
VERTEX
  8
Обводка_Top
  10
0.0812
  20
27.0563
  42
0
  0
VERTEX
  8
Обводка_Top
  10
0.1562
  20
27.2375
  42
0
  0
VERTEX
  8
Обводка_Top
  10
0.2587
  20
27.4047
  42
0
  0
VERTEX
  8
Обводка_Top
  10
0.3861
  20
27.5539
  42
0
  0
VERTEX
  8
Обводка_Top
  10
0.5353
  20
27.6813
  42
0
  0
VERTEX
  8
Обводка_Top
  10
0.7025
  20
27.7838
  42
0
  0
VERTEX
  8
Обводка_Top
  10
0.8837
  20
27.8588
  42
0
  0
VERTEX
  8
Обводка_Top
  10
1.0745
  20
27.9046
  42
0
  0
VERTEX
  8
Обводка_Top
  10
1.27
  20
27.92
  42
0
  0
VERTEX
  8
Обводка_Top
  10
57.8575
  20
27.92
  42
0
  0
SEQEND
  0
POLYLINE
  8
Обводка_Top
  6
CONTINUOUS
  66
1
  70
0
  40
1.0
  41
1.0
  0
VERTEX
  8
Обводка_Top
  10
32.1945
  20
1.29
  42
0
  0
VERTEX
  8
Обводка_Top
  10
29.23
  20
1.29
  42
0
  0
VERTEX
  8
Обводка_Top
  10
29.23
  20
3.79
  42
0
  0
VERTEX
  8
Обводка_Top
  10
31.7697
  20
3.79
  42
0
  0
VERTEX
  8
Обводка_Top
  10
31.77
  20
5.83
  42
0
  0
VERTEX
  8
Обводка_Top
  10
31.7854
  20
6.0255
  42
0
  0
VERTEX
  8
Обводка_Top
  10
31.8312
  20
6.2163
  42
0
  0
VERTEX
  8
Обводка_Top
  10
31.9062
  20
6.3975
  42
0
  0
VERTEX
  8
Обводка_Top
  10
32.0087
  20
6.5647
  42
0
  0
VERTEX
  8
Обводка_Top
  10
32.1361
  20
6.7139
  42
0
  0
VERTEX
  8
Обводка_Top
  10
32.2853
  20
6.8413
  42
0
  0
VERTEX
  8
Обводка_Top
  10
32.4525
  20
6.9438
  42
0
  0
VERTEX
  8
Обводка_Top
  10
32.6337
  20
7.0188
  42
0
  0
VERTEX
  8
Обводка_Top
  10
32.8245
  20
7.0646
  42
0
  0
VERTEX
  8
Обводка_Top
  10
33.02
  20
7.08
  42
0
  0
VERTEX
  8
Обводка_Top
  10
33.2155
  20
7.0646
  42
0
  0
VERTEX
  8
Обводка_Top
  10
33.4063
  20
7.0188
  42
0
  0
VERTEX
  8
Обводка_Top
  10
33.5875
  20
6.9438
  42
0
  0
VERTEX
  8
Обводка_Top
  10
33.7547
  20
6.8413
  42
0
  0
VERTEX
  8
Обводка_Top
  10
33.9039
  20
6.7139
  42
0
  0
VERTEX
  8
Обводка_Top
  10
34.0313
  20
6.5647
  42
0
  0
VERTEX
  8
Обводка_Top
  10
34.1338
  20
6.3975
  42
0
  0
VERTEX
  8
Обводка_Top
  10
34.1616
  20
6.3302
  42
0
  0
VERTEX
  8
Обводка_Top
  10
34.4137
  20
6.33
  42
0
  0
VERTEX
  8
Обводка_Top
  10
34.5487
  20
6.5647
  42
0
  0
VERTEX
  8
Обводка_Top
  10
34.6761
  20
6.7139
  42
0
  0
VERTEX
  8
Обводка_Top
  10
34.8253
  20
6.8413
  42
0
  0
VERTEX
  8
Обводка_Top
  10
34.9925
  20
6.9438
  42
0
  0
VERTEX
  8
Обводка_Top
  10
35.1737
  20
7.0188
  42
0
  0
VERTEX
  8
Обводка_Top
  10
35.3645
  20
7.0646
  42
0
  0
VERTEX
  8
Обводка_Top
  10
35.56
  20
7.08
  42
0
  0
VERTEX
  8
Обводка_Top
  10
35.7555
  20
7.0646
  42
0
  0
VERTEX
  8
Обводка_Top
  10
35.9463
  20
7.0188
  42
0
  0
VERTEX
  8
Обводка_Top
  10
36.1275
  20
6.9438
  42
0
  0
VERTEX
  8
Обводка_Top
  10
36.2947
  20
6.8413
  42
0
  0
VERTEX
  8
Обводка_Top
  10
36.4439
  20
6.7139
  42
0
  0
VERTEX
  8
Обводка_Top
  10
36.5713
  20
6.5647
  42
0
  0
VERTEX
  8
Обводка_Top
  10
36.6738
  20
6.3975
  42
0
  0
VERTEX
  8
Обводка_Top
  10
36.7016
  20
6.3302
  42
0
  0
VERTEX
  8
Обводка_Top
  10
36.9541
  20
6.33
  42
0
  0
VERTEX
  8
Обводка_Top
  10
37.0887
  20
6.5647
  42
0
  0
VERTEX
  8
Обводка_Top
  10
37.2161
  20
6.7139
  42
0
  0
VERTEX
  8
Обводка_Top
  10
37.3653
  20
6.8413
  42
0
  0
VERTEX
  8
Обводка_Top
  10
37.5325
  20
6.9438
  42
0
  0
VERTEX
  8
Обводка_Top
  10
37.7137
  20
7.0188
  42
0
  0
VERTEX
  8
Обводка_Top
  10
37.9045
  20
7.0646
  42
0
  0
VERTEX
  8
Обводка_Top
  10
38.1
  20
7.08
  42
0
  0
VERTEX
  8
Обводка_Top
  10
38.2955
  20
7.0646
  42
0
  0
VERTEX
  8
Обводка_Top
  10
38.4863
  20
7.0188
  42
0
  0
VERTEX
  8
Обводка_Top
  10
38.6675
  20
6.9438
  42
0
  0
VERTEX
  8
Обводка_Top
  10
38.8347
  20
6.8413
  42
0
  0
VERTEX
  8
Обводка_Top
  10
38.9839
  20
6.7139
  42
0
  0
VERTEX
  8
Обводка_Top
  10
39.1113
  20
6.5647
  42
0
  0
VERTEX
  8
Обводка_Top
  10
39.2138
  20
6.3975
  42
0
  0
VERTEX
  8
Обводка_Top
  10
39.2888
  20
6.2163
  42
0
  0
VERTEX
  8
Обводка_Top
  10
39.3346
  20
6.0255
  42
0
  0
VERTEX
  8
Обводка_Top
  10
39.35
  20
5.83
  42
0
  0
VERTEX
  8
Обводка_Top
  10
39.35
  20
4.33
  42
0
  0
VERTEX
  8
Обводка_Top
  10
39.3346
  20
4.1345
  42
0
  0
VERTEX
  8
Обводка_Top
  10
39.2888
  20
3.9437
  42
0
  0
VERTEX
  8
Обводка_Top
  10
39.2138
  20
3.7625
  42
0
  0
VERTEX
  8
Обводка_Top
  10
39.1113
  20
3.5953
  42
0
  0
VERTEX
  8
Обводка_Top
  10
38.9844
  20
3.4467
  42
0
  0
SEQEND
  0
POLYLINE
  8
Обводка_Top
  6
CONTINUOUS
  66
1
  70
0
  40
1.0
  41
1.0
  0
VERTEX
  8
Обводка_Top
  10
54.6301
  20
53.3408
  42
0
  0
VERTEX
  8
Обводка_Top
  10
54.6305
  20
43.6983
  42
0
  0
VERTEX
  8
Обводка_Top
  10
49.0124
  20
38.08
  42
0
  0
VERTEX
  8
Обводка_Top
  10
1.27
  20
38.08
  42
0
  0
VERTEX
  8
Обводка_Top
  10
1.0745
  20
38.0646
  42
0
  0
VERTEX
  8
Обводка_Top
  10
0.8837
  20
38.0188
  42
0
  0
VERTEX
  8
Обводка_Top
  10
0.7025
  20
37.9438
  42
0
  0
VERTEX
  8
Обводка_Top
  10
0.5353
  20
37.8413
  42
0
  0
VERTEX
  8
Обводка_Top
  10
0.3861
  20
37.7139
  42
0
  0
VERTEX
  8
Обводка_Top
  10
0.2587
  20
37.5647
  42
0
  0
VERTEX
  8
Обводка_Top
  10
0.1562
  20
37.3975
  42
0
  0
VERTEX
  8
Обводка_Top
  10
0.0812
  20
37.2163
  42
0
  0
VERTEX
  8
Обводка_Top
  10
0.0354
  20
37.0255
  42
0
  0
VERTEX
  8
Обводка_Top
  10
0.02
  20
36.83
  42
0
  0
VERTEX
  8
Обводка_Top
  10
0.0354
  20
36.6345
  42
0
  0
VERTEX
  8
Обводка_Top
  10
0.0812
  20
36.4437
  42
0
  0
VERTEX
  8
Обводка_Top
  10
0.1562
  20
36.2625
  42
0
  0
VERTEX
  8
Обводка_Top
  10
0.2587
  20
36.0953
  42
0
  0
VERTEX
  8
Обводка_Top
  10
0.3861
  20
35.9461
  42
0
  0
VERTEX
  8
Обводка_Top
  10
0.5353
  20
35.8187
  42
0
  0
VERTEX
  8
Обводка_Top
  10
0.7025
  20
35.7162
  42
0
  0
VERTEX
  8
Обводка_Top
  10
0.8837
  20
35.6412
  42
0
  0
VERTEX
  8
Обводка_Top
  10
1.0745
  20
35.5954
  42
0
  0
VERTEX
  8
Обводка_Top
  10
1.3306
  20
35.58
  42
0
  0
VERTEX
  8
Обводка_Top
  10
49.53
  20
35.58
  42
0
  0
VERTEX
  8
Обводка_Top
  10
49.7255
  20
35.5954
  42
0
  0
VERTEX
  8
Обводка_Top
  10
49.9163
  20
35.6412
  42
0
  0
VERTEX
  8
Обводка_Top
  10
50.0975
  20
35.7162
  42
0
  0
VERTEX
  8
Обводка_Top
  10
50.2647
  20
35.8187
  42
0
  0
VERTEX
  8
Обводка_Top
  10
50.4144
  20
35.9466
  42
0
  0
VERTEX
  8
Обводка_Top
  10
56.7639
  20
42.2961
  42
0
  0
VERTEX
  8
Обводка_Top
  10
56.8913
  20
42.4453
  42
0
  0
VERTEX
  8
Обводка_Top
  10
56.9938
  20
42.6125
  42
0
  0
VERTEX
  8
Обводка_Top
  10
57.0688
  20
42.7937
  42
0
  0
VERTEX
  8
Обводка_Top
  10
57.1146
  20
42.9845
  42
0
  0
VERTEX
  8
Обводка_Top
  10
57.13
  20
43.1806
  42
0
  0
VERTEX
  8
Обводка_Top
  10
57.13
  20
54.09
  42
0
  0
VERTEX
  8
Обводка_Top
  10
57.1146
  20
54.2855
  42
0
  0
VERTEX
  8
Обводка_Top
  10
57.0688
  20
54.4763
  42
0
  0
VERTEX
  8
Обводка_Top
  10
56.9938
  20
54.6575
  42
0
  0
VERTEX
  8
Обводка_Top
  10
56.8913
  20
54.8247
  42
0
  0
VERTEX
  8
Обводка_Top
  10
56.7639
  20
54.9739
  42
0
  0
VERTEX
  8
Обводка_Top
  10
56.6147
  20
55.1013
  42
0
  0
VERTEX
  8
Обводка_Top
  10
56.4475
  20
55.2038
  42
0
  0
VERTEX
  8
Обводка_Top
  10
56.2663
  20
55.2788
  42
0
  0
VERTEX
  8
Обводка_Top
  10
56.0755
  20
55.3246
  42
0
  0
VERTEX
  8
Обводка_Top
  10
55.88
  20
55.34
  42
0
  0
VERTEX
  8
Обводка_Top
  10
55.6845
  20
55.3246
  42
0
  0
VERTEX
  8
Обводка_Top
  10
55.4937
  20
55.2788
  42
0
  0
VERTEX
  8
Обводка_Top
  10
55.3125
  20
55.2038
  42
0
  0
VERTEX
  8
Обводка_Top
  10
55.1453
  20
55.1013
  42
0
  0
VERTEX
  8
Обводка_Top
  10
54.9961
  20
54.9739
  42
0
  0
VERTEX
  8
Обводка_Top
  10
54.8687
  20
54.8247
  42
0
  0
VERTEX
  8
Обводка_Top
  10
54.7662
  20
54.6575
  42
0
  0
VERTEX
  8
Обводка_Top
  10
54.6912
  20
54.4763
  42
0
  0
VERTEX
  8
Обводка_Top
  10
54.6454
  20
54.2855
  42
0
  0
VERTEX
  8
Обводка_Top
  10
54.63
  20
53.9775
  42
0
  0
VERTEX
  8
Обводка_Top
  10
54.63
  20
53.3423
  42
0
  0
VERTEX
  8
Обводка_Top
  10
54.6301
  20
53.3408
  42
0
  0
SEQEND
  0
POLYLINE
  8
Обводка_Top
  6
CONTINUOUS
  66
1
  70
0
  40
1.0
  41
1.0
  0
VERTEX
  8
Обводка_Top
  10
39.35
  20
54.0913
  42
0
  0
VERTEX
  8
Обводка_Top
  10
39.35
  20
54.61
  42
0
  0
VERTEX
  8
Обводка_Top
  10
39.3346
  20
54.8055
  42
0
  0
VERTEX
  8
Обводка_Top
  10
39.2888
  20
54.9963
  42
0
  0
VERTEX
  8
Обводка_Top
  10
39.2138
  20
55.1775
  42
0
  0
VERTEX
  8
Обводка_Top
  10
39.1113
  20
55.3447
  42
0
  0
VERTEX
  8
Обводка_Top
  10
38.9834
  20
55.4944
  42
0
  0
VERTEX
  8
Обводка_Top
  10
36.4439
  20
58.0339
  42
0
  0
VERTEX
  8
Обводка_Top
  10
36.2947
  20
58.1613
  42
0
  0
VERTEX
  8
Обводка_Top
  10
36.1275
  20
58.2638
  42
0
  0
VERTEX
  8
Обводка_Top
  10
35.9463
  20
58.3388
  42
0
  0
VERTEX
  8
Обводка_Top
  10
35.7555
  20
58.3846
  42
0
  0
VERTEX
  8
Обводка_Top
  10
35.5459
  20
58.4
  42
0
  0
VERTEX
  8
Обводка_Top
  10
11.7475
  20
58.4
  42
0
  0
VERTEX
  8
Обводка_Top
  10
11.552
  20
58.3846
  42
0
  0
VERTEX
  8
Обводка_Top
  10
11.3612
  20
58.3388
  42
0
  0
VERTEX
  8
Обводка_Top
  10
11.18
  20
58.2638
  42
0
  0
VERTEX
  8
Обводка_Top
  10
11.0128
  20
58.1613
  42
0
  0
VERTEX
  8
Обводка_Top
  10
10.8631
  20
58.0334
  42
0
  0
VERTEX
  8
Обводка_Top
  10
8.6895
  20
55.86
  42
0
  0
VERTEX
  8
Обводка_Top
  10
1.27
  20
55.86
  42
0
  0
VERTEX
  8
Обводка_Top
  10
1.0745
  20
55.8446
  42
0
  0
VERTEX
  8
Обводка_Top
  10
0.8837
  20
55.7988
  42
0
  0
VERTEX
  8
Обводка_Top
  10
0.7025
  20
55.7238
  42
0
  0
VERTEX
  8
Обводка_Top
  10
0.5353
  20
55.6213
  42
0
  0
VERTEX
  8
Обводка_Top
  10
0.3861
  20
55.4939
  42
0
  0
VERTEX
  8
Обводка_Top
  10
0.2587
  20
55.3447
  42
0
  0
VERTEX
  8
Обводка_Top
  10
0.1562
  20
55.1775
  42
0
  0
VERTEX
  8
Обводка_Top
  10
0.0812
  20
54.9963
  42
0
  0
VERTEX
  8
Обводка_Top
  10
0.0354
  20
54.8055
  42
0
  0
VERTEX
  8
Обводка_Top
  10
0.02
  20
54.61
  42
0
  0
VERTEX
  8
Обводка_Top
  10
0.0354
  20
54.4145
  42
0
  0
VERTEX
  8
Обводка_Top
  10
0.0812
  20
54.2237
  42
0
  0
VERTEX
  8
Обводка_Top
  10
0.1562
  20
54.0425
  42
0
  0
VERTEX
  8
Обводка_Top
  10
0.2587
  20
53.8753
  42
0
  0
VERTEX
  8
Обводка_Top
  10
0.3861
  20
53.7261
  42
0
  0
VERTEX
  8
Обводка_Top
  10
0.5353
  20
53.5987
  42
0
  0
VERTEX
  8
Обводка_Top
  10
0.7025
  20
53.4962
  42
0
  0
VERTEX
  8
Обводка_Top
  10
0.8837
  20
53.4212
  42
0
  0
VERTEX
  8
Обводка_Top
  10
1.0745
  20
53.3754
  42
0
  0
VERTEX
  8
Обводка_Top
  10
1.4091
  20
53.36
  42
0
  0
VERTEX
  8
Обводка_Top
  10
9.2075
  20
53.36
  42
0
  0
VERTEX
  8
Обводка_Top
  10
9.403
  20
53.3754
  42
0
  0
VERTEX
  8
Обводка_Top
  10
9.5938
  20
53.4212
  42
0
  0
VERTEX
  8
Обводка_Top
  10
9.775
  20
53.4962
  42
0
  0
VERTEX
  8
Обводка_Top
  10
9.9422
  20
53.5987
  42
0
  0
VERTEX
  8
Обводка_Top
  10
10.0914
  20
53.7261
  42
0
  0
VERTEX
  8
Обводка_Top
  10
12.2655
  20
55.9
  42
0
  0
VERTEX
  8
Обводка_Top
  10
35.0426
  20
55.8996
  42
0
  0
VERTEX
  8
Обводка_Top
  10
36.85
  20
54.09
  42
0
  0
VERTEX
  8
Обводка_Top
  10
36.85
  20
52.59
  42
0
  0
VERTEX
  8
Обводка_Top
  10
36.8654
  20
52.3945
  42
0
  0
VERTEX
  8
Обводка_Top
  10
36.9112
  20
52.2037
  42
0
  0
VERTEX
  8
Обводка_Top
  10
36.9862
  20
52.0225
  42
0
  0
VERTEX
  8
Обводка_Top
  10
37.0887
  20
51.8553
  42
0
  0
VERTEX
  8
Обводка_Top
  10
37.2161
  20
51.7061
  42
0
  0
VERTEX
  8
Обводка_Top
  10
37.3653
  20
51.5787
  42
0
  0
VERTEX
  8
Обводка_Top
  10
37.5325
  20
51.4762
  42
0
  0
VERTEX
  8
Обводка_Top
  10
37.7137
  20
51.4012
  42
0
  0
VERTEX
  8
Обводка_Top
  10
37.9045
  20
51.3554
  42
0
  0
VERTEX
  8
Обводка_Top
  10
38.1
  20
51.34
  42
0
  0
VERTEX
  8
Обводка_Top
  10
38.2955
  20
51.3554
  42
0
  0
VERTEX
  8
Обводка_Top
  10
38.4863
  20
51.4012
  42
0
  0
VERTEX
  8
Обводка_Top
  10
38.6675
  20
51.4762
  42
0
  0
VERTEX
  8
Обводка_Top
  10
38.8347
  20
51.5787
  42
0
  0
VERTEX
  8
Обводка_Top
  10
38.9839
  20
51.7061
  42
0
  0
VERTEX
  8
Обводка_Top
  10
39.1113
  20
51.8553
  42
0
  0
VERTEX
  8
Обводка_Top
  10
39.2138
  20
52.0225
  42
0
  0
VERTEX
  8
Обводка_Top
  10
39.2888
  20
52.2037
  42
0
  0
VERTEX
  8
Обводка_Top
  10
39.3346
  20
52.3945
  42
0
  0
VERTEX
  8
Обводка_Top
  10
39.35
  20
52.7025
  42
0
  0
VERTEX
  8
Обводка_Top
  10
39.3499
  20
54.0908
  42
0
  0
VERTEX
  8
Обводка_Top
  10
39.35
  20
54.0913
  42
0
  0
SEQEND
  0
POLYLINE
  8
Обводка_Top
  6
CONTINUOUS
  66
1
  70
0
  40
1.0
  41
1.0
  0
VERTEX
  8
Обводка_Top
  10
46.97
  20
5.8313
  42
0
  0
VERTEX
  8
Обводка_Top
  10
46.97
  20
6.35
  42
0
  0
VERTEX
  8
Обводка_Top
  10
46.9546
  20
6.5455
  42
0
  0
VERTEX
  8
Обводка_Top
  10
46.9088
  20
6.7363
  42
0
  0
VERTEX
  8
Обводка_Top
  10
46.8338
  20
6.9175
  42
0
  0
VERTEX
  8
Обводка_Top
  10
46.7313
  20
7.0847
  42
0
  0
VERTEX
  8
Обводка_Top
  10
46.6034
  20
7.2344
  42
0
  0
VERTEX
  8
Обводка_Top
  10
41.5239
  20
12.3139
  42
0
  0
VERTEX
  8
Обводка_Top
  10
41.3747
  20
12.4413
  42
0
  0
VERTEX
  8
Обводка_Top
  10
41.2075
  20
12.5438
  42
0
  0
VERTEX
  8
Обводка_Top
  10
41.0263
  20
12.6188
  42
0
  0
VERTEX
  8
Обводка_Top
  10
40.8355
  20
12.6646
  42
0
  0
VERTEX
  8
Обводка_Top
  10
40.6393
  20
12.68
  42
0
  0
VERTEX
  8
Обводка_Top
  10
1.27
  20
12.68
  42
0
  0
VERTEX
  8
Обводка_Top
  10
1.0745
  20
12.6646
  42
0
  0
VERTEX
  8
Обводка_Top
  10
0.8837
  20
12.6188
  42
0
  0
VERTEX
  8
Обводка_Top
  10
0.7025
  20
12.5438
  42
0
  0
VERTEX
  8
Обводка_Top
  10
0.5353
  20
12.4413
  42
0
  0
VERTEX
  8
Обводка_Top
  10
0.3861
  20
12.3139
  42
0
  0
VERTEX
  8
Обводка_Top
  10
0.2587
  20
12.1647
  42
0
  0
VERTEX
  8
Обводка_Top
  10
0.1562
  20
11.9975
  42
0
  0
VERTEX
  8
Обводка_Top
  10
0.0812
  20
11.8163
  42
0
  0
VERTEX
  8
Обводка_Top
  10
0.0354
  20
11.6255
  42
0
  0
VERTEX
  8
Обводка_Top
  10
0.02
  20
11.43
  42
0
  0
VERTEX
  8
Обводка_Top
  10
0.0354
  20
11.2345
  42
0
  0
VERTEX
  8
Обводка_Top
  10
0.0812
  20
11.0437
  42
0
  0
VERTEX
  8
Обводка_Top
  10
0.1562
  20
10.8625
  42
0
  0
VERTEX
  8
Обводка_Top
  10
0.2587
  20
10.6953
  42
0
  0
VERTEX
  8
Обводка_Top
  10
0.3861
  20
10.5461
  42
0
  0
VERTEX
  8
Обводка_Top
  10
0.5353
  20
10.4187
  42
0
  0
VERTEX
  8
Обводка_Top
  10
0.7025
  20
10.3162
  42
0
  0
VERTEX
  8
Обводка_Top
  10
0.8837
  20
10.2412
  42
0
  0
VERTEX
  8
Обводка_Top
  10
1.0745
  20
10.1954
  42
0
  0
VERTEX
  8
Обводка_Top
  10
1.27
  20
10.18
  42
0
  0
VERTEX
  8
Обводка_Top
  10
40.1226
  20
10.1797
  42
0
  0
VERTEX
  8
Обводка_Top
  10
44.47
  20
5.83
  42
0
  0
VERTEX
  8
Обводка_Top
  10
44.47
  20
4.33
  42
0
  0
VERTEX
  8
Обводка_Top
  10
44.4854
  20
4.1345
  42
0
  0
VERTEX
  8
Обводка_Top
  10
44.5312
  20
3.9437
  42
0
  0
VERTEX
  8
Обводка_Top
  10
44.6062
  20
3.7625
  42
0
  0
VERTEX
  8
Обводка_Top
  10
44.7087
  20
3.5953
  42
0
  0
VERTEX
  8
Обводка_Top
  10
44.8361
  20
3.4461
  42
0
  0
VERTEX
  8
Обводка_Top
  10
44.9853
  20
3.3187
  42
0
  0
VERTEX
  8
Обводка_Top
  10
45.1525
  20
3.2162
  42
0
  0
VERTEX
  8
Обводка_Top
  10
45.3337
  20
3.1412
  42
0
  0
VERTEX
  8
Обводка_Top
  10
45.5245
  20
3.0954
  42
0
  0
VERTEX
  8
Обводка_Top
  10
45.72
  20
3.08
  42
0
  0
VERTEX
  8
Обводка_Top
  10
45.9155
  20
3.0954
  42
0
  0
VERTEX
  8
Обводка_Top
  10
46.1063
  20
3.1412
  42
0
  0
VERTEX
  8
Обводка_Top
  10
46.2875
  20
3.2162
  42
0
  0
VERTEX
  8
Обводка_Top
  10
46.4547
  20
3.3187
  42
0
  0
VERTEX
  8
Обводка_Top
  10
46.6039
  20
3.4461
  42
0
  0
VERTEX
  8
Обводка_Top
  10
46.7313
  20
3.5953
  42
0
  0
VERTEX
  8
Обводка_Top
  10
46.8338
  20
3.7625
  42
0
  0
VERTEX
  8
Обводка_Top
  10
46.9088
  20
3.9437
  42
0
  0
VERTEX
  8
Обводка_Top
  10
46.9546
  20
4.1345
  42
0
  0
VERTEX
  8
Обводка_Top
  10
46.97
  20
4.4425
  42
0
  0
VERTEX
  8
Обводка_Top
  10
46.9699
  20
5.8308
  42
0
  0
VERTEX
  8
Обводка_Top
  10
46.97
  20
5.8313
  42
0
  0
SEQEND
  0
POLYLINE
  8
Обводка_Top
  6
CONTINUOUS
  66
1
  70
0
  40
1.0
  41
1.0
  0
VERTEX
  8
Обводка_Top
  10
49.1433
  20
8.5044
  42
0
  0
VERTEX
  8
Обводка_Top
  10
49.2713
  20
8.3547
  42
0
  0
VERTEX
  8
Обводка_Top
  10
49.3738
  20
8.1875
  42
0
  0
VERTEX
  8
Обводка_Top
  10
49.4488
  20
8.0063
  42
0
  0
VERTEX
  8
Обводка_Top
  10
49.4946
  20
7.8155
  42
0
  0
VERTEX
  8
Обводка_Top
  10
49.51
  20
7.62
  42
0
  0
VERTEX
  8
Обводка_Top
  10
49.51
  20
4.33
  42
0
  0
VERTEX
  8
Обводка_Top
  10
49.4946
  20
4.1345
  42
0
  0
VERTEX
  8
Обводка_Top
  10
49.4488
  20
3.9437
  42
0
  0
VERTEX
  8
Обводка_Top
  10
49.3738
  20
3.7625
  42
0
  0
VERTEX
  8
Обводка_Top
  10
49.2713
  20
3.5953
  42
0
  0
VERTEX
  8
Обводка_Top
  10
49.1439
  20
3.4461
  42
0
  0
VERTEX
  8
Обводка_Top
  10
48.9947
  20
3.3187
  42
0
  0
VERTEX
  8
Обводка_Top
  10
48.8275
  20
3.2162
  42
0
  0
VERTEX
  8
Обводка_Top
  10
48.6463
  20
3.1412
  42
0
  0
VERTEX
  8
Обводка_Top
  10
48.4555
  20
3.0954
  42
0
  0
VERTEX
  8
Обводка_Top
  10
48.26
  20
3.08
  42
0
  0
VERTEX
  8
Обводка_Top
  10
48.0645
  20
3.0954
  42
0
  0
VERTEX
  8
Обводка_Top
  10
47.8737
  20
3.1412
  42
0
  0
VERTEX
  8
Обводка_Top
  10
47.6925
  20
3.2162
  42
0
  0
VERTEX
  8
Обводка_Top
  10
47.5253
  20
3.3187
  42
0
  0
VERTEX
  8
Обводка_Top
  10
47.3761
  20
3.4461
  42
0
  0
VERTEX
  8
Обводка_Top
  10
47.2487
  20
3.5953
  42
0
  0
VERTEX
  8
Обводка_Top
  10
47.1462
  20
3.7625
  42
0
  0
VERTEX
  8
Обводка_Top
  10
47.0712
  20
3.9437
  42
0
  0
VERTEX
  8
Обводка_Top
  10
47.0254
  20
4.1345
  42
0
  0
VERTEX
  8
Обводка_Top
  10
47.01
  20
4.33
  42
0
  0
VERTEX
  8
Обводка_Top
  10
47.01
  20
7.1028
  42
0
  0
VERTEX
  8
Обводка_Top
  10
41.3917
  20
12.7205
  42
0
  0
VERTEX
  8
Обводка_Top
  10
1.27
  20
12.72
  42
0
  0
VERTEX
  8
Обводка_Top
  10
1.0745
  20
12.7354
  42
0
  0
VERTEX
  8
Обводка_Top
  10
0.8837
  20
12.7812
  42
0
  0
VERTEX
  8
Обводка_Top
  10
0.7025
  20
12.8562
  42
0
  0
VERTEX
  8
Обводка_Top
  10
0.5353
  20
12.9587
  42
0
  0
VERTEX
  8
Обводка_Top
  10
0.3861
  20
13.0861
  42
0
  0
VERTEX
  8
Обводка_Top
  10
0.2587
  20
13.2353
  42
0
  0
VERTEX
  8
Обводка_Top
  10
0.1562
  20
13.4025
  42
0
  0
VERTEX
  8
Обводка_Top
  10
0.0812
  20
13.5837
  42
0
  0
VERTEX
  8
Обводка_Top
  10
0.0354
  20
13.7745
  42
0
  0
VERTEX
  8
Обводка_Top
  10
0.02
  20
13.97
  42
0
  0
VERTEX
  8
Обводка_Top
  10
0.0354
  20
14.1655
  42
0
  0
VERTEX
  8
Обводка_Top
  10
0.0812
  20
14.3563
  42
0
  0
VERTEX
  8
Обводка_Top
  10
0.1562
  20
14.5375
  42
0
  0
VERTEX
  8
Обводка_Top
  10
0.2587
  20
14.7047
  42
0
  0
VERTEX
  8
Обводка_Top
  10
0.3861
  20
14.8539
  42
0
  0
VERTEX
  8
Обводка_Top
  10
0.5353
  20
14.9813
  42
0
  0
VERTEX
  8
Обводка_Top
  10
0.7025
  20
15.0838
  42
0
  0
VERTEX
  8
Обводка_Top
  10
0.8837
  20
15.1588
  42
0
  0
VERTEX
  8
Обводка_Top
  10
1.0745
  20
15.2046
  42
0
  0
VERTEX
  8
Обводка_Top
  10
1.27
  20
15.22
  42
0
  0
VERTEX
  8
Обводка_Top
  10
41.91
  20
15.22
  42
0
  0
VERTEX
  8
Обводка_Top
  10
42.1055
  20
15.2046
  42
0
  0
VERTEX
  8
Обводка_Top
  10
42.2963
  20
15.1588
  42
0
  0
VERTEX
  8
Обводка_Top
  10
42.4775
  20
15.0838
  42
0
  0
VERTEX
  8
Обводка_Top
  10
42.6447
  20
14.9813
  42
0
  0
VERTEX
  8
Обводка_Top
  10
42.7939
  20
14.8539
  42
0
  0
VERTEX
  8
Обводка_Top
  10
49.1434
  20
8.5044
  42
0
  0
SEQEND
  0
POLYLINE
  8
Обводка_Top
  6
CONTINUOUS
  66
1
  70
0
  40
1.0
  41
1.0
  0
VERTEX
  8
Обводка_Top
  10
52.0499
  20
5.0792
  42
0
  0
VERTEX
  8
Обводка_Top
  10
52.05
  20
8.89
  42
0
  0
VERTEX
  8
Обводка_Top
  10
52.0346
  20
9.0855
  42
0
  0
VERTEX
  8
Обводка_Top
  10
51.9888
  20
9.2763
  42
0
  0
VERTEX
  8
Обводка_Top
  10
51.9138
  20
9.4575
  42
0
  0
VERTEX
  8
Обводка_Top
  10
51.8113
  20
9.6247
  42
0
  0
VERTEX
  8
Обводка_Top
  10
51.6834
  20
9.7744
  42
0
  0
VERTEX
  8
Обводка_Top
  10
44.0639
  20
17.3939
  42
0
  0
VERTEX
  8
Обводка_Top
  10
43.9147
  20
17.5213
  42
0
  0
VERTEX
  8
Обводка_Top
  10
43.7475
  20
17.6238
  42
0
  0
VERTEX
  8
Обводка_Top
  10
43.5663
  20
17.6988
  42
0
  0
VERTEX
  8
Обводка_Top
  10
43.3755
  20
17.7446
  42
0
  0
VERTEX
  8
Обводка_Top
  10
43.0696
  20
17.76
  42
0
  0
VERTEX
  8
Обводка_Top
  10
1.27
  20
17.76
  42
0
  0
VERTEX
  8
Обводка_Top
  10
1.0745
  20
17.7446
  42
0
  0
VERTEX
  8
Обводка_Top
  10
0.8837
  20
17.6988
  42
0
  0
VERTEX
  8
Обводка_Top
  10
0.7025
  20
17.6238
  42
0
  0
VERTEX
  8
Обводка_Top
  10
0.5353
  20
17.5213
  42
0
  0
VERTEX
  8
Обводка_Top
  10
0.3861
  20
17.3939
  42
0
  0
VERTEX
  8
Обводка_Top
  10
0.2587
  20
17.2447
  42
0
  0
VERTEX
  8
Обводка_Top
  10
0.1562
  20
17.0775
  42
0
  0
VERTEX
  8
Обводка_Top
  10
0.0812
  20
16.8963
  42
0
  0
VERTEX
  8
Обводка_Top
  10
0.0354
  20
16.7055
  42
0
  0
VERTEX
  8
Обводка_Top
  10
0.02
  20
16.51
  42
0
  0
VERTEX
  8
Обводка_Top
  10
0.0354
  20
16.3145
  42
0
  0
VERTEX
  8
Обводка_Top
  10
0.0812
  20
16.1237
  42
0
  0
VERTEX
  8
Обводка_Top
  10
0.1562
  20
15.9425
  42
0
  0
VERTEX
  8
Обводка_Top
  10
0.2587
  20
15.7753
  42
0
  0
VERTEX
  8
Обводка_Top
  10
0.3861
  20
15.6261
  42
0
  0
VERTEX
  8
Обводка_Top
  10
0.5353
  20
15.4987
  42
0
  0
VERTEX
  8
Обводка_Top
  10
0.7025
  20
15.3962
  42
0
  0
VERTEX
  8
Обводка_Top
  10
0.8837
  20
15.3212
  42
0
  0
VERTEX
  8
Обводка_Top
  10
1.0745
  20
15.2754
  42
0
  0
VERTEX
  8
Обводка_Top
  10
1.3804
  20
15.26
  42
0
  0
VERTEX
  8
Обводка_Top
  10
42.6625
  20
15.2597
  42
0
  0
VERTEX
  8
Обводка_Top
  10
49.55
  20
8.3728
  42
0
  0
VERTEX
  8
Обводка_Top
  10
49.55
  20
4.33
  42
0
  0
VERTEX
  8
Обводка_Top
  10
49.5654
  20
4.1345
  42
0
  0
VERTEX
  8
Обводка_Top
  10
49.6112
  20
3.9437
  42
0
  0
VERTEX
  8
Обводка_Top
  10
49.6862
  20
3.7625
  42
0
  0
VERTEX
  8
Обводка_Top
  10
49.7887
  20
3.5953
  42
0
  0
VERTEX
  8
Обводка_Top
  10
49.9161
  20
3.4461
  42
0
  0
VERTEX
  8
Обводка_Top
  10
50.0653
  20
3.3187
  42
0
  0
VERTEX
  8
Обводка_Top
  10
50.2325
  20
3.2162
  42
0
  0
VERTEX
  8
Обводка_Top
  10
50.4137
  20
3.1412
  42
0
  0
VERTEX
  8
Обводка_Top
  10
50.6045
  20
3.0954
  42
0
  0
VERTEX
  8
Обводка_Top
  10
50.8
  20
3.08
  42
0
  0
VERTEX
  8
Обводка_Top
  10
50.9955
  20
3.0954
  42
0
  0
VERTEX
  8
Обводка_Top
  10
51.1863
  20
3.1412
  42
0
  0
VERTEX
  8
Обводка_Top
  10
51.3675
  20
3.2162
  42
0
  0
VERTEX
  8
Обводка_Top
  10
51.5347
  20
3.3187
  42
0
  0
VERTEX
  8
Обводка_Top
  10
51.6839
  20
3.4461
  42
0
  0
VERTEX
  8
Обводка_Top
  10
51.8113
  20
3.5953
  42
0
  0
VERTEX
  8
Обводка_Top
  10
51.9138
  20
3.7625
  42
0
  0
VERTEX
  8
Обводка_Top
  10
51.9888
  20
3.9437
  42
0
  0
VERTEX
  8
Обводка_Top
  10
52.0346
  20
4.1345
  42
0
  0
VERTEX
  8
Обводка_Top
  10
52.05
  20
4.4425
  42
0
  0
VERTEX
  8
Обводка_Top
  10
52.05
  20
5.0777
  42
0
  0
VERTEX
  8
Обводка_Top
  10
52.0499
  20
5.0792
  42
0
  0
SEQEND
  0
POLYLINE
  8
Обводка_Top
  6
CONTINUOUS
  66
1
  70
0
  40
1.0
  41
1.0
  0
VERTEX
  8
Обводка_Top
  10
54.59
  20
5.0777
  42
0
  0
VERTEX
  8
Обводка_Top
  10
54.59
  20
4.33
  42
0
  0
VERTEX
  8
Обводка_Top
  10
54.5746
  20
4.1345
  42
0
  0
VERTEX
  8
Обводка_Top
  10
54.5288
  20
3.9437
  42
0
  0
VERTEX
  8
Обводка_Top
  10
54.4538
  20
3.7625
  42
0
  0
VERTEX
  8
Обводка_Top
  10
54.3513
  20
3.5953
  42
0
  0
VERTEX
  8
Обводка_Top
  10
54.2239
  20
3.4461
  42
0
  0
VERTEX
  8
Обводка_Top
  10
54.0747
  20
3.3187
  42
0
  0
VERTEX
  8
Обводка_Top
  10
53.9075
  20
3.2162
  42
0
  0
VERTEX
  8
Обводка_Top
  10
53.7263
  20
3.1412
  42
0
  0
VERTEX
  8
Обводка_Top
  10
53.5355
  20
3.0954
  42
0
  0
VERTEX
  8
Обводка_Top
  10
53.34
  20
3.08
  42
0
  0
VERTEX
  8
Обводка_Top
  10
53.1445
  20
3.0954
  42
0
  0
VERTEX
  8
Обводка_Top
  10
52.9537
  20
3.1412
  42
0
  0
VERTEX
  8
Обводка_Top
  10
52.7725
  20
3.2162
  42
0
  0
VERTEX
  8
Обводка_Top
  10
52.6053
  20
3.3187
  42
0
  0
VERTEX
  8
Обводка_Top
  10
52.4561
  20
3.4461
  42
0
  0
VERTEX
  8
Обводка_Top
  10
52.3287
  20
3.5953
  42
0
  0
VERTEX
  8
Обводка_Top
  10
52.2262
  20
3.7625
  42
0
  0
VERTEX
  8
Обводка_Top
  10
52.1512
  20
3.9437
  42
0
  0
VERTEX
  8
Обводка_Top
  10
52.1054
  20
4.1345
  42
0
  0
VERTEX
  8
Обводка_Top
  10
52.09
  20
4.33
  42
0
  0
VERTEX
  8
Обводка_Top
  10
52.09
  20
9.6418
  42
0
  0
VERTEX
  8
Обводка_Top
  10
43.9319
  20
17.8003
  42
0
  0
VERTEX
  8
Обводка_Top
  10
1.27
  20
17.8
  42
0
  0
VERTEX
  8
Обводка_Top
  10
1.0745
  20
17.8154
  42
0
  0
VERTEX
  8
Обводка_Top
  10
0.8837
  20
17.8612
  42
0
  0
VERTEX
  8
Обводка_Top
  10
0.7025
  20
17.9362
  42
0
  0
VERTEX
  8
Обводка_Top
  10
0.5353
  20
18.0387
  42
0
  0
VERTEX
  8
Обводка_Top
  10
0.3861
  20
18.1661
  42
0
  0
VERTEX
  8
Обводка_Top
  10
0.2587
  20
18.3153
  42
0
  0
VERTEX
  8
Обводка_Top
  10
0.1562
  20
18.4825
  42
0
  0
VERTEX
  8
Обводка_Top
  10
0.0812
  20
18.6637
  42
0
  0
VERTEX
  8
Обводка_Top
  10
0.0354
  20
18.8545
  42
0
  0
VERTEX
  8
Обводка_Top
  10
0.02
  20
19.05
  42
0
  0
VERTEX
  8
Обводка_Top
  10
0.0354
  20
19.2455
  42
0
  0
VERTEX
  8
Обводка_Top
  10
0.0812
  20
19.4363
  42
0
  0
VERTEX
  8
Обводка_Top
  10
0.1562
  20
19.6175
  42
0
  0
VERTEX
  8
Обводка_Top
  10
0.2587
  20
19.7847
  42
0
  0
VERTEX
  8
Обводка_Top
  10
0.3861
  20
19.9339
  42
0
  0
VERTEX
  8
Обводка_Top
  10
0.5353
  20
20.0613
  42
0
  0
VERTEX
  8
Обводка_Top
  10
0.7025
  20
20.1638
  42
0
  0
VERTEX
  8
Обводка_Top
  10
0.8837
  20
20.2388
  42
0
  0
VERTEX
  8
Обводка_Top
  10
1.0745
  20
20.2846
  42
0
  0
VERTEX
  8
Обводка_Top
  10
1.27
  20
20.3
  42
0
  0
VERTEX
  8
Обводка_Top
  10
44.45
  20
20.3
  42
0
  0
VERTEX
  8
Обводка_Top
  10
44.6455
  20
20.2846
  42
0
  0
VERTEX
  8
Обводка_Top
  10
44.8363
  20
20.2388
  42
0
  0
VERTEX
  8
Обводка_Top
  10
45.0175
  20
20.1638
  42
0
  0
VERTEX
  8
Обводка_Top
  10
45.1847
  20
20.0613
  42
0
  0
VERTEX
  8
Обводка_Top
  10
45.3339
  20
19.9339
  42
0
  0
VERTEX
  8
Обводка_Top
  10
54.2239
  20
11.0439
  42
0
  0
VERTEX
  8
Обводка_Top
  10
54.3513
  20
10.8947
  42
0
  0
VERTEX
  8
Обводка_Top
  10
54.4538
  20
10.7275
  42
0
  0
VERTEX
  8
Обводка_Top
  10
54.5288
  20
10.5463
  42
0
  0
VERTEX
  8
Обводка_Top
  10
54.5746
  20
10.3555
  42
0
  0
VERTEX
  8
Обводка_Top
  10
54.59
  20
10.16
  42
0
  0
VERTEX
  8
Обводка_Top
  10
54.5899
  20
5.0792
  42
0
  0
VERTEX
  8
Обводка_Top
  10
54.59
  20
5.0777
  42
0
  0
SEQEND
  0
POLYLINE
  8
Обводка_Top
  6
CONTINUOUS
  66
1
  70
0
  40
1.0
  41
1.0
  0
VERTEX
  8
Обводка_Top
  10
57.1299
  20
5.0792
  42
0
  0
VERTEX
  8
Обводка_Top
  10
57.13
  20
11.43
  42
0
  0
VERTEX
  8
Обводка_Top
  10
57.1146
  20
11.6255
  42
0
  0
VERTEX
  8
Обводка_Top
  10
57.0688
  20
11.8163
  42
0
  0
VERTEX
  8
Обводка_Top
  10
56.9938
  20
11.9975
  42
0
  0
VERTEX
  8
Обводка_Top
  10
56.8913
  20
12.1647
  42
0
  0
VERTEX
  8
Обводка_Top
  10
56.7634
  20
12.3144
  42
0
  0
VERTEX
  8
Обводка_Top
  10
46.6039
  20
22.4739
  42
0
  0
VERTEX
  8
Обводка_Top
  10
46.4547
  20
22.6013
  42
0
  0
VERTEX
  8
Обводка_Top
  10
46.2875
  20
22.7038
  42
0
  0
VERTEX
  8
Обводка_Top
  10
46.1063
  20
22.7788
  42
0
  0
VERTEX
  8
Обводка_Top
  10
45.9155
  20
22.8246
  42
0
  0
VERTEX
  8
Обводка_Top
  10
45.6702
  20
22.84
  42
0
  0
VERTEX
  8
Обводка_Top
  10
1.27
  20
22.84
  42
0
  0
VERTEX
  8
Обводка_Top
  10
1.0745
  20
22.8246
  42
0
  0
VERTEX
  8
Обводка_Top
  10
0.8837
  20
22.7788
  42
0
  0
VERTEX
  8
Обводка_Top
  10
0.7025
  20
22.7038
  42
0
  0
VERTEX
  8
Обводка_Top
  10
0.5353
  20
22.6013
  42
0
  0
VERTEX
  8
Обводка_Top
  10
0.3861
  20
22.4739
  42
0
  0
VERTEX
  8
Обводка_Top
  10
0.2587
  20
22.3247
  42
0
  0
VERTEX
  8
Обводка_Top
  10
0.1562
  20
22.1575
  42
0
  0
VERTEX
  8
Обводка_Top
  10
0.0812
  20
21.9763
  42
0
  0
VERTEX
  8
Обводка_Top
  10
0.0354
  20
21.7855
  42
0
  0
VERTEX
  8
Обводка_Top
  10
0.02
  20
21.59
  42
0
  0
VERTEX
  8
Обводка_Top
  10
0.0354
  20
21.3945
  42
0
  0
VERTEX
  8
Обводка_Top
  10
0.0812
  20
21.2037
  42
0
  0
VERTEX
  8
Обводка_Top
  10
0.1562
  20
21.0225
  42
0
  0
VERTEX
  8
Обводка_Top
  10
0.2587
  20
20.8553
  42
0
  0
VERTEX
  8
Обводка_Top
  10
0.3861
  20
20.7061
  42
0
  0
VERTEX
  8
Обводка_Top
  10
0.5353
  20
20.5787
  42
0
  0
VERTEX
  8
Обводка_Top
  10
0.7025
  20
20.4762
  42
0
  0
VERTEX
  8
Обводка_Top
  10
0.8837
  20
20.4012
  42
0
  0
VERTEX
  8
Обводка_Top
  10
1.0745
  20
20.3554
  42
0
  0
VERTEX
  8
Обводка_Top
  10
1.3198
  20
20.34
  42
0
  0
VERTEX
  8
Обводка_Top
  10
45.2024
  20
20.3398
  42
0
  0
VERTEX
  8
Обводка_Top
  10
54.63
  20
10.912
  42
0
  0
VERTEX
  8
Обводка_Top
  10
54.63
  20
4.33
  42
0
  0
VERTEX
  8
Обводка_Top
  10
54.6454
  20
4.1345
  42
0
  0
VERTEX
  8
Обводка_Top
  10
54.6912
  20
3.9437
  42
0
  0
VERTEX
  8
Обводка_Top
  10
54.7662
  20
3.7625
  42
0
  0
VERTEX
  8
Обводка_Top
  10
54.8687
  20
3.5953
  42
0
  0
VERTEX
  8
Обводка_Top
  10
54.9961
  20
3.4461
  42
0
  0
VERTEX
  8
Обводка_Top
  10
55.1453
  20
3.3187
  42
0
  0
VERTEX
  8
Обводка_Top
  10
55.3125
  20
3.2162
  42
0
  0
VERTEX
  8
Обводка_Top
  10
55.4937
  20
3.1412
  42
0
  0
VERTEX
  8
Обводка_Top
  10
55.6845
  20
3.0954
  42
0
  0
VERTEX
  8
Обводка_Top
  10
55.88
  20
3.08
  42
0
  0
VERTEX
  8
Обводка_Top
  10
56.0755
  20
3.0954
  42
0
  0
VERTEX
  8
Обводка_Top
  10
56.2663
  20
3.1412
  42
0
  0
VERTEX
  8
Обводка_Top
  10
56.4475
  20
3.2162
  42
0
  0
VERTEX
  8
Обводка_Top
  10
56.6147
  20
3.3187
  42
0
  0
VERTEX
  8
Обводка_Top
  10
56.7639
  20
3.4461
  42
0
  0
VERTEX
  8
Обводка_Top
  10
56.8913
  20
3.5953
  42
0
  0
VERTEX
  8
Обводка_Top
  10
56.9938
  20
3.7625
  42
0
  0
VERTEX
  8
Обводка_Top
  10
57.0688
  20
3.9437
  42
0
  0
VERTEX
  8
Обводка_Top
  10
57.1146
  20
4.1345
  42
0
  0
VERTEX
  8
Обводка_Top
  10
57.13
  20
4.4425
  42
0
  0
VERTEX
  8
Обводка_Top
  10
57.13
  20
5.0777
  42
0
  0
VERTEX
  8
Обводка_Top
  10
57.1299
  20
5.0792
  42
0
  0
SEQEND
  0
ENDSEC
  0
EOF
