  0
SECTION
  2
HEADER
  9
$ACADVER
  1
AC1009
  9
$ANGDIR
  70
0
  9
$CECOLOR
  62
256
  9
$CELTYPE
  6
BYLAYER
  9
$EXTMIN
  10
0.0
  20
0.0
  9
$EXTMAX
  10
64.77
  20
58.42
  9
$FILLMODE
  70
1
  9
$MIRRTEXT
  70
0
  0
ENDSEC
  0
SECTION
  2
TABLES
  0
TABLE
  2
LAYER
  70
23
  0
LAYER
  2
Обводка_Top
  70
64
  62
22
  6
CONTINUOUS
  0
ENDTAB
  0
ENDSEC
  0
SECTION
  2
ENTITIES
  0
POLYLINE
  8
Обводка_Top
  6
CONTINUOUS
  66
1
  70
0
  40
0.6
  41
0.6
  0
VERTEX
  8
Обводка_Top
  10
32.17
  20
6.13
  42
0
  0
VERTEX
  8
Обводка_Top
  10
34.07
  20
6.13
  42
0
  0
VERTEX
  8
Обводка_Top
  10
34.07
  20
5.8808
  42
0
  0
VERTEX
  8
Обводка_Top
  10
34.5106
  20
5.88
  42
0
  0
VERTEX
  8
Обводка_Top
  10
34.51
  20
6.13
  42
0
  0
VERTEX
  8
Обводка_Top
  10
36.61
  20
6.13
  42
0
  0
VERTEX
  8
Обводка_Top
  10
36.61
  20
5.8808
  42
0
  0
VERTEX
  8
Обводка_Top
  10
37.0494
  20
5.88
  42
0
  0
VERTEX
  8
Обводка_Top
  10
37.05
  20
6.13
  42
0
  0
VERTEX
  8
Обводка_Top
  10
39.15
  20
6.13
  42
0
  0
VERTEX
  8
Обводка_Top
  10
39.15
  20
4.03
  42
0
  0
VERTEX
  8
Обводка_Top
  10
37.05
  20
4.03
  42
0
  0
VERTEX
  8
Обводка_Top
  10
37.05
  20
4.2808
  42
0
  0
VERTEX
  8
Обводка_Top
  10
36.6107
  20
4.28
  42
0
  0
VERTEX
  8
Обводка_Top
  10
36.61
  20
4.03
  42
0
  0
VERTEX
  8
Обводка_Top
  10
34.51
  20
4.03
  42
0
  0
VERTEX
  8
Обводка_Top
  10
34.51
  20
4.2808
  42
0
  0
VERTEX
  8
Обводка_Top
  10
34.0695
  20
4.28
  42
0
  0
VERTEX
  8
Обводка_Top
  10
34.07
  20
4.03
  42
0
  0
VERTEX
  8
Обводка_Top
  10
33.8208
  20
4.03
  42
0
  0
VERTEX
  8
Обводка_Top
  10
33.8102
  20
3.6849
  42
0
  0
VERTEX
  8
Обводка_Top
  10
33.7808
  20
3.5628
  42
0
  0
VERTEX
  8
Обводка_Top
  10
33.7328
  20
3.4468
  42
0
  0
VERTEX
  8
Обводка_Top
  10
33.6672
  20
3.3398
  42
0
  0
VERTEX
  8
Обводка_Top
  10
33.4587
  20
3.1173
  42
0
  0
VERTEX
  8
Обводка_Top
  10
32.3157
  20
1.9743
  42
0
  0
VERTEX
  8
Обводка_Top
  10
32.2202
  20
1.8928
  42
0
  0
VERTEX
  8
Обводка_Top
  10
32.1132
  20
1.8272
  42
0
  0
VERTEX
  8
Обводка_Top
  10
31.9972
  20
1.7792
  42
0
  0
VERTEX
  8
Обводка_Top
  10
31.8751
  20
1.7498
  42
0
  0
VERTEX
  8
Обводка_Top
  10
31.5297
  20
1.74
  42
0
  0
VERTEX
  8
Обводка_Top
  10
31.53
  20
1.49
  42
0
  0
VERTEX
  8
Обводка_Top
  10
29.43
  20
1.49
  42
0
  0
VERTEX
  8
Обводка_Top
  10
29.43
  20
3.59
  42
0
  0
VERTEX
  8
Обводка_Top
  10
31.53
  20
3.59
  42
0
  0
VERTEX
  8
Обводка_Top
  10
31.53
  20
3.4517
  42
0
  0
VERTEX
  8
Обводка_Top
  10
32.1085
  20
4.0298
  42
0
  0
VERTEX
  8
Обводка_Top
  10
31.97
  20
4.03
  42
0
  0
VERTEX
  8
Обводка_Top
  10
31.97
  20
6.13
  42
0
  0
VERTEX
  8
Обводка_Top
  10
32.17
  20
6.13
  42
0
  0
SEQEND
  0
POLYLINE
  8
Обводка_Top
  6
CONTINUOUS
  66
1
  70
0
  40
0.6
  41
0.6
  0
VERTEX
  8
Обводка_Top
  10
27.09
  20
6.13
  42
0
  0
VERTEX
  8
Обводка_Top
  10
28.99
  20
6.13
  42
0
  0
VERTEX
  8
Обводка_Top
  10
28.99
  20
4.03
  42
0
  0
VERTEX
  8
Обводка_Top
  10
28.7392
  20
4.03
  42
0
  0
VERTEX
  8
Обводка_Top
  10
28.74
  20
3.59
  42
0
  0
VERTEX
  8
Обводка_Top
  10
28.99
  20
3.59
  42
0
  0
VERTEX
  8
Обводка_Top
  10
28.99
  20
1.49
  42
0
  0
VERTEX
  8
Обводка_Top
  10
26.89
  20
1.49
  42
0
  0
VERTEX
  8
Обводка_Top
  10
26.89
  20
3.59
  42
0
  0
VERTEX
  8
Обводка_Top
  10
27.1392
  20
3.59
  42
0
  0
VERTEX
  8
Обводка_Top
  10
27.14
  20
4.03
  42
0
  0
VERTEX
  8
Обводка_Top
  10
26.89
  20
4.03
  42
0
  0
VERTEX
  8
Обводка_Top
  10
26.89
  20
6.13
  42
0
  0
VERTEX
  8
Обводка_Top
  10
27.09
  20
6.13
  42
0
  0
SEQEND
  0
POLYLINE
  8
Обводка_Top
  6
CONTINUOUS
  66
1
  70
0
  40
0.6
  41
0.6
  0
VERTEX
  8
Обводка_Top
  10
24.55
  20
6.13
  42
0
  0
VERTEX
  8
Обводка_Top
  10
26.45
  20
6.13
  42
0
  0
VERTEX
  8
Обводка_Top
  10
26.45
  20
4.03
  42
0
  0
VERTEX
  8
Обводка_Top
  10
24.35
  20
4.03
  42
0
  0
VERTEX
  8
Обводка_Top
  10
24.35
  20
6.13
  42
0
  0
VERTEX
  8
Обводка_Top
  10
24.55
  20
6.13
  42
0
  0
SEQEND
  0
POLYLINE
  8
Обводка_Top
  6
CONTINUOUS
  66
1
  70
0
  40
0.6
  41
0.6
  0
VERTEX
  8
Обводка_Top
  10
22.01
  20
6.13
  42
0
  0
VERTEX
  8
Обводка_Top
  10
23.91
  20
6.13
  42
0
  0
VERTEX
  8
Обводка_Top
  10
23.91
  20
4.03
  42
0
  0
VERTEX
  8
Обводка_Top
  10
21.81
  20
4.03
  42
0
  0
VERTEX
  8
Обводка_Top
  10
21.81
  20
6.13
  42
0
  0
VERTEX
  8
Обводка_Top
  10
22.01
  20
6.13
  42
0
  0
SEQEND
  0
POLYLINE
  8
Обводка_Top
  6
CONTINUOUS
  66
1
  70
0
  40
0.6
  41
0.6
  0
VERTEX
  8
Обводка_Top
  10
19.47
  20
6.13
  42
0
  0
VERTEX
  8
Обводка_Top
  10
21.37
  20
6.13
  42
0
  0
VERTEX
  8
Обводка_Top
  10
21.37
  20
4.03
  42
0
  0
VERTEX
  8
Обводка_Top
  10
19.27
  20
4.03
  42
0
  0
VERTEX
  8
Обводка_Top
  10
19.27
  20
6.13
  42
0
  0
VERTEX
  8
Обводка_Top
  10
19.47
  20
6.13
  42
0
  0
SEQEND
  0
POLYLINE
  8
Обводка_Top
  6
CONTINUOUS
  66
1
  70
0
  40
0.6
  41
0.6
  0
VERTEX
  8
Обводка_Top
  10
56.6808
  20
6.13
  42
0
  0
VERTEX
  8
Обводка_Top
  10
56.93
  20
6.13
  42
0
  0
VERTEX
  8
Обводка_Top
  10
56.93
  20
4.03
  42
0
  0
VERTEX
  8
Обводка_Top
  10
54.83
  20
4.03
  42
0
  0
VERTEX
  8
Обводка_Top
  10
54.83
  20
6.13
  42
0
  0
VERTEX
  8
Обводка_Top
  10
55.0792
  20
6.13
  42
0
  0
VERTEX
  8
Обводка_Top
  10
55.08
  20
11.098
  42
0
  0
VERTEX
  8
Обводка_Top
  10
45.3892
  20
20.7895
  42
0
  0
VERTEX
  8
Обводка_Top
  10
1.27
  20
20.79
  42
0
  0
VERTEX
  8
Обводка_Top
  10
1.1449
  20
20.7998
  42
0
  0
VERTEX
  8
Обводка_Top
  10
1.0228
  20
20.8292
  42
0
  0
VERTEX
  8
Обводка_Top
  10
0.9068
  20
20.8772
  42
0
  0
VERTEX
  8
Обводка_Top
  10
0.7998
  20
20.9428
  42
0
  0
VERTEX
  8
Обводка_Top
  10
0.7043
  20
21.0243
  42
0
  0
VERTEX
  8
Обводка_Top
  10
0.6228
  20
21.1198
  42
0
  0
VERTEX
  8
Обводка_Top
  10
0.5572
  20
21.2268
  42
0
  0
VERTEX
  8
Обводка_Top
  10
0.5092
  20
21.3428
  42
0
  0
VERTEX
  8
Обводка_Top
  10
0.4798
  20
21.4649
  42
0
  0
VERTEX
  8
Обводка_Top
  10
0.47
  20
21.59
  42
0
  0
VERTEX
  8
Обводка_Top
  10
0.4798
  20
21.7151
  42
0
  0
VERTEX
  8
Обводка_Top
  10
0.5092
  20
21.8372
  42
0
  0
VERTEX
  8
Обводка_Top
  10
0.5572
  20
21.9532
  42
0
  0
VERTEX
  8
Обводка_Top
  10
0.6228
  20
22.0602
  42
0
  0
VERTEX
  8
Обводка_Top
  10
0.7043
  20
22.1557
  42
0
  0
VERTEX
  8
Обводка_Top
  10
0.7998
  20
22.2372
  42
0
  0
VERTEX
  8
Обводка_Top
  10
0.9068
  20
22.3028
  42
0
  0
VERTEX
  8
Обводка_Top
  10
1.0228
  20
22.3508
  42
0
  0
VERTEX
  8
Обводка_Top
  10
1.1449
  20
22.3802
  42
0
  0
VERTEX
  8
Обводка_Top
  10
1.4702
  20
22.39
  42
0
  0
VERTEX
  8
Обводка_Top
  10
45.72
  20
22.39
  42
0
  0
VERTEX
  8
Обводка_Top
  10
45.8451
  20
22.3802
  42
0
  0
VERTEX
  8
Обводка_Top
  10
45.9672
  20
22.3508
  42
0
  0
VERTEX
  8
Обводка_Top
  10
46.0832
  20
22.3028
  42
0
  0
VERTEX
  8
Обводка_Top
  10
46.1902
  20
22.2372
  42
0
  0
VERTEX
  8
Обводка_Top
  10
46.4268
  20
22.0146
  42
0
  0
VERTEX
  8
Обводка_Top
  10
56.4457
  20
11.9957
  42
0
  0
VERTEX
  8
Обводка_Top
  10
56.5272
  20
11.9002
  42
0
  0
VERTEX
  8
Обводка_Top
  10
56.5928
  20
11.7932
  42
0
  0
VERTEX
  8
Обводка_Top
  10
56.6408
  20
11.6772
  42
0
  0
VERTEX
  8
Обводка_Top
  10
56.6702
  20
11.5551
  42
0
  0
VERTEX
  8
Обводка_Top
  10
56.68
  20
11.2316
  42
0
  0
VERTEX
  8
Обводка_Top
  10
56.68
  20
6.1292
  42
0
  0
VERTEX
  8
Обводка_Top
  10
56.6808
  20
6.13
  42
0
  0
SEQEND
  0
POLYLINE
  8
Обводка_Top
  6
CONTINUOUS
  66
1
  70
0
  40
0.6
  41
0.6
  0
VERTEX
  8
Обводка_Top
  10
51.5992
  20
6.13
  42
0
  0
VERTEX
  8
Обводка_Top
  10
51.85
  20
6.13
  42
0
  0
VERTEX
  8
Обводка_Top
  10
51.85
  20
4.03
  42
0
  0
VERTEX
  8
Обводка_Top
  10
49.75
  20
4.03
  42
0
  0
VERTEX
  8
Обводка_Top
  10
49.75
  20
6.13
  42
0
  0
VERTEX
  8
Обводка_Top
  10
49.9992
  20
6.13
  42
0
  0
VERTEX
  8
Обводка_Top
  10
50.0
  20
8.5588
  42
0
  0
VERTEX
  8
Обводка_Top
  10
42.8481
  20
15.7105
  42
0
  0
VERTEX
  8
Обводка_Top
  10
1.27
  20
15.71
  42
0
  0
VERTEX
  8
Обводка_Top
  10
1.1449
  20
15.7198
  42
0
  0
VERTEX
  8
Обводка_Top
  10
1.0228
  20
15.7492
  42
0
  0
VERTEX
  8
Обводка_Top
  10
0.9068
  20
15.7972
  42
0
  0
VERTEX
  8
Обводка_Top
  10
0.7998
  20
15.8628
  42
0
  0
VERTEX
  8
Обводка_Top
  10
0.7043
  20
15.9443
  42
0
  0
VERTEX
  8
Обводка_Top
  10
0.6228
  20
16.0398
  42
0
  0
VERTEX
  8
Обводка_Top
  10
0.5572
  20
16.1468
  42
0
  0
VERTEX
  8
Обводка_Top
  10
0.5092
  20
16.2628
  42
0
  0
VERTEX
  8
Обводка_Top
  10
0.4798
  20
16.3849
  42
0
  0
VERTEX
  8
Обводка_Top
  10
0.47
  20
16.51
  42
0
  0
VERTEX
  8
Обводка_Top
  10
0.4798
  20
16.6351
  42
0
  0
VERTEX
  8
Обводка_Top
  10
0.5092
  20
16.7572
  42
0
  0
VERTEX
  8
Обводка_Top
  10
0.5572
  20
16.8732
  42
0
  0
VERTEX
  8
Обводка_Top
  10
0.6228
  20
16.9802
  42
0
  0
VERTEX
  8
Обводка_Top
  10
0.7043
  20
17.0757
  42
0
  0
VERTEX
  8
Обводка_Top
  10
0.7998
  20
17.1572
  42
0
  0
VERTEX
  8
Обводка_Top
  10
0.9068
  20
17.2228
  42
0
  0
VERTEX
  8
Обводка_Top
  10
1.0228
  20
17.2708
  42
0
  0
VERTEX
  8
Обводка_Top
  10
1.1449
  20
17.3002
  42
0
  0
VERTEX
  8
Обводка_Top
  10
1.4696
  20
17.31
  42
0
  0
VERTEX
  8
Обводка_Top
  10
43.18
  20
17.31
  42
0
  0
VERTEX
  8
Обводка_Top
  10
43.3051
  20
17.3002
  42
0
  0
VERTEX
  8
Обводка_Top
  10
43.4272
  20
17.2708
  42
0
  0
VERTEX
  8
Обводка_Top
  10
43.5432
  20
17.2228
  42
0
  0
VERTEX
  8
Обводка_Top
  10
43.6502
  20
17.1572
  42
0
  0
VERTEX
  8
Обводка_Top
  10
43.8868
  20
16.9346
  42
0
  0
VERTEX
  8
Обводка_Top
  10
51.3657
  20
9.4557
  42
0
  0
VERTEX
  8
Обводка_Top
  10
51.4472
  20
9.3602
  42
0
  0
VERTEX
  8
Обводка_Top
  10
51.5128
  20
9.2532
  42
0
  0
VERTEX
  8
Обводка_Top
  10
51.5608
  20
9.1372
  42
0
  0
VERTEX
  8
Обводка_Top
  10
51.5902
  20
9.0151
  42
0
  0
VERTEX
  8
Обводка_Top
  10
51.6
  20
8.6995
  42
0
  0
VERTEX
  8
Обводка_Top
  10
51.6
  20
6.13
  42
0
  0
VERTEX
  8
Обводка_Top
  10
51.5992
  20
6.13
  42
0
  0
SEQEND
  0
POLYLINE
  8
Обводка_Top
  6
CONTINUOUS
  66
1
  70
0
  40
0.6
  41
0.6
  0
VERTEX
  8
Обводка_Top
  10
49.0592
  20
6.13
  42
0
  0
VERTEX
  8
Обводка_Top
  10
49.31
  20
6.13
  42
0
  0
VERTEX
  8
Обводка_Top
  10
49.31
  20
4.03
  42
0
  0
VERTEX
  8
Обводка_Top
  10
47.21
  20
4.03
  42
0
  0
VERTEX
  8
Обводка_Top
  10
47.21
  20
6.13
  42
0
  0
VERTEX
  8
Обводка_Top
  10
47.4592
  20
6.13
  42
0
  0
VERTEX
  8
Обводка_Top
  10
47.46
  20
7.2888
  42
0
  0
VERTEX
  8
Обводка_Top
  10
41.5785
  20
13.1702
  42
0
  0
VERTEX
  8
Обводка_Top
  10
1.27
  20
13.17
  42
0
  0
VERTEX
  8
Обводка_Top
  10
1.1449
  20
13.1798
  42
0
  0
VERTEX
  8
Обводка_Top
  10
1.0228
  20
13.2092
  42
0
  0
VERTEX
  8
Обводка_Top
  10
0.9068
  20
13.2572
  42
0
  0
VERTEX
  8
Обводка_Top
  10
0.7998
  20
13.3228
  42
0
  0
VERTEX
  8
Обводка_Top
  10
0.7043
  20
13.4043
  42
0
  0
VERTEX
  8
Обводка_Top
  10
0.6228
  20
13.4998
  42
0
  0
VERTEX
  8
Обводка_Top
  10
0.5572
  20
13.6068
  42
0
  0
VERTEX
  8
Обводка_Top
  10
0.5092
  20
13.7228
  42
0
  0
VERTEX
  8
Обводка_Top
  10
0.4798
  20
13.8449
  42
0
  0
VERTEX
  8
Обводка_Top
  10
0.47
  20
13.97
  42
0
  0
VERTEX
  8
Обводка_Top
  10
0.4798
  20
14.0951
  42
0
  0
VERTEX
  8
Обводка_Top
  10
0.5092
  20
14.2172
  42
0
  0
VERTEX
  8
Обводка_Top
  10
0.5572
  20
14.3332
  42
0
  0
VERTEX
  8
Обводка_Top
  10
0.6228
  20
14.4402
  42
0
  0
VERTEX
  8
Обводка_Top
  10
0.7043
  20
14.5357
  42
0
  0
VERTEX
  8
Обводка_Top
  10
0.7998
  20
14.6172
  42
0
  0
VERTEX
  8
Обводка_Top
  10
0.9068
  20
14.6828
  42
0
  0
VERTEX
  8
Обводка_Top
  10
1.0228
  20
14.7308
  42
0
  0
VERTEX
  8
Обводка_Top
  10
1.1449
  20
14.7602
  42
0
  0
VERTEX
  8
Обводка_Top
  10
1.4692
  20
14.77
  42
0
  0
VERTEX
  8
Обводка_Top
  10
41.91
  20
14.77
  42
0
  0
VERTEX
  8
Обводка_Top
  10
42.0351
  20
14.7602
  42
0
  0
VERTEX
  8
Обводка_Top
  10
42.1572
  20
14.7308
  42
0
  0
VERTEX
  8
Обводка_Top
  10
42.2732
  20
14.6828
  42
0
  0
VERTEX
  8
Обводка_Top
  10
42.3802
  20
14.6172
  42
0
  0
VERTEX
  8
Обводка_Top
  10
42.6137
  20
14.3976
  42
0
  0
VERTEX
  8
Обводка_Top
  10
48.8257
  20
8.1857
  42
0
  0
VERTEX
  8
Обводка_Top
  10
48.9072
  20
8.0902
  42
0
  0
VERTEX
  8
Обводка_Top
  10
48.9728
  20
7.9832
  42
0
  0
VERTEX
  8
Обводка_Top
  10
49.0208
  20
7.8672
  42
0
  0
VERTEX
  8
Обводка_Top
  10
49.0502
  20
7.7451
  42
0
  0
VERTEX
  8
Обводка_Top
  10
49.06
  20
7.4386
  42
0
  0
VERTEX
  8
Обводка_Top
  10
49.06
  20
6.13
  42
0
  0
VERTEX
  8
Обводка_Top
  10
49.0592
  20
6.13
  42
0
  0
SEQEND
  0
POLYLINE
  8
Обводка_Top
  6
CONTINUOUS
  66
1
  70
0
  40
0.6
  41
0.6
  0
VERTEX
  8
Обводка_Top
  10
43.262
  20
6.13
  42
0
  0
VERTEX
  8
Обводка_Top
  10
44.23
  20
6.13
  42
0
  0
VERTEX
  8
Обводка_Top
  10
44.23
  20
4.03
  42
0
  0
VERTEX
  8
Обводка_Top
  10
42.13
  20
4.03
  42
0
  0
VERTEX
  8
Обводка_Top
  10
42.13
  20
4.998
  42
0
  0
VERTEX
  8
Обводка_Top
  10
39.0383
  20
8.0903
  42
0
  0
VERTEX
  8
Обводка_Top
  10
1.27
  20
8.09
  42
0
  0
VERTEX
  8
Обводка_Top
  10
1.1449
  20
8.0998
  42
0
  0
VERTEX
  8
Обводка_Top
  10
1.0228
  20
8.1292
  42
0
  0
VERTEX
  8
Обводка_Top
  10
0.9068
  20
8.1772
  42
0
  0
VERTEX
  8
Обводка_Top
  10
0.7998
  20
8.2428
  42
0
  0
VERTEX
  8
Обводка_Top
  10
0.7043
  20
8.3243
  42
0
  0
VERTEX
  8
Обводка_Top
  10
0.6228
  20
8.4198
  42
0
  0
VERTEX
  8
Обводка_Top
  10
0.5572
  20
8.5268
  42
0
  0
VERTEX
  8
Обводка_Top
  10
0.5092
  20
8.6428
  42
0
  0
VERTEX
  8
Обводка_Top
  10
0.4798
  20
8.7649
  42
0
  0
VERTEX
  8
Обводка_Top
  10
0.47
  20
8.89
  42
0
  0
VERTEX
  8
Обводка_Top
  10
0.4798
  20
9.0151
  42
0
  0
VERTEX
  8
Обводка_Top
  10
0.5092
  20
9.1372
  42
0
  0
VERTEX
  8
Обводка_Top
  10
0.5572
  20
9.2532
  42
0
  0
VERTEX
  8
Обводка_Top
  10
0.6228
  20
9.3602
  42
0
  0
VERTEX
  8
Обводка_Top
  10
0.7043
  20
9.4557
  42
0
  0
VERTEX
  8
Обводка_Top
  10
0.7998
  20
9.5372
  42
0
  0
VERTEX
  8
Обводка_Top
  10
0.9068
  20
9.6028
  42
0
  0
VERTEX
  8
Обводка_Top
  10
1.0228
  20
9.6508
  42
0
  0
VERTEX
  8
Обводка_Top
  10
1.1449
  20
9.6802
  42
0
  0
VERTEX
  8
Обводка_Top
  10
1.4705
  20
9.69
  42
0
  0
VERTEX
  8
Обводка_Top
  10
39.37
  20
9.69
  42
0
  0
VERTEX
  8
Обводка_Top
  10
39.4951
  20
9.6802
  42
0
  0
VERTEX
  8
Обводка_Top
  10
39.6172
  20
9.6508
  42
0
  0
VERTEX
  8
Обводка_Top
  10
39.7332
  20
9.6028
  42
0
  0
VERTEX
  8
Обводка_Top
  10
39.8402
  20
9.5372
  42
0
  0
VERTEX
  8
Обводка_Top
  10
40.0718
  20
9.3196
  42
0
  0
VERTEX
  8
Обводка_Top
  10
43.2609
  20
6.1305
  42
0
  0
VERTEX
  8
Обводка_Top
  10
43.262
  20
6.13
  42
0
  0
SEQEND
  0
POLYLINE
  8
Обводка_Top
  6
CONTINUOUS
  66
1
  70
0
  40
0.6
  41
0.6
  0
VERTEX
  8
Обводка_Top
  10
33.1352
  20
54.39
  42
0
  0
VERTEX
  8
Обводка_Top
  10
35.0352
  20
54.39
  42
0
  0
VERTEX
  8
Обводка_Top
  10
35.0352
  20
52.29
  42
0
  0
VERTEX
  8
Обводка_Top
  10
32.9352
  20
52.29
  42
0
  0
VERTEX
  8
Обводка_Top
  10
32.9352
  20
54.39
  42
0
  0
VERTEX
  8
Обводка_Top
  10
33.1352
  20
54.39
  42
0
  0
SEQEND
  0
POLYLINE
  8
Обводка_Top
  6
CONTINUOUS
  66
1
  70
0
  40
0.6
  41
0.6
  0
VERTEX
  8
Обводка_Top
  10
30.5952
  20
54.39
  42
0
  0
VERTEX
  8
Обводка_Top
  10
32.4952
  20
54.39
  42
0
  0
VERTEX
  8
Обводка_Top
  10
32.4952
  20
52.29
  42
0
  0
VERTEX
  8
Обводка_Top
  10
30.3952
  20
52.29
  42
0
  0
VERTEX
  8
Обводка_Top
  10
30.3952
  20
54.39
  42
0
  0
VERTEX
  8
Обводка_Top
  10
30.5952
  20
54.39
  42
0
  0
SEQEND
  0
POLYLINE
  8
Обводка_Top
  6
CONTINUOUS
  66
1
  70
0
  40
0.6
  41
0.6
  0
VERTEX
  8
Обводка_Top
  10
28.0552
  20
54.39
  42
0
  0
VERTEX
  8
Обводка_Top
  10
29.9552
  20
54.39
  42
0
  0
VERTEX
  8
Обводка_Top
  10
29.9552
  20
52.29
  42
0
  0
VERTEX
  8
Обводка_Top
  10
27.8552
  20
52.29
  42
0
  0
VERTEX
  8
Обводка_Top
  10
27.8552
  20
54.39
  42
0
  0
VERTEX
  8
Обводка_Top
  10
28.0552
  20
54.39
  42
0
  0
SEQEND
  0
POLYLINE
  8
Обводка_Top
  6
CONTINUOUS
  66
1
  70
0
  40
0.6
  41
0.6
  0
VERTEX
  8
Обводка_Top
  10
25.5152
  20
54.39
  42
0
  0
VERTEX
  8
Обводка_Top
  10
27.4152
  20
54.39
  42
0
  0
VERTEX
  8
Обводка_Top
  10
27.4152
  20
52.29
  42
0
  0
VERTEX
  8
Обводка_Top
  10
25.3152
  20
52.29
  42
0
  0
VERTEX
  8
Обводка_Top
  10
25.3152
  20
54.39
  42
0
  0
VERTEX
  8
Обводка_Top
  10
25.5152
  20
54.39
  42
0
  0
SEQEND
  0
POLYLINE
  8
Обводка_Top
  6
CONTINUOUS
  66
1
  70
0
  40
0.6
  41
0.6
  0
VERTEX
  8
Обводка_Top
  10
22.9752
  20
54.39
  42
0
  0
VERTEX
  8
Обводка_Top
  10
24.8752
  20
54.39
  42
0
  0
VERTEX
  8
Обводка_Top
  10
24.8752
  20
52.29
  42
0
  0
VERTEX
  8
Обводка_Top
  10
22.7752
  20
52.29
  42
0
  0
VERTEX
  8
Обводка_Top
  10
22.7752
  20
54.39
  42
0
  0
VERTEX
  8
Обводка_Top
  10
22.9752
  20
54.39
  42
0
  0
SEQEND
  0
POLYLINE
  8
Обводка_Top
  6
CONTINUOUS
  66
1
  70
0
  40
0.6
  41
0.6
  0
VERTEX
  8
Обводка_Top
  10
20.4352
  20
54.39
  42
0
  0
VERTEX
  8
Обводка_Top
  10
22.3352
  20
54.39
  42
0
  0
VERTEX
  8
Обводка_Top
  10
22.3352
  20
52.29
  42
0
  0
VERTEX
  8
Обводка_Top
  10
20.2352
  20
52.29
  42
0
  0
VERTEX
  8
Обводка_Top
  10
20.2352
  20
54.39
  42
0
  0
VERTEX
  8
Обводка_Top
  10
20.4352
  20
54.39
  42
0
  0
SEQEND
  0
POLYLINE
  8
Обводка_Top
  6
CONTINUOUS
  66
1
  70
0
  40
0.6
  41
0.6
  0
VERTEX
  8
Обводка_Top
  10
17.8952
  20
54.39
  42
0
  0
VERTEX
  8
Обводка_Top
  10
19.7952
  20
54.39
  42
0
  0
VERTEX
  8
Обводка_Top
  10
19.7952
  20
52.29
  42
0
  0
VERTEX
  8
Обводка_Top
  10
17.6952
  20
52.29
  42
0
  0
VERTEX
  8
Обводка_Top
  10
17.6952
  20
52.5408
  42
0
  0
VERTEX
  8
Обводка_Top
  10
14.3856
  20
52.54
  42
0
  0
VERTEX
  8
Обводка_Top
  10
14.385
  20
52.29
  42
0
  0
VERTEX
  8
Обводка_Top
  10
12.285
  20
52.29
  42
0
  0
VERTEX
  8
Обводка_Top
  10
12.285
  20
54.39
  42
0
  0
VERTEX
  8
Обводка_Top
  10
14.385
  20
54.39
  42
0
  0
VERTEX
  8
Обводка_Top
  10
14.385
  20
54.1408
  42
0
  0
VERTEX
  8
Обводка_Top
  10
17.6946
  20
54.14
  42
0
  0
VERTEX
  8
Обводка_Top
  10
17.6952
  20
54.39
  42
0
  0
VERTEX
  8
Обводка_Top
  10
17.8952
  20
54.39
  42
0
  0
SEQEND
  0
POLYLINE
  8
Обводка_Top
  6
CONTINUOUS
  66
1
  70
0
  40
0.6
  41
0.6
  0
VERTEX
  8
Обводка_Top
  10
55.03
  20
54.39
  42
0
  0
VERTEX
  8
Обводка_Top
  10
56.93
  20
54.39
  42
0
  0
VERTEX
  8
Обводка_Top
  10
56.93
  20
52.29
  42
0
  0
VERTEX
  8
Обводка_Top
  10
56.6808
  20
52.29
  42
0
  0
VERTEX
  8
Обводка_Top
  10
56.68
  20
51.435
  42
0
  0
VERTEX
  8
Обводка_Top
  10
56.6702
  20
51.3099
  42
0
  0
VERTEX
  8
Обводка_Top
  10
56.6408
  20
51.1878
  42
0
  0
VERTEX
  8
Обводка_Top
  10
56.5928
  20
51.0718
  42
0
  0
VERTEX
  8
Обводка_Top
  10
56.5272
  20
50.9648
  42
0
  0
VERTEX
  8
Обводка_Top
  10
56.3053
  20
50.7289
  42
0
  0
VERTEX
  8
Обводка_Top
  10
41.8407
  20
36.2643
  42
0
  0
VERTEX
  8
Обводка_Top
  10
41.7452
  20
36.1828
  42
0
  0
VERTEX
  8
Обводка_Top
  10
41.6382
  20
36.1172
  42
0
  0
VERTEX
  8
Обводка_Top
  10
41.5222
  20
36.0692
  42
0
  0
VERTEX
  8
Обводка_Top
  10
41.4001
  20
36.0398
  42
0
  0
VERTEX
  8
Обводка_Top
  10
41.075
  20
36.03
  42
0
  0
VERTEX
  8
Обводка_Top
  10
1.27
  20
36.03
  42
0
  0
VERTEX
  8
Обводка_Top
  10
1.1449
  20
36.0398
  42
0
  0
VERTEX
  8
Обводка_Top
  10
1.0228
  20
36.0692
  42
0
  0
VERTEX
  8
Обводка_Top
  10
0.9068
  20
36.1172
  42
0
  0
VERTEX
  8
Обводка_Top
  10
0.7998
  20
36.1828
  42
0
  0
VERTEX
  8
Обводка_Top
  10
0.7043
  20
36.2643
  42
0
  0
VERTEX
  8
Обводка_Top
  10
0.6228
  20
36.3598
  42
0
  0
VERTEX
  8
Обводка_Top
  10
0.5572
  20
36.4668
  42
0
  0
VERTEX
  8
Обводка_Top
  10
0.5092
  20
36.5828
  42
0
  0
VERTEX
  8
Обводка_Top
  10
0.4798
  20
36.7049
  42
0
  0
VERTEX
  8
Обводка_Top
  10
0.47
  20
36.83
  42
0
  0
VERTEX
  8
Обводка_Top
  10
0.4798
  20
36.9551
  42
0
  0
VERTEX
  8
Обводка_Top
  10
0.5092
  20
37.0772
  42
0
  0
VERTEX
  8
Обводка_Top
  10
0.5572
  20
37.1932
  42
0
  0
VERTEX
  8
Обводка_Top
  10
0.6228
  20
37.3002
  42
0
  0
VERTEX
  8
Обводка_Top
  10
0.7043
  20
37.3957
  42
0
  0
VERTEX
  8
Обводка_Top
  10
0.7998
  20
37.4772
  42
0
  0
VERTEX
  8
Обводка_Top
  10
0.9068
  20
37.5428
  42
0
  0
VERTEX
  8
Обводка_Top
  10
1.0228
  20
37.5908
  42
0
  0
VERTEX
  8
Обводка_Top
  10
1.1449
  20
37.6202
  42
0
  0
VERTEX
  8
Обводка_Top
  10
1.47
  20
37.63
  42
0
  0
VERTEX
  8
Обводка_Top
  10
40.9442
  20
37.63
  42
0
  0
VERTEX
  8
Обводка_Top
  10
55.0797
  20
51.7661
  42
0
  0
VERTEX
  8
Обводка_Top
  10
55.08
  20
52.2903
  42
0
  0
VERTEX
  8
Обводка_Top
  10
54.83
  20
52.29
  42
0
  0
VERTEX
  8
Обводка_Top
  10
54.83
  20
54.39
  42
0
  0
VERTEX
  8
Обводка_Top
  10
55.03
  20
54.39
  42
0
  0
SEQEND
  0
POLYLINE
  8
Обводка_Top
  6
CONTINUOUS
  66
1
  70
0
  40
0.6
  41
0.6
  0
VERTEX
  8
Обводка_Top
  10
52.4283
  20
52.29
  42
0
  0
VERTEX
  8
Обводка_Top
  10
52.29
  20
52.29
  42
0
  0
VERTEX
  8
Обводка_Top
  10
52.29
  20
54.39
  42
0
  0
VERTEX
  8
Обводка_Top
  10
54.39
  20
54.39
  42
0
  0
VERTEX
  8
Обводка_Top
  10
54.39
  20
52.29
  42
0
  0
VERTEX
  8
Обводка_Top
  10
54.1408
  20
52.29
  42
0
  0
VERTEX
  8
Обводка_Top
  10
54.1302
  20
51.9449
  42
0
  0
VERTEX
  8
Обводка_Top
  10
54.1008
  20
51.8228
  42
0
  0
VERTEX
  8
Обводка_Top
  10
54.0528
  20
51.7068
  42
0
  0
VERTEX
  8
Обводка_Top
  10
53.9872
  20
51.5998
  42
0
  0
VERTEX
  8
Обводка_Top
  10
53.7638
  20
51.3625
  42
0
  0
VERTEX
  8
Обводка_Top
  10
40.5707
  20
38.1693
  42
0
  0
VERTEX
  8
Обводка_Top
  10
40.4752
  20
38.0878
  42
0
  0
VERTEX
  8
Обводка_Top
  10
40.3682
  20
38.0222
  42
0
  0
VERTEX
  8
Обводка_Top
  10
40.2522
  20
37.9742
  42
0
  0
VERTEX
  8
Обводка_Top
  10
40.1301
  20
37.9448
  42
0
  0
VERTEX
  8
Обводка_Top
  10
39.8066
  20
37.935
  42
0
  0
VERTEX
  8
Обводка_Top
  10
5.08
  20
37.935
  42
0
  0
VERTEX
  8
Обводка_Top
  10
4.9549
  20
37.9448
  42
0
  0
VERTEX
  8
Обводка_Top
  10
4.8328
  20
37.9742
  42
0
  0
VERTEX
  8
Обводка_Top
  10
4.7168
  20
38.0222
  42
0
  0
VERTEX
  8
Обводка_Top
  10
4.6098
  20
38.0878
  42
0
  0
VERTEX
  8
Обводка_Top
  10
4.3556
  20
38.3281
  42
0
  0
VERTEX
  8
Обводка_Top
  10
4.1142
  20
38.5695
  42
0
  0
VERTEX
  8
Обводка_Top
  10
1.27
  20
38.57
  42
0
  0
VERTEX
  8
Обводка_Top
  10
1.1449
  20
38.5798
  42
0
  0
VERTEX
  8
Обводка_Top
  10
1.0228
  20
38.6092
  42
0
  0
VERTEX
  8
Обводка_Top
  10
0.9068
  20
38.6572
  42
0
  0
VERTEX
  8
Обводка_Top
  10
0.7998
  20
38.7228
  42
0
  0
VERTEX
  8
Обводка_Top
  10
0.7043
  20
38.8043
  42
0
  0
VERTEX
  8
Обводка_Top
  10
0.6228
  20
38.8998
  42
0
  0
VERTEX
  8
Обводка_Top
  10
0.5572
  20
39.0068
  42
0
  0
VERTEX
  8
Обводка_Top
  10
0.5092
  20
39.1228
  42
0
  0
VERTEX
  8
Обводка_Top
  10
0.4798
  20
39.2449
  42
0
  0
VERTEX
  8
Обводка_Top
  10
0.47
  20
39.37
  42
0
  0
VERTEX
  8
Обводка_Top
  10
0.4798
  20
39.4951
  42
0
  0
VERTEX
  8
Обводка_Top
  10
0.5092
  20
39.6172
  42
0
  0
VERTEX
  8
Обводка_Top
  10
0.5572
  20
39.7332
  42
0
  0
VERTEX
  8
Обводка_Top
  10
0.6228
  20
39.8402
  42
0
  0
VERTEX
  8
Обводка_Top
  10
0.7043
  20
39.9357
  42
0
  0
VERTEX
  8
Обводка_Top
  10
0.7998
  20
40.0172
  42
0
  0
VERTEX
  8
Обводка_Top
  10
0.9068
  20
40.0828
  42
0
  0
VERTEX
  8
Обводка_Top
  10
1.0228
  20
40.1308
  42
0
  0
VERTEX
  8
Обводка_Top
  10
1.1449
  20
40.1602
  42
0
  0
VERTEX
  8
Обводка_Top
  10
1.4684
  20
40.17
  42
0
  0
VERTEX
  8
Обводка_Top
  10
4.445
  20
40.17
  42
0
  0
VERTEX
  8
Обводка_Top
  10
4.5701
  20
40.1602
  42
0
  0
VERTEX
  8
Обводка_Top
  10
4.6922
  20
40.1308
  42
0
  0
VERTEX
  8
Обводка_Top
  10
4.8082
  20
40.0828
  42
0
  0
VERTEX
  8
Обводка_Top
  10
4.9152
  20
40.0172
  42
0
  0
VERTEX
  8
Обводка_Top
  10
5.1694
  20
39.7769
  42
0
  0
VERTEX
  8
Обводка_Top
  10
5.4108
  20
39.5355
  42
0
  0
VERTEX
  8
Обводка_Top
  10
39.673
  20
39.535
  42
0
  0
VERTEX
  8
Обводка_Top
  10
52.429
  20
52.2903
  42
0
  0
VERTEX
  8
Обводка_Top
  10
52.4283
  20
52.29
  42
0
  0
SEQEND
  0
POLYLINE
  8
Обводка_Top
  6
CONTINUOUS
  66
1
  70
0
  40
0.6
  41
0.6
  0
VERTEX
  8
Обводка_Top
  10
49.95
  20
54.39
  42
0
  0
VERTEX
  8
Обводка_Top
  10
51.85
  20
54.39
  42
0
  0
VERTEX
  8
Обводка_Top
  10
51.85
  20
52.29
  42
0
  0
VERTEX
  8
Обводка_Top
  10
51.4836
  20
52.29
  42
0
  0
VERTEX
  8
Обводка_Top
  10
51.3653
  20
52.139
  42
0
  0
VERTEX
  8
Обводка_Top
  10
39.3007
  20
40.0743
  42
0
  0
VERTEX
  8
Обводка_Top
  10
39.2052
  20
39.9928
  42
0
  0
VERTEX
  8
Обводка_Top
  10
39.0982
  20
39.9272
  42
0
  0
VERTEX
  8
Обводка_Top
  10
38.9822
  20
39.8792
  42
0
  0
VERTEX
  8
Обводка_Top
  10
38.8601
  20
39.8498
  42
0
  0
VERTEX
  8
Обводка_Top
  10
38.5351
  20
39.84
  42
0
  0
VERTEX
  8
Обводка_Top
  10
6.35
  20
39.84
  42
0
  0
VERTEX
  8
Обводка_Top
  10
6.2249
  20
39.8498
  42
0
  0
VERTEX
  8
Обводка_Top
  10
6.1028
  20
39.8792
  42
0
  0
VERTEX
  8
Обводка_Top
  10
5.9868
  20
39.9272
  42
0
  0
VERTEX
  8
Обводка_Top
  10
5.8798
  20
39.9928
  42
0
  0
VERTEX
  8
Обводка_Top
  10
5.6573
  20
40.2013
  42
0
  0
VERTEX
  8
Обводка_Top
  10
4.7486
  20
41.1101
  42
0
  0
VERTEX
  8
Обводка_Top
  10
1.27
  20
41.11
  42
0
  0
VERTEX
  8
Обводка_Top
  10
1.1449
  20
41.1198
  42
0
  0
VERTEX
  8
Обводка_Top
  10
1.0228
  20
41.1492
  42
0
  0
VERTEX
  8
Обводка_Top
  10
0.9068
  20
41.1972
  42
0
  0
VERTEX
  8
Обводка_Top
  10
0.7998
  20
41.2628
  42
0
  0
VERTEX
  8
Обводка_Top
  10
0.7043
  20
41.3443
  42
0
  0
VERTEX
  8
Обводка_Top
  10
0.6228
  20
41.4398
  42
0
  0
VERTEX
  8
Обводка_Top
  10
0.5572
  20
41.5468
  42
0
  0
VERTEX
  8
Обводка_Top
  10
0.5092
  20
41.6628
  42
0
  0
VERTEX
  8
Обводка_Top
  10
0.4798
  20
41.7849
  42
0
  0
VERTEX
  8
Обводка_Top
  10
0.47
  20
41.91
  42
0
  0
VERTEX
  8
Обводка_Top
  10
0.4798
  20
42.0351
  42
0
  0
VERTEX
  8
Обводка_Top
  10
0.5092
  20
42.1572
  42
0
  0
VERTEX
  8
Обводка_Top
  10
0.5572
  20
42.2732
  42
0
  0
VERTEX
  8
Обводка_Top
  10
0.6228
  20
42.3802
  42
0
  0
VERTEX
  8
Обводка_Top
  10
0.7043
  20
42.4757
  42
0
  0
VERTEX
  8
Обводка_Top
  10
0.7998
  20
42.5572
  42
0
  0
VERTEX
  8
Обводка_Top
  10
0.9068
  20
42.6228
  42
0
  0
VERTEX
  8
Обводка_Top
  10
1.0228
  20
42.6708
  42
0
  0
VERTEX
  8
Обводка_Top
  10
1.1449
  20
42.7002
  42
0
  0
VERTEX
  8
Обводка_Top
  10
1.4605
  20
42.71
  42
0
  0
VERTEX
  8
Обводка_Top
  10
5.08
  20
42.71
  42
0
  0
VERTEX
  8
Обводка_Top
  10
5.2051
  20
42.7002
  42
0
  0
VERTEX
  8
Обводка_Top
  10
5.3272
  20
42.6708
  42
0
  0
VERTEX
  8
Обводка_Top
  10
5.4432
  20
42.6228
  42
0
  0
VERTEX
  8
Обводка_Top
  10
5.5502
  20
42.5572
  42
0
  0
VERTEX
  8
Обводка_Top
  10
5.7727
  20
42.3487
  42
0
  0
VERTEX
  8
Обводка_Top
  10
6.6814
  20
41.4399
  42
0
  0
VERTEX
  8
Обводка_Top
  10
38.4038
  20
41.44
  42
0
  0
VERTEX
  8
Обводка_Top
  10
49.7498
  20
52.7862
  42
0
  0
VERTEX
  8
Обводка_Top
  10
49.75
  20
54.39
  42
0
  0
VERTEX
  8
Обводка_Top
  10
49.95
  20
54.39
  42
0
  0
SEQEND
  0
POLYLINE
  8
Обводка_Top
  6
CONTINUOUS
  66
1
  70
0
  40
0.6
  41
0.6
  0
VERTEX
  8
Обводка_Top
  10
49.31
  20
52.3466
  42
0
  0
VERTEX
  8
Обводка_Top
  10
49.31
  20
54.39
  42
0
  0
VERTEX
  8
Обводка_Top
  10
47.21
  20
54.39
  42
0
  0
VERTEX
  8
Обводка_Top
  10
47.2098
  20
52.7861
  42
0
  0
VERTEX
  8
Обводка_Top
  10
46.77
  20
52.3466
  42
0
  0
VERTEX
  8
Обводка_Top
  10
46.77
  20
52.39
  42
0
  0
VERTEX
  8
Обводка_Top
  10
46.7137
  20
52.2901
  42
0
  0
VERTEX
  8
Обводка_Top
  10
37.7682
  20
43.345
  42
0
  0
VERTEX
  8
Обводка_Top
  10
7.9508
  20
43.3455
  42
0
  0
VERTEX
  8
Обводка_Top
  10
6.2807
  20
45.0157
  42
0
  0
VERTEX
  8
Обводка_Top
  10
6.1852
  20
45.0972
  42
0
  0
VERTEX
  8
Обводка_Top
  10
6.0782
  20
45.1628
  42
0
  0
VERTEX
  8
Обводка_Top
  10
5.9622
  20
45.2108
  42
0
  0
VERTEX
  8
Обводка_Top
  10
5.8401
  20
45.2402
  42
0
  0
VERTEX
  8
Обводка_Top
  10
5.672
  20
45.25
  42
0
  0
VERTEX
  8
Обводка_Top
  10
1.27
  20
45.25
  42
0
  0
VERTEX
  8
Обводка_Top
  10
1.1449
  20
45.2402
  42
0
  0
VERTEX
  8
Обводка_Top
  10
1.0228
  20
45.2108
  42
0
  0
VERTEX
  8
Обводка_Top
  10
0.9068
  20
45.1628
  42
0
  0
VERTEX
  8
Обводка_Top
  10
0.7998
  20
45.0972
  42
0
  0
VERTEX
  8
Обводка_Top
  10
0.7043
  20
45.0157
  42
0
  0
VERTEX
  8
Обводка_Top
  10
0.6228
  20
44.9202
  42
0
  0
VERTEX
  8
Обводка_Top
  10
0.5572
  20
44.8132
  42
0
  0
VERTEX
  8
Обводка_Top
  10
0.5092
  20
44.6972
  42
0
  0
VERTEX
  8
Обводка_Top
  10
0.4798
  20
44.5751
  42
0
  0
VERTEX
  8
Обводка_Top
  10
0.47
  20
44.45
  42
0
  0
VERTEX
  8
Обводка_Top
  10
0.4798
  20
44.3249
  42
0
  0
VERTEX
  8
Обводка_Top
  10
0.5092
  20
44.2028
  42
0
  0
VERTEX
  8
Обводка_Top
  10
0.5572
  20
44.0868
  42
0
  0
VERTEX
  8
Обводка_Top
  10
0.6228
  20
43.9798
  42
0
  0
VERTEX
  8
Обводка_Top
  10
0.7043
  20
43.8843
  42
0
  0
VERTEX
  8
Обводка_Top
  10
0.7998
  20
43.8028
  42
0
  0
VERTEX
  8
Обводка_Top
  10
0.9068
  20
43.7372
  42
0
  0
VERTEX
  8
Обводка_Top
  10
1.0228
  20
43.6892
  42
0
  0
VERTEX
  8
Обводка_Top
  10
1.1449
  20
43.6598
  42
0
  0
VERTEX
  8
Обводка_Top
  10
1.313
  20
43.65
  42
0
  0
VERTEX
  8
Обводка_Top
  10
5.3842
  20
43.6495
  42
0
  0
VERTEX
  8
Обводка_Top
  10
7.0543
  20
41.9793
  42
0
  0
VERTEX
  8
Обводка_Top
  10
7.1498
  20
41.8978
  42
0
  0
VERTEX
  8
Обводка_Top
  10
7.2568
  20
41.8322
  42
0
  0
VERTEX
  8
Обводка_Top
  10
7.3728
  20
41.7842
  42
0
  0
VERTEX
  8
Обводка_Top
  10
7.4949
  20
41.7548
  42
0
  0
VERTEX
  8
Обводка_Top
  10
7.6995
  20
41.745
  42
0
  0
VERTEX
  8
Обводка_Top
  10
38.1
  20
41.745
  42
0
  0
VERTEX
  8
Обводка_Top
  10
38.2251
  20
41.7548
  42
0
  0
VERTEX
  8
Обводка_Top
  10
38.3472
  20
41.7842
  42
0
  0
VERTEX
  8
Обводка_Top
  10
38.4632
  20
41.8322
  42
0
  0
VERTEX
  8
Обводка_Top
  10
38.5702
  20
41.8978
  42
0
  0
VERTEX
  8
Обводка_Top
  10
38.7851
  20
42.0987
  42
0
  0
VERTEX
  8
Обводка_Top
  10
48.8257
  20
52.1393
  42
0
  0
VERTEX
  8
Обводка_Top
  10
48.9436
  20
52.29
  42
0
  0
VERTEX
  8
Обводка_Top
  10
49.253
  20
52.29
  42
0
  0
VERTEX
  8
Обводка_Top
  10
49.31
  20
52.3466
  42
0
  0
SEQEND
  0
POLYLINE
  8
Обводка_Top
  6
CONTINUOUS
  66
1
  70
0
  40
0.6
  41
0.6
  0
VERTEX
  8
Обводка_Top
  10
46.77
  20
52.39
  42
0
  0
VERTEX
  8
Обводка_Top
  10
46.77
  20
54.39
  42
0
  0
VERTEX
  8
Обводка_Top
  10
44.67
  20
54.39
  42
0
  0
VERTEX
  8
Обводка_Top
  10
44.6701
  20
52.7865
  42
0
  0
VERTEX
  8
Обводка_Top
  10
37.133
  20
45.25
  42
0
  0
VERTEX
  8
Обводка_Top
  10
9.2218
  20
45.2496
  42
0
  0
VERTEX
  8
Обводка_Top
  10
6.9157
  20
47.5557
  42
0
  0
VERTEX
  8
Обводка_Top
  10
6.8202
  20
47.6372
  42
0
  0
VERTEX
  8
Обводка_Top
  10
6.7132
  20
47.7028
  42
0
  0
VERTEX
  8
Обводка_Top
  10
6.5972
  20
47.7508
  42
0
  0
VERTEX
  8
Обводка_Top
  10
6.4751
  20
47.7802
  42
0
  0
VERTEX
  8
Обводка_Top
  10
6.2654
  20
47.79
  42
0
  0
VERTEX
  8
Обводка_Top
  10
1.27
  20
47.79
  42
0
  0
VERTEX
  8
Обводка_Top
  10
1.1449
  20
47.7802
  42
0
  0
VERTEX
  8
Обводка_Top
  10
1.0228
  20
47.7508
  42
0
  0
VERTEX
  8
Обводка_Top
  10
0.9068
  20
47.7028
  42
0
  0
VERTEX
  8
Обводка_Top
  10
0.7998
  20
47.6372
  42
0
  0
VERTEX
  8
Обводка_Top
  10
0.7043
  20
47.5557
  42
0
  0
VERTEX
  8
Обводка_Top
  10
0.6228
  20
47.4602
  42
0
  0
VERTEX
  8
Обводка_Top
  10
0.5572
  20
47.3532
  42
0
  0
VERTEX
  8
Обводка_Top
  10
0.5092
  20
47.2372
  42
0
  0
VERTEX
  8
Обводка_Top
  10
0.4798
  20
47.1151
  42
0
  0
VERTEX
  8
Обводка_Top
  10
0.47
  20
46.99
  42
0
  0
VERTEX
  8
Обводка_Top
  10
0.4798
  20
46.8649
  42
0
  0
VERTEX
  8
Обводка_Top
  10
0.5092
  20
46.7428
  42
0
  0
VERTEX
  8
Обводка_Top
  10
0.5572
  20
46.6268
  42
0
  0
VERTEX
  8
Обводка_Top
  10
0.6228
  20
46.5198
  42
0
  0
VERTEX
  8
Обводка_Top
  10
0.7043
  20
46.4243
  42
0
  0
VERTEX
  8
Обводка_Top
  10
0.7998
  20
46.3428
  42
0
  0
VERTEX
  8
Обводка_Top
  10
0.9068
  20
46.2772
  42
0
  0
VERTEX
  8
Обводка_Top
  10
1.0228
  20
46.2292
  42
0
  0
VERTEX
  8
Обводка_Top
  10
1.1449
  20
46.1998
  42
0
  0
VERTEX
  8
Обводка_Top
  10
1.3546
  20
46.19
  42
0
  0
VERTEX
  8
Обводка_Top
  10
6.0182
  20
46.1904
  42
0
  0
VERTEX
  8
Обводка_Top
  10
8.3243
  20
43.8843
  42
0
  0
VERTEX
  8
Обводка_Top
  10
8.4198
  20
43.8028
  42
0
  0
VERTEX
  8
Обводка_Top
  10
8.5268
  20
43.7372
  42
0
  0
VERTEX
  8
Обводка_Top
  10
8.6428
  20
43.6892
  42
0
  0
VERTEX
  8
Обводка_Top
  10
8.7649
  20
43.6598
  42
0
  0
VERTEX
  8
Обводка_Top
  10
9.0666
  20
43.65
  42
0
  0
VERTEX
  8
Обводка_Top
  10
37.465
  20
43.65
  42
0
  0
VERTEX
  8
Обводка_Top
  10
37.5901
  20
43.6598
  42
0
  0
VERTEX
  8
Обводка_Top
  10
37.7122
  20
43.6892
  42
0
  0
VERTEX
  8
Обводка_Top
  10
37.8282
  20
43.7372
  42
0
  0
VERTEX
  8
Обводка_Top
  10
37.9352
  20
43.8028
  42
0
  0
VERTEX
  8
Обводка_Top
  10
38.0823
  20
43.936
  42
0
  0
VERTEX
  8
Обводка_Top
  10
46.2857
  20
52.1393
  42
0
  0
VERTEX
  8
Обводка_Top
  10
46.4036
  20
52.29
  42
0
  0
VERTEX
  8
Обводка_Top
  10
46.713
  20
52.29
  42
0
  0
VERTEX
  8
Обводка_Top
  10
46.77
  20
52.39
  42
0
  0
SEQEND
  0
POLYLINE
  8
Обводка_Top
  6
CONTINUOUS
  66
1
  70
0
  40
0.6
  41
0.6
  0
VERTEX
  8
Обводка_Top
  10
44.23
  20
52.3466
  42
0
  0
VERTEX
  8
Обводка_Top
  10
44.23
  20
54.39
  42
0
  0
VERTEX
  8
Обводка_Top
  10
42.13
  20
54.39
  42
0
  0
VERTEX
  8
Обводка_Top
  10
42.1305
  20
52.7868
  42
0
  0
VERTEX
  8
Обводка_Top
  10
41.69
  20
52.3466
  42
0
  0
VERTEX
  8
Обводка_Top
  10
41.69
  20
52.39
  42
0
  0
VERTEX
  8
Обводка_Top
  10
41.6333
  20
52.2897
  42
0
  0
VERTEX
  8
Обводка_Top
  10
36.4989
  20
47.155
  42
0
  0
VERTEX
  8
Обводка_Top
  10
10.4908
  20
47.1555
  42
0
  0
VERTEX
  8
Обводка_Top
  10
7.5507
  20
50.0957
  42
0
  0
VERTEX
  8
Обводка_Top
  10
7.4552
  20
50.1772
  42
0
  0
VERTEX
  8
Обводка_Top
  10
7.3482
  20
50.2428
  42
0
  0
VERTEX
  8
Обводка_Top
  10
7.2322
  20
50.2908
  42
0
  0
VERTEX
  8
Обводка_Top
  10
7.1101
  20
50.3202
  42
0
  0
VERTEX
  8
Обводка_Top
  10
6.8605
  20
50.33
  42
0
  0
VERTEX
  8
Обводка_Top
  10
1.27
  20
50.33
  42
0
  0
VERTEX
  8
Обводка_Top
  10
1.1449
  20
50.3202
  42
0
  0
VERTEX
  8
Обводка_Top
  10
1.0228
  20
50.2908
  42
0
  0
VERTEX
  8
Обводка_Top
  10
0.9068
  20
50.2428
  42
0
  0
VERTEX
  8
Обводка_Top
  10
0.7998
  20
50.1772
  42
0
  0
VERTEX
  8
Обводка_Top
  10
0.7043
  20
50.0957
  42
0
  0
VERTEX
  8
Обводка_Top
  10
0.6228
  20
50.0002
  42
0
  0
VERTEX
  8
Обводка_Top
  10
0.5572
  20
49.8932
  42
0
  0
VERTEX
  8
Обводка_Top
  10
0.5092
  20
49.7772
  42
0
  0
VERTEX
  8
Обводка_Top
  10
0.4798
  20
49.6551
  42
0
  0
VERTEX
  8
Обводка_Top
  10
0.47
  20
49.53
  42
0
  0
VERTEX
  8
Обводка_Top
  10
0.4798
  20
49.4049
  42
0
  0
VERTEX
  8
Обводка_Top
  10
0.5092
  20
49.2828
  42
0
  0
VERTEX
  8
Обводка_Top
  10
0.5572
  20
49.1668
  42
0
  0
VERTEX
  8
Обводка_Top
  10
0.6228
  20
49.0598
  42
0
  0
VERTEX
  8
Обводка_Top
  10
0.7043
  20
48.9643
  42
0
  0
VERTEX
  8
Обводка_Top
  10
0.7998
  20
48.8828
  42
0
  0
VERTEX
  8
Обводка_Top
  10
0.9068
  20
48.8172
  42
0
  0
VERTEX
  8
Обводка_Top
  10
1.0228
  20
48.7692
  42
0
  0
VERTEX
  8
Обводка_Top
  10
1.1449
  20
48.7398
  42
0
  0
VERTEX
  8
Обводка_Top
  10
1.3945
  20
48.73
  42
0
  0
VERTEX
  8
Обводка_Top
  10
6.6542
  20
48.7295
  42
0
  0
VERTEX
  8
Обводка_Top
  10
9.5943
  20
45.7893
  42
0
  0
VERTEX
  8
Обводка_Top
  10
9.6898
  20
45.7078
  42
0
  0
VERTEX
  8
Обводка_Top
  10
9.7968
  20
45.6422
  42
0
  0
VERTEX
  8
Обводка_Top
  10
9.9128
  20
45.5942
  42
0
  0
VERTEX
  8
Обводка_Top
  10
10.0349
  20
45.5648
  42
0
  0
VERTEX
  8
Обводка_Top
  10
10.231
  20
45.555
  42
0
  0
VERTEX
  8
Обводка_Top
  10
36.83
  20
45.555
  42
0
  0
VERTEX
  8
Обводка_Top
  10
36.9551
  20
45.5648
  42
0
  0
VERTEX
  8
Обводка_Top
  10
37.0772
  20
45.5942
  42
0
  0
VERTEX
  8
Обводка_Top
  10
37.1932
  20
45.6422
  42
0
  0
VERTEX
  8
Обводка_Top
  10
37.3002
  20
45.7078
  42
0
  0
VERTEX
  8
Обводка_Top
  10
37.5265
  20
45.9202
  42
0
  0
VERTEX
  8
Обводка_Top
  10
43.7457
  20
52.1393
  42
0
  0
VERTEX
  8
Обводка_Top
  10
43.8636
  20
52.29
  42
0
  0
VERTEX
  8
Обводка_Top
  10
44.173
  20
52.29
  42
0
  0
VERTEX
  8
Обводка_Top
  10
44.23
  20
52.3466
  42
0
  0
SEQEND
  0
POLYLINE
  8
Обводка_Top
  6
CONTINUOUS
  66
1
  70
0
  40
0.6
  41
0.6
  0
VERTEX
  8
Обводка_Top
  10
41.69
  20
52.39
  42
0
  0
VERTEX
  8
Обводка_Top
  10
41.69
  20
54.39
  42
0
  0
VERTEX
  8
Обводка_Top
  10
39.59
  20
54.39
  42
0
  0
VERTEX
  8
Обводка_Top
  10
39.5866
  20
52.783
  42
0
  0
VERTEX
  8
Обводка_Top
  10
39.15
  20
52.3466
  42
0
  0
VERTEX
  8
Обводка_Top
  10
39.15
  20
54.39
  42
0
  0
VERTEX
  8
Обводка_Top
  10
37.05
  20
54.39
  42
0
  0
VERTEX
  8
Обводка_Top
  10
37.0498
  20
53.0025
  42
0
  0
VERTEX
  8
Обводка_Top
  10
35.0119
  20
50.965
  42
0
  0
VERTEX
  8
Обводка_Top
  10
13.0315
  20
50.9648
  42
0
  0
VERTEX
  8
Обводка_Top
  10
8.8207
  20
55.1757
  42
0
  0
VERTEX
  8
Обводка_Top
  10
8.7252
  20
55.2572
  42
0
  0
VERTEX
  8
Обводка_Top
  10
8.6182
  20
55.3228
  42
0
  0
VERTEX
  8
Обводка_Top
  10
8.5022
  20
55.3708
  42
0
  0
VERTEX
  8
Обводка_Top
  10
8.3801
  20
55.4002
  42
0
  0
VERTEX
  8
Обводка_Top
  10
8.064
  20
55.41
  42
0
  0
VERTEX
  8
Обводка_Top
  10
1.27
  20
55.41
  42
0
  0
VERTEX
  8
Обводка_Top
  10
1.1449
  20
55.4002
  42
0
  0
VERTEX
  8
Обводка_Top
  10
1.0228
  20
55.3708
  42
0
  0
VERTEX
  8
Обводка_Top
  10
0.9068
  20
55.3228
  42
0
  0
VERTEX
  8
Обводка_Top
  10
0.7998
  20
55.2572
  42
0
  0
VERTEX
  8
Обводка_Top
  10
0.7043
  20
55.1757
  42
0
  0
VERTEX
  8
Обводка_Top
  10
0.6228
  20
55.0802
  42
0
  0
VERTEX
  8
Обводка_Top
  10
0.5572
  20
54.9732
  42
0
  0
VERTEX
  8
Обводка_Top
  10
0.5092
  20
54.8572
  42
0
  0
VERTEX
  8
Обводка_Top
  10
0.4798
  20
54.7351
  42
0
  0
VERTEX
  8
Обводка_Top
  10
0.47
  20
54.61
  42
0
  0
VERTEX
  8
Обводка_Top
  10
0.4798
  20
54.4849
  42
0
  0
VERTEX
  8
Обводка_Top
  10
0.5092
  20
54.3628
  42
0
  0
VERTEX
  8
Обводка_Top
  10
0.5572
  20
54.2468
  42
0
  0
VERTEX
  8
Обводка_Top
  10
0.6228
  20
54.1398
  42
0
  0
VERTEX
  8
Обводка_Top
  10
0.7043
  20
54.0443
  42
0
  0
VERTEX
  8
Обводка_Top
  10
0.7998
  20
53.9628
  42
0
  0
VERTEX
  8
Обводка_Top
  10
0.9068
  20
53.8972
  42
0
  0
VERTEX
  8
Обводка_Top
  10
1.0228
  20
53.8492
  42
0
  0
VERTEX
  8
Обводка_Top
  10
1.1449
  20
53.8198
  42
0
  0
VERTEX
  8
Обводка_Top
  10
1.461
  20
53.81
  42
0
  0
VERTEX
  8
Обводка_Top
  10
7.9235
  20
53.8102
  42
0
  0
VERTEX
  8
Обводка_Top
  10
12.1343
  20
49.5993
  42
0
  0
VERTEX
  8
Обводка_Top
  10
12.2298
  20
49.5178
  42
0
  0
VERTEX
  8
Обводка_Top
  10
12.3368
  20
49.4522
  42
0
  0
VERTEX
  8
Обводка_Top
  10
12.4528
  20
49.4042
  42
0
  0
VERTEX
  8
Обводка_Top
  10
12.5749
  20
49.3748
  42
0
  0
VERTEX
  8
Обводка_Top
  10
12.745
  20
49.365
  42
0
  0
VERTEX
  8
Обводка_Top
  10
35.3437
  20
49.365
  42
0
  0
VERTEX
  8
Обводка_Top
  10
35.4688
  20
49.3748
  42
0
  0
VERTEX
  8
Обводка_Top
  10
35.5909
  20
49.4042
  42
0
  0
VERTEX
  8
Обводка_Top
  10
35.7069
  20
49.4522
  42
0
  0
VERTEX
  8
Обводка_Top
  10
35.8139
  20
49.5178
  42
0
  0
VERTEX
  8
Обводка_Top
  10
35.9823
  20
49.6722
  42
0
  0
VERTEX
  8
Обводка_Top
  10
38.6008
  20
52.29
  42
0
  0
VERTEX
  8
Обводка_Top
  10
39.093
  20
52.29
  42
0
  0
VERTEX
  8
Обводка_Top
  10
35.8633
  20
49.06
  42
0
  0
VERTEX
  8
Обводка_Top
  10
11.7617
  20
49.0597
  42
0
  0
VERTEX
  8
Обводка_Top
  10
8.1857
  20
52.6357
  42
0
  0
VERTEX
  8
Обводка_Top
  10
8.0902
  20
52.7172
  42
0
  0
VERTEX
  8
Обводка_Top
  10
7.9832
  20
52.7828
  42
0
  0
VERTEX
  8
Обводка_Top
  10
7.8672
  20
52.8308
  42
0
  0
VERTEX
  8
Обводка_Top
  10
7.7451
  20
52.8602
  42
0
  0
VERTEX
  8
Обводка_Top
  10
7.4684
  20
52.87
  42
0
  0
VERTEX
  8
Обводка_Top
  10
1.27
  20
52.87
  42
0
  0
VERTEX
  8
Обводка_Top
  10
1.1449
  20
52.8602
  42
0
  0
VERTEX
  8
Обводка_Top
  10
1.0228
  20
52.8308
  42
0
  0
VERTEX
  8
Обводка_Top
  10
0.9068
  20
52.7828
  42
0
  0
VERTEX
  8
Обводка_Top
  10
0.7998
  20
52.7172
  42
0
  0
VERTEX
  8
Обводка_Top
  10
0.7043
  20
52.6357
  42
0
  0
VERTEX
  8
Обводка_Top
  10
0.6228
  20
52.5402
  42
0
  0
VERTEX
  8
Обводка_Top
  10
0.5572
  20
52.4332
  42
0
  0
VERTEX
  8
Обводка_Top
  10
0.5092
  20
52.3172
  42
0
  0
VERTEX
  8
Обводка_Top
  10
0.4798
  20
52.1951
  42
0
  0
VERTEX
  8
Обводка_Top
  10
0.47
  20
52.07
  42
0
  0
VERTEX
  8
Обводка_Top
  10
0.4798
  20
51.9449
  42
0
  0
VERTEX
  8
Обводка_Top
  10
0.5092
  20
51.8228
  42
0
  0
VERTEX
  8
Обводка_Top
  10
0.5572
  20
51.7068
  42
0
  0
VERTEX
  8
Обводка_Top
  10
0.6228
  20
51.5998
  42
0
  0
VERTEX
  8
Обводка_Top
  10
0.7043
  20
51.5043
  42
0
  0
VERTEX
  8
Обводка_Top
  10
0.7998
  20
51.4228
  42
0
  0
VERTEX
  8
Обводка_Top
  10
0.9068
  20
51.3572
  42
0
  0
VERTEX
  8
Обводка_Top
  10
1.0228
  20
51.3092
  42
0
  0
VERTEX
  8
Обводка_Top
  10
1.1449
  20
51.2798
  42
0
  0
VERTEX
  8
Обводка_Top
  10
1.4216
  20
51.27
  42
0
  0
VERTEX
  8
Обводка_Top
  10
7.2883
  20
51.2703
  42
0
  0
VERTEX
  8
Обводка_Top
  10
10.8643
  20
47.6943
  42
0
  0
VERTEX
  8
Обводка_Top
  10
10.9598
  20
47.6128
  42
0
  0
VERTEX
  8
Обводка_Top
  10
11.0668
  20
47.5472
  42
0
  0
VERTEX
  8
Обводка_Top
  10
11.1828
  20
47.4992
  42
0
  0
VERTEX
  8
Обводка_Top
  10
11.3049
  20
47.4698
  42
0
  0
VERTEX
  8
Обводка_Top
  10
11.5953
  20
47.46
  42
0
  0
VERTEX
  8
Обводка_Top
  10
36.195
  20
47.46
  42
0
  0
VERTEX
  8
Обводка_Top
  10
36.3201
  20
47.4698
  42
0
  0
VERTEX
  8
Обводка_Top
  10
36.4422
  20
47.4992
  42
0
  0
VERTEX
  8
Обводка_Top
  10
36.5582
  20
47.5472
  42
0
  0
VERTEX
  8
Обводка_Top
  10
36.6652
  20
47.6128
  42
0
  0
VERTEX
  8
Обводка_Top
  10
36.8241
  20
47.7578
  42
0
  0
VERTEX
  8
Обводка_Top
  10
41.2057
  20
52.1393
  42
0
  0
VERTEX
  8
Обводка_Top
  10
41.3236
  20
52.29
  42
0
  0
VERTEX
  8
Обводка_Top
  10
41.633
  20
52.29
  42
0
  0
VERTEX
  8
Обводка_Top
  10
41.69
  20
52.39
  42
0
  0
SEQEND
  0
POLYLINE
  8
Обводка_Top
  6
CONTINUOUS
  66
1
  70
0
  40
0.6
  41
0.6
  0
VERTEX
  8
Обводка_Top
  10
29.63
  20
6.13
  42
0
  0
VERTEX
  8
Обводка_Top
  10
31.53
  20
6.13
  42
0
  0
VERTEX
  8
Обводка_Top
  10
31.53
  20
4.03
  42
0
  0
VERTEX
  8
Обводка_Top
  10
29.43
  20
4.03
  42
0
  0
VERTEX
  8
Обводка_Top
  10
29.43
  20
6.13
  42
0
  0
VERTEX
  8
Обводка_Top
  10
29.63
  20
6.13
  42
0
  0
SEQEND
  0
POLYLINE
  8
Обводка_Top
  6
CONTINUOUS
  66
1
  70
0
  40
0.6
  41
0.6
  0
VERTEX
  8
Обводка_Top
  10
57.57
  20
6.13
  42
0
  0
VERTEX
  8
Обводка_Top
  10
57.6192
  20
6.13
  42
0
  0
VERTEX
  8
Обводка_Top
  10
57.62
  20
12.3688
  42
0
  0
VERTEX
  8
Обводка_Top
  10
46.6581
  20
23.3305
  42
0
  0
VERTEX
  8
Обводка_Top
  10
1.27
  20
23.33
  42
0
  0
VERTEX
  8
Обводка_Top
  10
1.1449
  20
23.3398
  42
0
  0
VERTEX
  8
Обводка_Top
  10
1.0228
  20
23.3692
  42
0
  0
VERTEX
  8
Обводка_Top
  10
0.9068
  20
23.4172
  42
0
  0
VERTEX
  8
Обводка_Top
  10
0.7998
  20
23.4828
  42
0
  0
VERTEX
  8
Обводка_Top
  10
0.7043
  20
23.5643
  42
0
  0
VERTEX
  8
Обводка_Top
  10
0.6228
  20
23.6598
  42
0
  0
VERTEX
  8
Обводка_Top
  10
0.5572
  20
23.7668
  42
0
  0
VERTEX
  8
Обводка_Top
  10
0.5092
  20
23.8828
  42
0
  0
VERTEX
  8
Обводка_Top
  10
0.4798
  20
24.0049
  42
0
  0
VERTEX
  8
Обводка_Top
  10
0.47
  20
24.13
  42
0
  0
VERTEX
  8
Обводка_Top
  10
0.4798
  20
24.2551
  42
0
  0
VERTEX
  8
Обводка_Top
  10
0.5092
  20
24.3772
  42
0
  0
VERTEX
  8
Обводка_Top
  10
0.5572
  20
24.4932
  42
0
  0
VERTEX
  8
Обводка_Top
  10
0.6228
  20
24.6002
  42
0
  0
VERTEX
  8
Обводка_Top
  10
0.7043
  20
24.6957
  42
0
  0
VERTEX
  8
Обводка_Top
  10
0.7998
  20
24.7772
  42
0
  0
VERTEX
  8
Обводка_Top
  10
0.9068
  20
24.8428
  42
0
  0
VERTEX
  8
Обводка_Top
  10
1.0228
  20
24.8908
  42
0
  0
VERTEX
  8
Обводка_Top
  10
1.1449
  20
24.9202
  42
0
  0
VERTEX
  8
Обводка_Top
  10
1.4688
  20
24.93
  42
0
  0
VERTEX
  8
Обводка_Top
  10
46.99
  20
24.93
  42
0
  0
VERTEX
  8
Обводка_Top
  10
47.1151
  20
24.9202
  42
0
  0
VERTEX
  8
Обводка_Top
  10
47.2372
  20
24.8908
  42
0
  0
VERTEX
  8
Обводка_Top
  10
47.3532
  20
24.8428
  42
0
  0
VERTEX
  8
Обводка_Top
  10
47.4602
  20
24.7772
  42
0
  0
VERTEX
  8
Обводка_Top
  10
47.6951
  20
24.5563
  42
0
  0
VERTEX
  8
Обводка_Top
  10
58.9857
  20
13.2657
  42
0
  0
VERTEX
  8
Обводка_Top
  10
59.0672
  20
13.1702
  42
0
  0
VERTEX
  8
Обводка_Top
  10
59.1328
  20
13.0632
  42
0
  0
VERTEX
  8
Обводка_Top
  10
59.1808
  20
12.9472
  42
0
  0
VERTEX
  8
Обводка_Top
  10
59.2102
  20
12.8251
  42
0
  0
VERTEX
  8
Обводка_Top
  10
59.22
  20
12.4995
  42
0
  0
VERTEX
  8
Обводка_Top
  10
59.22
  20
6.1299
  42
0
  0
VERTEX
  8
Обводка_Top
  10
59.47
  20
6.13
  42
0
  0
VERTEX
  8
Обводка_Top
  10
59.47
  20
4.03
  42
0
  0
VERTEX
  8
Обводка_Top
  10
57.37
  20
4.03
  42
0
  0
VERTEX
  8
Обводка_Top
  10
57.37
  20
6.13
  42
0
  0
VERTEX
  8
Обводка_Top
  10
57.57
  20
6.13
  42
0
  0
SEQEND
  0
POLYLINE
  8
Обводка_Top
  6
CONTINUOUS
  66
1
  70
0
  40
0.6
  41
0.6
  0
VERTEX
  8
Обводка_Top
  10
60.11
  20
6.13
  42
0
  0
VERTEX
  8
Обводка_Top
  10
62.01
  20
6.13
  42
0
  0
VERTEX
  8
Обводка_Top
  10
62.01
  20
4.03
  42
0
  0
VERTEX
  8
Обводка_Top
  10
59.91
  20
4.03
  42
0
  0
VERTEX
  8
Обводка_Top
  10
59.91
  20
6.13
  42
0
  0
VERTEX
  8
Обводка_Top
  10
60.11
  20
6.13
  42
0
  0
SEQEND
  0
POLYLINE
  8
Обводка_Top
  6
CONTINUOUS
  66
1
  70
0
  40
0.6
  41
0.6
  0
VERTEX
  8
Обводка_Top
  10
24.55
  20
3.59
  42
0
  0
VERTEX
  8
Обводка_Top
  10
26.45
  20
3.59
  42
0
  0
VERTEX
  8
Обводка_Top
  10
26.45
  20
1.49
  42
0
  0
VERTEX
  8
Обводка_Top
  10
24.35
  20
1.49
  42
0
  0
VERTEX
  8
Обводка_Top
  10
24.35
  20
1.7408
  42
0
  0
VERTEX
  8
Обводка_Top
  10
12.7
  20
1.74
  42
0
  0
VERTEX
  8
Обводка_Top
  10
12.5749
  20
1.7498
  42
0
  0
VERTEX
  8
Обводка_Top
  10
12.4528
  20
1.7792
  42
0
  0
VERTEX
  8
Обводка_Top
  10
12.3368
  20
1.8272
  42
0
  0
VERTEX
  8
Обводка_Top
  10
12.2298
  20
1.8928
  42
0
  0
VERTEX
  8
Обводка_Top
  10
11.9982
  20
2.1104
  42
0
  0
VERTEX
  8
Обводка_Top
  10
8.5583
  20
5.5503
  42
0
  0
VERTEX
  8
Обводка_Top
  10
1.27
  20
5.55
  42
0
  0
VERTEX
  8
Обводка_Top
  10
1.1449
  20
5.5598
  42
0
  0
VERTEX
  8
Обводка_Top
  10
1.0228
  20
5.5892
  42
0
  0
VERTEX
  8
Обводка_Top
  10
0.9068
  20
5.6372
  42
0
  0
VERTEX
  8
Обводка_Top
  10
0.7998
  20
5.7028
  42
0
  0
VERTEX
  8
Обводка_Top
  10
0.7043
  20
5.7843
  42
0
  0
VERTEX
  8
Обводка_Top
  10
0.6228
  20
5.8798
  42
0
  0
VERTEX
  8
Обводка_Top
  10
0.5572
  20
5.9868
  42
0
  0
VERTEX
  8
Обводка_Top
  10
0.5092
  20
6.1028
  42
0
  0
VERTEX
  8
Обводка_Top
  10
0.4798
  20
6.2249
  42
0
  0
VERTEX
  8
Обводка_Top
  10
0.47
  20
6.35
  42
0
  0
VERTEX
  8
Обводка_Top
  10
0.4798
  20
6.4751
  42
0
  0
VERTEX
  8
Обводка_Top
  10
0.5092
  20
6.5972
  42
0
  0
VERTEX
  8
Обводка_Top
  10
0.5572
  20
6.7132
  42
0
  0
VERTEX
  8
Обводка_Top
  10
0.6228
  20
6.8202
  42
0
  0
VERTEX
  8
Обводка_Top
  10
0.7043
  20
6.9157
  42
0
  0
VERTEX
  8
Обводка_Top
  10
0.7998
  20
6.9972
  42
0
  0
VERTEX
  8
Обводка_Top
  10
0.9068
  20
7.0628
  42
0
  0
VERTEX
  8
Обводка_Top
  10
1.0228
  20
7.1108
  42
0
  0
VERTEX
  8
Обводка_Top
  10
1.1449
  20
7.1402
  42
0
  0
VERTEX
  8
Обводка_Top
  10
1.4705
  20
7.15
  42
0
  0
VERTEX
  8
Обводка_Top
  10
8.89
  20
7.15
  42
0
  0
VERTEX
  8
Обводка_Top
  10
9.0151
  20
7.1402
  42
0
  0
VERTEX
  8
Обводка_Top
  10
9.1372
  20
7.1108
  42
0
  0
VERTEX
  8
Обводка_Top
  10
9.2532
  20
7.0628
  42
0
  0
VERTEX
  8
Обводка_Top
  10
9.3602
  20
6.9972
  42
0
  0
VERTEX
  8
Обводка_Top
  10
9.5918
  20
6.7796
  42
0
  0
VERTEX
  8
Обводка_Top
  10
13.0317
  20
3.3397
  42
0
  0
VERTEX
  8
Обводка_Top
  10
24.3508
  20
3.34
  42
0
  0
VERTEX
  8
Обводка_Top
  10
24.35
  20
3.59
  42
0
  0
VERTEX
  8
Обводка_Top
  10
24.55
  20
3.59
  42
0
  0
SEQEND
  0
POLYLINE
  8
Обводка_Top
  6
CONTINUOUS
  66
1
  70
0
  40
0.6
  41
0.6
  0
VERTEX
  8
Обводка_Top
  10
14.39
  20
6.13
  42
0
  0
VERTEX
  8
Обводка_Top
  10
16.29
  20
6.13
  42
0
  0
VERTEX
  8
Обводка_Top
  10
16.29
  20
4.03
  42
0
  0
VERTEX
  8
Обводка_Top
  10
14.19
  20
4.03
  42
0
  0
VERTEX
  8
Обводка_Top
  10
14.19
  20
6.13
  42
0
  0
VERTEX
  8
Обводка_Top
  10
14.39
  20
6.13
  42
0
  0
SEQEND
  0
POLYLINE
  8
Обводка_Top
  6
CONTINUOUS
  66
1
  70
0
  40
0.6
  41
0.6
  0
VERTEX
  8
Обводка_Top
  10
16.93
  20
6.13
  42
0
  0
VERTEX
  8
Обводка_Top
  10
18.83
  20
6.13
  42
0
  0
VERTEX
  8
Обводка_Top
  10
18.83
  20
4.03
  42
0
  0
VERTEX
  8
Обводка_Top
  10
16.73
  20
4.03
  42
0
  0
VERTEX
  8
Обводка_Top
  10
16.73
  20
6.13
  42
0
  0
VERTEX
  8
Обводка_Top
  10
16.93
  20
6.13
  42
0
  0
SEQEND
  0
POLYLINE
  8
Обводка_Top
  6
CONTINUOUS
  66
1
  70
0
  40
0.6
  41
0.6
  0
VERTEX
  8
Обводка_Top
  10
57.57
  20
35.34
  42
0
  0
VERTEX
  8
Обводка_Top
  10
59.47
  20
35.34
  42
0
  0
VERTEX
  8
Обводка_Top
  10
59.47
  20
33.24
  42
0
  0
VERTEX
  8
Обводка_Top
  10
57.37
  20
33.24
  42
0
  0
VERTEX
  8
Обводка_Top
  10
57.37
  20
33.4908
  42
0
  0
VERTEX
  8
Обводка_Top
  10
1.27
  20
33.49
  42
0
  0
VERTEX
  8
Обводка_Top
  10
1.1449
  20
33.4998
  42
0
  0
VERTEX
  8
Обводка_Top
  10
1.0228
  20
33.5292
  42
0
  0
VERTEX
  8
Обводка_Top
  10
0.9068
  20
33.5772
  42
0
  0
VERTEX
  8
Обводка_Top
  10
0.7998
  20
33.6428
  42
0
  0
VERTEX
  8
Обводка_Top
  10
0.7043
  20
33.7243
  42
0
  0
VERTEX
  8
Обводка_Top
  10
0.6228
  20
33.8198
  42
0
  0
VERTEX
  8
Обводка_Top
  10
0.5572
  20
33.9268
  42
0
  0
VERTEX
  8
Обводка_Top
  10
0.5092
  20
34.0428
  42
0
  0
VERTEX
  8
Обводка_Top
  10
0.4798
  20
34.1649
  42
0
  0
VERTEX
  8
Обводка_Top
  10
0.47
  20
34.29
  42
0
  0
VERTEX
  8
Обводка_Top
  10
0.4798
  20
34.4151
  42
0
  0
VERTEX
  8
Обводка_Top
  10
0.5092
  20
34.5372
  42
0
  0
VERTEX
  8
Обводка_Top
  10
0.5572
  20
34.6532
  42
0
  0
VERTEX
  8
Обводка_Top
  10
0.6228
  20
34.7602
  42
0
  0
VERTEX
  8
Обводка_Top
  10
0.7043
  20
34.8557
  42
0
  0
VERTEX
  8
Обводка_Top
  10
0.7998
  20
34.9372
  42
0
  0
VERTEX
  8
Обводка_Top
  10
0.9068
  20
35.0028
  42
0
  0
VERTEX
  8
Обводка_Top
  10
1.0228
  20
35.0508
  42
0
  0
VERTEX
  8
Обводка_Top
  10
1.1449
  20
35.0802
  42
0
  0
VERTEX
  8
Обводка_Top
  10
1.4698
  20
35.09
  42
0
  0
VERTEX
  8
Обводка_Top
  10
57.3706
  20
35.09
  42
0
  0
VERTEX
  8
Обводка_Top
  10
57.37
  20
35.34
  42
0
  0
VERTEX
  8
Обводка_Top
  10
57.57
  20
35.34
  42
0
  0
SEQEND
  0
POLYLINE
  8
Обводка_Top
  6
CONTINUOUS
  66
1
  70
0
  40
0.6
  41
0.6
  0
VERTEX
  8
Обводка_Top
  10
57.57
  20
32.8
  42
0
  0
VERTEX
  8
Обводка_Top
  10
59.47
  20
32.8
  42
0
  0
VERTEX
  8
Обводка_Top
  10
59.47
  20
30.7
  42
0
  0
VERTEX
  8
Обводка_Top
  10
57.37
  20
30.7
  42
0
  0
VERTEX
  8
Обводка_Top
  10
57.37
  20
30.9508
  42
0
  0
VERTEX
  8
Обводка_Top
  10
1.27
  20
30.95
  42
0
  0
VERTEX
  8
Обводка_Top
  10
1.1449
  20
30.9598
  42
0
  0
VERTEX
  8
Обводка_Top
  10
1.0228
  20
30.9892
  42
0
  0
VERTEX
  8
Обводка_Top
  10
0.9068
  20
31.0372
  42
0
  0
VERTEX
  8
Обводка_Top
  10
0.7998
  20
31.1028
  42
0
  0
VERTEX
  8
Обводка_Top
  10
0.7043
  20
31.1843
  42
0
  0
VERTEX
  8
Обводка_Top
  10
0.6228
  20
31.2798
  42
0
  0
VERTEX
  8
Обводка_Top
  10
0.5572
  20
31.3868
  42
0
  0
VERTEX
  8
Обводка_Top
  10
0.5092
  20
31.5028
  42
0
  0
VERTEX
  8
Обводка_Top
  10
0.4798
  20
31.6249
  42
0
  0
VERTEX
  8
Обводка_Top
  10
0.47
  20
31.75
  42
0
  0
VERTEX
  8
Обводка_Top
  10
0.4798
  20
31.8751
  42
0
  0
VERTEX
  8
Обводка_Top
  10
0.5092
  20
31.9972
  42
0
  0
VERTEX
  8
Обводка_Top
  10
0.5572
  20
32.1132
  42
0
  0
VERTEX
  8
Обводка_Top
  10
0.6228
  20
32.2202
  42
0
  0
VERTEX
  8
Обводка_Top
  10
0.7043
  20
32.3157
  42
0
  0
VERTEX
  8
Обводка_Top
  10
0.7998
  20
32.3972
  42
0
  0
VERTEX
  8
Обводка_Top
  10
0.9068
  20
32.4628
  42
0
  0
VERTEX
  8
Обводка_Top
  10
1.0228
  20
32.5108
  42
0
  0
VERTEX
  8
Обводка_Top
  10
1.1449
  20
32.5402
  42
0
  0
VERTEX
  8
Обводка_Top
  10
1.4698
  20
32.55
  42
0
  0
VERTEX
  8
Обводка_Top
  10
57.3706
  20
32.55
  42
0
  0
VERTEX
  8
Обводка_Top
  10
57.37
  20
32.8
  42
0
  0
VERTEX
  8
Обводка_Top
  10
57.57
  20
32.8
  42
0
  0
SEQEND
  0
POLYLINE
  8
Обводка_Top
  6
CONTINUOUS
  66
1
  70
0
  40
0.6
  41
0.6
  0
VERTEX
  8
Обводка_Top
  10
57.57
  20
30.26
  42
0
  0
VERTEX
  8
Обводка_Top
  10
59.47
  20
30.26
  42
0
  0
VERTEX
  8
Обводка_Top
  10
59.47
  20
28.16
  42
0
  0
VERTEX
  8
Обводка_Top
  10
57.37
  20
28.16
  42
0
  0
VERTEX
  8
Обводка_Top
  10
57.37
  20
28.4108
  42
0
  0
VERTEX
  8
Обводка_Top
  10
1.27
  20
28.41
  42
0
  0
VERTEX
  8
Обводка_Top
  10
1.1449
  20
28.4198
  42
0
  0
VERTEX
  8
Обводка_Top
  10
1.0228
  20
28.4492
  42
0
  0
VERTEX
  8
Обводка_Top
  10
0.9068
  20
28.4972
  42
0
  0
VERTEX
  8
Обводка_Top
  10
0.7998
  20
28.5628
  42
0
  0
VERTEX
  8
Обводка_Top
  10
0.7043
  20
28.6443
  42
0
  0
VERTEX
  8
Обводка_Top
  10
0.6228
  20
28.7398
  42
0
  0
VERTEX
  8
Обводка_Top
  10
0.5572
  20
28.8468
  42
0
  0
VERTEX
  8
Обводка_Top
  10
0.5092
  20
28.9628
  42
0
  0
VERTEX
  8
Обводка_Top
  10
0.4798
  20
29.0849
  42
0
  0
VERTEX
  8
Обводка_Top
  10
0.47
  20
29.21
  42
0
  0
VERTEX
  8
Обводка_Top
  10
0.4798
  20
29.3351
  42
0
  0
VERTEX
  8
Обводка_Top
  10
0.5092
  20
29.4572
  42
0
  0
VERTEX
  8
Обводка_Top
  10
0.5572
  20
29.5732
  42
0
  0
VERTEX
  8
Обводка_Top
  10
0.6228
  20
29.6802
  42
0
  0
VERTEX
  8
Обводка_Top
  10
0.7043
  20
29.7757
  42
0
  0
VERTEX
  8
Обводка_Top
  10
0.7998
  20
29.8572
  42
0
  0
VERTEX
  8
Обводка_Top
  10
0.9068
  20
29.9228
  42
0
  0
VERTEX
  8
Обводка_Top
  10
1.0228
  20
29.9708
  42
0
  0
VERTEX
  8
Обводка_Top
  10
1.1449
  20
30.0002
  42
0
  0
VERTEX
  8
Обводка_Top
  10
1.4698
  20
30.01
  42
0
  0
VERTEX
  8
Обводка_Top
  10
57.3706
  20
30.01
  42
0
  0
VERTEX
  8
Обводка_Top
  10
57.37
  20
30.26
  42
0
  0
VERTEX
  8
Обводка_Top
  10
57.57
  20
30.26
  42
0
  0
SEQEND
  0
POLYLINE
  8
Обводка_Top
  6
CONTINUOUS
  66
1
  70
0
  40
0.6
  41
0.6
  0
VERTEX
  8
Обводка_Top
  10
57.57
  20
27.72
  42
0
  0
VERTEX
  8
Обводка_Top
  10
59.47
  20
27.72
  42
0
  0
VERTEX
  8
Обводка_Top
  10
59.47
  20
25.62
  42
0
  0
VERTEX
  8
Обводка_Top
  10
57.37
  20
25.62
  42
0
  0
VERTEX
  8
Обводка_Top
  10
57.37
  20
25.8708
  42
0
  0
VERTEX
  8
Обводка_Top
  10
1.27
  20
25.87
  42
0
  0
VERTEX
  8
Обводка_Top
  10
1.1449
  20
25.8798
  42
0
  0
VERTEX
  8
Обводка_Top
  10
1.0228
  20
25.9092
  42
0
  0
VERTEX
  8
Обводка_Top
  10
0.9068
  20
25.9572
  42
0
  0
VERTEX
  8
Обводка_Top
  10
0.7998
  20
26.0228
  42
0
  0
VERTEX
  8
Обводка_Top
  10
0.7043
  20
26.1043
  42
0
  0
VERTEX
  8
Обводка_Top
  10
0.6228
  20
26.1998
  42
0
  0
VERTEX
  8
Обводка_Top
  10
0.5572
  20
26.3068
  42
0
  0
VERTEX
  8
Обводка_Top
  10
0.5092
  20
26.4228
  42
0
  0
VERTEX
  8
Обводка_Top
  10
0.4798
  20
26.5449
  42
0
  0
VERTEX
  8
Обводка_Top
  10
0.47
  20
26.67
  42
0
  0
VERTEX
  8
Обводка_Top
  10
0.4798
  20
26.7951
  42
0
  0
VERTEX
  8
Обводка_Top
  10
0.5092
  20
26.9172
  42
0
  0
VERTEX
  8
Обводка_Top
  10
0.5572
  20
27.0332
  42
0
  0
VERTEX
  8
Обводка_Top
  10
0.6228
  20
27.1402
  42
0
  0
VERTEX
  8
Обводка_Top
  10
0.7043
  20
27.2357
  42
0
  0
VERTEX
  8
Обводка_Top
  10
0.7998
  20
27.3172
  42
0
  0
VERTEX
  8
Обводка_Top
  10
0.9068
  20
27.3828
  42
0
  0
VERTEX
  8
Обводка_Top
  10
1.0228
  20
27.4308
  42
0
  0
VERTEX
  8
Обводка_Top
  10
1.1449
  20
27.4602
  42
0
  0
VERTEX
  8
Обводка_Top
  10
1.4698
  20
27.47
  42
0
  0
VERTEX
  8
Обводка_Top
  10
57.3706
  20
27.47
  42
0
  0
VERTEX
  8
Обводка_Top
  10
57.37
  20
27.72
  42
0
  0
VERTEX
  8
Обводка_Top
  10
57.57
  20
27.72
  42
0
  0
SEQEND
  0
POLYLINE
  8
Обводка_Top
  6
CONTINUOUS
  66
1
  70
0
  40
0.6
  41
0.6
  0
VERTEX
  8
Обводка_Top
  10
46.5192
  20
6.13
  42
0
  0
VERTEX
  8
Обводка_Top
  10
46.77
  20
6.13
  42
0
  0
VERTEX
  8
Обводка_Top
  10
46.77
  20
4.03
  42
0
  0
VERTEX
  8
Обводка_Top
  10
44.67
  20
4.03
  42
0
  0
VERTEX
  8
Обводка_Top
  10
44.67
  20
6.13
  42
0
  0
VERTEX
  8
Обводка_Top
  10
44.8083
  20
6.13
  42
0
  0
VERTEX
  8
Обводка_Top
  10
40.3082
  20
10.6304
  42
0
  0
VERTEX
  8
Обводка_Top
  10
1.27
  20
10.63
  42
0
  0
VERTEX
  8
Обводка_Top
  10
1.1449
  20
10.6398
  42
0
  0
VERTEX
  8
Обводка_Top
  10
1.0228
  20
10.6692
  42
0
  0
VERTEX
  8
Обводка_Top
  10
0.9068
  20
10.7172
  42
0
  0
VERTEX
  8
Обводка_Top
  10
0.7998
  20
10.7828
  42
0
  0
VERTEX
  8
Обводка_Top
  10
0.7043
  20
10.8643
  42
0
  0
VERTEX
  8
Обводка_Top
  10
0.6228
  20
10.9598
  42
0
  0
VERTEX
  8
Обводка_Top
  10
0.5572
  20
11.0668
  42
0
  0
VERTEX
  8
Обводка_Top
  10
0.5092
  20
11.1828
  42
0
  0
VERTEX
  8
Обводка_Top
  10
0.4798
  20
11.3049
  42
0
  0
VERTEX
  8
Обводка_Top
  10
0.47
  20
11.43
  42
0
  0
VERTEX
  8
Обводка_Top
  10
0.4798
  20
11.5551
  42
0
  0
VERTEX
  8
Обводка_Top
  10
0.5092
  20
11.6772
  42
0
  0
VERTEX
  8
Обводка_Top
  10
0.5572
  20
11.7932
  42
0
  0
VERTEX
  8
Обводка_Top
  10
0.6228
  20
11.9002
  42
0
  0
VERTEX
  8
Обводка_Top
  10
0.7043
  20
11.9957
  42
0
  0
VERTEX
  8
Обводка_Top
  10
0.7998
  20
12.0772
  42
0
  0
VERTEX
  8
Обводка_Top
  10
0.9068
  20
12.1428
  42
0
  0
VERTEX
  8
Обводка_Top
  10
1.0228
  20
12.1908
  42
0
  0
VERTEX
  8
Обводка_Top
  10
1.1449
  20
12.2202
  42
0
  0
VERTEX
  8
Обводка_Top
  10
1.4688
  20
12.23
  42
0
  0
VERTEX
  8
Обводка_Top
  10
40.64
  20
12.23
  42
0
  0
VERTEX
  8
Обводка_Top
  10
40.7651
  20
12.2202
  42
0
  0
VERTEX
  8
Обводка_Top
  10
40.8872
  20
12.1908
  42
0
  0
VERTEX
  8
Обводка_Top
  10
41.0032
  20
12.1428
  42
0
  0
VERTEX
  8
Обводка_Top
  10
41.1102
  20
12.0772
  42
0
  0
VERTEX
  8
Обводка_Top
  10
41.3468
  20
11.8546
  42
0
  0
VERTEX
  8
Обводка_Top
  10
46.2857
  20
6.9157
  42
0
  0
VERTEX
  8
Обводка_Top
  10
46.3672
  20
6.8202
  42
0
  0
VERTEX
  8
Обводка_Top
  10
46.4328
  20
6.7132
  42
0
  0
VERTEX
  8
Обводка_Top
  10
46.4808
  20
6.5972
  42
0
  0
VERTEX
  8
Обводка_Top
  10
46.5102
  20
6.4751
  42
0
  0
VERTEX
  8
Обводка_Top
  10
46.52
  20
6.1297
  42
0
  0
VERTEX
  8
Обводка_Top
  10
46.5192
  20
6.13
  42
0
  0
SEQEND
  0
POLYLINE
  8
Обводка_Top
  6
CONTINUOUS
  66
1
  70
0
  40
0.6
  41
0.6
  0
VERTEX
  8
Обводка_Top
  10
54.14
  20
6.1295
  42
0
  0
VERTEX
  8
Обводка_Top
  10
54.14
  20
10.16
  42
0
  0
VERTEX
  8
Обводка_Top
  10
54.1302
  20
10.2851
  42
0
  0
VERTEX
  8
Обводка_Top
  10
54.1008
  20
10.4072
  42
0
  0
VERTEX
  8
Обводка_Top
  10
54.0528
  20
10.5232
  42
0
  0
VERTEX
  8
Обводка_Top
  10
53.9872
  20
10.6302
  42
0
  0
VERTEX
  8
Обводка_Top
  10
53.7813
  20
10.8501
  42
0
  0
VERTEX
  8
Обводка_Top
  10
45.0157
  20
19.6157
  42
0
  0
VERTEX
  8
Обводка_Top
  10
44.9202
  20
19.6972
  42
0
  0
VERTEX
  8
Обводка_Top
  10
44.8132
  20
19.7628
  42
0
  0
VERTEX
  8
Обводка_Top
  10
44.6972
  20
19.8108
  42
0
  0
VERTEX
  8
Обводка_Top
  10
44.5751
  20
19.8402
  42
0
  0
VERTEX
  8
Обводка_Top
  10
44.2699
  20
19.85
  42
0
  0
VERTEX
  8
Обводка_Top
  10
1.27
  20
19.85
  42
0
  0
VERTEX
  8
Обводка_Top
  10
1.1449
  20
19.8402
  42
0
  0
VERTEX
  8
Обводка_Top
  10
1.0228
  20
19.8108
  42
0
  0
VERTEX
  8
Обводка_Top
  10
0.9068
  20
19.7628
  42
0
  0
VERTEX
  8
Обводка_Top
  10
0.7998
  20
19.6972
  42
0
  0
VERTEX
  8
Обводка_Top
  10
0.7043
  20
19.6157
  42
0
  0
VERTEX
  8
Обводка_Top
  10
0.6228
  20
19.5202
  42
0
  0
VERTEX
  8
Обводка_Top
  10
0.5572
  20
19.4132
  42
0
  0
VERTEX
  8
Обводка_Top
  10
0.5092
  20
19.2972
  42
0
  0
VERTEX
  8
Обводка_Top
  10
0.4798
  20
19.1751
  42
0
  0
VERTEX
  8
Обводка_Top
  10
0.47
  20
19.05
  42
0
  0
VERTEX
  8
Обводка_Top
  10
0.4798
  20
18.9249
  42
0
  0
VERTEX
  8
Обводка_Top
  10
0.5092
  20
18.8028
  42
0
  0
VERTEX
  8
Обводка_Top
  10
0.5572
  20
18.6868
  42
0
  0
VERTEX
  8
Обводка_Top
  10
0.6228
  20
18.5798
  42
0
  0
VERTEX
  8
Обводка_Top
  10
0.7043
  20
18.4843
  42
0
  0
VERTEX
  8
Обводка_Top
  10
0.7998
  20
18.4028
  42
0
  0
VERTEX
  8
Обводка_Top
  10
0.9068
  20
18.3372
  42
0
  0
VERTEX
  8
Обводка_Top
  10
1.0228
  20
18.2892
  42
0
  0
VERTEX
  8
Обводка_Top
  10
1.1449
  20
18.2598
  42
0
  0
VERTEX
  8
Обводка_Top
  10
1.4501
  20
18.25
  42
0
  0
VERTEX
  8
Обводка_Top
  10
44.1186
  20
18.25
  42
0
  0
VERTEX
  8
Обводка_Top
  10
52.54
  20
9.8293
  42
0
  0
VERTEX
  8
Обводка_Top
  10
52.5392
  20
6.13
  42
0
  0
VERTEX
  8
Обводка_Top
  10
52.29
  20
6.13
  42
0
  0
VERTEX
  8
Обводка_Top
  10
52.29
  20
4.03
  42
0
  0
VERTEX
  8
Обводка_Top
  10
54.39
  20
4.03
  42
0
  0
VERTEX
  8
Обводка_Top
  10
54.39
  20
6.13
  42
0
  0
VERTEX
  8
Обводка_Top
  10
54.1408
  20
6.13
  42
0
  0
VERTEX
  8
Обводка_Top
  10
54.14
  20
6.1295
  42
0
  0
SEQEND
  0
ENDSEC
  0
EOF
